<?xml version="1.0" standalone="no"?>
<!DOCTYPE svg PUBLIC "-//W3C//DTD SVG 1.1//EN" "http://www.w3.org/Graphics/SVG/1.1/DTD/svg11.dtd" >
<svg>
<metadata>
Created by FontForge 20120731 at Tue Jul 15 22:13:45 2014
 By Manuel Strehl,,,
Unicode Fonts for Ancient Scripts; George Douros; 2014
</metadata>
<defs>
<font id="Unidings" horiz-adv-x="1000" >
  <font-face 
    font-family="Unidings"
    font-weight="400"
    font-stretch="normal"
    units-per-em="1000"
    panose-1="2 11 6 4 3 5 4 4 2 4"
    ascent="784"
    descent="-216"
    x-height="451"
    cap-height="656"
    bbox="-25 -216 1000 784"
    underline-thickness="9.76562"
    underline-position="-210.938"
    unicode-range="U+0020-F759F"
  />
<missing-glyph horiz-adv-x="562" 
d="M508 0h-453v729h453v-729zM445 62v605h-328v-605h328zM396 480q0 -86 -114 -131l-12 -77h-35l-10 104q99 17 99 92q0 77 -163 76l12 53h4q219 -1 219 -117zM299 172q0 -19 -14 -33t-33 -14t-32.5 14t-13.5 33q0 20 13.5 33.5t32.5 13.5t33 -13.5t14 -33.5z" />
    <glyph glyph-name=".notdef" horiz-adv-x="562" 
d="M508 0h-453v729h453v-729zM445 62v605h-328v-605h328zM396 480q0 -86 -114 -131l-12 -77h-35l-10 104q99 17 99 92q0 77 -163 76l12 53h4q219 -1 219 -117zM299 172q0 -19 -14 -33t-33 -14t-32.5 14t-13.5 33q0 20 13.5 33.5t32.5 13.5t33 -13.5t14 -33.5z" />
    <glyph glyph-name=".null" horiz-adv-x="0" 
 />
    <glyph glyph-name="nonmarkingreturn" horiz-adv-x="125" 
 />
    <glyph glyph-name="space" unicode=" " horiz-adv-x="125" 
 />
    <glyph glyph-name="exclam" unicode="!" horiz-adv-x="239" 
d="M167 656l-11 -472h-73l-11 472h95zM174 48q0 -22 -16 -38t-38 -16t-38.5 16t-16.5 38t16 38.5t39 16.5q22 0 38 -16.5t16 -38.5z" />
    <glyph glyph-name="quotedbl" unicode="&#x22;" horiz-adv-x="379" 
d="M312 628l-18 -234h-53l-17 234h88zM156 628l-18 -234h-53l-17 234h88z" />
    <glyph glyph-name="numbersign" unicode="#" horiz-adv-x="675" 
d="M597 376h-133l-38 -151h124v-55h-137l-43 -170h-52l42 170h-109l-42 -170h-52l42 170h-120v55h134l37 151h-125v55h139l43 170h51l-42 -170h109l43 170h52l-43 -170h120v-55zM412 376h-109l-38 -151h109z" />
    <glyph glyph-name="dollar" unicode="$" horiz-adv-x="541" 
d="M495 207q0 -75 -61 -121q-52 -39 -132 -47v-129h-52v126q-113 1 -198 40v88h7q79 -57 191 -61v191q-92 19 -133 44q-62 39 -62 116q0 74 62 119q53 38 133 45v128h52v-127q90 -2 169 -34v-87h-6q-80 50 -163 56v-191q90 -16 131 -41q62 -39 62 -115zM250 370v183
q-111 -10 -112 -88q0 -46 35 -69q22 -14 77 -26zM411 195q0 45 -34 67q-23 15 -75 25v-184q109 12 109 92z" />
    <glyph glyph-name="percent" unicode="%" horiz-adv-x="800" 
d="M345 536q0 -89 -29 -132q-35 -53 -119 -53t-120 53q-28 43 -28 132q0 88 29 131q35 53 119 54q84 0 119 -53q29 -44 29 -132zM665 721l-462 -786h-66l460 786h68zM751 120q0 -89 -28 -132q-35 -53 -119 -53t-120 53q-28 43 -28 132t28 132q35 53 120 53q84 0 119 -53
q28 -44 28 -132zM277 536q0 64 -9 89q-17 42 -71 42q-50 0 -68 -38q-12 -25 -12 -82q0 -73 7 -95q16 -47 73 -47q54 0 71 42q9 25 9 89zM684 120q0 64 -10 88q-17 42 -70 42q-50 0 -68 -37q-12 -25 -13 -82q0 -73 8 -95q16 -47 73 -47q54 0 70 42q10 25 10 89z" />
    <glyph glyph-name="ampersand" unicode="&#x26;" horiz-adv-x="716" 
d="M731 419q0 -107 -148 -128q17 -35 17 -59q0 -122 -100 -187q-85 -56 -213 -55q-97 0 -170 56q-78 61 -78 156q0 102 100 176q-27 39 -27 80q0 91 76 158q74 63 167 64q72 0 126 -43l-43 -53q-38 27 -83 27q-64 0 -118 -43q-57 -46 -57 -110q0 -24 20 -46q32 12 64 11
q26 0 45.5 -15t19.5 -40q0 -28 -24 -43q-21 -13 -51 -13q-33 0 -64 19q-34 -22 -57 -56q-26 -37 -26 -73q0 -65 59 -107q53 -37 121 -37q98 0 163 37q81 46 81 137q0 18 -12.5 32t-30.5 14t-37 -9q-21 -11 -29 -26l-63 25q22 58 101 73q45 6 135 21q68 12 68 57q0 16 -10 29
l54 43q24 -32 24 -72z" />
    <glyph glyph-name="quotesingle" unicode="'" horiz-adv-x="222" 
d="M222 628l-109 -226h-56l67 226h98z" />
    <glyph glyph-name="parenleft" unicode="(" horiz-adv-x="375" 
d="M316 -158h-92q-150 170 -151 393q0 223 151 393h92v-4q-82 -73 -127 -176t-45 -213t45 -213q45 -104 127 -175v-5z" />
    <glyph glyph-name="parenright" unicode=")" horiz-adv-x="375" 
d="M303 235q0 -223 -151 -393h-92v5q82 73 127 176q45 102 45 212t-45 213t-127 176v4h92q151 -171 151 -393z" />
    <glyph glyph-name="asterisk" unicode="*" horiz-adv-x="525" 
d="M459 504l-26 -44l-146 86l2 -145h-52l2 145l-145 -87l-27 45l154 83l-154 84l27 44l146 -86l-3 145h52l-2 -145l146 86l26 -45l-153 -82z" />
    <glyph glyph-name="plus" unicode="+" horiz-adv-x="675" 
d="M591 231h-221v-221h-64v221h-222v64h222v222h64v-222h221v-64z" />
    <glyph glyph-name="comma" unicode="," horiz-adv-x="300" 
d="M202 115l-114 -264h-59l71 264h102z" />
    <glyph glyph-name="hyphen" unicode="-" horiz-adv-x="500" 
d="M416 231h-332v64h332v-64z" />
    <glyph glyph-name="period" unicode="." horiz-adv-x="300" 
d="M214 58q0 -26 -18.5 -45t-45.5 -19q-26 0 -45 18.5t-19 45.5q0 26 19 45t45 19t45 -19t19 -45z" />
    <glyph glyph-name="slash" unicode="/" horiz-adv-x="375" 
d="M367 628l-289 -786h-70l288 786h71z" />
    <glyph glyph-name="zero" unicode="0" horiz-adv-x="555" 
d="M500 328q0 -150 -38 -229q-53 -112 -186 -113q-132 0 -185 112q-38 79 -38 229t38 230q53 112 185 112q224 0 224 -341zM417 328q0 123 -17 176q-30 99 -124 99q-119 0 -135 -159q-5 -51 -6 -117q0 -94 9 -140q16 -89 64 -119q27 -16 68 -16q83 0 115 73q26 60 26 203z
" />
    <glyph glyph-name="one" unicode="1" horiz-adv-x="555" 
d="M463 0h-348v60h136v452h-136v53q145 1 153 93h61v-598h134v-60z" />
    <glyph glyph-name="two" unicode="2" horiz-adv-x="555" 
d="M500 0h-437v88q131 113 158 138q98 91 137 153q32 51 32 107q0 57 -38 87q-35 27 -94 27q-90 0 -178 -58v87q83 40 181 40q92 0 148 -42q63 -47 64 -136q0 -81 -56 -159q-33 -46 -118 -125q-39 -37 -158 -138h359v-69z" />
    <glyph glyph-name="three" unicode="3" horiz-adv-x="555" 
d="M491 193q0 -99 -70 -155q-64 -52 -164 -52t-191 41v87h2q87 -58 187 -58q70 0 111 36q42 38 42 107q0 82 -59 108q-36 16 -131 16v66h27q64 0 103 25q47 30 47 90q0 96 -131 96q-91 0 -179 -58v87q83 41 181 40q88 0 144 -33q67 -40 67 -123q0 -55 -38 -96.5t-93 -52.5
v-5q145 -24 145 -166z" />
    <glyph glyph-name="four" unicode="4" horiz-adv-x="555" 
d="M515 187h-97v-187h-77v187h-315v97l316 372h76v-406h97v-63zM341 250v305l-259 -305h259z" />
    <glyph glyph-name="five" unicode="5" horiz-adv-x="555" 
d="M495 207q0 -103 -67 -163q-65 -58 -169 -58q-101 0 -184 38v88h2q87 -56 180 -56q73 0 114.5 39.5t41.5 112.5q0 130 -177 130q-55 0 -133 -16v334h388v-71h-310v-184q42 4 77 4q237 0 237 -198z" />
    <glyph glyph-name="six" unicode="6" horiz-adv-x="555" 
d="M510 211q0 -98 -63 -161.5t-161 -63.5q-124 0 -183 94q-50 78 -50 208q0 169 72 268q82 112 246 112q45 0 75 -9v-79q-37 19 -89 19q-102 0 -159 -67q-52 -60 -62 -165q80 49 160 49q99 0 156 -52q58 -54 58 -153zM428 208q0 143 -152 143q-70 -1 -139 -39q-2 -21 -2 -43
q0 -126 54 -179q41 -39 98 -39q70 0 107 45q34 41 34 112z" />
    <glyph glyph-name="seven" unicode="7" horiz-adv-x="555" 
d="M502 561l-295 -561h-86l316 585h-376v71h441v-95z" />
    <glyph glyph-name="eight" unicode="8" horiz-adv-x="555" 
d="M505 181q0 -91 -71 -146q-65 -50 -158 -50q-97 0 -160 47q-70 53 -70 147q0 114 121 169v7q-51 28 -74 57q-29 36 -29 88q0 81 68 128q61 42 144 43q85 0 143 -39q68 -45 68 -126q0 -104 -109 -154v-8q127 -55 127 -163zM408 505q0 52 -42 81q-37 26 -91 27
q-53 0 -88 -24q-42 -28 -42 -79q0 -47 40 -78q23 -18 81 -43q31 -13 62 -22q80 54 80 138zM421 173q0 42 -18 68q-23 32 -84 56q-33 12 -100 37q-91 -50 -91 -148q0 -63 43 -103q42 -39 105 -39q64 0 103 32q42 34 42 97z" />
    <glyph glyph-name="nine" unicode="9" horiz-adv-x="555" 
d="M500 368q0 -169 -72 -268q-82 -112 -246 -113q-46 0 -76 10v78q38 -19 89 -19q201 0 221 233q-81 -49 -160 -50q-99 0 -155 53q-58 54 -59 152q0 98 63 161.5t161 63.5q160 0 213 -152q21 -57 21 -149zM417 387q0 127 -53 178q-41 39 -99 39q-69 0 -106 -45
q-35 -42 -34 -112q0 -143 151 -142q74 0 140 38q1 33 1 44z" />
    <glyph glyph-name="colon" unicode=":" horiz-adv-x="320" 
d="M234 394q0 -26 -19 -45t-45 -19t-45 18.5t-19 45.5q0 26 19 45t45 19t45 -19t19 -45zM234 58q0 -26 -19 -45t-45 -19t-45 18.5t-19 45.5q0 26 19 45t45 19t45 -19t19 -45z" />
    <glyph glyph-name="semicolon" unicode=";" horiz-adv-x="320" 
d="M234 394q0 -26 -19 -45t-45 -19t-45 18.5t-19 45.5q0 26 19 45t45 19t45 -19t19 -45zM222 115l-114 -264h-59l70 264h103z" />
    <glyph glyph-name="less" unicode="&#x3c;" horiz-adv-x="675" 
d="M571 31l-466 207v50l466 207v-73l-367 -159l367 -159v-73z" />
    <glyph glyph-name="equal" unicode="=" horiz-adv-x="675" 
d="M591 329h-507v64h507v-64zM591 133h-507v65h507v-65z" />
    <glyph glyph-name="greater" unicode="&#x3e;" horiz-adv-x="675" 
d="M571 238l-466 -207v73l367 159l-367 160v72l466 -207v-50z" />
    <glyph glyph-name="question" unicode="?" horiz-adv-x="492" 
d="M441 503q0 -77 -57 -136q-39 -40 -124 -89v-99h-75v132q85 48 112 72q57 50 57 114q0 100 -122 100q-83 0 -156 -45h-4v87q80 30 166 30t141 -39q62 -44 62 -127zM277 48q0 -22 -16 -38t-39 -16q-22 0 -38.5 16t-16.5 38t16.5 38.5t38.5 16.5t38.5 -16.5t16.5 -38.5z" />
    <glyph glyph-name="at" unicode="@" horiz-adv-x="920" 
d="M872 271q0 -98 -60 -184q-66 -94 -161 -94q-67 0 -90 63q-66 -65 -150 -65q-90 0 -138 75q-39 62 -39 158t51 164q56 75 149 75q63 0 121 -32l5 20h71v-362q0 -35 33 -34q62 0 109 79q41 69 40 137q0 144 -106 237q-102 89 -249 89q-146 0 -248.5 -102.5t-102.5 -247.5
q0 -146 102.5 -248.5t248.5 -102.5q39 0 90 10l10 -57q-57 -11 -100 -12q-169 0 -289 120t-120 290q0 169 120 289t289 120q170 0 290 -106q124 -111 124 -279zM555 115v255q-56 25 -108 25q-70 0 -104 -51q-30 -43 -30 -116q0 -164 114 -165q63 1 128 52z" />
    <glyph glyph-name="A" unicode="A" horiz-adv-x="597" 
d="M589 0h-85l-65 185h-288l-65 -185h-80l236 656h111zM415 253l-120 340l-121 -340h241z" />
    <glyph glyph-name="B" unicode="B" horiz-adv-x="599" 
d="M568 200q0 -69 -39.5 -119t-107.5 -69q-43 -12 -111 -12h-229v656h199q104 0 155 -22q78 -33 77 -123q0 -87 -87 -132v-8q143 -30 143 -171zM429 499q0 60 -53 79q-29 10 -103 10h-112v-199h121q69 0 103 20q44 25 44 90zM484 197q0 79 -53 106q-37 19 -124 19h-146v-254
h124q91 0 134 19q65 30 65 110z" />
    <glyph glyph-name="C" unicode="C" horiz-adv-x="610" 
d="M580 47q-72 -32 -106 -42q-54 -17 -113 -17q-156 0 -238 93q-79 88 -80 246q0 155 81 246q84 95 237 94q106 0 219 -56v-99h-2q-104 87 -223 88q-115 0 -174 -82q-54 -72 -54 -191q0 -117 55 -189q61 -81 174 -81q125 0 223 87h1v-97z" />
    <glyph glyph-name="D" unicode="D" horiz-adv-x="674" 
d="M627 327q0 -117 -63 -202q-65 -87 -177 -113q-54 -12 -144 -12h-162v656h160q95 0 152 -14q115 -28 175 -113q59 -82 59 -202zM543 329q0 259 -297 258h-85v-519h85q65 0 111 10q186 38 186 251z" />
    <glyph glyph-name="E" unicode="E" horiz-adv-x="551" 
d="M505 0h-424v656h424v-71h-344v-189h344v-71h-344v-254h344v-71z" />
    <glyph glyph-name="F" unicode="F" horiz-adv-x="500" 
d="M492 585h-331v-195h285v-71h-285v-319h-80v656h411v-71z" />
    <glyph glyph-name="G" unicode="G" horiz-adv-x="678" 
d="M621 48q-132 -61 -237 -61q-163 0 -252 89t-89 253q0 159 91 248.5t250 89.5q115 0 236 -58v-98h-3q-115 89 -248 89q-118 0 -182 -78q-60 -72 -60 -191q0 -125 63 -198q66 -77 190 -77q87 0 162 31v169h-176v70h255v-278z" />
    <glyph glyph-name="H" unicode="H" horiz-adv-x="657" 
d="M575 0h-80v325h-334v-325h-80v656h80v-260h334v260h80v-656z" />
    <glyph glyph-name="I" unicode="I" horiz-adv-x="365" 
d="M305 0h-252v60h86v536h-86v60h252v-60h-86v-536h86v-60z" />
    <glyph glyph-name="J" unicode="J" horiz-adv-x="395" 
d="M314 169q0 -86 -53 -133q-50 -45 -137 -45q-54 0 -112 12v76h1l11 -4q47 -16 88 -16q76 0 101 35q21 29 21 108v391h-139v63h219v-487z" />
    <glyph glyph-name="K" unicode="K" horiz-adv-x="605" 
d="M596 0h-103l-261 297l-69 -74v-223h-80v656h80v-352l323 352h96l-289 -308z" />
    <glyph glyph-name="L" unicode="L" horiz-adv-x="484" 
d="M488 0h-407v656h80v-585h327v-71z" />
    <glyph glyph-name="M" unicode="M" horiz-adv-x="738" 
d="M657 0h-79v584l-189 -401h-47l-187 401v-584h-74v656h113l177 -374l171 374h115v-656z" />
    <glyph glyph-name="N" unicode="N" horiz-adv-x="654" 
d="M574 0h-102l-317 604v-604h-74v656h129l290 -553v553h74v-656z" />
    <glyph glyph-name="O" unicode="O" horiz-adv-x="688" 
d="M645 328q0 -152 -73 -243q-80 -99 -228 -99t-228 99q-73 91 -73 243t73 242q80 99 228 99q149 0 228 -98q73 -91 73 -243zM562 328q0 118 -49 189q-57 84 -169 84q-113 0 -169 -84q-48 -71 -48 -189t48 -189q56 -83 169 -84q113 0 169 84q49 71 49 189z" />
    <glyph glyph-name="P" unicode="P" horiz-adv-x="525" 
d="M502 459q0 -68 -35.5 -119.5t-99.5 -75.5q-41 -15 -102 -17q8 0 -104 0v-247h-80v656h174q247 0 247 -197zM419 457q0 130 -169 130h-89v-272h77q181 0 181 142z" />
    <glyph glyph-name="Q" unicode="Q" horiz-adv-x="688" 
d="M658 -162q-46 -11 -101 -11q-162 0 -170 165q-22 -4 -43 -4q-148 0 -228 98q-73 90 -73 242t73 243q79 99 228 98q149 0 228 -98q73 -90 73 -243q0 -109 -41 -189q-47 -91 -140 -129q2 -58 26 -84q25 -29 82 -29q41 0 79 16h7v-75zM562 328q0 117 -49 189q-57 84 -169 84
q-113 0 -169 -84q-48 -71 -48 -189q0 -117 49 -188q57 -83 168 -84q112 0 169 84q49 71 49 188z" />
    <glyph glyph-name="R" unicode="R" horiz-adv-x="607" 
d="M612 0h-104l-219 264h-128v-264h-80v656h180q60 0 98 -8q144 -29 144 -169q0 -138 -136 -191zM419 473q0 115 -152 114h-106v-257h91q167 0 167 143z" />
    <glyph glyph-name="S" unicode="S" horiz-adv-x="597" 
d="M550 186q0 -37 -18 -75q-58 -123 -241 -123q-123 0 -239 52v104h1q105 -87 239 -87q68 0 115 24q60 30 59 92q0 45 -22 68q-28 28 -104 42q-39 6 -116 21q-168 35 -168 178q0 90 79 142q68 44 163 43q122 0 225 -44v-99h-1q-88 75 -224 75q-61 0 -105 -24
q-54 -29 -54 -85q0 -42 22 -67q28 -32 136 -50q126 -21 169 -43q84 -43 84 -144z" />
    <glyph glyph-name="T" unicode="T" horiz-adv-x="537" 
d="M541 585h-234v-585h-80v585h-234v71h548v-71z" />
    <glyph glyph-name="U" unicode="U" horiz-adv-x="640" 
d="M567 263q0 -276 -248 -277q-187 0 -233 151q-15 49 -15 126v393h80v-398q0 -98 34 -146q40 -58 134 -57q93 0 134 56q35 48 34 145v400h80v-393z" />
    <glyph glyph-name="V" unicode="V" horiz-adv-x="597" 
d="M589 656l-236 -656h-111l-236 656h85l208 -591l209 591h81z" />
    <glyph glyph-name="W" unicode="W" horiz-adv-x="867" 
d="M835 656l-168 -656h-92l-141 562l-138 -562h-90l-172 656h82l141 -563l139 563h82l140 -569l140 569h77z" />
    <glyph glyph-name="X" unicode="X" horiz-adv-x="598" 
d="M570 656l-223 -324l223 -332h-92l-181 276l-185 -276h-86l226 328l-221 328h92l178 -273l183 273h86z" />
    <glyph glyph-name="Y" unicode="Y" horiz-adv-x="536" 
d="M535 656l-228 -368v-288h-80v279l-229 377h88l181 -300l183 300h85z" />
    <glyph glyph-name="Z" unicode="Z" horiz-adv-x="598" 
d="M553 0h-505v77l406 508h-391v71h480v-75l-410 -510h420v-71z" />
    <glyph glyph-name="bracketleft" unicode="[" horiz-adv-x="375" 
d="M306 -158h-210v786h210v-58h-139v-670h139v-58z" />
    <glyph glyph-name="backslash" unicode="\" horiz-adv-x="375" 
d="M368 -158h-70l-289 786h71z" />
    <glyph glyph-name="bracketright" unicode="]" horiz-adv-x="375" 
d="M280 -158h-210v58h139v670h-139v58h210v-786z" />
    <glyph glyph-name="asciicircum" unicode="^" horiz-adv-x="676" 
d="M601 276h-80l-183 253l-184 -254h-79l237 326h52z" />
    <glyph glyph-name="underscore" unicode="_" horiz-adv-x="525" 
d="M527 -121h-528v48h528v-48z" />
    <glyph glyph-name="grave" unicode="`" horiz-adv-x="222" 
d="M169 402h-56l-109 226h99z" />
    <glyph glyph-name="a" unicode="a" horiz-adv-x="496" 
d="M425 0h-75v48q-52 -35 -76 -45q-36 -16 -86 -16q-62 0 -104 40.5t-42 103.5q0 136 184 157q55 6 124 10v12q0 51 -39 70q-28 14 -82 15q-62 0 -143 -31h-4v77q75 21 147 20q196 0 196 -155v-306zM350 111v125q-44 -2 -82 -6q-64 -6 -97 -20q-51 -23 -51 -74q0 -78 95 -78
q67 0 135 53z" />
    <glyph glyph-name="b" unicode="b" horiz-adv-x="514" 
d="M471 229q0 -97 -49 -165q-55 -77 -148 -77q-62 0 -124 34l-4 -21h-71v682h75v-279q73 60 149 60q91 0 136 -75q36 -62 36 -159zM393 227q0 165 -113 164q-64 0 -130 -51v-258q58 -26 109 -26q134 0 134 171z" />
    <glyph glyph-name="c" unicode="c" horiz-adv-x="430" 
d="M408 28q-81 -39 -144 -38q-108 0 -166 64q-56 62 -56 171q0 107 57 170q59 66 165 66q71 0 144 -37v-85h-4q-72 56 -144 57q-139 0 -139 -171q0 -74 31 -119q36 -50 108 -50q74 0 144 56h4v-84z" />
    <glyph glyph-name="d" unicode="d" horiz-adv-x="514" 
d="M440 0h-76v47q-69 -60 -145 -60q-91 -1 -137 75q-39 62 -39 160q0 97 51 165q56 76 150 76q62 0 120 -30v249h76v-682zM364 111v259q-53 24 -107 24q-135 0 -135 -170q0 -164 115 -164q62 0 127 51z" />
    <glyph glyph-name="e" unicode="e" horiz-adv-x="492" 
d="M452 217h-332q0 -76 42 -118.5t118 -42.5q39 0 84 15q48 16 75 39h4v-83q-89 -38 -162 -37q-113 0 -175.5 60t-62.5 173q0 106 56 171q59 69 163 69q94 0 143 -56q46 -53 47 -148v-42zM378 275q-1 125 -120 126q-58 0 -95.5 -34t-42.5 -92h258z" />
    <glyph glyph-name="f" unicode="f" horiz-adv-x="333" 
d="M359 607h-4q6 0 -24 6q-35 7 -62 7q-81 0 -103 -49q-13 -28 -14 -120h180v-64h-178v-387h-75v387h-52v64h52v26q0 99 47 152q50 57 148 57q37 0 85 -10v-69z" />
    <glyph glyph-name="g" unicode="g" horiz-adv-x="514" 
d="M440 51q0 -222 -212 -222q-67 0 -137 20v77h4q74 -29 139 -29q104 0 124 74q6 21 6 91q-68 -55 -145 -55q-91 0 -136 69q-39 59 -40 153q0 165 125 218q38 16 75 16q63 0 121 -32l5 20h71v-400zM364 124v246q-56 25 -108 25q-69 0 -104 -49q-30 -42 -30 -115
q0 -154 115 -154q66 0 127 47z" />
    <glyph glyph-name="h" unicode="h" horiz-adv-x="522" 
d="M452 0h-77v257q0 68 -13 95q-20 39 -82 39q-59 0 -130 -55v-336h-75v682h75v-281q75 62 152 62q150 0 150 -171v-292z" />
    <glyph glyph-name="i" unicode="i" horiz-adv-x="226" 
d="M156 526h-85v79h85v-79zM151 0h-75v451h75v-451z" />
    <glyph glyph-name="j" unicode="j" horiz-adv-x="284" 
d="M215 526h-86v79h86v-79zM210 -11q0 -74 -36 -116q-39 -44 -112 -44q-43 0 -87 12v72h4q41 -16 68 -16q57 0 75 36q12 23 12 87v367h-93v64h169v-462z" />
    <glyph glyph-name="k" unicode="k" horiz-adv-x="488" 
d="M484 0h-100l-181 197l-49 -47v-150h-76v682h76v-457l219 226h95l-209 -208z" />
    <glyph glyph-name="l" unicode="l" horiz-adv-x="226" 
d="M151 0h-75v682h75v-682z" />
    <glyph glyph-name="m" unicode="m" horiz-adv-x="803" 
d="M732 0h-76v257q0 70 -11 95q-18 40 -79 39q-54 0 -128 -57q3 -23 3 -45v-289h-75v257q0 28 -3 56q-4 43 -24 60.5t-64 17.5q-54 0 -125 -55v-336h-75v451h75v-50q75 62 146 62q92 0 126 -73q87 73 165 73q145 0 145 -171v-292z" />
    <glyph glyph-name="n" unicode="n" horiz-adv-x="522" 
d="M452 0h-77v257q0 68 -13 95q-20 39 -82 39q-59 0 -130 -55v-336h-75v451h75v-50q75 62 152 62q150 0 150 -171v-292z" />
    <glyph glyph-name="o" unicode="o" horiz-adv-x="501" 
d="M459 225q0 -104 -51 -167q-56 -70 -157 -71q-102 0 -157 70q-51 63 -51 168q0 104 51 169q55 70 157 69q101 0 157 -70q51 -64 51 -168zM380 225q0 173 -129 173q-130 0 -130 -173q0 -172 130 -172q129 0 129 172z" />
    <glyph glyph-name="p" unicode="p" horiz-adv-x="514" 
d="M471 231q0 -97 -50 -165q-55 -75 -149 -75q-64 0 -122 31v-188h-75v617h75v-48q71 60 149 60q91 0 136 -74q36 -60 36 -158zM393 229q0 162 -113 162q-62 0 -130 -51v-256q56 -25 109 -25q134 0 134 170z" />
    <glyph glyph-name="q" unicode="q" horiz-adv-x="514" 
d="M440 -166h-76v217q-69 -60 -144 -60q-90 0 -137 75q-39 62 -40 158q0 96 51 164q56 75 149 75q62 0 121 -32l5 20h71v-617zM364 115v255q-57 25 -108 25q-134 0 -134 -167q0 -164 114 -165q63 1 128 52z" />
    <glyph glyph-name="r" unicode="r" horiz-adv-x="352" 
d="M356 368h-4q-6 0 -17 3q-13 3 -16 3q-13 1 -38 1q-62 0 -131 -55v-320h-75v451h75v-67q83 66 151 67q24 0 55 -5v-78z" />
    <glyph glyph-name="s" unicode="s" horiz-adv-x="430" 
d="M396 130q0 -71 -62 -109q-51 -31 -128 -32q-86 0 -162 38v85h4q79 -59 164 -59q107 0 107 67q0 26 -15 41q-18 17 -91 30q-80 15 -112 33q-55 32 -55 100t60 106q51 32 123 31q85 0 150 -33v-81h-4q-69 51 -152 50q-99 0 -99 -63q0 -27 17 -42q22 -19 94 -32
q80 -15 109 -31q52 -31 52 -99z" />
    <glyph glyph-name="t" unicode="t" horiz-adv-x="325" 
d="M309 4q-48 -13 -92 -13q-141 0 -141 156v240h-51v64h51v129h76v-129h157v-64h-157v-210q0 -64 11 -86q17 -34 74 -33q32 0 68 14h4v-68z" />
    <glyph glyph-name="u" unicode="u" horiz-adv-x="522" 
d="M448 0h-75v50q-79 -62 -151 -63q-150 0 -151 171v293h76v-257q0 -69 14 -95q20 -39 82 -39q61 0 130 54v337h75v-451z" />
    <glyph glyph-name="v" unicode="v" horiz-adv-x="488" 
d="M464 451l-182 -451h-76l-182 451h83l140 -359l138 359h79z" />
    <glyph glyph-name="w" unicode="w" horiz-adv-x="676" 
d="M642 451l-118 -451h-70l-116 347l-115 -347h-70l-118 451h79l82 -349l113 349h63l115 -349l78 349h77z" />
    <glyph glyph-name="x" unicode="x" horiz-adv-x="488" 
d="M465 0h-96l-128 173l-128 -173h-89l176 225l-174 226h96l127 -171l127 171h89l-177 -222z" />
    <glyph glyph-name="y" unicode="y" horiz-adv-x="488" 
d="M464 451l-263 -617h-81l84 188l-180 429h83l138 -334l140 334h79z" />
    <glyph glyph-name="z" unicode="z" horiz-adv-x="434" 
d="M401 0h-363v56l262 331h-257v64h352v-55l-264 -332h270v-64z" />
    <glyph glyph-name="braceleft" unicode="{" horiz-adv-x="524" 
d="M449 -158h-60q-75 0 -118 40q-44 42 -44 116v61q0 145 -136 145h-21v63h21q136 0 136 145v60q0 75 44 116q43 40 118 40h60v-56h-46q-104 0 -104 -107v-70q0 -108 -117 -155v-10q117 -47 117 -154v-71q0 -107 104 -107h46v-56z" />
    <glyph glyph-name="bar" unicode="|" horiz-adv-x="375" 
d="M223 -158h-70v786h70v-786z" />
    <glyph glyph-name="braceright" unicode="}" horiz-adv-x="524" 
d="M454 204h-20q-136 0 -136 -145v-61q0 -74 -44 -115t-119 -41h-60v56h46q104 0 105 107v71q0 108 117 154v10q-117 47 -117 155v70q0 107 -105 107h-46v56h60q75 0 119 -40.5t44 -115.5v-60q0 -145 136 -145h20v-63z" />
    <glyph glyph-name="asciitilde" unicode="~" horiz-adv-x="675" 
d="M601 374q-1 -84 -32 -142q-39 -73 -115 -72q-54 0 -99 38l-64 73q-35 39 -66 38q-77 0 -82 -150h-68q1 85 32 142q39 73 115 73q55 0 99 -39q1 -1 65 -72q35 -39 66 -39q80 0 81 150h68z" />
    <glyph glyph-name="nonbreakingspace" unicode="&#xa0;" horiz-adv-x="125" 
 />
    <glyph glyph-name="currency" unicode="&#xa4;" horiz-adv-x="675" 
d="M575 74l-48 -48l-66 66q-56 -40 -123 -40q-69 0 -125 41l-66 -67l-46 46l66 67q-41 55 -40 124q0 67 40 123l-66 66l48 48l65 -66q55 40 124 40t124 -40l67 66l45 -46l-66 -66q41 -56 41 -125q0 -68 -40 -123zM488 263q0 62 -44 106t-106 44t-106 -43.5t-44 -106.5
q0 -62 43.5 -106t106.5 -44q62 0 106 44t44 106z" />
    <glyph glyph-name="brokenbar" unicode="&#xa6;" horiz-adv-x="375" 
d="M223 306h-70v322h70v-322zM223 -158h-70v322h70v-322z" />
    <glyph glyph-name="section" unicode="&#xa7;" horiz-adv-x="533" 
d="M464 47q0 -29 -3 -47q-14 -83 -91 -124q-64 -34 -157 -34q-63 0 -143 24v80h4q82 -36 145 -36q80 0 80 52q0 38 -60 114q-87 111 -110 150q-60 101 -60 197q0 29 3 47q14 83 92 124q64 34 156 34q63 0 143 -24v-80h-4q-82 36 -145 36q-80 0 -80 -52q0 -37 60 -113
q87 -111 110 -150q60 -101 60 -198zM396 47q0 93 -61 181q-38 49 -112 147q-59 79 -56 137q-30 -33 -30 -89q0 -93 61 -180q38 -49 113 -147q59 -79 55 -139q30 29 30 90z" />
    <glyph glyph-name="logicalnot" unicode="&#xac;" horiz-adv-x="675" 
d="M591 10h-64v221h-443v64h507v-285z" />
    <glyph glyph-name="degree" unicode="&#xb0;" horiz-adv-x="375" 
d="M331 577q0 -60 -41.5 -101t-101.5 -41t-101.5 41.5t-41.5 100.5q0 60 41.5 101.5t101.5 41.5t101.5 -41.5t41.5 -101.5zM272 577q0 35 -24.5 59.5t-59.5 24.5t-59.5 -24.5t-24.5 -59.5t24.5 -59.5t59.5 -24.5t59.5 24.5t24.5 59.5z" />
    <glyph glyph-name="plusminus" unicode="&#xb1;" horiz-adv-x="675" 
d="M591 231h-221v-221h-64v221h-222v64h222v222h64v-222h221v-64zM591 -111h-507v65h507v-65z" />
    <glyph glyph-name="paragraph" unicode="&#xb6;" horiz-adv-x="602" 
d="M603 495h-108v-271q0 -124 -11 -182q-20 -104 -84 -158q-51 -42 -116 -43q-62 0 -105 35q-46 38 -46 98q0 43 29 75t73 32q31 0 55 -21t24 -52q0 -27 -16 -45.5t-42 -18.5q-19 0 -19 -13q0 -20 23 -33q19 -10 40 -10q86 0 121 113q16 52 16 162q-105 -11 -134 -11
q-96 0 -162 50q-73 55 -73 148q0 57 29 103.5t80 71.5q41 20 128 25q28 1 132 1v90h58v-90h108v-56zM437 229v266h-25q-79 0 -117 -33q-40 -35 -39 -112q0 -53 23 -89q27 -42 77 -42q34 1 81 10z" />
    <glyph glyph-name="middot" unicode="&#xb7;" horiz-adv-x="300" 
d="M214 267q0 -26 -18.5 -45t-45.5 -19q-26 0 -45 19t-19 45t19 45t45 19t45 -19t19 -45z" />
    <glyph glyph-name="multiply" unicode="&#xd7;" horiz-adv-x="675" 
d="M582 65l-46 -45l-198 198l-198 -198l-46 45l198 198l-198 198l46 46l198 -198l198 198l46 -46l-199 -198z" />
    <glyph glyph-name="divide" unicode="&#xf7;" horiz-adv-x="675" 
d="M404 459q0 -27 -19.5 -46.5t-46.5 -19.5t-47 19.5t-20 46.5t20 47t47 20t46.5 -20t19.5 -47zM591 231h-507v64h507v-64zM404 67q0 -27 -19.5 -47t-46.5 -20t-47 20t-20 47t20 46.5t47 19.5t46.5 -19.5t19.5 -46.5z" />
    <glyph glyph-name="enspace" unicode="&#x2002;" horiz-adv-x="500" 
 />
    <glyph glyph-name="emspace" unicode="&#x2003;" 
d="M1000 -216zM0 784z" />
    <glyph glyph-name="threeperemspace" unicode="&#x2004;" horiz-adv-x="333" 
 />
    <glyph glyph-name="fourperemspace" unicode="&#x2005;" horiz-adv-x="250" 
 />
    <glyph glyph-name="sixperemspace" unicode="&#x2006;" horiz-adv-x="166" 
 />
    <glyph glyph-name="figurespace" unicode="&#x2007;" horiz-adv-x="555" 
 />
    <glyph glyph-name="punctuationspace" unicode="&#x2008;" horiz-adv-x="156" 
 />
    <glyph glyph-name="thinspace" unicode="&#x2009;" horiz-adv-x="125" 
 />
    <glyph glyph-name="hairspace" unicode="&#x200a;" horiz-adv-x="62" 
 />
    <glyph glyph-name="zerospace" unicode="&#x200b;" horiz-adv-x="0" 
 />
    <glyph glyph-name="zeronojoin" unicode="&#x200c;" horiz-adv-x="0" 
 />
    <glyph glyph-name="zerojoin" unicode="&#x200d;" horiz-adv-x="0" 
 />
    <glyph glyph-name="hyphenminus" unicode="&#x2010;" horiz-adv-x="500" 
d="M416 231h-332v64h332v-64z" />
    <glyph glyph-name="figuredash" unicode="&#x2012;" horiz-adv-x="555" 
d="M471 231h-387v64h387v-64z" />
    <glyph glyph-name="endash" unicode="&#x2013;" horiz-adv-x="500" 
d="M448 231h-396v64h396v-64z" />
    <glyph glyph-name="emdash" unicode="&#x2014;" 
d="M916 231h-832v64h832v-64z" />
    <glyph glyph-name="dashdbl" unicode="&#x2016;" horiz-adv-x="571" 
d="M418 -158h-70v786h70v-786zM223 -158h-70v786h70v-786z" />
    <glyph glyph-name="quoteleft" unicode="&#x2018;" horiz-adv-x="221" 
d="M157 402h-55l-110 226h99z" />
    <glyph glyph-name="quoteright" unicode="&#x2019;" horiz-adv-x="221" 
d="M229 628l-109 -226h-56l67 226h98z" />
    <glyph glyph-name="quotedblleft" unicode="&#x201c;" horiz-adv-x="379" 
d="M319 402h-54l-110 226h97zM156 402h-54l-110 226h97z" />
    <glyph glyph-name="quotedblright" unicode="&#x201d;" horiz-adv-x="379" 
d="M387 628l-109 -226h-54l66 226h97zM224 628l-109 -226h-54l66 226h97z" />
    <glyph glyph-name="bullet" unicode="&#x2022;" horiz-adv-x="450" 
d="M375 267q0 -63 -43.5 -106.5t-106.5 -43.5t-106.5 43.5t-43.5 106.5t43.5 106.5t106.5 43.5t106.5 -43.5t43.5 -106.5z" />
    <glyph glyph-name="ellipsis" unicode="&#x2026;" horiz-adv-x="671" 
d="M585 58q0 -26 -18.5 -45t-45.5 -19q-26 0 -44.5 18.5t-18.5 45.5q0 26 18.5 45t44.5 19t45 -19t19 -45zM400 58q0 -26 -19 -45t-45 -19t-45 18.5t-19 45.5q0 26 19 45t45 19t45 -19t19 -45zM214 58q0 -26 -18.5 -45t-45.5 -19q-26 0 -45 18.5t-19 45.5q0 26 19 45t45 19
t45 -19t19 -45z" />
    <glyph glyph-name="Euro" unicode="&#x20ac;" horiz-adv-x="737" 
d="M708 567l-35 -74q-80 101 -209 101q-83 0 -150.5 -46.5t-97.5 -123.5h423l-30 -64h-409q-2 -16 -2 -32t2 -30h379l-31 -64h-333q29 -78 97.5 -125t151.5 -47q129 0 209 101h7v-100q-94 -77 -216 -77q-115 0 -206 69t-122 179h-107l30 64h65q-1 17 -1 30q0 16 1 32h-95
l30 64h77q32 109 123 177.5t205 68.5q143 0 244 -103z" />
    <glyph glyph-name="minus" unicode="&#x2212;" horiz-adv-x="675" 
d="M591 231h-507v64h507v-64z" />
    <glyph glyph-name="periodcentered" unicode="&#x2219;" horiz-adv-x="300" 
d="M217 267q0 -27 -19.5 -46.5t-47.5 -19.5q-27 0 -46.5 19.5t-19.5 46.5t19.5 46.5t46.5 19.5t47 -19.5t20 -46.5z" />
    <glyph glyph-name="circledash" unicode="&#x25cc;" horiz-adv-x="500" 
d="M387 398q0 -15 -11 -26t-26 -11t-26.5 11t-11.5 26t11 26t27 11q15 0 26 -11t11 -26zM459 325q0 -15 -10.5 -26t-26.5 -11q-15 0 -26 11t-11 26t11 26t26 11t26 -11t11 -26zM287 425q0 -15 -11 -26t-26 -11t-26 11t-11 26t11 26t26 11t26 -11t11 -26zM486 226
q0 -15 -11 -26.5t-26 -11.5t-26 11t-11 27q0 15 11 26t26 11t26 -11t11 -26zM188 398q0 -15 -11 -26t-27 -11q-15 0 -26 11t-11 26t11 26t26 11t26.5 -11t11.5 -26zM459 126q0 -15 -10.5 -26t-26.5 -11q-15 0 -26 11t-11 26t11 26t26 11t26 -11t11 -26zM115 325
q0 -15 -11 -26t-26 -11t-26 11t-11 26t10.5 26t26.5 11q15 0 26 -11t11 -26zM387 53q0 -15 -11 -26t-26 -11t-26.5 11t-11.5 26t11 26t27 11q15 0 26 -11t11 -26zM88 226q0 -15 -11 -26.5t-26 -11.5t-26 11t-11 27q0 15 11 26t26 11t26 -11t11 -26zM287 26q0 -15 -11 -26
t-26 -11t-26 11t-11 26t11 26t26 11t26 -11t11 -26zM115 126q0 -15 -11 -26t-26 -11t-26 11t-11 26t10.5 26t26.5 11q15 0 26 -11t11 -26zM188 53q0 -15 -11 -26t-27 -11q-15 0 -26 11t-11 26t11 26t26 11t26.5 -11t11.5 -26z" />
    <glyph glyph-name="uF7200" unicode="&#xf7200;" 
d="M984 761l-57 -70v15l51 63h6v-8zM966 769l-47 -58h-13l48 58h12zM984 731l-57 -70v16l57 70v-16zM942 769l-47 -58h-13l47 58h13zM984 702l-34 -43h-13l47 58v-15zM984 672l-10 -13h-13l23 28v-15zM893 769l-18 -22v15l5 7h13zM917 769l-42 -52v15l30 37h12zM812 730
l-15 -19h-13l28 35v-16zM812 760l-40 -49h-12l47 58h5v-9zM812 711h-3l3 5v-5zM947 597l-20 -25v15l8 10h12zM971 597l-44 -55v16l32 39h12zM984 583l-57 -70v15l56 69h1v-14zM795 769l-47 -58h-13l48 58h12zM984 553l-54 -66h-3v12l57 69v-15zM771 769l-47 -58h-13l47 58
h13zM984 523l-29 -36h-13l42 52v-16zM984 494l-5 -7h-13l18 22v-15zM722 769l-19 -23v15l6 8h13zM747 769l-44 -53v15l31 38h13zM641 730l-16 -19h-13l29 35v-16zM641 760l-40 -49h-13l47 58h6v-9zM641 711h-4l4 5v-5zM928 425l-1 -1v1h1zM952 425l-25 -31v15l12 16h13z
M977 425l-50 -61v16l37 45h13zM624 769l-48 -58h-13l48 58h13zM984 405l-57 -71v16l57 70v-15zM599 769l-47 -58h-13l47 58h13zM984 375l-48 -60h-9v5l57 71v-16zM984 345l-24 -30h-13l37 46v-16zM984 315h-12l12 16v-16zM550 769l-19 -23v15l7 8h12zM575 769l-44 -53v15
l31 38h13zM469 758l-39 -47h-13l47 58h5v-11zM469 729l-15 -18h-13l28 33v-15zM469 711h-3l3 3v-3zM933 253l-6 -7v7h6zM957 253l-30 -37v15l17 22h13zM981 253l-54 -67v16l42 51h12zM453 769l-48 -58h-12l47 58h13zM984 227l-57 -70v15l57 70v-15zM428 769l-47 -58h-13
l48 58h12zM984 197l-44 -53h-12l56 68v-15zM984 167l-19 -23h-13l32 39v-16zM984 144h-7l7 9v-9zM379 769l-20 -25v16l8 9h12zM404 769l-45 -55v16l32 39h13zM297 757l-38 -46h-13l47 58h4v-12zM297 728l-14 -17h-12l26 32v-15zM297 711h-2l2 2v-2zM938 81l-11 -14v14h11z
M962 81l-35 -43v15l23 28h12zM984 78l-57 -70v15l47 58h10v-3zM282 769l-48 -58h-12l47 58h13zM984 48l-57 -69v15l57 70v-16zM257 769l-47 -58h-13l48 58h12zM984 19l-39 -47h-12l51 62v-15zM984 -11l-14 -17h-12l26 32v-15zM984 -28h-2l2 3v-3zM208 769l-20 -26v15l8 11
h12zM233 769l-45 -56v16l32 40h13zM125 756l-37 -45h-13l48 58h2v-13zM125 727l-13 -16h-12l25 31v-15zM125 711h-1l1 1v-1zM943 -91l-16 -19v15l3 4h13zM967 -91l-40 -49v15l28 34h12zM984 -129l-58 -71h-12l70 86v-15zM984 -100l-82 -100h-13l90 109h5v-9zM984 -159
l-33 -41h-13l46 56v-15zM984 -189l-9 -11h-13l22 27v-16zM38 769l-22 -27v15l9 12h13zM62 769l-46 -57v16l33 41h13zM111 769l-90 -110h-5v9l82 101h13zM86 769l-70 -86v15l58 71h12zM762 -32h-74q-29 87 -43 103q-18 20 -49 18h-18q0 -64 2 -121h-71q3 80 4 161
q0 80 -4 148q19 0 57 1t57 1q110 0 110 -76q0 -59 -61 -83q29 -10 57 -66q7 -17 33 -86zM73 693l-28 -34h-12l40 49v-15zM73 664l-3 -5h-13l16 20v-15zM876 -143l-1 -1v1h1zM900 -143l-25 -30v15l13 15h12zM925 -143l-48 -57h-2v12l37 45h13zM812 -160l-32 -40h-13l45 55
v-15zM812 -190l-8 -10h-12l20 25v-15zM18 597l-2 -4v4h2zM42 597l-26 -33v15l14 18h12zM67 597l-51 -63v15l39 48h12zM803 -143l-48 -57h-12l47 57h13zM73 575l-57 -71v16l57 70v-15zM778 -143l-47 -57h-13l48 57h12zM73 545l-47 -58h-10v3l57 70v-15zM73 515l-23 -28h-12
l35 43v-15zM73 487h-11l11 14v-14zM705 -143l-2 -2v2h2zM729 -143l-26 -32v16l14 16h12zM754 -143l-47 -57h-4v11l38 46h13zM455 29l-5 -59q-37 -9 -68 -9q-73 0 -119 40q-48 42 -48 115t48.5 119t121.5 46q28 0 57 -7l-9 -59q-28 9 -56 9q-44 0 -67 -29q-22 -26 -23 -71
q0 -46 27.5 -75.5t73.5 -29.5q31 -1 67 10zM641 -160l-33 -40h-13l46 55v-15zM641 -190l-9 -10h-12l21 25v-15zM23 425l-7 -9v9h7zM48 425l-32 -39v15l19 24h13zM72 425l-56 -69v16l44 53h12zM631 -143l-48 -57h-12l47 57h13zM73 396l-57 -70v16l57 70v-16zM606 -143
l-47 -57h-13l48 57h12zM73 367l-42 -52h-12l54 67v-15zM73 337l-17 -22h-13l30 38v-16zM73 315h-6l6 8v-8zM533 -143l-2 -2v2h2zM558 -143l-27 -32v16l14 16h13zM582 -143l-47 -57h-4v11l38 46h13zM469 -162l-32 -38h-13l45 54v-16zM469 -191l-8 -9h-12l20 24v-15zM28 253
l-12 -16v16h12zM53 253l-37 -45v15l24 30h13zM73 248l-57 -70v15l48 60h9v-5zM460 -143l-47 -57h-13l47 57h13zM73 218l-57 -70v16l57 70v-16zM436 -143l-48 -57h-13l48 57h13zM73 188l-37 -44h-13l50 60v-16zM73 159l-12 -15h-13l25 30v-15zM73 144h-1l1 1v-1zM362 -143
l-3 -3v3h3zM387 -143l-28 -33v15l15 18h13zM411 -143l-47 -57h-5v10l39 47h13zM297 -163l-31 -37h-13l44 53v-16zM297 -192l-6 -8h-13l19 23v-15zM34 81l-18 -22v16l5 6h13zM58 81l-42 -51v15l29 36h13zM289 -143l-47 -57h-13l47 57h13zM73 70l-57 -70v15l54 66h3v-11z
M265 -143l-48 -57h-12l47 57h13zM73 40l-56 -68h-1v13l57 71v-16zM73 11l-32 -39h-12l44 54v-15zM73 -19l-8 -9h-12l20 24v-15zM191 -143l-3 -4v4h3zM240 -143l-47 -57h-5v9l40 48h12zM216 -143l-28 -34v15l15 19h13zM125 -164l-30 -36h-12l42 52v-16zM125 -194l-5 -6h-13
l18 22v-16zM39 -91l-23 -28v15l10 13h13zM63 -91l-47 -57v15l34 42h13zM118 -143l-47 -57h-13l47 57h13zM73 -108l-57 -70v15l57 70v-15zM94 -143l-48 -57h-12l47 57h13zM73 -138l-51 -62h-6v8l57 69v-15zM668 185q0 44 -57 44q-21 0 -36 -2q2 -29 2 -90q18 -1 20 -1
q71 0 71 49z" />
    <glyph glyph-name="uF7201" unicode="&#xf7201;" 
d="M829 0q-62 3 -173 3q-55 0 -92 -3v30q79 0 80 29q0 15 -23 77l-31 83h-237l-28 -72q-19 -51 -19 -68q0 -24 26 -38q21 -11 47 -11v-30l-111 3q-30 0 -98 -3v30q84 1 107 65l200 574q7 20 23 20t22 -20l207 -601q10 -30 42 -36q13 -3 58 -2v-30zM580 249l-109 313
l-107 -313h216z" />
    <glyph glyph-name="uF7202" unicode="&#xf7202;" 
d="M984 761l-57 -70v15l51 63h6v-8zM966 769l-47 -58h-13l48 58h12zM984 731l-57 -70v16l57 70v-16zM942 769l-47 -58h-13l47 58h13zM984 702l-34 -43h-13l47 58v-15zM984 672l-10 -13h-13l23 28v-15zM893 769l-18 -22v15l5 7h13zM917 769l-42 -52v15l30 37h12zM812 730
l-15 -19h-13l28 35v-16zM812 760l-40 -49h-12l47 58h5v-9zM812 711h-3l3 5v-5zM947 597l-20 -25v15l8 10h12zM971 597l-44 -55v16l32 39h12zM984 583l-57 -70v15l56 69h1v-14zM795 769l-47 -58h-13l48 58h12zM984 553l-54 -66h-3v12l57 69v-15zM771 769l-47 -58h-13l47 58
h13zM984 523l-29 -36h-13l42 52v-16zM984 494l-5 -7h-13l18 22v-15zM722 769l-19 -23v15l6 8h13zM747 769l-44 -53v15l31 38h13zM641 730l-16 -19h-13l29 35v-16zM641 760l-40 -49h-13l47 58h6v-9zM641 711h-4l4 5v-5zM928 425l-1 -1v1h1zM952 425l-25 -31v15l12 16h13z
M977 425l-50 -61v16l37 45h13zM624 769l-48 -58h-13l48 58h13zM984 405l-57 -71v16l57 70v-15zM599 769l-47 -58h-13l47 58h13zM984 375l-48 -60h-9v5l57 71v-16zM984 345l-24 -30h-13l37 46v-16zM984 315h-12l12 16v-16zM550 769l-19 -23v15l7 8h12zM575 769l-44 -53v15
l31 38h13zM469 758l-39 -47h-13l47 58h5v-11zM469 729l-15 -18h-13l28 33v-15zM469 711h-3l3 3v-3zM933 253l-6 -7v7h6zM957 253l-30 -37v15l17 22h13zM981 253l-54 -67v16l42 51h12zM453 769l-48 -58h-12l47 58h13zM984 227l-57 -70v15l57 70v-15zM428 769l-47 -58h-13
l48 58h12zM984 197l-44 -53h-12l56 68v-15zM984 167l-19 -23h-13l32 39v-16zM984 144h-7l7 9v-9zM379 769l-20 -25v16l8 9h12zM404 769l-45 -55v16l32 39h13zM297 757l-38 -46h-13l47 58h4v-12zM297 728l-14 -17h-12l26 32v-15zM297 711h-2l2 2v-2zM938 81l-11 -14v14h11z
M962 81l-35 -43v15l23 28h12zM984 78l-57 -70v15l47 58h10v-3zM282 769l-48 -58h-12l47 58h13zM984 48l-57 -69v15l57 70v-16zM257 769l-47 -58h-13l48 58h12zM984 19l-39 -47h-12l51 62v-15zM984 -11l-14 -17h-12l26 32v-15zM984 -28h-2l2 3v-3zM208 769l-20 -26v15l8 11
h12zM233 769l-45 -56v16l32 40h13zM125 756l-37 -45h-13l48 58h2v-13zM125 727l-13 -16h-12l25 31v-15zM125 711h-1l1 1v-1zM943 -91l-16 -19v15l3 4h13zM967 -91l-40 -49v15l28 34h12zM984 -129l-58 -71h-12l70 86v-15zM984 -100l-82 -100h-13l90 109h5v-9zM984 -159
l-33 -41h-13l46 56v-15zM984 -189l-9 -11h-13l22 27v-16zM38 769l-22 -27v15l9 12h13zM62 769l-46 -57v16l33 41h13zM111 769l-90 -110h-5v9l82 101h13zM86 769l-70 -86v15l58 71h12zM757 277l-2 -55q-44 3 -88 3v-50v-81q0 -55 2 -126h-71q3 72 3 135v62q0 11 -1 60
q-38 0 -90 -3l2 55h245zM73 693l-28 -34h-12l40 49v-15zM73 664l-3 -5h-13l16 20v-15zM876 -143l-1 -1v1h1zM900 -143l-25 -30v15l13 15h12zM925 -143l-48 -57h-2v12l37 45h13zM812 -160l-32 -40h-13l45 55v-15zM812 -190l-8 -10h-12l20 25v-15zM18 597l-2 -4v4h2zM42 597
l-26 -33v15l14 18h12zM67 597l-51 -63v15l39 48h12zM803 -143l-48 -57h-12l47 57h13zM73 575l-57 -71v16l57 70v-15zM778 -143l-47 -57h-13l48 57h12zM73 545l-47 -58h-10v3l57 70v-15zM73 515l-23 -28h-12l35 43v-15zM73 487h-11l11 14v-14zM705 -143l-2 -2v2h2zM729 -143
l-26 -32v16l14 16h12zM754 -143l-47 -57h-4v11l38 46h13zM463 54q0 -94 -133 -95q-46 0 -87 12l13 57q40 -14 78 -13q63 0 63 28q0 23 -38 42q-64 32 -71 37q-38 27 -38 72q0 88 118 88q47 0 80 -8l-10 -58q-35 13 -70 13q-52 0 -53 -27q0 -20 39 -38q59 -26 71 -36
q38 -27 38 -74zM641 -160l-33 -40h-13l46 55v-15zM641 -190l-9 -10h-12l21 25v-15zM23 425l-7 -9v9h7zM48 425l-32 -39v15l19 24h13zM72 425l-56 -69v16l44 53h12zM631 -143l-48 -57h-12l47 57h13zM73 396l-57 -70v16l57 70v-16zM606 -143l-47 -57h-13l48 57h12zM73 367
l-42 -52h-12l54 67v-15zM73 337l-17 -22h-13l30 38v-16zM73 315h-6l6 8v-8zM533 -143l-2 -2v2h2zM558 -143l-27 -32v16l14 16h13zM582 -143l-47 -57h-4v11l38 46h13zM469 -162l-32 -38h-13l45 54v-16zM469 -191l-8 -9h-12l20 24v-15zM28 253l-12 -16v16h12zM53 253l-37 -45
v15l24 30h13zM73 248l-57 -70v15l48 60h9v-5zM460 -143l-47 -57h-13l47 57h13zM73 218l-57 -70v16l57 70v-16zM436 -143l-48 -57h-13l48 57h13zM73 188l-37 -44h-13l50 60v-16zM73 159l-12 -15h-13l25 30v-15zM73 144h-1l1 1v-1zM362 -143l-3 -3v3h3zM387 -143l-28 -33v15
l15 18h13zM411 -143l-47 -57h-5v10l39 47h13zM297 -163l-31 -37h-13l44 53v-16zM297 -192l-6 -8h-13l19 23v-15zM34 81l-18 -22v16l5 6h13zM58 81l-42 -51v15l29 36h13zM289 -143l-47 -57h-13l47 57h13zM73 70l-57 -70v15l54 66h3v-11zM265 -143l-48 -57h-12l47 57h13z
M73 40l-56 -68h-1v13l57 71v-16zM73 11l-32 -39h-12l44 54v-15zM73 -19l-8 -9h-12l20 24v-15zM191 -143l-3 -4v4h3zM240 -143l-47 -57h-5v9l40 48h12zM216 -143l-28 -34v15l15 19h13zM125 -164l-30 -36h-12l42 52v-16zM125 -194l-5 -6h-13l18 22v-16zM39 -91l-23 -28v15
l10 13h13zM63 -91l-47 -57v15l34 42h13zM118 -143l-47 -57h-13l47 57h13zM73 -108l-57 -70v15l57 70v-15zM94 -143l-48 -57h-12l47 57h13zM73 -138l-51 -62h-6v8l57 69v-15z" />
    <glyph glyph-name="uF7203" unicode="&#xf7203;" 
d="M905 248l-40 -248h-475v30q-3 0 10 -1h10q32 0 41 6q13 8 13 38v228h-155l-72 -202q-5 -14 -5 -21q0 -46 72 -48v-30l-111 3q-35 0 -98 -3v30q86 0 109 64l190 531q-14 0 -41 0.5t-41 0.5v30h539l27 -217h-24q-12 105 -38 140q-35 47 -133 47h-92q-30 0 -36 -4
q-11 -7 -11 -35v-256h82q63 0 83 25q16 21 16 87h24v-255h-24q0 66 -16 87q-20 25 -83 26h-82v-233q0 -27 11 -34q7 -4 36 -4h92q112 0 151 57q25 36 47 161h24zM464 331v252q0 39 -39 39l-105 -291h144z" />
    <glyph glyph-name="uF7204" unicode="&#xf7204;" 
d="M940 248l-41 -248h-372q-25 0 -75 -10.5t-75 -10.5q-137 0 -229 106q-88 102 -88 241t88 243q93 109 229 109q25 0 73.5 -11t73.5 -11h362l27 -217h-24q-12 104 -40 141q-36 46 -134 46h-108q-30 0 -37 -4q-10 -7 -10 -35v-231h104q66 0 88 23t22 90h24v-255h-24
q0 66 -22 89t-88 23h-104v-258q0 -27 10 -34q7 -4 37 -4h106q113 0 155 56q28 38 48 162h24zM487 243v194q0 161 -30 195q-22 25 -76 25q-71 0 -129 -55q-50 -48 -75 -123q-21 -63 -21 -138q0 -171 91 -275q59 -66 134 -66q54 0 77 26q20 22 25 78q4 42 4 139z" />
    <glyph glyph-name="uF7205" unicode="&#xf7205;" 
d="M819 331q0 -139 -89 -243q-93 -109 -230 -109q-132 0 -224 101q-87 96 -95 229h540v9q0 223 -131 303q-45 28 -91 28q-146 0 -238 -149q-4 -8 -17 -27q-5 -8 -15 -8q-15 0 -15 17q0 5 5 14q44 85 114 132q75 50 167 51q138 0 230 -107q89 -102 89 -241zM719 280h-439
q12 -184 126 -250q45 -26 94 -27q48 0 93 26q114 67 126 251z" />
    <glyph glyph-name="uF7206" unicode="&#xf7206;" 
d="M817 390q0 -31 -24 -53.5t-55 -22.5q-82 0 -82 123q0 14 1.5 40.5t1.5 40.5t-6 14t-24 -20l-107 -121q60 -71 61 -166q0 -96 -64 -165q-65 -71 -161 -72q-85 0 -136 62q-14 17 -14 24q0 8 16 26l242 271q-39 71 -118 71q-55 0 -89 -31q-20 -19 -38 -57q-15 -31 -24 -32
q-14 0 -14 11t13 37q52 99 161 99q83 0 145 -57l120 134q28 32 43 32q21 0 21 -46q0 -17 -2.5 -50.5t-2.5 -50.5q0 -92 58 -92q17 0 31 10q-35 5 -35 41q0 17 12 29t29 12t29 -12t12 -29zM496 228q0 66 -17 114l-239 -271q36 -56 109 -56q29 0 60 16q87 48 87 197z" />
    <glyph glyph-name="uF7207" unicode="&#xf7207;" 
d="M761 673q0 -16 -13 -15q-11 0 -13 14q-7 53 -43 54q-21 0 -35 -37q-2 -7 -15 -54q-14 -55 -26 -75q-19 -31 -61 -50q44 -10 77 -34q41 -30 40 -70q0 -40 -37 -73q-31 -26 -75 -39q-39 -11 -84 -11h-237v32q69 0 77 17q4 9 5 33v287q0 24 -5 34q-8 16 -77 16v32l116 -3
q20 0 117 3v-32q-69 0 -77 -16q-4 -9 -5 -34v-132h83q42 0 69 28q17 18 17 60q0 -5 -1 15v16q0 110 129 110q31 0 52.5 -22.5t21.5 -53.5zM585 406q0 53 -33 74q-26 17 -86 17h-76v-143q0 -32 13 -36q6 -2 49 -3q67 0 93 13q40 19 40 78z" />
    <glyph glyph-name="uF7208" unicode="&#xf7208;" 
d="M709 693l-209 -159l-210 159l19 28l191 -118l189 118zM685 393q0 -27 -28 -28q-27 0 -27 28q0 27 27 27q28 0 28 -27zM613 441q0 -27 -28 -27q-27 0 -27 27t27 27q28 0 28 -27zM733 320q0 -27 -27 -27t-28 27q0 27 28 28q27 -1 27 -28zM527 458q0 -27 -27 -27t-27 27
t27 27t27 -27zM750 235q0 -27 -27 -27t-28 27q0 27 28 28q27 -1 27 -28zM733 150q0 -27 -27 -27t-28 27q0 27 28 28q27 -1 27 -28zM442 441q0 -27 -27 -27t-28 27q0 27 28 27q27 0 27 -27zM370 393q0 -27 -27 -28q-27 0 -28 28q0 27 28 27q27 0 27 -27zM685 78
q0 -27 -28 -27q-27 0 -27 27t27 27q28 0 28 -27zM613 30q0 -27 -28 -28q-27 0 -27 28q0 27 27 27q28 0 28 -27zM322 320q0 -27 -28 -27q-27 0 -27 27t27 28q28 -1 28 -28zM305 235q0 -27 -28 -27q-27 0 -27 27t27 28q28 -1 28 -28zM527 13q0 -27 -27 -28q-27 0 -27 28
q0 27 27 27t27 -27zM322 150q0 -27 -28 -27q-27 0 -27 27t27 28q28 -1 28 -28zM442 30q0 -27 -27 -28q-27 0 -28 28q0 27 28 27q27 0 27 -27zM370 78q0 -27 -27 -27t-28 27q0 27 28 27q27 0 27 -27z" />
    <glyph glyph-name="uF7209" unicode="&#xf7209;" 
d="M804 156l-31 -156h-160q-19 0 -18 20q0 72 49 209t49 209q0 91 -50 153q-54 66 -143 66t-143 -66q-50 -62 -50 -153q0 -72 49 -209t49 -209q0 -20 -19 -20h-159l-31 156h23q5 -36 10 -50q9 -33 26 -40q8 -4 28 -4h94q-13 56 -58 126l-75 117q-37 69 -37 133q0 108 95 177
q86 63 198 64q112 0 198 -64q95 -69 94 -177q0 -63 -37 -133q-5 -9 -74 -117q-45 -70 -59 -126h95q32 0 46 23q9 15 17 71h24z" />
    <glyph glyph-name="uF720A" unicode="&#xf720a;" 
d="M983 84q0 -42 -24 -72q-26 -33 -67 -33q-161 0 -161 155q0 -7 0 20v19q0 67 -39 116q-42 52 -107 52h-43v-273q0 -14 5 -22q9 -17 96 -16v-30q-35 3 -59 3h-168q-24 0 -59 -3v30q87 0 96 16q4 8 5 22v273h-43q-65 0 -107 -52q-39 -48 -39 -116q0 7 0 -19v-20
q0 -155 -161 -155q-41 0 -67 33q-24 30 -24 72q0 16 12 17q9 0 12 -16q16 -85 63 -85q44 0 58 77q4 28 11 83q7 52 20 79q22 47 77 79q48 28 105 36v3q-88 18 -140 81q-30 36 -60 113q-24 62 -45 70q5 -11 5 -22q0 -19 -12.5 -31.5t-31.5 -12.5q-44 0 -44 45q0 26 18.5 46.5
t45.5 20.5q48 0 80 -72q48 -109 73 -138q65 -77 194 -87v217q0 14 -3 21q-8 20 -70 20q-5 0 -14 -0.5t-14 -0.5v30q34 -3 59 -3h168q24 0 59 3v-30q-5 0 -14 0.5t-14 0.5q-62 0 -70 -20q-3 -7 -3 -21v-217q128 10 194 87q24 29 73 138q32 72 80 72q26 0 45 -20.5t19 -46.5
q0 -45 -44 -45q-19 0 -31.5 12.5t-12.5 31.5q0 11 5 22q-20 -8 -45 -70q-30 -77 -60 -113q-52 -63 -140 -81v-3q58 -8 105 -36q54 -32 77 -79q13 -27 20 -79q3 -27 11 -83q13 -77 58 -77q48 0 63 85q3 15 12 16q12 -1 12 -17z" />
    <glyph glyph-name="uF720B" unicode="&#xf720b;" 
d="M817 -192q-33 6 -61 45q-7 10 -40 68q-24 44 -41 58q-24 21 -68 21h-119v30q-4 0 14 -1h14q58 0 67 18q4 8 3 22v107q0 76 -48 121q-47 43 -124 43h-57h-33h-24q-19 0 -19 14q0 13 35 18l44 2q88 6 136 38q73 49 73 126q0 54 -50 85q-42 26 -101 25q-59 0 -111 -22
q-63 -27 -80 -76q-2 -10 -8 -28q-5 -10 -17 -10q-20 0 -19 23l4 120q1 24 17 24q13 0 55 -42q66 42 162 42q82 0 152 -32q90 -40 91 -110q0 -127 -189 -176q80 -12 134 -57q62 -52 63 -131v-73q0 -34 7 -47q12 -25 96 -23q0 7 -1 -20v-19q1 -152 43 -183z" />
    <glyph glyph-name="uF720C" unicode="&#xf720c;" 
d="M792 -9l-4 -5h-79l-5 4q0 33 -8 43q-14 18 -61 18h-341v-42l-7 -9h-73l-6 9v139l9 5h69l8 -5v-52h67q68 0 150 56q76 52 115 116q-59 -32 -131 -32q-104 0 -175 59q-74 62 -74 165q0 92 61 156q70 72 191 72q115 0 186 -67q73 -69 73 -183q0 -111 -80 -207
q-70 -83 -181 -135h171q125 0 125 -105zM664 436q0 87 -38 143q-44 65 -126 65q-59 0 -101 -33q-58 -47 -58 -149q0 -83 44 -131q45 -50 127 -50q66 0 134 45q18 50 18 110z" />
    <glyph glyph-name="uF720D" unicode="&#xf720d;" 
d="M802 466q0 -36 -44 -60q-14 46 -50 73l-130 -163l104 -87q70 -63 87 -96q10 -21 10 -40q0 -43 -38 -85q-23 -26 -35 -26q-7 0 -7 8q0 6 6 23t6 26q0 36 -37 75q-13 14 -66 58l-286 237q-61 -72 -61 -127q0 -42 67.5 -114t67.5 -105q0 -81 -122 -81q-41 0 -41 15l23 22
q23 22 23 32q0 19 -23 67q-27 56 -31 70q-7 26 -7 57q0 76 85 179l-69 67q-36 35 -36 72q0 23 12 48q32 63 55 63q10 0 10 -8q0 -6 -3.5 -18t-3.5 -18q0 -42 46 -88q36 -37 66 -62l176 -145l129 161q-62 50 -62 93q0 68 88 85q-19 -26 -18 -45q0 -27 54.5 -76.5t54.5 -86.5z
" />
    <glyph glyph-name="uF720E" unicode="&#xf720e;" 
d="M716 642l-38 -71l-79 42l37 70zM604 598l-37 -71l-79 41l36 71zM773 118q0 -107 -110 -157q-81 -36 -204 -36q-233 0 -233 165q0 114 67 239l21 -9q-17 -40 -43 -123q-7 -33 -7 -63q0 -122 200 -122q104 0 182 34q90 40 91 107q0 39 -8 58q-40 -19 -75 -19
q-103 0 -103 91q0 55 29 105q32 57 75 57q57 0 90 -78q28 -66 28 -154v-95zM696 299q-6 14 -20 40q-14 18 -32 18q-45 0 -46 -40q0 -33 47 -32q18 -1 51 14z" />
    <glyph glyph-name="uF720F" unicode="&#xf720f;" 
d="M834 416q0 -60 -125 -143q-97 -64 -263 -66q21 -14 138 -102q7 -5 36 -14q29 -6 35 -12q15 -14 15 -39t-21 -40q-19 -13 -45 -12q-61 0 -134 101q-39 53 -90 85q-44 27 -73 27q-21 0 -32 -5q-19 -10 -19 -47v-57l1 -58q0 -42 -18 -42q-25 0 -51 97q-22 83 -22 126
q0 31 24 51q23 19 55 19q26 0 66 -3q46 -3 64 -3q180 0 264 64q14 11 71 77q46 53 78 53q46 0 46 -57z" />
    <glyph glyph-name="uF7210" unicode="&#xf7210;" 
d="M553 348l-36 -71l-80 42l38 71zM647 243l-36 -71l-80 41l37 71zM726 12l-111 -77h-28q-223 0 -302 94q-49 59 -49 157q0 144 124 241q17 14 86 59q-9 0 -28 1.5t-28 1.5q-31 0 -70 -6q-26 -4 -70 -12q20 55 37 71q37 36 123 37q32 0 132 -14q46 -6 80 -6q14 0 41.5 3
t41.5 3l-18 -82q-103 -18 -176 -40q-242 -75 -242 -222q0 -117 133 -168q92 -36 231 -35h90zM531 213l-36 -69l-81 41l38 70z" />
    <glyph glyph-name="uF7211" unicode="&#xf7211;" 
d="M681 638q0 -20 -16 -36t-36 -16q-49 0 -48 46q0 20 16 37t36 17q48 0 48 -48zM770 511q0 -20 -15.5 -36t-35.5 -16q-49 0 -50 46q0 20 16.5 37t36.5 17q48 0 48 -48zM570 511q0 -20 -15.5 -36t-35.5 -16q-49 0 -49 46q0 20 16 37t35 17q49 0 49 -48zM764 308
q0 -81 -53 -128q-51 -46 -132 -47q-85 0 -148 97q-66 -58 -66 -84q0 -12 40 -30q58 -26 75 -38q41 -27 41 -61q0 -55 -116 -107q-102 -45 -167 -46q-69 0 -69 46q0 41 68 47q35 3 89 17q72 19 72 36q0 6 -8 11q-4 2 -33 15q-51 21 -68 34q-33 25 -33 64q0 83 149 196
q144 108 234 108q56 0 90.5 -37t34.5 -93zM669 299q0 55 -44 55q-56 0 -131 -70q15 -25 40 -44q28 -21 55 -22q80 0 80 81z" />
    <glyph glyph-name="uF7212" unicode="&#xf7212;" 
d="M831 407q0 -60 -37 -105t-96 -61l46 -197l-44 -72h-488l-43 70v59h394q22 0 22 21q0 5 -2 33q-3 43 -4 86q-99 22 -145 50q-74 44 -74 123q0 76 81 132q74 51 154 51q84 0 156 -52q80 -56 80 -138zM737 404q0 40 -59 67q-48 22 -95 22q-40 0 -83 -24q-50 -27 -50 -63
q0 -42 56 -63q41 -16 91 -15q140 -1 140 76z" />
    <glyph glyph-name="uF7213" unicode="&#xf7213;" 
d="M748 572q0 -31 -38 -56q-12 -8 -30 -11q-16 -3 -20 -8q-8 -9 -8 -37q0 -37 8 -107.5t10 -106.5q0 -7 -1 -20q-1 -15 -1 -21q0 -20 8 -55q8 -38 9 -55q0 8 0 -33q0 -16 11.5 -47.5t11.5 -47.5q0 -6 -15.5 -15.5t-23.5 -11.5q-5 -1 -38 -1q-111 0 -111 38q2 2 11 17
q13 21 13 58q-1 8 -4 29l-4 34q-5 15 -29 15q-6 0 -33 -10q-29 -11 -38 -14q-32 -7 -70 -6q-17 0 -37.5 19.5t-20.5 36.5q0 51 65 51q21 0 60.5 -7.5t60.5 -7.5q57 0 57 51q0 27 -8 42q-5 12 -31 20q-21 7 -38 7q-63 0 -109 -14q-4 -1 -17 -9t-17 -8q-16 0 -41 19
q-16 12 -16 41q0 21 10 40q12 23 30 23q30 0 91 -15t92 -15q44 0 45 47q0 18 -9 36q-11 21 -27 21q-3 0 -10.5 -1.5t-11.5 -1.5q-31 0 -95 37t-81 37q-3 0 -24.5 -14t-26.5 -14q-14 0 -23 12t-9 27q0 24 46 62q45 38 70 38q36 0 68 -27q16 -13 51 -58q31 -39 53 -54
q10 -7 38 -6q1 0 19 5q35 9 59 59q21 44 68 44q12 0 31.5 -19.5t19.5 -31.5z" />
    <glyph glyph-name="uF7214" unicode="&#xf7214;" 
d="M842 366q0 -43 -86 -154q-40 -51 -67 -75q-81 -74 -193 -149q-145 -97 -210 -96q-33 0 -34 27q0 9 22 75l49 146q24 85 25 151q0 86 -58 158q-42 52 -132 111l88 84q91 -59 133 -112q59 -72 59 -160q0 -65 -27 -157q-14 -48 -51 -152q-20 -54 -20 -66q0 -21 23 -21
q64 0 170 98q73 68 140 155q38 50 38 65q0 20 -53 34q-11 2 -71 14q-10 20 -10 45q0 67 21 114q17 38 66 95q33 40 43 50q49 48 99 48h26l-65 -81q-27 0 -57 -9q-36 -10 -49 -27l-6 -18q-5 -13 -15 -38q-8 -21 -8 -41q0 -48 43 -47h45q42 0 76 -14q46 -18 46 -53z" />
    <glyph glyph-name="uF7215" unicode="&#xf7215;" 
d="M746 586q0 -8 -5 -24q-5 -18 -12 -18t-38 23q-27 -41 -53 -75q-28 -36 -95 -84q-72 -52 -108 -52q-8 0 -9 4q0 2 9 9q42 30 126 91q69 53 99 117l-46 18q-25 14 -25 38q0 26 31 73q33 49 58 49q37 0 37 -64q0 -36 -10 -69q41 -23 41 -36zM555 585q0 -12 -6 -25
q-7 -16 -18 -16q-2 0 -8 5q-37 -60 -94 -113q-72 -67 -127 -67q-9 0 -9 5t20 17q66 40 102 71q46 41 77 96q-22 10 -45 20q-25 14 -25 37q0 28 30 74q32 48 59 48q36 0 36 -65q0 -48 -10 -67q18 -11 18 -20zM685 241q0 -27 -28 -27q-27 0 -27 27t27 28q28 -1 28 -28z
M613 290q0 -27 -28 -28q-27 0 -27 28q0 27 27 27q28 0 28 -27zM733 169q0 -27 -27 -27t-28 27q0 27 28 27q27 0 27 -27zM527 307q0 -27 -27 -28q-27 0 -27 28q0 27 27 27t27 -27zM750 84q0 -27 -27 -27t-28 27q0 27 28 27q27 0 27 -27zM733 -1q0 -27 -27 -27t-28 27
q0 27 28 27q27 0 27 -27zM442 290q0 -27 -27 -28q-27 0 -28 28q0 27 28 27q27 0 27 -27zM370 241q0 -27 -27 -27t-28 27q0 27 28 28q27 -1 27 -28zM685 -73q0 -27 -28 -28q-27 0 -27 28q0 27 27 27q28 0 28 -27zM613 -122q0 -27 -28 -27q-27 0 -27 27t27 28q28 -1 28 -28z
M322 169q0 -27 -28 -27q-27 0 -27 27t27 27q28 0 28 -27zM305 84q0 -27 -28 -27q-27 0 -27 27t27 27q28 0 28 -27zM527 -139q0 -27 -27 -27t-27 27t27 28q27 -1 27 -28zM322 -1q0 -27 -28 -27q-27 0 -27 27t27 27q28 0 28 -27zM442 -122q0 -27 -27 -27t-28 27q0 27 28 28
q27 -1 27 -28zM370 -73q0 -27 -27 -28q-27 0 -28 28q0 27 28 27q27 0 27 -27zM681 635v18q0 15 -13.5 27t-28.5 12q-11 0 -11 -23q0 -7 2 -12q3 -8 51 -22zM515 616v15q0 17 -13 30t-30 13q-11 0 -12 -23q0 -7 2 -11q4 -7 53 -24z" />
    <glyph glyph-name="uF7216" unicode="&#xf7216;" 
d="M925 504h-422q66 -61 67 -129q0 -90 -103 -142q21 -17 65 -58q64 48 91 63q42 23 81 23q67 0 110 -60q38 -53 38 -114q0 -92 -88 -194l-65 64q103 115 103 198q0 50 -43 50q-54 0 -137 -70q-9 -6 -26 -19t-22 -27q0 -27 -6 -76q-15 -61 -76 -94q-49 -26 -103 -26
q-122 0 -232 200q-39 70 -39 82q0 5 6 12l9 11q39 -92 94 -153q68 -76 142 -76q55 0 94.5 37.5t39.5 91.5q0 16 -4 35q-8 33 -23 53q-6 8 -21 21q-18 15 -25 14q-5 0 -21.5 -4.5t-23 -5t-46.5 -0.5q-15 0 -40 2q-30 2 -41 3q-1 3 -20 88q29 -3 84 -3t106 8q28 4 61.5 38.5
t33.5 63.5q0 21 -22 57q-25 40 -49 39h-377v79h850v-82z" />
    <glyph glyph-name="uF7217" unicode="&#xf7217;" 
d="M804 442h-245v-167q22 -17 37 -17q44 0 79 60q3 5 10 31q1 3 8 4q12 0 37 -32q22 -27 30 -43q27 -58 27 -122q0 -95 -61 -155t-156 -60q-117 0 -225 128q-90 107 -129 237q15 7 45 24q13 -101 112.5 -193.5t199.5 -92.5q62 0 99.5 36.5t37.5 98.5q0 21 -7 40
q-26 -18 -65 -36q-46 -21 -68 -22q-8 0 -88 72v208h-288l-18 66h512q2 2 2 5q0 30 -19 48.5t-49 18.5q-11 0 -46 -8q-67 -15 -98 -15q-115 0 -149 60q-10 19 -10 30q0 14 7 29q8 18 21 18q4 0 13 -14q11 -18 20 -27q17 -14 43 -14q5 0 35 6l132 20q12 0 45 -4q48 -6 106 -47
q63 -46 63 -90v-81z" />
    <glyph glyph-name="uF7218" unicode="&#xf7218;" 
d="M883 415h-89v-269h-179q-43 0 -90 -28q-45 -26 -71 -64q98 -105 189 -105q66 0 106 8q39 8 101 35q-52 -116 -207 -117q-132 0 -277 172q46 81 124 127q-88 54 -91 241h-90v-540h-74v540h-118v66h118q0 97 49 162q54 72 147 72q63 0 115 -47t56 -110h-74q-5 36 -33 60
t-64 24q-59 0 -93 -53q-29 -45 -29 -108h574v-66zM720 221v194h-248q0 -82 15 -124q24 -70 89 -70h144z" />
    <glyph glyph-name="uF7219" unicode="&#xf7219;" 
d="M812 536q0 -35 -21 -72l-72 31q17 19 17 44q0 26 -19 45.5t-45 19.5q-72 0 -72 -86q0 -53 60.5 -173.5t60.5 -190.5q0 -115 -80.5 -197t-196.5 -82q-94 0 -163 60q-72 63 -73 155q0 41 14 78q16 46 45 63q-79 43 -79 122q0 62 46 103q44 40 107 40q22 0 51 -12l-30 -66
q-14 4 -27 4q-31 0 -52.5 -19.5t-21.5 -49.5q0 -53 64 -73q26 11 57 12q52 0 99 -27l-39 -63q-24 18 -53 18q-53 0 -82 -40q-26 -36 -26 -90q0 -63 51 -104q48 -38 112 -38q84 0 144.5 60.5t60.5 145.5q0 62 -61 182.5t-61 181.5q0 67 38 113q41 48 106 48q61 0 101 -41
t40 -102z" />
    <glyph glyph-name="uF721A" unicode="&#xf721a;" 
d="M842 188q0 -69 -70 -114l59 -122h-65l-81 167q95 17 95 78q0 33 -26 55q-23 20 -58 26q14 45 14 85q0 104 -98 172q-84 58 -178 57q-101 0 -171 -63q-72 -65 -73 -166q0 -35 3 -45q6 -21 32 -41q50 51 85 81q16 -14 45 -38q-29 -29 -85 -88q-32 -35 -32 -79q0 -58 51 -97
q45 -35 97 -35t98 35q50 38 51 90q0 40 -35 73q-29 -25 -81 -77q-3 1 -42 38l163 167l42 -42q-8 -16 -37 -44q59 -53 59 -117q0 -85 -70 -142q-64 -51 -144 -50q-86 0 -149 54q-65 56 -65 141q0 31 18 84q-1 1 -6 5q-63 21 -63 129q0 125 99 208q92 78 210 78q93 0 189 -52
q121 -65 141 -173q9 -45 9 -65q0 -7 -2 -23t-1 -25q40 -27 55 -52q17 -28 17 -73z" />
    <glyph glyph-name="uF721B" unicode="&#xf721b;" 
d="M853 433q0 -168 -147 -168q-48 0 -78 35q-28 33 -28 81q0 21 6 43q1 2 1 5q0 4 -3 9q-38 -14 -59 -60q-18 -38 -18 -78q0 -102 85 -122q19 -5 38 -9h193v-60q-69 2 -84 -4q-11 -5 -127 -94q-173 -132 -250 -132q-65 0 -103.5 40.5t-38.5 106.5q0 44 27 77l40 -40
q-13 -26 -13 -40q0 -86 86 -86q83 0 297 183q-5 1 -31 4q-174 18 -173 178q0 74 36 129q42 64 117 64q41 0 64 -27q-18 -8 -27 -38q-8 -23 -8 -43q0 -70 57 -71q92 0 93 119q0 105 -126 161q-90 40 -176 40q-81 0 -138 -23q-71 -28 -135 -99q62 10 55 10q59 0 101 -44.5
t42 -104.5t-41 -99t-101 -39q-70 0 -108 58q-30 46 -31 107q0 146 119 227q99 67 235 67q118 0 223 -61q129 -76 129 -202zM374 372q0 39 -28.5 68.5t-67.5 29.5q-32 0 -54 -24t-22 -56q0 -99 84 -99q88 0 88 81z" />
    <glyph glyph-name="uF721C" unicode="&#xf721c;" 
d="M917 199q0 -35 -21 -61q-22 -28 -56 -28q-69 0 -69 60q0 20 9 45h-76q-7 -125 -75 -196q-71 -74 -195 -75q-108 0 -190 74q-84 76 -84 182v15h-58v58h59q5 5 9 19q13 49 71 101q12 11 99 77l-56 45q-31 30 -31 61q0 58 61 58q41 0 72 -31q15 -20 46 -59q27 -32 64 -32
q30 0 112.5 78.5t104.5 78.5q13 0 25 -7q13 -8 13 -20q0 -14 -85 -82q-47 -38 -151 -93q147 -95 170 -175q4 -13 7 -19h109q20 19 20 34q0 34 -36 33q-43 0 -52 -23q-17 9 -17 26q0 21 24 40q22 18 45 18q30 0 52 -17q25 -19 25 -48q0 -20 -27 -66q40 -8 57 -20
q25 -17 25 -51zM879 179q0 30 -39 30q-34 0 -34 -35q0 -29 34 -29q15 0 27 10t12 24zM640 273q-16 63 -77.5 113t-125.5 50q-93 0 -165 -67q-15 -14 -32 -45q-18 -34 -16 -51h416zM634 208v7h-407q18 -68 77 -108q56 -39 128 -39q64 0 129 37q73 43 73 103z" />
    <glyph glyph-name="uF721D" unicode="&#xf721d;" 
d="M867 211q0 -123 -37 -210q-51 -118 -156 -117q-117 0 -181 108q-64 -108 -157 -108q-107 0 -159 81q-44 68 -44 181q0 78 30 152q39 94 104 94q44 0 77 -53q29 -47 29 -93q0 -93 -82 -150q-6 26 -29 86q13 9 39.5 28.5t26.5 33.5q0 22 -25 23q-55 0 -86.5 -32.5
t-31.5 -88.5q0 -59 47 -97q44 -37 104 -36q38 0 67 23q20 16 47 55q11 17 41 61q72 -139 179 -139q63 0 107 69q38 61 38 127q0 135 -92 206q-81 62 -222 67q-42 -63 -119 -63q-76 0 -115 111q-29 81 -29 175h51q20 -87 24 -100q23 -60 70 -60q58 0 95 62q26 4 54 4
q82 0 153 -30q182 -79 182 -370z" />
    <glyph glyph-name="uF721E" unicode="&#xf721e;" 
d="M913 95q0 -104 -106 -143q-59 -21 -230 -38q-44 -4 -54 -5q-150 0 -253 29q-162 45 -162 155q0 74 56 116q38 29 123 52q-3 2 -7 4q-15 4 -53 16q-140 47 -140 160q0 93 68.5 162t160.5 69q63 0 117 -45q56 -47 56 -108q0 -53 -48 -83q-41 -25 -97 -26q-53 0 -94 21
q-51 25 -51 73q0 29 18 60q17 30 41 47l1 1q-1 1 -6 1q-21 0 -60 -45q-37 -42 -42 -66q-12 -52 -12 -59q0 -97 144 -137q92 -26 224 -26q94 0 174 24q102 30 144 91q22 32 22 99q0 95 -90 127q-28 10 -38 9q-3 0 -16 -2q32 -18 54.5 -57t22.5 -75q0 -45 -44 -72
q-37 -21 -86 -21q-61 0 -98 30q-42 32 -41 91q0 59 60 105q56 43 118 43q88 0 155 -61q69 -63 69 -150q0 -140 -144 -189q-17 -5 -62 -21q100 -17 139 -39q67 -37 67 -117zM703 529q0 33 -22 66q-24 36 -56 35q-31 0 -60 -36q-26 -34 -26 -67q0 -65 86 -65q33 0 54 17
q24 18 24 50zM426 522q0 32 -28.5 63.5t-60.5 31.5q-37 0 -66.5 -33.5t-29.5 -70.5q0 -32 27 -52q25 -20 57 -20q41 0 69 20q32 22 32 61zM861 91q0 83 -135 117q-82 21 -203 20q-98 0 -188 -23q-129 -34 -129 -103q0 -157 292 -158q363 0 363 147z" />
    <glyph glyph-name="uF721F" unicode="&#xf721f;" 
d="M864 401q0 -121 -60 -191q-50 -59 -171 -108q77 -54 77 -105q0 -22 -21 -55q-20 -30 -40 -43q-50 -34 -153 -34q-61 0 -117 32q-65 38 -65 94q0 22 16.5 41t38.5 19q20 0 36 -17q9 -10 9 -28q0 -10 -3 -30.5t-3 -31.5v-8q1 -3 4 -11q17 -28 80 -28q46 0 80 26
q37 28 37 74q0 57 -49 84q-30 17 -101 28q-30 5 -39 8q-25 5 -37 13q5 5 13 22q53 -28 103 -28h31q249 0 249 217q0 105 -89 161q-75 47 -186 47q-225 0 -278 -116q-13 -27 -13 -55q0 -65 56 -108q52 -41 118 -41q86 0 170 83q-9 -2 -21 -2q-41 0 -74 20q-39 23 -39 62
q0 33 26 56.5t59 23.5q45 0 73 -26.5t28 -70.5q0 -85 -74 -133q-64 -41 -155 -41q-113 0 -176 55q-68 58 -68 170q0 138 122 217q105 68 250 68q156 0 252 -75q104 -83 104 -235zM561 396q0 17 -13 32.5t-30 15.5q-20 0 -35 -15.5t-15 -34.5t13.5 -33t32.5 -14q47 0 47 49z
" />
    <glyph glyph-name="uF7220" unicode="&#xf7220;" 
d="M831 -87h-112q-18 77 -67 149q-63 94 -150 119h-14v-178q0 -14 -13 -43q-21 -48 -91 -47q-66 0 -105 44q-36 42 -35 109q0 105 90 148q14 5 41 16q2 71 18 117q10 28 68 100q51 62 51 98q0 26 -16 49q-18 26 -42 27q-28 0 -46 -33q-14 -26 -13 -50v-6h-27q2 5 2 16
q0 30 -12 56q-16 33 -46 32q-17 0 -53 -21q17 -6 45 -26q29 -38 29 -83q-1 -40 -21 -71q-23 -36 -61 -36q-82 0 -82 109q0 58 37 104q40 51 102 52q24 0 35 -6q21 -11 42 -49q17 37 33 47q12 7 40 8q60 0 100 -52q36 -46 36 -102q0 -43 -53 -127t-53 -102v-42
q146 -22 224 -159q6 34 6 68v511h113v-746zM302 502q0 21 -12 45q-15 31 -40 31q-23 0 -40 -26q-14 -23 -13 -48q0 -23 11 -46q16 -32 42 -32q22 0 38 28q14 24 14 48zM376 31l-5 150q-44 -14 -67 -54q-18 -31 -18 -65q0 -68 45 -68q21 0 29 9q5 5 16 28z" />
    <glyph glyph-name="uF7221" unicode="&#xf7221;" 
d="M825 -104h-54v583q0 86 -92 136q-76 41 -170 41q-102 0 -171 -25q-100 -37 -100 -119q0 -127 77 -128q-30 0 41.5 25.5t86.5 25.5q47 0 95 -31q54 -35 54 -79q0 -38 -51 -64q-42 -21 -85 -22q-23 0 -67.5 15t-64.5 15q-41 0 -66 -50q-20 -40 -20 -86q0 -44 38 -96
q41 -56 82 -58q12 54 38 91q33 46 81 46q47 0 81 -34t34 -81q0 -66 -50 -90q-34 -16 -108 -16q-104 0 -180 71q-79 73 -79 176q0 94 89 176q-89 55 -89 183q0 202 329 202q114 0 206 -44q115 -56 115 -158v-605zM528 327q0 26 -32 43q-26 14 -56 14q-25 0 -57 -16
q-38 -20 -38 -41q0 -19 39 -32q30 -9 56 -9q88 0 88 41zM545 3q0 19 -24 33q-21 12 -40 12q-60 0 -60 -43q0 -20 16 -35t36 -15q25 0 47 11q25 14 25 37z" />
    <glyph glyph-name="uF7222" unicode="&#xf7222;" 
d="M536 639q0 -38 -25.5 -63t-63.5 -25q-39 0 -63 24.5t-24 63.5q0 38 25.5 63t62.5 25t62.5 -25.5t25.5 -62.5zM884 654q-10 -29 -51 -61q-37 -29 -70 -39q-9 -2 -57 -7q-62 -5 -119 -15q-26 -4 -66 -28q-12 -7 -33 -24q-26 -20 -27 -26q0 -6 12 -32t11 -38q-6 2 -22 3
l-7 14q-21 32 -66 59q-16 10 -79 41q-47 23 -81 31q-48 12 -113 16q4 15 12 44q8 26 20 39q118 -12 294 -147q29 34 79 79q63 57 83 57h101q29 0 93 11q73 12 86 23zM766 372q-14 -24 -29 -161q-12 -118 -12 -171v-215h-27v10q0 37 -16 74q-29 69 -102 175q-89 129 -132 129
q-13 0 -25 -20q-11 -19 -11 -33q0 -12 21 -30q28 -24 39 -42q21 -33 21 -81q0 -53 -43 -83q-38 -27 -93 -28q-87 0 -138 60q-49 57 -49 145q0 78 43 189h-40q4 23 21 82h135q-7 -27 -21 -82h-43q-65 -93 -66 -182q0 -66 44 -113q45 -49 111 -49q40 0 65 19q27 21 28 60
q0 24 -19.5 40t-44.5 16h-12q-13 0 -21 1h-33l141 210h-77l20 80h178l-20 -80h-76q71 -68 127 -177q27 -53 86 -201l5 166q0 44 -7 104q-9 81 -23 96q-6 6 -17 12q2 9 21 80h91zM499 639q0 19 -16.5 34.5t-35.5 15.5t-34 -15.5t-15 -34.5q0 -21 14 -36t35 -15q20 0 36 15.5
t16 35.5z" />
    <glyph glyph-name="uF7223" unicode="&#xf7223;" 
d="M957 288q0 -104 -72 -180q-73 -78 -177 -78q-25 0 -49 5v63q27 -7 51 -7q74 0 131 62q55 61 55 136q0 74 -55.5 127t-130.5 53q-54 0 -101 -26q-49 -27 -74 -73q16 -45 16 -82q0 -166 -176 -254l-16 57q125 80 124 198q0 72 -53.5 126t-124.5 54q-74 0 -133 -53
q-61 -55 -61 -128q0 -137 128 -196l-16 -58q-179 73 -180 254q0 107 78 176q74 66 183 66q120 0 196 -104q82 104 208 104q104 0 176 -69q73 -70 73 -173z" />
    <glyph glyph-name="uF7224" unicode="&#xf7224;" 
d="M815 86q0 -104 -93 -164q-81 -53 -190 -53q-89 0 -157 33q-87 42 -88 121q0 56 46 93q36 29 64 30l3 -9q-26 -47 -26 -96q0 -63 50 -98q44 -31 110 -30q80 0 130 42q53 45 52 124q0 139 -108 139h-29l-7 6v31l9 7h31q48 0 79 46q28 42 28 91q0 149 -114 150
q-39 0 -88 -31q26 -40 26 -112q0 -83 -48 -135q-50 -54 -133 -54q-85 0 -131 48.5t-46 134.5q0 84 49 137t132 53q78 0 124 -43q62 42 127 43q81 0 133 -48q54 -50 54 -129q0 -100 -116 -165q1 -1 0 -3v-3q128 -51 127 -156zM463 397q0 152 -103 153q-52 0 -77 -46
q-21 -37 -21 -93q0 -154 111 -154q90 -1 90 140z" />
    <glyph glyph-name="uF7225" unicode="&#xf7225;" 
d="M951 25q0 -45 -129 -45q-19 0 -43 1l-24 1l-473 4q-6 0 -43 4q-24 2 -45 14q-11 6 -19 28q-6 18 -6 27v122q0 66 -4 84q-6 22 -31 34q-16 8 -85 38q17 23 62 24q43 0 114 -18q3 -1 16 -10q12 -9 17 -9h164l266 15q24 192 24 205v18h-459l-19 -12q-19 -12 -39 -12
q-22 0 -69 21q-54 25 -51 48h453q87 0 136 10q2 0 41 13q30 10 58 11q12 0 38.5 -7.5t33.5 -13.5q1 -3 1 -7q0 -12 -15 -39q-18 -35 -22 -47q-20 -63 -50 -172l50 -10q32 -9 40 -31q0 -7 -9 -14q-49 -14 -55 -13h-524v-196q0 -14 11 -31q13 -20 29 -20h414q5 0 30 10
q27 11 36 13q21 6 70 6q110 -1 110 -44z" />
    <glyph glyph-name="uF7226" unicode="&#xf7226;" 
d="M828 575q-51 -24 -97 -24q-67 0 -87 53l-81 -11q13 -11 14 -47q0 -46 -14 -124q97 12 121 12q96 0 96 -89q0 -83 -87 -124q-66 -31 -161 -31q-20 -149 -20 -185q0 -28 6 -39q9 -15 35 -15q6 0 50 4q34 71 159 71l1 -9q-19 -29 -19 -57q0 -39 36 -69v-13q-50 -17 -91 -17
q-88 0 -87 76q-19 0 -182 -18l-4 -1q-42 -5 -42 50l26 209q-68 -19 -128 -19q-100 0 -100 90q0 83 94 124q71 32 166 31q12 95 12 113q0 46 -23 58l-31 -4q-19 -50 -73 -68q-35 -11 -103 -11v11q25 24 25 56q0 31 -25 66v11q56 15 87 15q80 0 89 -66l248 32q0 4 -1 9
q0 80 174 80v-8q-18 -29 -18 -52q0 -33 35 -61v-9zM650 325q0 83 -62 83q-14 0 -25 -5l-26 -195q53 0 83 31.5t30 85.5zM429 387q-58 0 -90 -35t-32 -93q0 -69 64 -69q17 0 30 4z" />
    <glyph glyph-name="uF7227" unicode="&#xf7227;" 
d="M933 235q-5 -1 -24 -3q-14 -2 -24 -2q-130 0 -135 128h-7q-33 0 -105 -4l-47 -2q-58 0 -58 46q0 16 6 38q-2 2 -9 2q-8 0 -63 -3l-207 -204l1 -2q2 0 5 1t25 8q62 19 97 18q86 0 86 -90q0 -60 -27 -95q4 -2 11 -2q65 0 76 4q11 13 32 34q31 22 142 22q-12 -36 -12 -61
q0 -34 30 -79v-9q-45 -11 -74 -11q-111 0 -117 78l-4 8q-21 1 -36 1q-62 0 -123 -14q-33 -7 -87 -25q-142 -48 -135 -48q-40 0 -63 35q-20 31 -20 73q0 62 31 108q35 52 87 104q40 39 116 119q69 76 69 142q0 29 -24 56q19 3 86 13q39 6 42 6q28 0 36 -14q5 -9 5 -38
q0 -55 -36 -116q2 -2 18 -2h54q29 55 30 84q0 19 -12 28v7q67 12 113 12q44 0 44 -30q0 -28 -22.5 -80.5t-22.5 -70.5q0 -28 66 -28q-10 0 31 1l138 5q-18 -29 -18 -63q0 -20 9 -41q11 -24 26 -32v-12zM319 148q0 66 -38 67q-14 0 -35 -7q-33 -54 -34 -113q0 -70 42 -70
q34 0 52 47q13 35 13 76z" />
    <glyph glyph-name="uF7228" unicode="&#xf7228;" 
d="M876 175q0 -96 -50 -194q-63 -125 -167 -125q-93 0 -93 87q0 27 15 73h13q0 -9 1 -53q0 -75 58 -74q71 0 104 129q20 79 20 157q0 122 -51 207q-65 108 -195 109q-55 0 -103 -34q-57 -40 -71 -109q139 -59 140 -242q0 -54 -28 -125q-38 -96 -97 -96q-13 0 -18 5
q6 13 23 45q13 23 27 62q9 45 9 102q0 206 -88 206q-62 0 -95 -88q-22 -60 -22 -115q0 -34 15 -97q15 -66 29 -84q18 -17 40 -46q-9 -9 -15 -8q-39 0 -80 37q-39 35 -50 74q-23 78 -23 119q0 181 189 251q4 1 13 32q10 37 66 87q45 40 83 59v123q0 24 -40 33q-14 2 -43 7
q-12 5 -12 19q0 16 16 15h255q20 0 20 -13q0 -6 -5 -13l-48 -12q-45 -13 -45 -35v-116q60 -21 127 -59q176 -101 176 -300z" />
    <glyph glyph-name="uF7229" unicode="&#xf7229;" 
d="M783 82q0 -113 -96 -170q-79 -46 -201 -46q-153 0 -269 51v27l142 285h-142v69h142l-142 284v30q101 43 246 43q120 0 207 -41q113 -54 113 -161q0 -66 -41 -115q-38 -45 -104 -66q66 -16 105.5 -69t39.5 -121zM704 442q0 143 -233 142q-105 0 -160 -27l130 -259h20v84
h77v-84q64 0 113 39q53 42 53 105zM704 77q0 69 -49 111q-47 41 -117 41v-93h-77v93h-20l-130 -264q79 -30 176 -29q88 0 143 26q74 36 74 115z" />
    <glyph glyph-name="uF722A" unicode="&#xf722a;" 
d="M907 -72h-81l-235 242l-47 -46l182 -196h-88l-137 146l-143 -146h-84l178 193l-43 49l-239 -242h-77l270 292l-181 192h-82v28h790v-28h-72l-185 -192zM726 412h-83l-99 -97l47 -49zM544 412h-88l46 -47zM544 220l-45 46l-43 -46l46 -47zM452 315l-98 97h-80l135 -142z
" />
    <glyph glyph-name="uF722B" unicode="&#xf722b;" 
d="M805 732q-63 -200 -188 -326q-121 -122 -322 -196v-375h-78v897h78v-242q88 42 141.5 97.5t92.5 144.5h84q-51 -127 -121.5 -199.5t-196.5 -127.5v-112q166 65 267 169t160 270h83z" />
    <glyph glyph-name="uF722C" unicode="&#xf722c;" 
d="M875 331q0 -47 -36 -47q-25 0 -35 16q-3 5 -18 73q-19 87 -46 146q-23 49 -76.5 81t-108.5 32h-13q-3 -17 -4 -42q0 -56 4 -97q1 -9 46.5 -51t45.5 -61q0 -21 -103 -84q23 -13 68 -40q50 -31 50 -50q0 -18 -50 -53q-3 -2 -68 -45q119 -70 118 -95q0 -21 -22 -36
q-8 -6 -41 -21.5t-48 -26.5q-20 -14 -42 -51q-3 -6 -13 -20q-17 -20 -39 -20q-36 0 -36 29q0 34 50 76q25 21 77 61q-48 27 -118 73q-9 8 -9 22q0 18 51 54q22 16 68 47l-68 40q-51 31 -51 52q0 22 119 92q-22 17 -56 61q-9 19 -9 59q0 55 -4 120l-2 3q-41 0 -99 -35
q-96 -59 -132 -193q-18 -66 -37 -119q-6 -9 -25 -9q-39 0 -38 44q0 30 25 108q94 289 348 289q159 0 268 -106.5t109 -265.5v-10z" />
    <glyph glyph-name="uF722D" unicode="&#xf722d;" 
d="M870 500q0 -123 -68 -204q-73 -86 -194 -87q-90 0 -196 43q-61 -120 -88 -354q-24 2 -74 7q16 219 92 385q-47 35 -113 126q-61 84 -89 147l66 33q69 -136 166 -230q68 134 123 200q92 112 193 112q84 0 133 -47.5t49 -130.5zM795 495q0 101 -98 101q-84 0 -159 -99
q-37 -48 -100 -173q84 -40 172 -40q87 0 138 63q47 59 47 148z" />
    <glyph glyph-name="uF722E" unicode="&#xf722e;" 
d="M814 711l-264 -654h-277l83 328l-2 4l-163 -5l42 103h183l-82 -324h216l221 548h43zM531 -17l-42 -104h-265l42 104h265z" />
    <glyph glyph-name="uF722F" unicode="&#xf722f;" 
d="M976 122q0 -7 -12 -52l-53 12q9 41 9 38q0 17 -11 17q-5 0 -38 -20t-54 -20q-22 0 -38 16.5t-16 38.5q0 34 34 68q43 43 50 57q0 11 -13 12q-16 0 -84.5 -40t-106.5 -40q-17 0 -33 19.5t-16 36.5q0 48 68.5 156t68.5 121q0 12 -19 12q-35 0 -101 -105q-18 -28 -80 -141
q-66 -120 -103 -169q-80 -104 -153 -105q-51 0 -79 38q-25 34 -26 86q0 48 29.5 140.5t29.5 139.5q0 26 -21 41q-19 14 -45 14q-24 0 -120 -36l-19 51q22 9 68 26q38 14 71 14q50 0 84 -29q36 -31 36 -81q0 -48 -29 -140t-29 -140q0 -69 50 -69q64 0 144 135q47 84 143 250
q81 135 150 135q30 0 52 -19t22 -48q0 -33 -68 -138t-68 -129q0 -8 9 -8q16 0 78.5 38t96.5 38q28 0 48.5 -18t20.5 -46q0 -26 -43 -72t-43 -55q7 0 39 20q31 20 53 19q28 0 47.5 -20.5t19.5 -48.5z" />
    <glyph glyph-name="uF7230" unicode="&#xf7230;" 
d="M758 552q0 -33 -26 -55.5t-59 -22.5q-38 0 -38 23q0 4 17 21l22 20q1 2 1 4v4q0 32 -56 51q-43 15 -84 15q-75 0 -137 -49q-66 -52 -65 -124q0 -65 59 -112q51 -41 120 -54q0 12 -1 21q0 71 23 107q28 43 95 43q53 0 86 -28q36 -30 36 -83q0 -121 -146 -146v-124
q0 -22 -17 -46.5t-38 -33.5q-47 -20 -110 -19q-51 0 -91 12q-70 21 -71 206h87l6 -91q10 -43 67 -43q47 0 64 24q13 18 14 60q0 8 -0.5 23.5t-0.5 23.5q-110 16 -186 75q-87 69 -87 172q0 112 91 186q85 69 200 69q77 0 141 -27q84 -36 84 -102zM675 335q0 40 -33 40
q-38 0 -38 -67q0 -6 1 -19t1 -19q29 0 49 18.5t20 46.5z" />
    <glyph glyph-name="uF7231" unicode="&#xf7231;" 
d="M787 582q0 -26 -19 -43.5t-45 -17.5h-94v-613h-108v189l-170 -119q-8 -1 -11 -1l-132 26v12l316 127v79h-99q-53 0 -90 27q-42 31 -42 82q0 48 44 74q37 22 88 22h99v90l-5 5q-80 6 -166 15q-8 7 -11 20q17 14 90 25q61 9 98 9h143q17 0 17 19q0 9 -23 55t-23 52
q0 14 13 14q3 0 5 -1l73 -69q52 -53 52 -78zM524 257v146h-95q-29 0 -45 -21q-15 -19 -15 -49q0 -28 12 -50q15 -26 41 -26h102z" />
    <glyph glyph-name="uF7232" unicode="&#xf7232;" 
d="M922 438h-324q-119 0 -171 -30q-69 -41 -69 -151q0 -78 38 -129q42 -57 118 -57q86 0 129 85q32 65 32 161v81h68v-81q0 -126 -50 -212q-61 -103 -179 -103q-104 0 -167 77q-58 71 -57 178q0 249 294 249h338v-68zM264 419q0 -39 -27 -64.5t-66 -25.5t-66 26t-27 64
q0 39 27 64.5t66 25.5t66 -25.5t27 -64.5zM217 419q0 20 -13 33.5t-33 13.5t-33 -13.5t-13 -33.5t13 -33t33 -13t33 13t13 33z" />
    <glyph glyph-name="uF7233" unicode="&#xf7233;" 
d="M842 256q-53 -59 -91 -97l65 -75v-61l-108 91q-41 -42 -121 -129h-87l157 171q-29 29 -99 86q-1 -1 -7 -9q-62 -198 -205 -198q-93 0 -142 63q-45 57 -46 152q0 74 34 129q43 70 124 70q45 0 101 -27q49 -24 88 -58q1 1 6 9q18 93 36 191v9h-376v79h607v-77h-163
l-46 -248q17 -21 60 -57q62 -52 73 -62l104 103q6 -10 36 -55zM491 273q0 12 -51 48q-44 31 -66 42q-17 8 -37 8q-45 0 -69 -45q-19 -34 -19 -73q0 -51 23 -92q30 -54 88 -54q71 0 116 123z" />
    <glyph glyph-name="uF7234" unicode="&#xf7234;" 
d="M791 57q0 -31 -27 -73q-31 -49 -64 -69q-31 -19 -90 -27q40 44 51 60q28 39 27 70q-6 16 -14 37q-54 -54 -111 -55q-28 0 -55 29q-8 9 -39 51q-51 -48 -62 -56q-35 -24 -78 -24q-39 0 -69 23q-33 24 -32 61v255q0 82 -19 135q58 41 76 41q10 0 24.5 -20t14.5 -32v-342
q0 -43 34 -43q47 0 84 49q13 18 14 51v253q0 15 -10 42t-10 42q0 10 23 19q21 8 33 8q15 0 74 -60q117 70 143 70q31 0 56.5 -29t25.5 -61v-405zM677 119v319q0 7 -5.5 17.5t-11.5 10.5q-34 0 -64 -16q-36 -20 -36 -51v-246q0 -27 14 -54q17 -33 42 -33q16 0 38.5 19
t22.5 34z" />
    <glyph glyph-name="uF7235" unicode="&#xf7235;" 
d="M618 568h-11q-27 0 -81 46q-9 8 -26 31q-44 -55 -93 -73q-11 -4 -13 -5q-4 0 -14 3l34 34q19 21 28 38q7 21 26 60q5 8 30 8q23 0 27.5 -4t16.5 -31q12 -29 16 -35q8 -13 60 -72zM807 12q0 -76 -62 -113q-50 -30 -131 -30q-115 0 -163 88v8l6 -1q51 -59 135 -59
q64 0 104 26q47 30 48 90q0 37 -28 68.5t-65 31.5q-5 0 -14.5 -2.5t-13.5 -2.5q-17 0 -18 25v4q8 2 33 9q86 22 87 163q0 72 -20 119q-27 66 -89 66q-38 0 -70 -44q-30 -41 -30 -78q0 -11 3.5 -33.5t3.5 -33.5q0 -192 -173 -192q-54 0 -98 25q-11 6 -34 30q-25 25 -25 33
q0 10 23 21q19 8 33 10q21 -47 33 -63q24 -29 63 -30q58 0 85 64q20 47 20 114q0 177 -106 177q-56 0 -91 -85q-14 2 -33 10q-24 10 -24 21q0 14 25 36q21 19 38 27q45 20 95 20q44 0 82 -21q40 -22 57 -62q57 83 131 83q88 0 134 -64q42 -56 42 -147q0 -61 -22 -108
q-26 -56 -78 -73l4 -3q103 -20 103 -124z" />
    <glyph glyph-name="uF7236" unicode="&#xf7236;" 
d="M871 377q0 -44 -68 -65q-47 -15 -104 -15q-46 0 -107 19q-78 23 -78 57v307q0 15 -20 35q23 25 37 25q20 0 32 -21q10 -18 10 -39v-295q19 -10 62 -19q40 -9 64 -9q25 0 59 5q45 7 54 18v204q-9 13 -16 13q-2 0 -25 -16t-29 -16t-27.5 16t-24.5 16q-5 0 -13 -10v-95
q7 -10 11 -10q2 0 8.5 3.5t11.5 3.5q10 -20 10 -30q0 -15 -10 -27.5t-25 -12.5q-16 0 -38 13q-24 14 -24 29v157q51 42 62 42q18 0 59 -34q50 33 63 34q23 0 66 -46v-237zM389 445q0 -71 -29 -102q-30 -32 -99 -31q-32 0 -62 12q-35 14 -49 38q-4 7 -4 13q0 20 17 20
q7 0 19 -7q8 -5 19 -10q19 -7 60 -7q45 0 57 15q11 13 11 59v110q0 31 -4 42q-7 20 -32 23q-11 1 -31 2q-42 0 -72 -23q-1 -7 -2 -9v-52q0 -6 4 -13q14 0 33 15q17 -19 17 -36q0 -47 -51 -46q-62 0 -62 77v68q0 36 51 59q42 20 82 19q68 0 97.5 -29t29.5 -97v-110zM587 -182
h-60v265q-42 -24 -84 -24q-45 0 -79.5 32t-34.5 76q0 31 23 57.5t53 26.5q41 0 40 -34q0 -30 -26 -30q-8 0 -15 4q-16 -10 -16 -24q0 -20 17.5 -34.5t37.5 -14.5q39 0 84 36v79h60v-415z" />
    <glyph glyph-name="uF7237" unicode="&#xf7237;" 
d="M905 214q0 -3 -29 -40q-62 -79 -84 -99q-58 -58 -109 -58q-36 0 -84 63q-28 39 -86 117q-48 63 -80 63q-45 0 -132 -103l-113 -143q-13 7 -52 49q-41 43 -41 53q0 11 31 68q41 75 107 154q88 106 139 106q36 0 104 -76q25 -28 114 -140q60 -76 74 -76q26 0 62 39t36 66
q0 37 -221 283q21 26 58 55q52 -48 173 -193q133 -160 133 -188zM502 85q0 -5 -39 -42t-46 -37q-18 0 -44.5 24.5t-26.5 41.5q0 21 30.5 54.5t50.5 33.5q7 0 41 -34t34 -41z" />
    <glyph glyph-name="uF7238" unicode="&#xf7238;" 
d="M842 382q0 -59 -12 -90q-12 8 -16 38q-10 71 -13 87q-9 50 -24 84q-6 12 -27 55q-12 24 -31 52q-84 87 -257 87q-132 0 -224 -63h1q46 -12 46 -57q0 -30 -38.5 -86.5t-38.5 -75.5q0 -44 17 -74q21 -36 62 -37q12 33 23 67q15 32 50 46q27 11 53 11h15q42 -65 53 -79
q38 -45 78 -45q17 0 36 7q-51 9 -51 64q0 30 21 48.5t52 18.5q74 0 73 -76l-1 -309q0 -46 -25 -105q-50 -119 -282 -119q-93 0 -153 38q-70 45 -69 134q0 79 52 128q51 48 131 49q30 0 65 -2q24 -1 83 -16q60 -16 77 -27q7 -5 15 -16q-19 -5 -28 -5q-10 0 -38 5l-90 15
q-54 9 -91 10q-59 0 -92 -36.5t-33 -96.5q0 -66 46 -103q42 -34 110 -34q49 0 78 2q75 6 113 27q85 46 85 180l-1 191q-34 -21 -71 -21q-121 0 -173 122q-39 -5 -57 -46q-15 -32 -14 -76h-31q-9 0 -40 7q-98 23 -98 162q0 26 36.5 82.5t36.5 62.5q0 26 -32 27q-9 0 -18 -12
q4 30 14 70q4 7 16 17q23 18 36 26q79 48 215 48q113 0 190 -31q57 -23 106 -83q45 -56 64.5 -118t19.5 -129zM640 354q0 10 -10.5 23t-20.5 13q-19 0 -18 -17q0 -19 32 -49q17 15 17 30z" />
    <glyph glyph-name="uF7239" unicode="&#xf7239;" 
d="M866 566l-24 -32l-171 125l-171 -125l-171 125l-171 -125l-24 32l195 180l171 -158l171 158zM685 393q0 -27 -28 -28q-27 0 -27 28q0 27 27 27q28 0 28 -27zM613 441q0 -27 -28 -27q-27 0 -27 27t27 27q28 0 28 -27zM733 320q0 -27 -27 -27t-28 27q0 27 28 28
q27 -1 27 -28zM527 458q0 -27 -27 -27t-27 27t27 27t27 -27zM750 235q0 -27 -27 -27t-28 27q0 27 28 28q27 -1 27 -28zM733 150q0 -27 -27 -27t-28 27q0 27 28 28q27 -1 27 -28zM442 441q0 -27 -27 -27t-28 27q0 27 28 27q27 0 27 -27zM370 393q0 -27 -27 -28q-27 0 -28 28
q0 27 28 27q27 0 27 -27zM685 78q0 -27 -28 -27q-27 0 -27 27t27 27q28 0 28 -27zM613 30q0 -27 -28 -28q-27 0 -27 28q0 27 27 27q28 0 28 -27zM322 320q0 -27 -28 -27q-27 0 -27 27t27 28q28 -1 28 -28zM305 235q0 -27 -28 -27q-27 0 -27 27t27 28q28 -1 28 -28zM527 13
q0 -27 -27 -28q-27 0 -27 28q0 27 27 27t27 -27zM322 150q0 -27 -28 -27q-27 0 -27 27t27 28q28 -1 28 -28zM442 30q0 -27 -27 -28q-27 0 -28 28q0 27 28 27q27 0 27 -27zM370 78q0 -27 -27 -27t-28 27q0 27 28 27q27 0 27 -27z" />
    <glyph glyph-name="uF723A" unicode="&#xf723a;" 
d="M933 325q0 -40 -11 -313h-34q5 112 5 304q0 33 -9 66q-14 47 -38 47q-10 0 -18 -14q-5 -9 -9 -152q-5 -158 -7 -175q-8 -78 -64 -77q-72 0 -72 140q0 21 2 64.5t2 65.5q0 90 -34.5 124t-124.5 34q-141 0 -192 -83q13 1 21 2q100 0 176 -72q79 -74 79 -173
q0 -101 -149 -101q-86 0 -136 62q-45 56 -48 145l-43 -9q7 -41 7 -77q0 -121 -77 -121q-30 0 -48 27q-15 23 -15 54q0 107 99 207q0 131 -41 131q-35 0 -47 -37q-5 -33 -10 -67l-26 9q-4 36 -4 59q0 49 19 85q23 46 67 46q75 0 75 -199q19 11 48 22q45 184 244 184
q42 0 91 -21t77 -52q29 -33 28 -136q0 -27 -2 -82t-2 -82q0 -96 35 -96q18 0 30 20q15 25 15 353q0 47 -45 78q22 7 45 7q47 0 82.5 -26.5t48.5 -72.5q10 -35 10 -98zM561 117q0 58 -99 86q-67 19 -146 19q0 -79 32 -127q37 -57 111 -57q50 0 73 14q29 18 29 65zM203 132
q0 32 -5 66q-27 -14 -47 -39q-21 -27 -21 -56q0 -16 12 -32q12 -17 27 -16q34 0 34 77z" />
    <glyph glyph-name="uF723B" unicode="&#xf723b;" 
d="M957 546q0 -30 -26 -75q-14 -23 -41 -71q-16 -29 -53 -120q-34 -84 -57 -127q-36 -68 -74 -102q-64 -55 -246 -55q-46 0 -136 14t-136 14q-21 0 -55 -13.5t-37 -13.5q-26 0 -27 20q0 32 144 203.5t144 193.5q0 35 -93 34q-83 0 -119 -19q-9 -5 -39 -37q-26 -28 -37 -28
q-25 0 -26 31q0 55 74 112q70 55 127 55q17 0 50.5 -5t49.5 -5q82 0 161 16q15 3 18 3q17 0 17 -23q0 -16 -111 -158q-45 -56 -91 -112q-80 -100 -80 -112q0 -16 49 -25q159 -29 274 -29q42 0 73 16q56 28 92 114q18 48 53 143q4 12 4 18q0 36 -122 36q-46 0 -61 -6
q-9 -4 -34 -30q-20 -21 -38 -20q-25 0 -25 18q0 4 2 12q17 57 56 98q44 47 98 47q4 0 12 -1q106 -13 128 -13q25 0 40 3q9 2 39 14q25 10 38 9q21 0 21 -24z" />
    <glyph glyph-name="uF723C" unicode="&#xf723c;" 
d="M544 578q0 -12 -10 -35h-175q-8 21 -8 34q1 7 8 35h175q10 -23 10 -34zM544 468q0 -11 -10 -37h-175q-11 22 -11 32q0 12 11 36h175q10 -20 10 -31zM894 219q0 -25 -55 -90q-30 -34 -108 -123q-29 -33 -42 -52h-6q-10 0 -35.5 20.5t-25.5 29.5q0 23 182 203q0 2 -3 3
q-75 37 -213 37q-173 0 -321 -45q-38 -11 -60 -21q-46 -21 -51 -23q-30 0 -30 38q0 64 166 107q126 33 222 32h121q78 0 155 -24q104 -33 104 -92zM515 160l-152 -183q-16 2 -34 21t-19 35q28 32 98 122q41 53 47 53q11 0 40 -21q16 -12 20 -27z" />
    <glyph glyph-name="uF723D" unicode="&#xf723d;" 
d="M970 341q0 -12 -51 -57q-47 -42 -64 -53q-117 -69 -388 -69q-43 0 -90 4q1 -8 7 -25q37 -108 105 -109q-6 0 52 5l117 8q49 0 94 -9q67 -13 67 -39q0 -8 -33 -54q-29 -42 -41 -54q-46 32 -137 32q-30 0 -89 -13t-89 -13q-52 0 -106 67q-15 19 -30 72q-15 50 -15 77v47
q0 25 -9 31q-4 1 -33 9q-44 12 -92 28q-49 16 -44 16q-8 -6 -62 -43q-8 8 -9 14q0 21 57.5 84.5t78.5 64.5l113 -44q12 1 19 11q25 77 32 92q19 50 43 88q27 42 67 95q57 76 72 76q7 -3 48 -29q64 -39 105 -47q10 -2 29 -1q83 0 133 15q19 6 39 18q6 3 48 31q40 26 41 25
q9 0 9 -10q0 -9 -14 -23q-1 -1 -21 -20q-66 -77 -133 -111q-71 -36 -169 -36q-62 0 -166 50q-18 8 -19 8q-5 0 -17 -18q-22 -34 -40 -107q-18 -69 -17 -114q0 -9 7 -12q20 -10 107 -21q80 -10 114 -10q139 0 231 24q36 10 74 28q5 2 31 17q24 14 27 15l9 -2z" />
    <glyph glyph-name="uF723E" unicode="&#xf723e;" 
d="M765 288q0 -143 -84 -244q-89 -107 -230 -107q-85 0 -143 49q-62 53 -62 137q0 42 25 70l297 348q-45 56 -137 56q-55 0 -123 -25q81 -103 81 -158q0 -13 -8 -27q-10 -15 -22 -15h-132v66h92q-23 45 -70 110q-21 29 -21 44q0 36 89 59q68 18 121 17q142 0 238 -121
q89 -112 89 -259zM694 288q0 100 -69 212l-301 -352q-7 -8 -8 -25q0 -35 21 -65q35 -51 114 -51q111 0 180 87q63 80 63 194z" />
    <glyph glyph-name="uF723F" unicode="&#xf723f;" 
d="M954 521q0 -48 -41 -48h-427q-23 0 -23 28q0 47 42 47h422q27 0 27 -27zM902 372q0 -47 -39 -47h-325q-23 0 -24 28q0 47 43 47h319q26 0 26 -28zM857 224q0 -47 -40 -47h-233q-25 0 -24 28q0 13 5 26q8 20 32 20h239q21 0 21 -27zM808 76q0 -46 -36 -46h-141
q-21 0 -20 32q0 16 11 29t27 13h137q22 0 22 -28zM557 21q0 -9 -12.5 -17.5t-22.5 -8.5q-31 0 -36 15l-60 176q-1 2 -5 6q-2 0 -4 -4l-53 -163q-8 -25 -24 -25h-269q-24 0 -25 24q0 12 6 29l162 477q8 23 42 23h162q24 0 24 -29q0 -45 -22 -45h-115q-22 0 -32 -27
q-116 -328 -116 -352q0 -16 12 -17h112q15 0 23 23l67 194q7 21 45 21q28 0 39 -10q8 -8 17 -35z" />
    <glyph glyph-name="uF7240" unicode="&#xf7240;" 
d="M628 467l-56 -58l-61 58q18 20 58 59zM694 593q0 -17 -15 -17q-12 0 -55 16.5t-66 16.5q-64 0 -113 -40q-52 -43 -52 -107q0 -79 100 -126q53 -25 170 -48l-65 -84l-78 41q-40 -30 -74 -73q61 0 113 -42q54 -45 53 -105q0 -41 -27 -77q-29 -40 -68 -40q-72 0 -136 46
q-71 50 -71 119q0 99 128 209q-132 71 -132 191q0 93 71 149q65 51 162 50q49 0 95 -17q60 -22 60 -62zM514 71q0 27 -18 56q-20 32 -45 32q-18 0 -34 -32q-20 -41 -20 -89q0 -22 15 -44q16 -24 37 -24q25 0 46 39q19 35 19 62z" />
    <glyph glyph-name="uF7241" unicode="&#xf7241;" 
d="M760 0l-117 3q-16 0 -119 -3v32q68 0 77 15q5 9 5 35v285q0 26 -7 36q-11 15 -99 15q-66 0 -72 -1q-35 -8 -34 -50v-285q0 -25 5 -35q8 -15 77 -15v-32l-118 3q-16 0 -118 -3v32q68 0 77 15q5 9 5 35v287q0 26 -5 35q-8 15 -77 14v33h520v-33q-68 0 -77 -14q-5 -9 -5 -35
v-287q0 -26 5 -35q8 -15 77 -15v-32z" />
    <glyph glyph-name="uF7242" unicode="&#xf7242;" 
d="M844 -143q0 -34 -32 -55q-28 -18 -62 -18q-69 0 -112 49q-40 47 -40 117v71q-46 -33 -104 -33q-98 0 -165 73q-65 71 -65 169q0 95 60 166q63 73 157 73q88 0 139 -60q48 -56 48 -146q0 -15 -4 -18.5t-18 -3.5h-296v-3q0 -103 31 -153q44 -70 119 -70q97 0 141 108
q6 14 14 14q14 0 12 -19l-11 -118v-53q0 -51 21 -91q26 -49 73 -49q18 0 34 7q-31 11 -32 44q0 19 13 32t32 13q47 0 47 -46zM599 263q0 70 -24 119q-31 63 -94 63q-20 0 -44 -11q-81 -38 -85 -171h247z" />
    <glyph glyph-name="uF7243" unicode="&#xf7243;" 
d="M667 561q0 -18 -13 -31t-30 -13q-18 0 -31 13t-13 31t13 30.5t31 12.5t30.5 -12.5t12.5 -30.5zM574 705q0 -6 -3 -12l-84 -189q-7 -16 -23 -16q-28 0 -28 26q0 6 2 11l85 190q7 16 23 15q28 1 28 -25zM430 658q0 -18 -13 -30.5t-30 -12.5q-18 0 -31 13t-13 30q0 18 13 31
t31 13t30.5 -13t12.5 -31zM685 339q0 -27 -28 -27q-27 0 -27 27t27 27q28 0 28 -27zM613 387q0 -27 -28 -27q-27 0 -27 27t27 28q28 -1 28 -28zM733 267q0 -27 -27 -28q-27 0 -28 28q0 27 28 27q27 0 27 -27zM527 404q0 -27 -27 -27t-27 27t27 28q27 -1 27 -28zM750 182
q0 -27 -27 -28q-27 0 -28 28q0 27 28 27q27 0 27 -27zM733 97q0 -27 -27 -28q-27 0 -28 28q0 27 28 27q27 0 27 -27zM442 387q0 -27 -27 -27t-28 27q0 27 28 28q27 -1 27 -28zM370 339q0 -27 -27 -27t-28 27q0 27 28 27q27 0 27 -27zM685 24q0 -27 -28 -27q-27 0 -27 27
t27 28q28 -1 28 -28zM613 -24q0 -27 -28 -27q-27 0 -27 27t27 27q28 0 28 -27zM322 267q0 -27 -28 -28q-27 0 -27 28q0 27 27 27q28 0 28 -27zM305 182q0 -27 -28 -28q-27 0 -27 28q0 27 27 27q28 0 28 -27zM527 -41q0 -27 -27 -27t-27 27t27 27t27 -27zM322 97
q0 -27 -28 -28q-27 0 -27 28q0 27 27 27q28 0 28 -27zM442 -24q0 -27 -27 -27t-28 27q0 27 28 27q27 0 27 -27zM370 24q0 -27 -27 -27t-28 27q0 27 28 28q27 -1 27 -28z" />
    <glyph glyph-name="uF7244" unicode="&#xf7244;" 
d="M829 0q-62 3 -173 3q-55 0 -92 -3v30q79 0 80 29q0 15 -23 77l-31 83h-237l-28 -72q-19 -51 -19 -68q0 -24 26 -38q21 -11 47 -11v-30l-111 3q-30 0 -98 -3v30q84 1 107 65l200 574q7 20 23 20t22 -20l207 -601q10 -30 42 -36q13 -3 58 -2v-30zM563 -102q0 -37 -26 -63
t-63 -26q-38 0 -64 26t-26 63q0 38 26 64t64 26t63.5 -26t25.5 -64zM580 249l-109 313l-107 -313h216zM532 -102q0 24 -17 41t-41 17t-41 -17t-17 -41t17 -41t41 -17t41 17t17 41z" />
    <glyph glyph-name="uF7245" unicode="&#xf7245;" 
d="M950 156l-32 -156h-159q-19 0 -19 20q0 72 49.5 209t49.5 209q0 91 -50 153q-54 66 -143 66t-144 -66q-50 -62 -50 -153q0 -72 49.5 -209t49.5 -209q0 -20 -19 -20h-159l-32 156h24q5 -36 9 -50q9 -33 27 -40q8 -4 27 -4h95q-13 56 -59 126l-74 117q-37 69 -37 133
q0 108 95 177q86 63 198 64q112 0 197 -64q95 -69 95 -177q0 -63 -37 -133q-5 -9 -75 -117q-45 -70 -58 -126h95q32 0 46 23q9 15 17 71h24zM348 685q0 -79 -47 -110q-23 -15 -46 -15q-32 0 -88 34.5t-70 34.5q-23 0 -35 -24q-4 -10 -11 -43h-15q4 126 91 126q32 0 88 -33.5
t71 -33.5q35 0 47 67h15v-3zM263 481q0 -19 -13 -31t-32 -12q-6 0 -18 4t-17 4q-23 0 -23 -26q0 -43 86 -52v-19q-49 4 -82 25q-40 26 -40 71q0 36 22 61t58 25q59 -1 59 -50zM683 -151q0 -41 -43 -40q-44 0 -44 39q0 7 2 13l27 118q3 13 15 13t14 -13l28 -118q1 -6 1 -12z
" />
    <glyph glyph-name="uF7246" unicode="&#xf7246;" 
d="M556 503q0 -23 -16.5 -39t-39.5 -16t-39.5 16t-16.5 39q0 22 17 38.5t39 16.5t39 -16.5t17 -38.5zM774 284q0 -22 -16.5 -38.5t-38.5 -16.5q-23 0 -39 16t-16 39t16 39.5t39 16.5q22 0 38.5 -17t16.5 -39zM757 49q0 -21 -21 -22q-7 0 -12 5l-224 224l-223 -223
q-5 -5 -13 -5q-21 0 -20 20q0 8 5 14l223 222l-223 223q-5 5 -5 13q0 21 20 21q8 0 13 -6l223 -223l224 224q5 5 12 5q21 0 21 -21q0 -7 -5 -12l-224 -224l224 -223q5 -5 5 -12zM336 284q0 -23 -16 -39t-39 -16q-22 0 -38.5 16.5t-16.5 38.5t16.5 39t38.5 17q23 0 39 -16.5
t16 -39.5zM556 65q0 -22 -17 -38.5t-39 -16.5t-39 16.5t-17 38.5q0 23 16.5 39.5t39.5 16.5t39.5 -16.5t16.5 -39.5z" />
    <glyph glyph-name="uF7247" unicode="&#xf7247;" 
d="M657 424q0 -67 -52 -112q-50 -43 -119 -43q-56 0 -98 35q-44 38 -45 93q0 41 42 41q18 0 31 -10.5t13 -27.5t-13 -27.5t-31 -10.5h-5q13 -30 42.5 -47.5t62.5 -17.5q49 0 77 42q17 26 18 90q0 57 -13 83q-21 41 -61 41q-49 0 -85 -36q-19 -19 -23 -18q-16 0 -16 18v210
q0 16 13 16q5 0 10 -2q61 -20 101 -19q35 0 105 21q3 1 4 1q12 0 12 -13q0 -7 -14 -22q-54 -54 -137 -53q-29 0 -60 7v-115q39 29 92 29q63 0 106 -45t43 -108z" />
    <glyph glyph-name="uF7248" unicode="&#xf7248;" 
d="M841 566l-30 -64q-83 102 -215 102q-85 0 -156.5 -50t-98.5 -130h433l-32 -67h-417q-1 -16 -2 -29q0 -12 2 -27h392l-32 -66h-344q30 -83 99 -132.5t156 -49.5q130 0 216 106v-96q-96 -77 -216 -77q-116 0 -208 68q-93 69 -122 181h-107l31 66h64q-1 15 -1 28q0 14 1 28
h-95l31 67h76q28 110 123 179q92 67 207 67q141 0 245 -104z" />
    <glyph glyph-name="uF7249" unicode="&#xf7249;" 
d="M785 576q0 -6 -9 -22q-19 -35 -29 -103q-4 -26 -15 -26q-9 0 -24 13q-49 45 -86 63q-24 11 -24 20q0 17 16 17q17 0 74 -39q-19 63 -70.5 102.5t-117.5 39.5q-82 0 -139 -57.5t-57 -138.5q0 -20 -20 -20t-20 20q0 98 69 167t167 69q78 0 140.5 -46t85.5 -121q25 77 42 77
t17 -15zM685 339q0 -27 -28 -27q-27 0 -27 27t27 27q28 0 28 -27zM613 387q0 -27 -28 -27q-27 0 -27 27t27 28q28 -1 28 -28zM733 267q0 -27 -27 -28q-27 0 -28 28q0 27 28 27q27 0 27 -27zM527 404q0 -27 -27 -27t-27 27t27 28q27 -1 27 -28zM750 182q0 -27 -27 -28
q-27 0 -28 28q0 27 28 27q27 0 27 -27zM733 97q0 -27 -27 -28q-27 0 -28 28q0 27 28 27q27 0 27 -27zM442 387q0 -27 -27 -27t-28 27q0 27 28 28q27 -1 27 -28zM370 339q0 -27 -27 -27t-28 27q0 27 28 27q27 0 27 -27zM685 24q0 -27 -28 -27q-27 0 -27 27t27 28
q28 -1 28 -28zM613 -24q0 -27 -28 -27q-27 0 -27 27t27 27q28 0 28 -27zM322 267q0 -27 -28 -28q-27 0 -27 28q0 27 27 27q28 0 28 -27zM305 182q0 -27 -28 -28q-27 0 -27 28q0 27 27 27q28 0 28 -27zM527 -41q0 -27 -27 -27t-27 27t27 27t27 -27zM322 97q0 -27 -28 -28
q-27 0 -27 28q0 27 27 27q28 0 28 -27zM442 -24q0 -27 -27 -27t-28 27q0 27 28 27q27 0 27 -27zM370 24q0 -27 -27 -27t-28 27q0 27 28 28q27 -1 27 -28z" />
    <glyph glyph-name="uF724A" unicode="&#xf724a;" 
d="M827 496q0 -101 -84 -204q-88 -106 -188 -106q-46 0 -76 25q-32 26 -32 71q0 34 16 59q19 29 51 29q36 0 36 -36q0 -15 -13 -28q-8 -8 -38 -17q-21 -6 -21 -28t24 -39q22 -15 47 -14q27 0 62 22q56 36 96 128q36 84 35 158q0 36 -18 61q-20 29 -54 29q-31 0 -62 -14
q-61 -29 -148 -109q-76 -69 -128 -134q71 -145 70 -213q0 -41 -15 -78q-18 -42 -49 -61q-29 -18 -56 -18q-23 0 -52 15q-57 30 -57 106q0 47 27 99q15 29 55 89q-30 73 -29 119q0 90 77 178q60 69 155 126l13 -21q-167 -99 -167 -241q0 -41 16 -76q118 125 168 167
q118 98 211 97q59 0 94 -42q34 -39 34 -99zM340 74q0 64 -73 189q-42 -65 -49 -77q-22 -43 -22 -87q0 -38 21 -66q23 -31 60 -31q29 0 47 21q16 21 16 51z" />
    <glyph glyph-name="uF724B" unicode="&#xf724b;" 
d="M891 -42q0 -60 -53 -99q-48 -35 -110 -34q-61 0 -108 29q-55 34 -55 92q0 77 104 126q-17 9 -49 32q-35 33 -35 78q0 53 47 87q42 31 97 31q53 0 94 -26q48 -30 48 -80q0 -62 -87 -105q24 -12 68 -44q39 -38 39 -87zM447 719q0 -13 -8 -22l-103 -128q-36 -44 -47 -124
q-7 -46 -7 -134q0 -42 -40 -42t-40 42q0 126 94 257q12 15 79 99h-172q-44 0 -51 -7q-4 -5 -14 -59h-29l27 149h28q1 -8 4 -11q10 -10 89 -10h190v-10zM766 691q0 -6 -3 -11l-523 -814q-5 -8 -17 -8q-20 0 -19 19q0 6 3 11l522 814q5 8 18 8q19 1 19 -19zM828 194
q0 36 -34 59q-29 21 -66 20q-37 0 -67 -17q-33 -19 -33 -48q0 -27 37 -50q18 -11 91 -53q72 37 72 89zM844 -66q0 36 -56 70q-25 16 -91 51q-84 -42 -84 -109q0 -42 38 -69q34 -24 78 -24q41 0 74 20q41 23 41 61z" />
    <glyph glyph-name="uF724C" unicode="&#xf724c;" 
d="M953 284q0 -7 -8 -10q-160 -61 -199 -219q-1 -6 -6 -23q-2 -9 -10 -9h-20q-10 1 -10 13q0 4 4 17q29 132 140 211h-456v-254q0 -18 -20 -18t-20 18v254q-152 0 -202 17q-99 34 -99 156q0 173 170 173q108 0 146 -91q24 -59 25 -186v-29h456q-112 81 -140 211q-3 15 -4 17
q0 13 10 13q22 0 18 1q9 -1 13 -13q2 -10 5 -20q18 -67 65 -126q52 -63 114 -84q9 -3 20 -8q8 -3 8 -11zM348 304v29q0 115 -15 157q-27 80 -116 80q-69 0 -99.5 -32t-30.5 -101q0 -82 60 -112q42 -21 132 -22q12 0 35 0.5t34 0.5z" />
    <glyph glyph-name="uF724D" unicode="&#xf724d;" 
d="M750 20q0 -20 -18 -20h-178q-36 0 -70 7l-62 -171q-8 -23 -22 -23q-21 0 -20 19q0 7 4 18l61 169q-87 31 -140 101q-55 73 -55 164q0 123 91 205q88 79 213 79h92l60 165q8 22 21 22q21 0 20 -18q0 -7 -4 -18l-55 -151h44q18 0 18 -20t-18 -20h-58l-82 -224h140
q18 0 18 -20t-18 -20h-154l-79 -218q29 -6 58 -6h175q18 0 18 -20zM631 528h-74q-98 0 -179 -62q-87 -67 -87 -162h258zM535 264h-244q0 -71 51 -129q46 -52 117 -77z" />
    <glyph glyph-name="uF724E" unicode="&#xf724e;" 
d="M775 159q0 -45 -31 -76t-76 -31t-75.5 31t-30.5 76v66h-124v-66q0 -44 -31 -75.5t-75 -31.5q-45 0 -76 31t-31 76q0 44 31 75.5t76 31.5h66v123h-66q-44 0 -75.5 31t-31.5 76t31 76t76 31t75.5 -31t30.5 -76v-67h124v67q0 45 31 76t75 31q45 0 76 -31t31 -76t-31 -76
t-76 -31h-66v-123h66q45 0 76 -31t31 -76zM735 496q0 27 -19.5 46.5t-47.5 19.5t-47 -19.5t-19 -46.5v-67h66q28 0 47.5 19.5t19.5 47.5zM398 429v67q0 27 -19.5 46.5t-46.5 19.5t-47 -19.5t-20 -46.5q0 -28 19.5 -47.5t47.5 -19.5h66zM562 266v123h-124v-123h124zM735 159
q0 28 -19.5 47t-47.5 19h-66v-66q0 -28 19.5 -47.5t46.5 -19.5t47 20t20 47zM398 159v66h-66q-28 0 -47.5 -19t-19.5 -47q0 -27 19.5 -47t47.5 -20q27 0 46.5 20t19.5 47z" />
    <glyph glyph-name="uF724F" unicode="&#xf724f;" 
d="M917 284q0 -175 -121 -296t-296 -121t-296 121t-121 296t121 296.5t296 121.5t296 -121.5t121 -296.5zM699 417q0 27 -19.5 46.5t-46.5 19.5t-47 -19.5t-20 -46.5t19.5 -46.5t47.5 -19.5q27 0 46.5 19.5t19.5 46.5zM434 417q0 28 -19.5 47t-47.5 19q-27 0 -46.5 -19.5
t-19.5 -46.5t19.5 -46.5t46.5 -19.5t47 19.5t20 46.5zM758 261h-59q-39 -162 -199 -162t-199 162h-59q16 -109 81 -177q70 -72 177 -72t177 72q65 68 81 177z" />
    <glyph glyph-name="uF7250" unicode="&#xf7250;" 
d="M783 398h-186v211h186v-211zM548 162h-96v285h96v-285zM403 0h-186v211h186v-211z" />
    <glyph glyph-name="uF7251" unicode="&#xf7251;" 
d="M964 284q0 -195 -134.5 -329.5t-329.5 -134.5t-329.5 134.5t-134.5 329.5t134.5 329.5t329.5 134.5t329.5 -134.5t134.5 -329.5zM925 284q0 178 -123.5 301.5t-301.5 123.5t-301.5 -123.5t-123.5 -301.5t123.5 -301.5t301.5 -123.5t301.5 123.5t123.5 301.5zM734 186
q0 -24 -13 -47q-42 -75 -154 -76h-292v33q36 0 50 1q21 2 28 15q4 8 4 33v288q0 25 -4 33q-6 12 -28 14q-13 1 -50 2v32h272q109 0 153 -66q15 -23 15 -47q0 -41 -39 -69q-32 -24 -77 -33q51 -5 90 -33q45 -32 45 -80zM634 400q0 39 -28 61q-26 21 -66 21h-72
q-31 0 -38 -6.5t-7 -36.5v-130h97q82 0 107 59q7 17 7 32zM651 188q0 42 -26.5 70t-68.5 28h-133v-147q0 -30 7 -36.5t38 -6.5h74q45 0 76 23q33 25 33 69z" />
    <glyph glyph-name="uF7252" unicode="&#xf7252;" 
d="M976 220h-402v464h73v-391h329v-73zM427 220h-403v73h330v391h73v-464zM976 0h-952v73h952v-73z" />
    <glyph glyph-name="uF7253" unicode="&#xf7253;" 
d="M951 284h-451v-451h-451v902h902v-451z" />
    <glyph glyph-name="uF7254" unicode="&#xf7254;" 
d="M880 284l-380 -380l-380 380l380 381zM812 284l-312 312l-312 -312l312 -311zM667 284l-167 -167l-167 167l167 168z" />
    <glyph glyph-name="uF7255" unicode="&#xf7255;" 
d="M984 728q0 -15 -22 -26q-19 -10 -36 -10q-23 0 -106 25h-2q-7 0 -9 -7l2 -2q46 -26 103 -27q4 0 10 1q0 -38 -54 -38q-42 0 -67 10q-4 2 -26 15q-19 12 -22 13q-5 0 -5 -4q3 -14 37 -29q31 -14 48 -13h5q-16 -40 -67 -40q-34 0 -65 23t-28 23q-3 0 -3 -4q0 -10 24 -29
t34 -18q-14 -21 -55 -24q-21 -39 -121 -71q36 -23 35 -53q0 -42 -40 -71q47 -25 47 -66t-49 -70q29 -21 30 -51q0 -36 -41 -64q43 -27 43 -56q0 -32 -42 -48q24 -18 23 -45q0 -22 -34 -44q15 -11 35 -26l-5 -11q-26 7 -51 17v-108h-20v108q-25 -10 -51 -17l-5 11q10 7 35 26
q-35 21 -34 44q0 27 23 45q-42 17 -42 48q0 28 43 56q-41 29 -41 64q0 30 30 51q-49 28 -49 70q0 41 47 66q-41 29 -40 71q0 29 35 53q-100 33 -121 71q-42 2 -55 24q11 0 34.5 18.5t23.5 28.5q0 3 -3 4q3 0 -28.5 -23t-64.5 -23q-50 0 -67 40h5q17 0 48 13q34 15 37 29
q-1 4 -5 4q-5 -2 -22 -13q-21 -14 -26 -15q-24 -10 -67 -10q-54 0 -54 38q6 0 10 -1q57 0 103 27l2 2q-2 7 -9 7h-2l-53 -16q-30 -9 -53 -9q-17 0 -36 10q-22 11 -22 26v41h421q-7 -14 -7 -29q0 -42 52 -50v-74q0 -48 -48 -48q-19 0 -48 16q18 10 34 35q-4 2 -12 5
q-18 -23 -35 -38q10 -16 45 -30l72 -28v185q-27 6 -27 27q0 13 12 21t25 8t25 -8t12 -21q0 -21 -27 -27v-185q24 9 72 28q35 14 45 30q-18 15 -35 38q-2 -1 -12 -5q16 -25 34 -35q-29 -17 -48 -16q-48 0 -48 48v74q52 7 52 50q0 15 -7 29h421v-41zM482 517q-68 25 -86 35
q-41 21 -40 46q0 11 14.5 26.5t24.5 15.5q9 0 25 -7t23 -7q17 0 17 12q0 15 -25 25q-20 8 -38 7q-29 0 -50 -18q-23 -19 -23 -47q0 -39 43 -64q23 -14 89 -37q11 7 26 13zM582 443q0 26 -39 48q-19 -6 -28 -10q37 -20 37 -49q0 -25 -36 -43q8 -3 25 -11q41 26 41 65z
M540 432q0 21 -30 38v-70q30 14 30 32zM490 400v70q-30 -16 -30 -38q0 -17 30 -32zM676 605q0 28 -22 46.5t-51 18.5q-18 0 -38 -7q-25 -10 -25 -25q0 -12 17 -12q8 0 23.5 7t24.5 7q10 0 24.5 -15.5t14.5 -26.5q0 -30 -59 -55l-108 -42q-59 -25 -59 -58q0 -37 37 -62
l67 -35q36 -20 37 -44q0 -24 -64 -55t-64 -62q0 -29 31 -51q5 -3 59 -33q31 -17 31 -34q0 -18 -52.5 -43t-52.5 -52q0 -28 79 -56q-55 39 -55 56q0 28 50 50.5t50 42.5q0 21 -58 57t-58 57q0 22 34 41l65 32q35 22 34 54q0 32 -36 52q-22 10 -68 31q-37 17 -36 43
q0 36 59 59q37 13 110 41q59 28 59 73zM546 302q0 18 -36 36v-71q36 16 36 35zM490 267v71q-36 -18 -36 -36t36 -35zM485 350q-17 8 -27 14q-47 -22 -46 -58q0 -36 48 -62q10 6 24 12q-42 20 -43 46q0 26 44 48zM569 185q0 27 -29 45q-10 -5 -25 -12q31 -17 30 -39
q0 -21 -32 -42q5 -3 16 -9q40 25 40 57zM533 179q0 14 -23 27v-56q23 15 23 29zM490 150v56q-23 -13 -23 -27t23 -29zM540 67q0 9 -30 25v-50q30 13 30 25zM490 42v50q-30 -16 -30 -25q0 -12 30 -25zM486 104q-9 4 -15 9q-42 -25 -42 -48q0 -24 43 -40l12 6q-36 16 -36 36
q0 17 38 37zM553 -28q0 24 -26 39q-9 -3 -14 -6q17 -13 16 -33q0 -11 -19 -29q3 -2 10 -7q33 19 33 36zM517 -28q0 11 -7 19v-30q7 7 7 11zM490 -39v30q-7 -8 -7 -19q0 -4 7 -11zM484 -81l-3 2l-7 -5q3 0 10 3zM582 646q0 -12 -19 -12q-11 0 -11 10q0 12 17 11q13 0 13 -9z
M448 644q0 -9 -11 -10q-18 0 -19 12q0 9 13 9q17 1 17 -11zM575 646q0 3 -5 3q-11 0 -11 -5q0 -3 5 -3q11 -1 11 5zM441 644q0 6 -11 5q-5 0 -5 -3q0 -6 11 -5q5 0 5 3z" />
    <glyph glyph-name="uF7256" unicode="&#xf7256;" 
d="M892 237l-26 -140l-148 -3l-14 53l-91 -19l-92 9q-5 0 -16 1q-21 0 -61 -4t-60 -4q-50 0 -124 23l-54 -59l-74 -28q-18 -7 -21 -7q-5 0 -6 4q0 2 3 7l7 15l42 89l9 11l-12 13l31 82q3 16 15 55l29 82q58 57 89 82q52 42 102 63l61 -35l78 87q16 18 28 18q19 0 31 -18
q11 -16 11 -35q0 -9 -15 -26l-66 -75l83 -54q37 -24 75 -25l12 21l150 -10l20 -71zM852 254q0 80 -24 134h-86l2 -15l10 -102q0 -69 -22 -152l104 9q16 60 16 126zM736 266q0 49 -21 112l-65 6l-120 73l-57 -64l1 -20q1 -18 -7 -42l-44 -53l13 -1q20 -1 83 24
q-5 -19 -32 -38l-112 -5q-29 -1 -37 -3.5t-36 -15.5q-38 -18 -38 -51q0 -14 11 -19q3 -1 24 -5q18 -3 22 -3q18 0 18 24q0 8 -4 28q-3 15 -2 18q9 0 15 -16q5 -13 5 -23q0 -12 -6.5 -21.5l-6.5 -9.5q0 -10 39 -10q9 -1 19 -1q24 0 61 7q45 8 60 9l17 -3q54 -9 77 -9
q26 0 105 21l7 2q11 64 11 89zM453 371l-79 -92q12 -3 25 -3q21 0 39 37q17 35 15 58zM463 507q-36 29 -43 29q-28 0 -93 -59l-56 -51q-21 -20 -24 -24q-7 -8 -14 -29l-26 -75l19 -10l7 -30l-23 -56h16q38 36 55 74l22 50zM217 263q0 17 -13 25l-35 -86l12 -1q36 -3 36 62z
M200 111q0 8 -11.5 24.5t-18.5 16.5q-3 0 -10 -5l-16 -28q-9 -17 -9 -24q0 -11 8 -11q7 2 32 11.5t25 15.5z" />
    <glyph glyph-name="uF7257" unicode="&#xf7257;" 
d="M811 20q0 -20 -33 -20h-556q-30 0 -32 17q-1 6 -1 16v620q0 33 20 33t20 -33v-582l432 496q6 7 14 8q21 0 21 -21q0 -7 -5 -13l-436 -501h523q33 0 33 -20z" />
    <glyph glyph-name="uF7258" unicode="&#xf7258;" 
d="M861 413q0 -21 -19 -20q-3 0 -8 1q-30 11 -65 28v-559q0 -18 -20 -18t-20 18v580q-68 40 -126 94v-674q0 -18 -20 -18t-20 18v715q-38 43 -63 87q-25 -44 -63 -87v-715q0 -18 -20 -18t-20 18v674q-58 -54 -126 -94v-580q0 -18 -20 -18t-20 18v559q-35 -17 -65 -28
q-4 -1 -8 -1q-19 0 -19 20q0 11 13 18q19 7 66 27q139 66 227 193q10 17 38 60q8 12 17 13q10 0 30 -32q13 -21 25 -41q86 -124 227 -193q30 -11 66 -27q13 -7 13 -18z" />
    <glyph glyph-name="uF7259" unicode="&#xf7259;" 
d="M723 664q0 -41 -28 -69t-69 -28t-68.5 28t-27.5 69t28 68.5t68 27.5q41 0 69 -27.5t28 -68.5zM470 664q0 -41 -28 -69t-68 -28q-41 0 -69 28t-28 69t28 68.5t69 27.5t68.5 -27.5t27.5 -68.5zM723 411q0 -41 -28 -69t-69 -28t-68.5 28t-27.5 69t28 68.5t68 27.5
q41 0 69 -27.5t28 -68.5zM470 411q0 -41 -28 -69t-68 -28q-41 0 -69 28t-28 69t28 68.5t69 27.5t68.5 -27.5t27.5 -68.5zM723 158q0 -41 -28 -69t-69 -28t-68.5 28t-27.5 69t28 68.5t68 27.5q41 0 69 -27.5t28 -68.5zM470 158q0 -41 -28 -69t-68 -28q-41 0 -69 28t-28 69
t28 68.5t69 27.5t68.5 -27.5t27.5 -68.5zM723 -95q0 -41 -28 -69t-69 -28t-68.5 28t-27.5 69t28 68.5t68 27.5q41 0 69 -27.5t28 -68.5zM470 -95q0 -41 -28 -69t-68 -28q-41 0 -69 28t-28 69t28 68.5t69 27.5t68.5 -27.5t27.5 -68.5zM673 664q0 20 -13.5 33t-33.5 13
t-33 -13.5t-13 -32.5q0 -20 13.5 -33.5t32.5 -13.5q20 0 33.5 13.5t13.5 33.5zM420 411q0 20 -13.5 33.5t-32.5 13.5q-20 0 -33.5 -14t-13.5 -33q0 -20 13.5 -33.5t33.5 -13.5t33 13.5t13 33.5zM673 158q0 20 -13.5 33.5t-33.5 13.5t-33 -14t-13 -33q0 -20 13.5 -33.5
t32.5 -13.5q20 0 33.5 13.5t13.5 33.5zM673 -95q0 20 -13.5 33.5t-33.5 13.5t-33 -14t-13 -33q0 -20 13.5 -33.5t32.5 -13.5q20 0 33.5 13.5t13.5 33.5zM420 -95q0 20 -13.5 33.5t-32.5 13.5q-20 0 -33.5 -14t-13.5 -33q0 -20 13.5 -33.5t33.5 -13.5t33 13.5t13 33.5z" />
    <glyph glyph-name="uF725A" unicode="&#xf725a;" 
d="M472 341l-29 -29l-297 297q9 -38 10 -73q0 -85 -50 -168q-4 -6 -9 -7q-5 0 -14.5 10t-9.5 15q2 4 17 33q27 55 27 122q0 78 -36 138q-19 31 -20 33q0 11 11 12l33 -20q62 -37 139 -37q65 0 121 27q33 17 32 17q5 0 15 -9t10 -14q0 -7 -5 -10q-81 -49 -169 -49
q-37 0 -73 9zM939 712q0 -21 -21 -53q-24 -37 -28 -54q-7 -31 -7 -64q0 -67 27 -122l17 -33q0 -5 -9.5 -15t-14.5 -10t-9 7q-49 83 -50 168q0 36 10 73l-760 -759q-5 -5 -12 -5q-21 0 -21 21q0 7 4 12l760 760q-36 -9 -73 -9q-88 0 -169 49q-6 3 -5 10q0 5 10 14t15 9
q3 -2 32 -17q55 -27 121 -27q77 0 139 37l33 20q11 -1 11 -12zM939 -134q0 -21 -21 -21q-7 0 -12 5l-378 378l29 28l378 -378q4 -5 4 -12z" />
    <glyph glyph-name="uF725B" unicode="&#xf725b;" 
d="M805 15q0 -20 -20 -20q-4 0 -7 2l-91 43q-59 -126 -159 -209q-6 -5 -14 -6q-20 0 -20 21q0 8 7 15q19 18 66 67q48 55 84 129l-130 61q-55 -178 -188 -287q-6 -5 -14 -6q-20 0 -20 21q0 8 7 15q20 18 66 67q79 90 114 207l-278 131q-13 6 -14 18q0 12 14 18l278 132
q-33 110 -114 206q-26 26 -66 68q-7 7 -7 14q0 21 20 21q7 0 14 -5q134 -109 188 -287l130 61q-32 67 -84 128q-26 26 -66 68q-7 7 -7 14q0 21 20 21q7 0 14 -5q101 -83 159 -209l91 43q3 1 7 1q20 0 20 -20q0 -13 -12 -18l-90 -43q41 -104 40 -208q0 -104 -40 -208l90 -43
q12 -5 12 -18zM703 284q0 98 -36 191l-135 -63q16 -65 16 -128q0 -62 -16 -128l135 -63q36 93 36 191zM508 284q0 55 -12 111l-235 -111l235 -110q12 55 12 110z" />
    <glyph glyph-name="uF725C" unicode="&#xf725c;" 
d="M750 702q0 -16 -11 -27.5t-28 -11.5q-16 0 -27.5 11.5t-11.5 27.5q0 35 34 39q-23 20 -56 20q-45 0 -65 -73q-10 -35 -20 -177q76 -22 123.5 -84.5t47.5 -142.5q0 -93 -63.5 -161t-156.5 -74q-11 -85 -22 -125q-41 -140 -144 -140q-38 0 -68 21q-32 24 -32 61
q0 17 11.5 28t28.5 11q39 0 38 -39q0 -34 -34 -39q22 -20 56 -19q56 0 78 83q11 42 21 175l2 29q24 -6 49 -7q82 0 139 57.5t57 138.5q0 82 -57 139t-139 57q-2 0 -10 -1q6 43 14 99q32 206 146 206q38 0 68 -22q32 -23 32 -60zM555 284q0 -23 -16 -39t-39 -16t-39 16
t-16 39t16 39t39 16q22 0 38.5 -16.5t16.5 -38.5z" />
    <glyph glyph-name="uF725D" unicode="&#xf725d;" 
d="M953 701q-3 -5 -21 -43q-48 -98 -49 -209q0 -63 26 -161q1 -3 1 -6q0 -5 -9.5 -13t-14.5 -8q-4 0 -7 3l-95 95q-4 4 -9 4q-6 0 -10 -4l-548 -548q-6 -6 -14 -6q-7 0 -13 5l-139 139q-4 4 -5 12q0 9 6 15l548 548q4 4 4 10q0 5 -3 8l-96 96q-3 3 -3 7q0 5 8.5 14.5
t12.5 9.5q27 0 83 -13t84 -13q112 0 209 47q42 21 43 22q11 0 11 -11zM886 645q-92 -39 -198 -40q-41 0 -104 10l69 -68q5 -5 5 -13t-6 -14l-548 -549q-4 -4 -5 -10q0 -4 4 -8l91 -92q3 -3 8 -3q6 0 10 4l548 549q6 6 15 6q8 0 13 -5l68 -69q-10 65 -10 104q0 105 40 198z
" />
    <glyph glyph-name="uF725E" unicode="&#xf725e;" 
d="M891 435q0 -29 -14 -59q-44 -92 -188 -93q21 -48 21 -109q0 -90 -64 -150q-62 -59 -154 -58q-92 0 -155 57q-65 60 -65 151q0 65 21 114q-11 0 -29 -1q-21 -2 -30 -2q-62 0 -97 55q-28 44 -28 98q0 79 53 125q51 45 131 45q82 0 130 -65q41 -56 41 -131q0 -41 -26 -124.5
t-26 -121.5q0 -49 26 -87q30 -43 80 -43q57 0 93 48q31 42 32 89q0 29 -62 166q-23 52 -24 99q0 72 47.5 121t119.5 49q71 0 119 -50.5t48 -122.5zM785 441q0 102 -83 102q-37 0 -61 -39q-20 -32 -19 -64q0 -22 12 -54q10 -24 18 -30.5t33 -6.5q40 0 68 23q32 26 32 69z
M378 467q0 82 -71 82q-100 0 -100 -115q0 -92 87 -92q14 0 29 2q55 83 55 123z" />
    <glyph glyph-name="uF725F" unicode="&#xf725f;" 
d="M772 248l-27 -248h-501v30q-4 0 13 -1h13q61 0 69 17q3 7 3 23v237h-96q-11 0 -11 11v8q0 11 11 11h96v106h-96q-11 0 -11 12v7q0 11 11 12h96v115q0 16 -3 23q-8 17 -95 16v30q35 -3 61 -3h187q23 0 59 3v-30q-5 0 -16 0.5t-16 0.5q-76 0 -87 -18q-5 -8 -5 -23v-114h242
q11 0 12 -12v-7q0 -11 -12 -12h-242v-106h242q11 0 12 -11v-8q0 -11 -12 -11h-242v-238q0 -25 10 -32q8 -6 32 -6h85q104 0 148 60q34 46 46 158h24z" />
    <glyph glyph-name="uF7260" unicode="&#xf7260;" 
d="M849 64q-10 -16 -32 -45q-21 -28 -44 -28q-16 0 -41 8q-53 17 -100 66q-30 31 -75 97q-26 -83 -113 -128q-74 -38 -170 -38q-44 0 -85 52q-38 50 -38 95q0 52 115 128q103 68 166 80q-35 48 -68 83q-46 40 -99 89q-19 18 -19 46q0 58 71 58q45 0 75 -28q11 -10 58 -87
q83 -135 177 -248q127 -152 222 -200zM531 200q-26 41 -79 121q-58 -12 -125 -55q-80 -52 -79 -100q0 -40 42 -72q40 -30 80 -30q47 0 101.5 45t59.5 91z" />
    <glyph glyph-name="uF7261" unicode="&#xf7261;" 
d="M823 86q0 -74 -68 -131q-59 -50 -137 -67q-48 -10 -134 -10q-223 0 -223 134q0 55 53 96q42 32 103 50h11q7 -15 8 -24q0 24 -21 -25.5t-21 -67.5q0 -65 54 -101q43 -27 100 -27q60 0 117 26q77 35 77 99q0 38 -49 79q-66 56 -92 100q-10 16 -14 77l45 272q-14 21 -19 21
q-7 0 -196 -47q-8 -40 -23 -119q-14 -75 -15 -125q0 -13 1 -24q-46 -4 -73 -4q-24 0 -36 3l48 295q0 11 -11.5 22.5t-22.5 11.5h-103q-4 4 -5 11q0 11 14 36q39 1 104 1q8 0 23 1t23 1q77 0 84 -28q1 -5 -1 -15q-2 -11 -2 -14v-10q2 -2 10 -2l276 65q5 -8 31 -55l-46 -278
v-23q2 -14 14 -32q10 -8 34 -30q47 -45 64 -72q18 -29 18 -70z" />
    <glyph glyph-name="uF7262" unicode="&#xf7262;" 
d="M759 -114h-55v32q0 73 -51 131t-123 69v-232h-60v232q-71 -11 -122.5 -69.5t-51.5 -130.5v-32h-55v37q0 94 67.5 169t161.5 86v213q-95 11 -162 85t-67 169v37h55v-32q0 -73 51 -131t123 -68v231h60v-231q71 11 122.5 69t51.5 130v32h55v-37q0 -94 -67.5 -168.5
t-161.5 -85.5v-213q95 -11 162 -85t67 -170v-37z" />
    <glyph glyph-name="uF7263" unicode="&#xf7263;" 
d="M859 569q-54 -21 -102 -22q-69 0 -81 52l-56 -4l-11 -92q131 0 131 -106q0 -68 -43 -117q-45 -52 -112 -52q-33 0 -97 22q15 -78 62 -105q37 -21 123 -21q19 0 138 7v-2q0 -8 -7.5 -27.5t-7.5 -29.5q0 -36 33 -64v-11q-41 -7 -70 -7q-60 0 -83 30q-20 25 -19 87
q-25 0 -75 -3t-75 -3q-57 0 -97 24q-41 0 -78 -77q-34 -68 -34 -114q0 -27 13 -27v-14q-75 -18 -114 -18q-37 0 -37 32q0 59 57 128q69 83 176 108q-41 57 -41 145q0 58 17 97h-54q2 -11 2 -19q0 -42 -40 -63q-31 -16 -76 -16q-28 0 -56 6l-2 11q22 28 22 60q0 40 -24 63
l3 11q29 7 53 6q76 0 113 -42h68q30 52 98 78l15 107l-58 -4q-15 -43 -72 -58q-34 -9 -97 -9h-7l-1 10q25 39 26 69q0 28 -25 51v13q46 9 77 9q92 0 99 -69l240 18q10 80 172 80v-11q-13 -23 -13 -49q0 -48 27 -59v-9zM605 415q0 72 -46 71q-71 0 -71 -159v-57q14 -6 27 -7
q40 0 67 58q23 50 23 94z" />
    <glyph glyph-name="uF7264" unicode="&#xf7264;" 
d="M654 449q0 -36 -58 -46q-22 -4 -85 -4q-128 0 -138 19v301q0 6 9 13t16 8q11 1 74 2h15h21h36q94 0 102 -18q5 -12 4 -40q0 7 0 -20v-20q-7 -7 -15 -7q-12 0 -24 29q-13 34 -31 44q-15 8 -70 8q-4 0 -13.5 0.5t-13.5 0.5q-42 0 -43 -16v-98q214 -93 214 -156zM685 241
q0 -27 -28 -27q-27 0 -27 27t27 28q28 -1 28 -28zM613 290q0 -27 -28 -28q-27 0 -27 28q0 27 27 27q28 0 28 -27zM733 169q0 -27 -27 -27t-28 27q0 27 28 27q27 0 27 -27zM527 307q0 -27 -27 -28q-27 0 -27 28q0 27 27 27t27 -27zM750 84q0 -27 -27 -27t-28 27q0 27 28 27
q27 0 27 -27zM733 -1q0 -27 -27 -27t-28 27q0 27 28 27q27 0 27 -27zM442 290q0 -27 -27 -28q-27 0 -28 28q0 27 28 27q27 0 27 -27zM370 241q0 -27 -27 -27t-28 27q0 27 28 28q27 -1 27 -28zM685 -73q0 -27 -28 -28q-27 0 -27 28q0 27 27 27q28 0 28 -27zM613 -122
q0 -27 -28 -27q-27 0 -27 27t27 28q28 -1 28 -28zM322 169q0 -27 -28 -27q-27 0 -27 27t27 27q28 0 28 -27zM305 84q0 -27 -28 -27q-27 0 -27 27t27 27q28 0 28 -27zM527 -139q0 -27 -27 -27t-27 27t27 28q27 -1 27 -28zM322 -1q0 -27 -28 -27q-27 0 -27 27t27 27
q28 0 28 -27zM442 -122q0 -27 -27 -27t-28 27q0 27 28 28q27 -1 27 -28zM370 -73q0 -27 -27 -28q-27 0 -28 28q0 27 28 27q27 0 27 -27zM579 451q0 31 -54 78q-49 43 -85 53v-158h113q26 0 26 27z" />
    <glyph glyph-name="uF7265" unicode="&#xf7265;" 
d="M551 624q0 -31 -43 -31q-25 0 -41 17.5t-16 43.5q0 55 83 68v-16q-53 -8 -53 -41q0 -19 17 -19q4 0 12.5 3t12.5 3q28 0 28 -28zM534 518h-67v37h67v-37zM599 443h-198v37h198v-37zM662 364h-323v36h323v-36zM791 267h-242q-10 -41 -49 -41t-49 41h-242v35h243
q11 40 48 39q38 0 48 -39h243v-35zM662 168h-323v37h323v-37zM599 88h-198v37h198v-37zM534 13h-67v38h67v-38zM551 -85q0 -55 -83 -69v17q54 8 53 41q0 19 -16 18q-4 0 -12.5 -2.5t-13.5 -2.5q-28 0 -28 27q0 31 43 32q25 0 41 -18t16 -43zM523 302q-7 18 -23 17
q-16 0 -23 -17h46zM523 267h-46q7 -19 23 -19t23 19z" />
    <glyph glyph-name="uF7266" unicode="&#xf7266;" 
d="M909 49q0 -30 -46 -58q-42 -25 -74 -25l-544 4q-153 1 -154 93v567l70 -58h482q10 16 30 58q52 -39 84 -66q-9 -11 -45 -38q0 -29 5 -87t5 -87q0 -177 -109 -199h-11q-11 42 -90 76q-16 7 -117 46l8 13q144 -48 213 -48q46 0 46 26v279h-517v-479q0 -30 63 -44
q41 -9 90 -8h386q86 0 117 29q24 22 32 100q2 55 5 110h20q0 -8 -0.5 -24.5t-0.5 -24.5q0 -134 52 -146v-9z" />
    <glyph glyph-name="uF7267" unicode="&#xf7267;" 
d="M930 -32q0 -8 -11 -8q-5 0 -15 1.5t-15 1.5q-29 0 -52 -15t-25 -15q-23 0 -62 35q-29 27 -47 53q-130 188 -207 390q-161 -376 -412 -536q-7 1 -15 9q6 13 15 21q71 62 106 98q131 141 221 338q59 128 59 147q-2 9 -14 44l-18 51q-19 55 -70 74l5 18q76 -16 118 -28
q-3 -8 -12 -25q-5 -10 -4 -19q0 -58 57 -188q43 -98 92 -182q63 -108 126 -161q69 -59 180 -91v-13z" />
    <glyph glyph-name="uF7268" unicode="&#xf7268;" 
d="M984 761l-57 -70v15l51 63h6v-8zM966 769l-47 -58h-13l48 58h12zM984 731l-57 -70v16l57 70v-16zM942 769l-47 -58h-13l47 58h13zM984 702l-34 -43h-13l47 58v-15zM984 672l-10 -13h-13l23 28v-15zM893 769l-18 -22v15l5 7h13zM917 769l-42 -52v15l30 37h12zM812 730
l-15 -19h-13l28 35v-16zM812 760l-40 -49h-12l47 58h5v-9zM812 711h-3l3 5v-5zM947 597l-20 -25v15l8 10h12zM971 597l-44 -55v16l32 39h12zM984 583l-57 -70v15l56 69h1v-14zM795 769l-47 -58h-13l48 58h12zM984 553l-54 -66h-3v12l57 69v-15zM771 769l-47 -58h-13l47 58
h13zM984 523l-29 -36h-13l42 52v-16zM984 494l-5 -7h-13l18 22v-15zM722 769l-19 -23v15l6 8h13zM747 769l-44 -53v15l31 38h13zM641 730l-16 -19h-13l29 35v-16zM641 760l-40 -49h-13l47 58h6v-9zM641 711h-4l4 5v-5zM928 425l-1 -1v1h1zM952 425l-25 -31v15l12 16h13z
M977 425l-50 -61v16l37 45h13zM812 589l-57 -70v15l51 63h6v-8zM624 769l-48 -58h-13l48 58h13zM984 405l-57 -71v16l57 70v-15zM794 597l-47 -58h-13l48 58h12zM812 559l-57 -70v16l57 70v-16zM599 769l-47 -58h-13l47 58h13zM984 375l-48 -60h-9v5l57 71v-16zM770 597
l-47 -58h-13l47 58h13zM812 530l-34 -43h-13l47 58v-15zM984 345l-24 -30h-13l37 46v-16zM812 500l-10 -13h-12l22 28v-15zM984 315h-12l12 16v-16zM550 769l-19 -23v15l7 8h12zM721 597l-18 -22v15l5 7h13zM575 769l-44 -53v15l31 38h13zM746 597l-43 -52v16l30 36h13z
M641 558l-16 -19h-13l29 35v-16zM469 758l-39 -47h-13l47 58h5v-11zM469 729l-15 -18h-13l28 33v-15zM641 588l-40 -49h-13l47 58h6v-9zM641 539h-4l4 5v-5zM469 711h-3l3 3v-3zM933 253l-6 -7v7h6zM775 425l-20 -25v16l8 9h12zM957 253l-30 -37v15l17 22h13zM799 425
l-44 -54v15l32 39h12zM981 253l-54 -67v16l42 51h12zM812 411l-57 -70v15l57 69v0v-14zM453 769l-48 -58h-12l47 58h13zM624 597l-48 -58h-13l48 58h13zM984 227l-57 -70v15l57 70v-15zM812 381l-54 -66h-3v12l57 69v-15zM428 769l-47 -58h-13l48 58h12zM599 597l-47 -58
h-13l47 58h13zM984 197l-44 -53h-12l56 68v-15zM812 352l-29 -37h-13l42 52v-15zM984 167l-19 -23h-13l32 39v-16zM812 322l-5 -7h-13l18 22v-15zM984 144h-7l7 9v-9zM550 597l-19 -23v15l7 8h12zM379 769l-20 -25v16l8 9h12zM575 597l-44 -53v15l31 38h13zM404 769l-45 -55
v16l32 39h13zM297 757l-38 -46h-13l47 58h4v-12zM297 728l-14 -17h-12l26 32v-15zM469 586l-39 -47h-13l47 58h5v-11zM469 557l-15 -18h-13l28 33v-15zM297 711h-2l2 2v-2zM469 539h-3l3 3v-3zM756 253l-1 -1v1h1zM938 81l-11 -14v14h11zM780 253l-25 -31v15l13 16h12z
M962 81l-35 -43v15l23 28h12zM805 253l-50 -61v16l37 45h13zM984 78l-57 -70v15l47 58h10v-3zM282 769l-48 -58h-12l47 58h13zM453 597l-48 -58h-12l47 58h13zM812 233l-57 -70v15l57 70v-15zM984 48l-57 -69v15l57 70v-16zM257 769l-47 -58h-13l48 58h12zM428 597l-47 -58
h-13l48 58h12zM812 203l-48 -59h-9v4l57 71v-16zM984 19l-39 -47h-12l51 62v-15zM812 173l-24 -29h-13l37 45v-16zM984 -11l-14 -17h-12l26 32v-15zM812 144h-12l12 15v-15zM984 -28h-2l2 3v-3zM208 769l-20 -26v15l8 11h12zM379 597l-20 -25v16l8 9h12zM233 769l-45 -56v16
l32 40h13zM404 597l-45 -55v16l32 39h13zM125 756l-37 -45h-13l48 58h2v-13zM297 584l-37 -45h-13l47 58h3v-13zM125 727l-13 -16h-12l25 31v-15zM297 555l-13 -16h-13l26 31v-15zM125 711h-1l1 1v-1zM297 539h-1l1 1v-1zM771 81l-16 -19v15l3 4h13zM943 -91l-16 -19v15l3 4
h13zM795 81l-40 -49v15l28 34h12zM967 -91l-40 -49v15l28 34h12zM812 42l-58 -70h-12l70 86v-16zM984 -129l-58 -71h-12l70 86v-15zM812 72l-82 -100h-13l90 109h5v-9zM984 -100l-82 -100h-13l90 109h5v-9zM812 13l-33 -41h-13l46 56v-15zM984 -159l-33 -41h-13l46 56v-15z
M812 -17l-9 -11h-12l21 27v-16zM984 -189l-9 -11h-13l22 27v-16zM38 769l-22 -27v15l9 12h13zM209 597l-21 -27v15l9 12h12zM62 769l-46 -57v16l33 41h13zM234 597l-46 -56v15l33 41h13zM111 769l-90 -110h-5v9l82 101h13zM283 597l-90 -110h-5v9l82 101h13zM86 769l-70 -86
v15l58 71h12zM258 597l-70 -86v15l58 71h12zM73 693l-28 -34h-12l40 49v-15zM245 521l-28 -34h-12l40 50v-16zM73 664l-3 -5h-13l16 20v-15zM245 492l-3 -5h-13l16 20v-15zM704 29l-1 -1v1h1zM876 -143l-1 -1v1h1zM729 29l-26 -30v15l13 15h13zM900 -143l-25 -30v15l13 15
h12zM753 29l-47 -57h-3v12l37 45h13zM925 -143l-48 -57h-2v12l37 45h13zM641 12l-33 -40h-13l46 55v-15zM812 -160l-32 -40h-13l45 55v-15zM641 -18l-9 -10h-12l21 25v-15zM812 -190l-8 -10h-12l20 25v-15zM18 597l-2 -4v4h2zM190 425l-2 -4v4h2zM42 597l-26 -33v15l14 18
h12zM214 425l-26 -33v15l14 18h12zM67 597l-51 -63v15l39 48h12zM239 425l-51 -63v15l39 48h12zM631 29l-48 -57h-12l47 57h13zM803 -143l-48 -57h-12l47 57h13zM73 575l-57 -71v16l57 70v-15zM245 403l-57 -70v15l57 70v-15zM606 29l-47 -57h-13l48 57h12zM778 -143
l-47 -57h-13l48 57h12zM73 545l-47 -58h-10v3l57 70v-15zM245 373l-47 -58h-10v3l57 70v-15zM73 515l-23 -28h-12l35 43v-15zM245 343l-23 -28h-13l36 43v-15zM73 487h-11l11 14v-14zM245 315h-11l11 14v-14zM533 29l-2 -2v2h2zM705 -143l-2 -2v2h2zM558 29l-27 -32v16
l14 16h13zM729 -143l-26 -32v16l14 16h12zM582 29l-47 -57h-4v11l38 46h13zM754 -143l-47 -57h-4v11l38 46h13zM641 -160l-33 -40h-13l46 55v-15zM469 9l-31 -37h-13l44 52v-15zM641 -190l-9 -10h-12l21 25v-15zM469 -21l-7 -7h-12l19 23v-16zM23 425l-7 -9v9h7zM195 253
l-7 -9v9h7zM48 425l-32 -39v15l19 24h13zM220 253l-32 -39v15l19 24h13zM72 425l-56 -69v16l44 53h12zM244 253l-56 -69v16l43 53h13zM461 29l-47 -57h-13l47 57h13zM631 -143l-48 -57h-12l47 57h13zM73 396l-57 -70v16l57 70v-16zM245 225l-57 -71v16l57 70v-15zM437 29
l-48 -57h-13l48 57h13zM606 -143l-47 -57h-13l48 57h12zM73 367l-42 -52h-12l54 67v-15zM245 195l-42 -51h-13l55 66v-15zM73 337l-17 -22h-13l30 38v-16zM245 165l-17 -21h-13l30 37v-16zM73 315h-6l6 8v-8zM245 144h-6l6 7v-7zM533 -143l-2 -2v2h2zM363 29l-4 -5v5h4z
M412 29l-47 -57h-6v8l40 49h13zM558 -143l-27 -32v16l14 16h13zM388 29l-29 -34v15l16 19h13zM582 -143l-47 -57h-4v11l38 46h13zM469 -162l-32 -38h-13l45 54v-16zM297 8l-30 -36h-13l43 51v-15zM469 -191l-8 -9h-12l20 24v-15zM297 -22l-5 -6h-13l18 22v-16zM28 253
l-12 -16v16h12zM210 81l-22 -28v15l10 13h12zM53 253l-37 -45v15l24 30h13zM235 81l-47 -58v16l34 42h13zM290 29l-47 -57h-13l47 57h13zM73 248l-57 -70v15l48 60h9v-5zM460 -143l-47 -57h-13l47 57h13zM245 63l-57 -69v15l57 70v-16zM266 29l-48 -57h-12l47 57h13zM73 218
l-57 -70v16l57 70v-16zM436 -143l-48 -57h-13l48 57h13zM245 34l-51 -62h-6v7l57 70v-15zM73 188l-37 -44h-13l50 60v-16zM73 159l-12 -15h-13l25 30v-15zM73 144h-1l1 1v-1zM362 -143l-3 -3v3h3zM387 -143l-28 -33v15l15 18h13zM411 -143l-47 -57h-5v10l39 47h13zM297 -163
l-31 -37h-13l44 53v-16zM297 -192l-6 -8h-13l19 23v-15zM34 81l-18 -22v16l5 6h13zM58 81l-42 -51v15l29 36h13zM289 -143l-47 -57h-13l47 57h13zM73 70l-57 -70v15l54 66h3v-11zM265 -143l-48 -57h-12l47 57h13zM73 40l-56 -68h-1v13l57 71v-16zM73 11l-32 -39h-12l44 54
v-15zM73 -19l-8 -9h-12l20 24v-15zM191 -143l-3 -4v4h3zM240 -143l-47 -57h-5v9l40 48h12zM216 -143l-28 -34v15l15 19h13zM125 -164l-30 -36h-12l42 52v-16zM125 -194l-5 -6h-13l18 22v-16zM39 -91l-23 -28v15l10 13h13zM63 -91l-47 -57v15l34 42h13zM118 -143l-47 -57h-13
l47 57h13zM73 -108l-57 -70v15l57 70v-15zM94 -143l-48 -57h-12l47 57h13zM73 -138l-51 -62h-6v8l57 69v-15z" />
    <glyph glyph-name="uF7269" unicode="&#xf7269;" 
d="M644 -143h-263v854h263v-40h-108v-774h108v-40zM496 -103v774h-75v-774h75z" />
    <glyph glyph-name="uF726A" unicode="&#xf726a;" 
d="M935 347q0 -119 -85 -211q-73 -80 -195 -124q-104 -38 -147 -38q-19 0 -19 16q0 12 64 30q97 27 178 91q125 99 124 242q0 214 -227 275q-45 12 -116 12q-17 0 -35 -1q67 -47 66 -68q0 -21 -26 -25q-3 -7 -26 -69q-52 -142 -113 -257q-100 -189 -168 -190q-15 0 -21 10
q-2 4 -8 14q-9 4 -32 14q-44 22 -66 86q-18 51 -19 111q0 237 216 360q102 58 237 58q89 0 152 -18q122 -36 191 -113q75 -84 75 -205zM442 591q0 10 -4 25q-6 18 -15 17q-38 0 -94 -31q-48 -27 -81 -59q-48 -46 -77 -96q-40 -70 -40 -166q0 -59 14 -108q21 -74 65 -74
q18 0 40 26q10 13 38 63q77 139 135 325q19 59 19 78z" />
    <glyph glyph-name="uF726B" unicode="&#xf726b;" 
d="M954 406l-237 14h-115v-467q0 -18 -41 -71q-17 -9 -37 -9q-7 5 -10 39q-3 15 -57 52q-29 21 -105 76q4 4 13 4l166 -81q6 2 17 11q2 21 7 64l-2 336q-33 -45 -63 -87q-97 -130 -220 -221q-34 -24 -105 -70q-89 -56 -103 -56h-16v11q12 13 36 26q110 61 240.5 194
t189.5 245q-2 2 -6 1q-10 0 -29 -3q-23 -4 -31 -5q-14 -2 -49 -6q-127 -14 -174 -28q-4 -1 -16 -10t-16 -9q-13 0 -47 27q-30 24 -36 32q-10 15 -10 36q0 15 4 21h10q5 -4 8 -9q6 -8 16.5 -20.5t22.5 -15.5q18 -6 47 -4l350 26v112q0 8 -7 37t-11 32q-25 19 -61 33
q1 14 30 13q22 0 63 -12q44 -13 55 -26v-16q-5 -4 -15.5 -12t-10.5 -16v-145h114q47 0 82 7q9 1 33 9q21 7 27 8q22 0 55 -19q31 -19 44 -38v-10z" />
    <glyph glyph-name="uF726C" unicode="&#xf726c;" 
d="M882 364q0 -6 -11 -21q-13 -18 -17 -27q-13 -39 -26 -115l-20 -118q-8 -50 -51 -133q-18 -34 -60 -81q-50 -55 -77 -56q-16 0 -21 16q-1 4 -5 30q-6 22 -34 56q-15 17 -44 52h11q8 0 42.5 -15t59.5 -15q2 0 6.5 -0.5t7.5 -0.5q4 0 6 1q23 15 45 57q4 7 29 68
q58 137 58 254q0 52 -63 53q9 0 -66 -7q-63 -6 -121 -7q-96 -256 -290 -405q-29 -22 -70 -47q-54 -33 -70 -32h-14q2 9 45 43q26 20 53 41q181 157 274 389q-4 2 -9 3h-7q-14 0 -67 -4q-77 -6 -129 -13q-20 -3 -29 -6q-18 -5 -25 -14q-2 -1 -8 -1q-18 0 -34 22.5t-16 40.5
q11 3 32 13q15 11 45 76.5t30 85.5v108q11 10 17 10q14 0 38.5 -16.5t31.5 -28.5q3 -6 10 -28l-101 -215h96q10 0 28.5 -1t28.5 -1q62 0 78 16q8 7 38 131q10 40 18 101q0 19 1 30q0 12 -1 35.5t-1 35.5q0 23 9 23q4 -2 39 -21q58 -32 57 -61q0 -12 -7 -23q-11 -16 -14 -20
q-9 -18 -33 -105t-24 -102v-9q8 -2 22 -3h9q60 0 139 19q65 16 60 16q22 0 60 -26q41 -27 41 -48z" />
    <glyph glyph-name="uF726D" unicode="&#xf726d;" 
d="M970 71q0 -28 -23 -29q-18 0 -29 18l-206 315q-62 -125 -132 -221q-90 -122 -154 -136l-8 3q63 56 128 165q21 36 87 164q10 20 35 80q33 81 33 104q0 21 -26 37l-47 31q2 2 5 6q4 0 13 3t13 3q26 0 77 -21q39 -16 55 -27q-60 -150 -60 -157q0 -8 18 -35q18 -29 56 -85
q40 -57 81 -72q24 -9 55 -70q29 -55 29 -76zM438 577q0 4 -9 -29l-4 -341q-3 -30 -11 -89q-10 -59 -37 -85q-5 1 -11.5 10t-6.5 15v500q-16 2 -35 2q-30 0 -86 -6q-59 -6 -87 -7q-4 0 -15.5 -5t-17.5 -5q-16 0 -46 16q-28 15 -42 28l5 4q86 -5 110 -4q136 0 188 10
q17 3 29 13q9 7 30 6q14 0 28 -7q18 -10 18 -26z" />
    <glyph glyph-name="uF726E" unicode="&#xf726e;" 
d="M833 605h-301q2 -11 2 -23q0 -9 -2 -69h165q15 0 17 27q35 -12 44 -18q26 -14 26 -33q0 -6 -26 -32v-267q0 -122 -45 -121q-10 0 -34 16q-28 19 -81 24v35q19 10 28 9q12 0 71 -9h2q6 0 6 9v313h-187v-21q34 -32 71 -60q22 -15 64 -47q38 -31 38 -65q0 -17 -10 -44
q-39 33 -171 165q-5 0 -16 -21q-7 -13 -15 -26q-27 -42 -70 -79q-51 -44 -92 -44q-2 0 -9 1q-3 -3 -4 -123q-3 -10 -5 -20q-4 -13 -14 -13h-34v419q0 7 -66 100q72 -54 100 -65q37 -15 118 -14q36 0 35 0q7 0 21 -1h15v95l-156 -1q-10 0 -32 -1.5t-33 -1.5q-42 0 -53 9
q-16 23 -33 46l518 -3q6 0 15.5 2.5t13.5 2.5q26 35 39 35q21 0 46 -34q4 -7 34 -52zM469 439v27h-164v-215q41 21 99 83q65 68 65 105z" />
    <glyph glyph-name="uF726F" unicode="&#xf726f;" 
d="M747 697q-2 -9 -16 -15q-25 -11 -27 -13v-784q0 -8 -8 -18t-17 -10h-24q-1 10 -6 30q-7 -10 -31 -19q-22 -8 -38 -8q-44 0 -74 31t-30 75q0 43 30 74.5t73 31.5q32 0 71 -30v209q-24 -8 -86 -28l-321 -106q-9 -3 -14 -18q-1 -7 -5 -22q0 -3 -4 -8q-12 2 -28 35
q-5 10 -27 59q87 10 119 21v449q0 14 -13 48q73 -11 105 -27q1 -9 -13 -16q-22 -11 -30 -18v-423q2 -2 10 -2q17 0 146 34q132 35 162 48v415q0 13 -6 32h14q26 0 88 -27zM651 -35q0 74 -69 74q-30 0 -53 -21t-23 -52t21.5 -51.5t52.5 -20.5q71 0 71 71z" />
    <glyph glyph-name="uF7270" unicode="&#xf7270;" 
d="M960 31q0 -31 -75 -31q-169 0 -368 73q-131 48 -242 137q-114 93 -181 210q-26 46 -54 113q26 0 77 -10q62 -11 62 -20q0 -10 -15 -24q-13 -12 -25 -18q20 -64 81 -133q31 -36 92 -80q54 -40 105 -65q28 -15 101 -50q68 -29 154 -45q111 -20 140 -20q14 0 21 4
q15 7 43 100q21 68 32 117l21 -10q-20 -101 -20 -168q0 -29 25.5 -49t25.5 -31z" />
    <glyph glyph-name="uF7271" unicode="&#xf7271;" 
d="M793 541q-12 -6 -29 -24q-21 -52 -84 -183q-76 -148 -192 -237q-42 -32 -117 -63q-82 -34 -132 -34q-8 0 -15 1v13q97 33 163 77q75 51 139 122q73 80 100 153l39 80q30 61 30 89q0 8 -15 12l-109 -17h-124q-19 -30 -72 -108q-62 -85 -160 -163q-8 7 -8 17q0 3 52 72
q69 92 113 161q12 30 23 54q26 57 25 82q0 21 -12 34q-5 5 -32 21l4 19q25 -6 76 -19q52 -16 63 -36q-25 -33 -51 -74v-20h79q39 0 125 22q5 1 24.5 12t23.5 11q12 0 42 -30.5t31 -43.5z" />
    <glyph glyph-name="uF7272" unicode="&#xf7272;" 
d="M964 284q0 -195 -134.5 -329.5t-329.5 -134.5t-329.5 134.5t-134.5 329.5t134.5 329.5t329.5 134.5t329.5 -134.5t134.5 -329.5zM925 284q0 178 -123.5 301.5t-301.5 123.5t-301.5 -123.5t-123.5 -301.5t123.5 -301.5t301.5 -123.5t301.5 123.5t123.5 301.5zM820 37
q-8 -9 -13 -10h-589v28h239v517h10q18 0 78 -20l3 -3v-7q-20 -18 -40 -18v-143h150q37 38 41 37q8 0 36 -22q27 -21 34 -30q-1 -13 -14 -13h-246v-298h192l43 43l42 -26q24 -15 34 -35z" />
    <glyph glyph-name="uF7273" unicode="&#xf7273;" 
d="M929 569q0 -3 -1.5 -5.5t-1.5 -3.5h-202v-140h96q7 6 22 27q25 -17 54 -50q-1 -2 -20 -15v-216q-31 -23 -39 -23q-12 0 -12 38h-237q-1 -10 -3 -32q-18 -15 -33 -22q-9 0 -9 10v316q42 -33 53 -33h81v304q22 -4 65 -12q0 -2 1.5 -7t1.5 -8q-6 -6 -22 -11v-102h108
q12 14 42 50q56 -51 56 -65zM945 -50q0 -34 -26 -34q-19 0 -25 17q-6 27 -10 41t-11 33q-4 12 -54 97q0 3 4 6q49 -28 82 -66q40 -47 40 -94zM816 -65q0 -44 -30 -44q-16 0 -21 22q-8 76 -24 135q-2 8 -12 31q-8 20 -8 22v12q5 -1 12 -4q31 -37 56 -86q27 -54 27 -88z
M682 -60q0 -55 -31 -54q-26 0 -26 29q0 7 3 20.5t4 20.5q7 107 4 126v34q4 -1 10 -4q36 -96 36 -172zM427 113l-22 -161h-347q-3 8 -3 26q0 27 10 44q1 1 29 39q24 31 139 152q81 85 103 146q20 54 20 110q0 143 -119 143q-43 0 -73 -21q-35 -23 -35 -64q0 -18 1 -20.5
t16 -24.5q7 -10 7 -26q0 -36 -38 -36q-32 0 -41 21q-5 11 -6 38q0 71 53 117q50 43 123 43q77 0 126 -41q52 -44 52 -120q0 -67 -23 -118q-27 -59 -145 -173q-124 -121 -155 -176l231 -2q59 11 76 104h21zM564 41q0 -44 -8 -83q-17 -72 -56 -72q-23 0 -23 26q0 22 9 36
q12 17 34 52q12 20 17 58t12 55q5 -5 12 -15q3 -39 3 -57zM824 209v183h-237v-183h237z" />
    <glyph glyph-name="uF7274" unicode="&#xf7274;" 
d="M948 654h-424v-178h278q14 15 40 45q20 -13 63 -50q-12 -11 -37 -34v-547q-36 -18 -57 -25v73h-625q-1 -15 -4 -45q-21 -9 -59 -28v641q32 -15 71 -30h273v177h-306q-9 0 -34.5 -6t-34.5 -6q-3 0 -40 36h762q21 18 59 50zM810 -38v489h-287q-10 -121 -31 -170
q43 -23 128 -73q107 -68 108 -130q0 -16 -8 -31q-9 -18 -23 -18q-17 0 -38 38q-7 14 -21 41q-20 37 -67 84.5t-84 69.5q-20 -70 -103 -158q-77 -81 -162 -133l-8 17q219 170 245 413q5 45 5 36v14h-280v-489h626z" />
    <glyph glyph-name="uF7275" unicode="&#xf7275;" 
d="M842 495h-252v75h252v-75zM842 661h-684v74h684v-74zM842 164h-252v75h252v-75zM842 330h-684v74h684v-74zM410 495h-252v75h252v-75zM842 -1h-252v74h252v-74zM410 164h-252v75h252v-75zM842 -167h-684v75h684v-75zM410 -1h-252v74h252v-74z" />
    <glyph glyph-name="uF7276" unicode="&#xf7276;" 
d="M904 515q0 -15 -41 -20v-314q-34 -27 -50 -27q-21 0 -20 17v40h-284v-333q-31 -28 -49 -27q-21 0 -22 19v341h-271v-37q-34 -27 -49 -28q-21 0 -22 24v411l77 -40h265v176h16q5 0 71 -11q23 -4 23 -15q0 -20 -39 -26v-124h274q11 13 33 38q88 -55 88 -64zM793 250v253
h-284v-253h284zM438 250v253h-271v-253h271z" />
    <glyph glyph-name="uF7277" unicode="&#xf7277;" 
d="M834 579l-32 -48l-182 122v-777l-30 -29q-113 0 -219 44q-59 -49 -142 -76l-18 57q58 19 102 48q-137 82 -137 214q0 135 137 214q-43 30 -102 49l18 56q84 -25 144 -76q85 34 188 43v288l46 25zM561 -94v456q-76 -8 -144 -31q66 -83 66 -197t-67 -197q72 -27 145 -31z
M425 134q0 102 -65 173q-125 -63 -126 -173q0 -106 126 -173q65 71 65 173z" />
    <glyph glyph-name="uF7278" unicode="&#xf7278;" 
d="M756 113q0 -92 -85 -147q-74 -48 -171 -48q-110 0 -236 49l19 51q113 -45 217 -45q73 0 131 33q70 40 70 107q0 106 -118 121q-73 7 -220 21q-119 30 -119 166q0 92 85 147q74 48 171 48q110 0 236 -49l-19 -50q-116 45 -217 45q-73 0 -131 -34q-70 -40 -70 -107
q0 -106 118 -121q73 -7 220 -21q119 -31 119 -166z" />
    <glyph glyph-name="uF7279" unicode="&#xf7279;" 
d="M832 0q-35 3 -59 3h-169q-21 0 -56 -3v30q-5 0 14 -1h13q61 0 69 20q3 7 3 21v311l-302 -287q-18 -17 -17 -33q0 -30 44 -31v-30q-34 3 -88 3q-91 0 -117 -3v30q77 1 138 58l174 166l-223 327q-21 30 -43 39q-17 7 -58 7v30q62 -3 158 -3q55 0 90 3v-30q-57 0 -57 -28
q0 -11 15 -34l174 -257l112 106v177q0 13 -3 20q-8 17 -96 16v30q34 -3 58 -3h167q24 0 59 3v-30q-5 0 -14 0.5t-14 0.5q-62 0 -69 -20q-3 -7 -3 -21v-519q0 -14 4 -22q9 -17 96 -16v-30z" />
    <glyph glyph-name="uF727A" unicode="&#xf727a;" 
d="M873 185q0 -21 -30 -21q-31 0 -31 29v144l-63 -47v-127q0 -90 -33 -173q-42 -108 -117 -108q-47 0 -79 35q-30 33 -30 81q0 86 66 178q29 41 130 146v115q-47 -56 -109 -56q-89 0 -141 106q-49 -106 -139 -106q-81 0 -129 89q-41 74 -41 161q0 41 30 41q31 0 31 -25
q0 -10 3 -51q3 -48 30 -96q33 -56 76 -56q18 0 37 13q32 21 53 69q19 44 19 87v34q0 11 11 18q9 7 21 7q32 0 31 -47q0 -99 53 -153q27 -28 56 -28q45 0 79 61q29 53 29 101v35q0 31 31 31q32 0 32 -32l1 -269q16 11 47 32q33 23 47 23q9 0 19 -6.5t10 -15.5v-219zM686 142
v90q-133 -133 -134 -235q0 -52 46 -53q38 0 66 82q22 67 22 116z" />
    <glyph glyph-name="uF727B" unicode="&#xf727b;" 
d="M876 -60q-34 0 -96 30t-96 30h-429q-32 0 -85 -30t-85 -30v1q39 8 39 89q-7 0 22 -1h23q54 0 77 23q13 13 30 44q115 206 116 436q0 31 -33 35q-13 2 -65 2v31h97v179h59l-8 -179h393v-31q-6 0 -18.5 0.5t-18.5 0.5q-68 0 -68 -41v-459q0 -13 5 -23q10 -18 100 -17
q0 -40 4 -54q8 -29 37 -36zM645 72v446q0 21 -4 28q-12 23 -99 23t-101 -24q-5 -10 -5 -41q-2 -214 -119 -418q-13 -23 -13 -30q0 -20 48 -25q10 -1 61 -1q127 0 166 3q25 2 35 4q23 5 28 17q3 6 3 18z" />
    <glyph glyph-name="uF727C" unicode="&#xf727c;" 
d="M387 668q0 -30 -21 -51t-51 -21q-31 0 -50.5 21t-19.5 51t20.5 50t50.5 20q29 0 50 -20.5t21 -49.5zM804 341q0 -99 -58.5 -155t-157.5 -56q-74 0 -121 40q-50 42 -50 115q0 43 23 73q25 33 68 33q3 0 10.5 -1.5t10.5 -1.5q-12 -25 -11 -69q0 -62 7 -86q14 -47 61 -47
q42 0 69 58q21 47 21 96q0 67 -44 116q-45 50 -111 49q-113 0 -163 -118q-34 -83 -34 -217q0 -135 43 -336h-133q-38 166 -38 307q0 161 82 287q93 143 246 143q119 0 194 -54q86 -61 86 -176z" />
    <glyph glyph-name="uF727D" unicode="&#xf727d;" 
d="M810 25q0 -25 -24 -25h-287q-124 0 -215 82q-94 84 -94 207t94 207q91 82 215 82h287q24 0 24 -25t-24 -25h-285q-104 0 -181 -67q-81 -70 -80 -172q0 -103 80 -172q77 -67 181 -67h285q24 0 24 -25zM810 -122q0 -25 -23 -24h-573q-24 0 -24 24q0 25 24 25h573
q23 0 23 -25z" />
    <glyph glyph-name="uF727E" unicode="&#xf727e;" 
d="M951 627q-76 0 -104 -67l-269 -641q-27 -64 -55 -92q-38 -38 -96 -38q-56 0 -94.5 35.5t-38.5 91.5q0 49 49 49q21 0 33.5 -13.5t12.5 -34.5q0 -24 -17.5 -36.5t-41.5 -9.5q24 -55 101 -56q10 0 20 2q42 6 75 76q17 35 31 70l-88 256h-238l-27 -72q-19 -51 -19 -68
q0 -24 25 -38q21 -11 47 -11v-30l-111 3q-30 0 -97 -3v30q84 1 107 65l199 574q7 20 23 20t22 -20l208 -601l206 492q4 10 4 20q0 46 -69 47v30q75 -3 108 -3q48 0 94 3v-30zM458 249l-108 313l-108 -313h216z" />
    <glyph glyph-name="uF727F" unicode="&#xf727f;" 
d="M826 598q-19 -20 -58 -59h-308v-170q7 -9 15 -9q10 0 58.5 53.5t70.5 53.5q44 0 68 -42q17 -31 16 -69q0 -72 -68 -132q-53 -47 -134 -78q2 -1 6 -4q30 0 131 -47q116 -53 116 -94q0 -23 -30 -50q-17 -15 -50 -45q3 9 4 17q0 64 -165 126q-140 52 -217 52q-21 0 -40 -3
q27 28 82 83h111q51 0 103 30q61 36 61 90q0 83 -41 82q-4 0 -66.5 -60.5t-81.5 -60.5q-14 0 -23 24q-4 10 -4 19v231h-208q52 62 62 62h590z" />
    <glyph glyph-name="uF7280" unicode="&#xf7280;" 
d="M832 627q-208 -33 -208 -163q0 -50 29 -147t29 -148q0 -94 -101 -164q-75 -51 -188 -81q-74 -20 -121 -19q-44 0 -65 18q-14 12 -39 57q9 3 38 3q6 0 18 -1t19 -1q41 0 113 24q99 33 168 84q94 70 94 151q0 52 -30 151t-30 151q0 64 69 113q64 45 131 45q35 0 74 -73z
" />
    <glyph glyph-name="uF7281" unicode="&#xf7281;" 
d="M872 167q0 -24 -22.5 -45t-46.5 -21h-356q-28 0 -50 21.5t-22 49.5v189q0 32 25 53q23 19 57 19h126v81h-373v-495h-82v506q0 28 20.5 49.5t48.5 21.5h674v-81h-206v-82h126q30 0 54 -18q27 -20 27 -48v-200zM790 185v163h-332v-163h332z" />
    <glyph glyph-name="uF7282" unicode="&#xf7282;" 
d="M848 -74l-117 76l5 3q-10 190 -9 346q0 136 -34 188q-46 72 -157 72q-17 0 -47.5 -8t-43.5 -16q46 -30 63 -53q21 -30 21 -79q0 -51 -56 -88h15q76 0 138 -49q67 -53 68 -126q0 -133 -65 -209q-69 -81 -200 -80q-141 0 -215 117q-62 98 -62 247q0 78 52 168
q53 92 120 126q-28 18 -92 18q-38 0 -70 -6v70q10 2 26 2q99 0 167 -22q37 -12 41 -13q7 2 38 15q83 35 186 35q108 0 163 -64q20 -23 34 -78q13 -49 14 -85q0 -192 17 -507zM622 178q0 67 -51 105q-45 34 -115 34q-123 0 -158 -79v94q49 0 92 30q46 33 46 81q0 32 -17 62
q-20 36 -48 36q-18 0 -64 -55q-98 -116 -98 -235q0 -86 64 -149t150 -63q74 0 131 32q68 39 68 107z" />
    <glyph glyph-name="uF7283" unicode="&#xf7283;" 
d="M558 670l-61 -58q-7 6 -64 58l62 62zM721 616q0 -203 -139 -203q-106 0 -190 113q-37 49 -113 206h39q129 -247 232 -247q37 0 60 32q20 28 20 67t-4 85h95v-53zM671 266h-194q-17 0 -33 -8q-20 -10 -20 -25q0 -23 55 -71q85 -74 103 -94q55 -62 55 -118
q0 -54 -36.5 -88.5t-90.5 -34.5q-89 0 -181 107l24 37q92 -63 131 -63q29 0 49 20.5t20 50.5q0 40 -48 89q-30 29 -89 88q-48 50 -48 95q0 42 34.5 72.5t76.5 30.5h192v-88z" />
    <glyph glyph-name="uF7284" unicode="&#xf7284;" 
d="M816 272q0 -142 -26 -263q-4 -21 -12 -46q-11 -26 -34 -26q-15 0 -26.5 10t-11.5 25q0 4 2 11q35 137 35 289q0 262 -116 262q-70 0 -194 -151q2 -28 2 -62q0 -121 -25 -228q-38 -163 -117 -162q-43 0 -82 30q-42 32 -42 74q0 71 70 194q53 93 117 176q-15 128 -50 128
t-89 -15q-9 -2 -13 -2q-15 0 -25.5 11.5t-10.5 26.5q0 22 25 33q41 19 113 19q83 0 113 -129q124 130 208 130q110 0 157 -121q32 -83 32 -214zM361 287q-118 -173 -118 -252q0 -9 23 -19q20 -9 31 -9q28 27 47 133q13 73 17 147z" />
    <glyph glyph-name="uF7285" unicode="&#xf7285;" 
d="M770 339l-65 -24l-118 313l-87 -185l143 -382l-65 -24l-119 318l-255 -541l-62 30l418 888l64 -2z" />
    <glyph glyph-name="uF7286" unicode="&#xf7286;" 
d="M811 629l-2 -272q0 -21 -10 -46q-12 -31 -28 -31q-18 0 -18 37h-156q-4 0 -18.5 -24t-27.5 -24q-7 0 -13 14q-5 12 -5 20v273q0 12 -15 26q-13 12 -25 16q-26 9 -34 14v8q23 9 33 9q12 0 49 -7.5t44.5 -12.5t7.5 -12q0 -1 -0.5 -4.5t-0.5 -5.5v-98l1 -2q6 0 23 -1
q42 0 102 3l33 1l1 2q0 8 1 24t1 24q0 32 -4 51q-2 11 -25 26q-11 6 -34 20q5 12 27 12q18 0 47 -6q34 -8 42 -17q4 -5 4 -17zM479 398q0 -16 -92 -57q-113 -51 -148 -50q-15 0 -32.5 23t-17.5 39v210q0 15 -35 31q-44 20 -47 22q12 14 46 14q42 0 55 -3q3 0 20 -6
q11 -4 20 -4q37 0 55 5q1 0 35 14q17 7 42 7q55 0 55 -23q0 -8 -9 -15t-18 -8q-48 0 -137 -7q-19 -3 -19 -13v-218q0 -10 18 -10q49 0 195 55h11q3 -1 3 -6zM752 349v130h-159v-130h159z" />
    <glyph glyph-name="uF7287" unicode="&#xf7287;" 
d="M967 521q-11 -1 -31 -12q-37 -40 -53 -95q-3 -9 -21 -102q-7 -72 -17 -166q-1 -15 -17 -37q-18 -27 -39 -33q-8 -2 -26 -3q-16 0 -46 8q-17 4 -31.5 24.5t-14.5 39.5v309q0 5 -5 18q-20 52 -102 50l-76 -2q-25 0 -46.5 -19.5t-21.5 -42.5v-224q85 -40 85 -107
q0 -54 -47 -54q-28 0 -47.5 18t-19.5 47v75q-31 18 -130 29q-1 1 -2 1t-1 -3v-167h-79v403q0 17 -9 30q-10 14 -27 14q-50 0 -69 -96q-10 -49 -10 -111q0 -218 87 -209v-29q-3 -2 -12 -2q-106 0 -106 240q0 181 73 227q16 10 57 9q57 0 80 -28q15 -18 15 -40v-207l3 -3
q56 0 129 -23l1 204q3 11 5 20q4 21 27.5 46t44.5 28q9 3 10 3h188q-5 0 17 -5q29 -6 51 -41q19 -30 19 -58v-324q0 -17 18 -17q16 0 29.5 17.5t14.5 35t5 64.5q7 79 22 151q29 145 91 170q16 7 23 7h5q3 -7 6 -28zM475 128q0 45 -55 72v-62q0 -14 12.5 -25t26.5 -11
q16 0 16 26z" />
    <glyph glyph-name="uF7288" unicode="&#xf7288;" 
d="M909 176q0 -61 -69 -117q-66 -54 -129 -54q-90 0 -142 57q-39 42 -71 138q-29 -94 -66 -137q-50 -60 -134 -60q-75 0 -133 40q-65 45 -66 118q0 75 154 108q93 20 215 22q-30 85 -72 125q-50 48 -133 47q-20 0 -43 -9q46 -25 46 -79q0 -39 -27 -65.5t-66 -26.5
q-35 0 -58 25.5t-23 61.5q0 61 56 106q53 42 115 42q164 0 233 -149q61 151 196 151q148 0 209 -153l-50 -20q-47 119 -159 118q-69 0 -112 -55q-29 -38 -55 -119v-1q345 -9 380 -89q4 -9 4 -25zM854 176v6q-42 36 -310 51q27 -83 54 -118q42 -55 113 -55q38 0 89 39
q54 40 54 77zM211 375q0 33 -45 42v0q-19 -22 -19 -47q0 -32 26 -33q16 0 27 11t11 27zM452 235q-89 -4 -165 -17q-133 -22 -133 -57q0 -49 50 -78q42 -24 94 -25q65 0 105 59q24 35 49 118z" />
    <glyph glyph-name="uF7289" unicode="&#xf7289;" 
d="M929 453q0 -117 -104 -180v39q57 45 57 129q0 57 -87 57q-43 0 -71 -31t-28 -74q0 -12 3 -36t3 -36q0 -95 -140 -148q-9 4 -10 15q0 10 5.5 29.5t5.5 29.5q0 83 -52 92q-29 -62 -67 -112q73 -17 73 -87q0 -21 -10 -51l-17 -50q2 -9 15 -32q11 -20 12 -33q-23 -5 -28 -6
q-21 0 -38 24q-37 -32 -81 -32q-29 0 -50 19q-22 19 -22 46q0 52 78 52q33 0 63 -8q30 15 30 52q0 24 -13.5 44.5t-36.5 26.5q-20 -5 -41 -5q-10 0 -21 1q86 67 87 169q0 52 -44 80q-38 25 -91 25q-67 0 -122 -43q-59 -46 -60 -111q0 -54 27 -79q32 46 95 47q35 0 54 -28
q16 -24 16 -61q0 -40 -23 -62.5t-62 -22.5q-28 0 -54 17q0 -50 -31 -51q-21 0 -22 19q0 41 5 65q-61 84 -61 189q0 104 76 180t180 76q177 0 191 -200q91 -35 95 -139q40 0 40 79q0 29 -27 80t-27 74q0 53 56 92q50 34 106 33q71 0 119.5 -46t48.5 -117zM267 195
q0 30 -24 30q-21 0 -37 -15t-16 -35q0 -9 14 -16q12 -6 22 -6q18 0 29.5 12t11.5 30zM411 18q0 23 -36 23q-34 0 -34 -28q0 -24 25 -24q11 0 27 9q18 10 18 20z" />
    <glyph glyph-name="uF728A" unicode="&#xf728a;" 
d="M571 668l-36 -19q-35 51 -85 52q-35 0 -63 -27.5t-28 -62.5q0 -37 27.5 -65t63.5 -28q8 0 29 6l17 -38q-32 -9 -48 -8q-56 0 -93.5 38.5t-37.5 94.5q0 55 39.5 95t93.5 40q70 0 121 -78zM734 -77l-98 -58l-124 211q-39 -62 -39 -197h74v-44h-114q-3 26 -3 54
q0 129 58 236q16 26 46 81t30 82q0 47 -38.5 81.5t-85.5 34.5q-48 0 -88 -32q-42 -34 -43 -81q0 -35 45 -62t45 -67q0 -54 -60 -54q-37 0 -73 32l27 34q18 -21 36 -21q31 0 30 14q0 12 -24 24q-32 16 -43 27q-24 23 -24 65q0 71 51 117q50 45 121 46q66 0 116 -48t50 -114
q0 -36 -26 -82q-8 -15 -44 -77l114 -197l57 33z" />
    <glyph glyph-name="uF728B" unicode="&#xf728b;" 
d="M821 47q0 -60 -39.5 -96t-100.5 -36q-48 0 -81 22q-27 18 -58 62q19 21 22 22q1 0 43 -22t60 -22q27 0 49 16q24 18 24 44q0 40 -66 48q-38 3 -112 10q-64 6 -109 27q9 43 22 88q31 109 31 150q0 172 -118 172q-69 0 -104 -55q-29 -46 -29 -120q0 -42 15 -99.5t36 -92.5
v0q0 -1 3 -1q6 0 17.5 9.5t13.5 9.5q33 0 34 -39q0 -28 -33 -48q-20 -12 -34 -13q-46 0 -85 89q-28 63 -41 131q-6 33 -6 69q0 93 59 165q62 77 153 77q201 0 201 -237q0 -58 -17 -106q-11 -33 -46 -97v-1q0 -1 1 -2q31 -16 82 -15q49 0 69 21q18 21 17 71v18
q0 45 -18 134.5t-18 134.5q0 88 43 88q16 0 22 -21q3 -17 6 -35q11 -51 33 -154q20 -94 20 -155q0 -19 -14 -114q53 -41 53 -97z" />
    <glyph glyph-name="uF728C" unicode="&#xf728c;" 
d="M845 -95q-93 40 -107 45q-63 22 -113 23q-58 0 -168.5 -36.5t-168.5 -36.5q-54 0 -102 33q-45 31 -69 81l36 89q67 -109 154 -109q55 0 158.5 40.5t159.5 40.5q58 0 145 -30v405q0 66 -73 109q-63 37 -134 37q-85 0 -139 -44q-55 -45 -65 -130h-77q15 118 88.5 183
t192.5 65q110 0 190 -53q92 -61 92 -166v-546z" />
    <glyph glyph-name="uF728D" unicode="&#xf728d;" 
d="M826 574q-62 -34 -116 -33q-27 0 -51.5 17t-35.5 43h-3l-279 -36q-10 -87 -156 -87q-23 0 -48 7q33 36 32 79q0 41 -34 75q35 25 104 25q65 0 99 -58l276 35q1 1 2 4q3 10 12 31q35 53 142 53q13 0 34 -8q-19 -47 -18 -72q0 -41 40 -75zM810 -131l-135 -25q-5 -1 -8 -1
q-38 0 -47 104q-8 87 -36 130q-8 13 -23 27q-19 17 -30 17q-2 -1 -13 -14q-13 -14 -39 -43q-22 -26 -21 -50q0 -31 29 -38v-16l-115 -15q-4 0 -16 1q-42 5 -42 63q0 43 62 118l93 108v2l-70 -8q-45 0 -75 30t-30 74q0 94 73 144q62 42 160 42q70 0 118 -33q56 -38 56 -104
q0 -86 -132 -221h53q32 0 50 -2q40 -5 65 -49q21 -36 25 -82l9 -77q3 -28 8 -43q10 -25 31 -27v-12zM561 403q0 27 -13 44q-15 21 -40 21q-32 0 -55 -52q-19 -42 -18 -80q0 -36 20 -46q12 -6 52 -7q54 67 54 120z" />
    <glyph glyph-name="uF728E" unicode="&#xf728e;" 
d="M722 124q0 -15 -17 -44q-54 -92 -157 -92q-122 0 -191 108l-59 -187q21 -16 21 -41q0 -21 -14.5 -35.5t-35.5 -14.5t-35.5 15t-14.5 35t13 34.5t32 15.5l70 223q-17 43 -16 89q0 95 60 166q63 73 157 73q88 0 139 -60q48 -56 48 -146q0 -15 -4 -18.5t-18 -3.5h-296v-3
q0 -103 32 -153q44 -70 118 -70q97 0 141 108q6 14 14 14q13 0 13 -13zM653 263q0 70 -24 119q-31 63 -94 63q-20 0 -44 -11q-81 -38 -85 -171h247z" />
    <glyph glyph-name="uF728F" unicode="&#xf728f;" 
d="M729 375q0 -56 -53 -56q-32 0 -42 23q-3 6 -7 41q-3 22 -18 22t-63 -32v-303q0 -13 5 -23q8 -14 46 -17h54v-30q-35 3 -57 3h-182q-20 0 -55 -3v30q4 0 14 -1h14q62 0 72 18q4 8 4 24v247q-72 -42 -120 -41q-71 0 -70 71q0 25 17.5 44t42.5 19q38 0 49 -26q7 -16 7 -59
q0 -13 4 -13q5 0 22.5 9t47.5 27v237q0 16 -4 24q-9 17 -75 17h-25v30q35 -3 56 -3h184q20 0 54 3v-30q-5 0 -14.5 0.5t-14.5 0.5q-37 0 -50 -4q-26 -9 -26 -38v-185q74 42 119 42q64 -1 64 -68z" />
    <glyph glyph-name="uF7290" unicode="&#xf7290;" 
d="M812 534h-115v-345h-12q-46 54 -105 88q-67 40 -129 40q-56 0 -92 -27q-40 -30 -40 -83q0 -65 73 -159q34 -43 122 -135l-19 -19q-113 112 -152 163q-80 106 -80 201q0 146 171 146q113 0 188 -62v192h-434v65h624v-65z" />
    <glyph glyph-name="uF7291" unicode="&#xf7291;" 
d="M941 300l-23 -25h-173q0 41 3 -52.5t3 -122.5q0 -222 -53 -264h-10q-5 6 -6 202l1 614q0 13 -49 36q-59 28 -63 32l33 9q25 0 73 -12q53 -14 68 -27v-380l30 -3q20 -1 55 12t53 13q58 0 58 -32zM533 542q-33 -56 -67 -125q-45 -93 -175 -230q-139 -146 -223 -176h-9
q8 13 22 25q287 250 359 487l-18 2q-110 0 -174 -12q-5 -1 -25.5 -8t-22.5 -7q-18 0 -57 19q-43 21 -46 38h28q21 0 64.5 -4t65.5 -4q37 0 110 8t111 8q14 0 57 -11v-10z" />
    <glyph glyph-name="uF7292" unicode="&#xf7292;" 
d="M850 666l-3 -409q0 -38 -9 -90q-12 -72 -31 -72q-5 0 -11 13q-4 11 -4 18v245h-16h-22h-37q-6 -98 -17 -219q-3 -14 -18 -27q-20 5 -19 33v160v1q0 2 -5 2q-10 0 -78 -23q-23 -4 -63 -21q-4 -75 -8 -93q-11 -62 -42 -74q-10 7 -9 13v140l-5 5q-54 -14 -119 -23
q-2 -125 -45 -147q-13 6 -13 19v119q-25 -4 -70 -16l-32 -8q-13 0 -52 20t-46 31q-1 11 10 11q15 0 43.5 -3t43.5 -3q108 0 244 23q35 6 241 48l5 4v237q0 10 -35 32l-45 30q7 7 25 7q20 0 56 -8q42 -9 48 -19q3 -5 3 -21v-198h77v223q0 12 -39 36l-49 29q16 10 29 11
q10 0 50 -10q38 -10 51 -15q6 -1 16 -11z" />
    <glyph glyph-name="uF7293" unicode="&#xf7293;" 
d="M976 261q0 -239 -89.5 -328.5t-328.5 -89.5h-116q-239 0 -328.5 89.5t-89.5 328.5v47q0 239 89.5 328t328.5 89h116q239 0 328.5 -89.5t89.5 -327.5v-47zM500 220v231l-28 82l-108 -313h136zM500 -118v307h-147l-27 -71q-19 -51 -19 -68q0 -24 25 -38q21 -11 47 -12v-29
l-111 3q-30 0 -97 -3v29q84 1 107 65l200 575q7 20 22 20v26h-58q-223 0 -301 -78t-78 -300v-47q0 -223 78 -301t301 -78h58z" />
    <glyph glyph-name="uF7294" unicode="&#xf7294;" 
d="M976 261q0 -239 -89.5 -328.5t-328.5 -89.5h-116q-239 0 -328.5 89.5t-89.5 328.5v47q0 237 86 325q-9 23 -14 34q-2 4 -27 44q-19 29 -19 45q0 13 11 13q5 0 15 -15l14 -19q21 -21 50 -30q18 -5 52 -17q87 37 250 37h116q239 0 328.5 -89.5t89.5 -327.5v-47zM500 44v309
q-18 -16 -47 -16q-49 0 -71 56q-9 35 -28 104q-18 56 -64 56q-22 0 -37 -19q-13 -17 -38 -45q61 -24 61 -72q0 -6 -2 -20l-14 -101q-6 -43 -6 -55q0 -68 43 -126q46 -62 114 -62q53 0 89 -9zM500 -118v132q-31 8 -91 8q-80 0 -135 69q-50 63 -50 146q0 64 11 121
q10 49 10 58q0 26 -32 44q-12 6 -55 21q31 21 75 73q25 30 60 29q41 0 63 -24q19 -20 28 -59q5 -22 16 -67q16 -65 53 -65q38 0 38 59q0 7 -1 21.5t-1 21.5q0 29 11 51v165h-58q-131 0 -205 -22q24 -22 35 -63q-15 -3 -28 -13q-9 41 -47 63q-11 7 -74 31q6 -11 30 -75
q17 -44 41 -67q-10 -12 -21 -22q-26 25 -46 69l-2 5q-62 -79 -62 -284v-47q0 -223 78 -301t301 -78h58zM297 504q0 -19 -19 -18q-19 0 -18 18q0 19 18 19q19 0 19 -19z" />
    <glyph glyph-name="uF7295" unicode="&#xf7295;" 
d="M976 261q0 -239 -89.5 -328.5t-328.5 -89.5h-116q-239 0 -328.5 89.5t-89.5 328.5v47q0 239 89.5 328t328.5 89h116q239 0 328.5 -89.5t89.5 -327.5v-47zM937 261v47q0 223 -78 300.5t-301 77.5h-58v-26q16 0 22 -20l208 -601q10 -30 41 -37q13 -3 59 -2v-29
q-62 3 -174 3q-55 0 -91 -3v29q79 0 79 29q0 15 -23 78l-30 82h-91v-307h58q223 0 301 78t78 301zM580 220l-80 231v-231h80z" />
    <glyph glyph-name="uF7296" unicode="&#xf7296;" 
d="M979 244q-21 -68 -87 -129q9 -74 8 -94v-4q-22 6 -80 38q-60 -35 -122 -42q5 -50 3 -96q72 7 132 20q-139 -133 -333 -133h-7v0q48 24 73 57q-27 23 -61 59q-33 -2 -98 -6v-7q0 -26 5 -95q-21 4 -57 45q-28 34 -42 63h-9q-85 0 -156 38q74 14 117 41l-47 109
q-19 10 -80 49q-19 -26 -61 -102q-13 24 -13 75q0 42 10 78q-30 20 -53 47q24 17 81 28q18 67 48 104q-31 33 -46 56q-47 -33 -77 -73q31 175 170 288q-21 -44 -25 -97l71 1q35 49 84 86q-21 39 -25 73h8q48 0 110 -18q104 51 173 50h8q-33 -26 -92 -75q50 -21 110 -49
q69 -1 136 -28q21 26 29 71q37 -51 46 -115q69 -34 121 -106q-56 7 -91 8q8 -39 8 -85q0 -7 -0.5 -21.5t-0.5 -21.5q0 6 8 -39q8 -41 8 -79v-5q49 14 96 36zM724 533q-40 40 -105 96q-51 -2 -152 -6q-35 -54 -46 -119q21 -38 74 -108q55 16 156 42q30 36 73 95zM867 331
q-29 42 -83 127q-51 -4 -133 -20q-36 -47 -94 -128q36 -59 98 -117q57 -3 146 -4q38 65 66 142zM421 504q-20 13 -67 92l-111 -34q-16 -5 -86 -71q-7 -37 -7 -80q0 -48 13 -114q47 9 115 10q44 31 123 54v4q0 48 20 139zM753 103q-55 40 -98 90q-50 5 -151 35
q-27 -39 -79 -119q-6 -39 -14 -133q31 -19 94 -56q62 -5 96 -5h17q73 77 135 188zM425 109q-21 64 -24 148q-42 16 -123 50q-60 -46 -96 -99q19 -49 36 -100q1 -1 108 -81q33 28 99 82z" />
    <glyph glyph-name="uF7297" unicode="&#xf7297;" 
d="M909 227q0 -15 -41 -20v-197q-34 -27 -50 -27q-21 0 -20 17v41h-289v-207q-31 -28 -49 -27q-21 0 -22 19v215h-275v-38q-34 -27 -50 -27q-21 0 -22 24v293l77 -40h270v134h-227v-37q-34 -27 -49 -28q-21 0 -22 24v303l77 -40h221v138h16q5 0 71 -12q23 -4 23 -14
q0 -20 -39 -27v-85h230q11 13 33 38q88 -55 88 -64q0 -15 -41 -20v-206q-34 -27 -49 -27q-21 0 -21 17v40h-240v-134h279q11 13 33 38q88 -55 88 -64zM749 426v146h-240v-146h240zM438 426v146h-227v-146h227zM798 79v136h-289v-136h289zM438 79v136h-275v-136h275z" />
    <glyph glyph-name="uF7298" unicode="&#xf7298;" 
d="M842 90q0 -55 -23 -94q-28 -47 -80 -47q-64 0 -99.5 38t-35.5 103v288h-88v24q66 2 102 65q28 49 32 122q-17 -7 -35 -6q-29 0 -107.5 56.5t-114.5 56.5q-49 0 -77 -35q-25 -31 -24 -81q0 -65 37 -110q28 -33 93 -70q29 30 39 30q12 0 12 -16v-124q0 -17 -15 -18
q-12 0 -15 21q0 10 -3 30q-7 42 -41 65q-31 21 -75 22q-46 0 -77 -17q-40 -21 -40 -63t46 -63q23 -11 82 -23q83 -16 119 -50q44 -42 45 -99q0 -72 -50 -111q-45 -35 -118 -35q-68 0 -116 46q-38 -45 -47 -46q-11 0 -11 16v158q0 16 13 15q10 0 15 -17q18 -71 45 -104
q36 -44 101 -44q50 0 81 22q36 25 36 73q0 72 -109 95q-33 7 -72 16q-40 12 -65 33q-44 36 -45 89q0 63 49 97q42 29 108 32q-81 60 -81 160q0 65 37 109q39 46 104 46q49 0 138 -66t122 -66q6 0 16 7.5t16 7.5q10 0 10 -24v-192h149v-34h-149v-290q0 -113 71 -112
q71 0 70 141v33h25v-60z" />
    <glyph glyph-name="uF7299" unicode="&#xf7299;" 
d="M827 226h-115q-63 0 -91 22q-33 25 -34 86q0 26 12 86q-150 -45 -220 -87q-123 -75 -123 -185q0 -133 151 -191q104 -41 263 -41h103l3 -6l-126 -88h-32q-181 0 -275 52q-125 69 -125 233q0 166 155 269q22 15 115 64q-55 7 -92 7q-72 0 -164 -20q19 55 39 75
q45 46 145 47q37 0 111.5 -10.5t111.5 -10.5q49 0 111 9l-21 -95q-28 -3 -103 -17l-1 -36q0 -41 26 -55q19 -11 61 -11h115v-97zM589 201l-41 -80l-91 46l42 81zM570 51l-41 -81l-91 48l43 81zM462 149l-42 -79l-91 47l43 80z" />
    <glyph glyph-name="uF729A" unicode="&#xf729a;" 
d="M976 261q0 -239 -89.5 -328.5t-328.5 -89.5h-116q-239 0 -328.5 89.5t-89.5 328.5v47q0 239 89.5 328t328.5 89h116q239 0 328.5 -89.5t89.5 -327.5v-47z" />
    <glyph glyph-name="uF729B" unicode="&#xf729b;" 
d="M973 33q0 -12 -14 -42q-14 3 -19 31q-6 34 -34 274q-17 143 -16 154q0 45 20 72q8 -7 11 -27q2 -14 34 -288q18 -158 18 -174zM494 645l-13 -5q-21 52 -91 110q5 26 29 26q23 0 37 -23q32 -52 38 -108zM608 615q0 -38 -12 -70q-17 -43 -47 -43q-26 0 -53 15
q-8 -21 -25 -36q-20 -18 -40 -18q-53 0 -53 63q0 12 6 48l19 7q0 -53 39 -53q16 0 31 33q13 26 16 47l15 4q7 -25 12 -31q9 -11 31 -11q28 0 42 67l16 4q3 -12 3 -26zM792 82q0 -59 -29 -115q-131 0 -191 77q-45 -77 -132 -77q-42 0 -80 23q-39 24 -53 63q-59 -86 -130 -86
q-155 0 -155 37q0 64 95 141q71 57 154 96q-10 36 -10 52q0 38 47 94q17 -111 45 -250q7 -34 29 -50q21 -15 57 -15q35 0 52 12q13 9 34 42l-37 173q-11 49 -11 69q0 40 47 94q11 -65 35 -180l23 -110q21 -100 97 -99q19 0 31 16t12 35v2l-37 173q-10 45 -10 69q0 41 46 94
q3 -19 21 -102q22 -103 33 -157q17 -89 17 -121zM293 98l-11 70q-103 -38 -141 -97q30 -12 81 -12q37 -1 71 39z" />
    <glyph glyph-name="uF729C" unicode="&#xf729c;" 
d="M984 761l-57 -70v15l51 63h6v-8zM966 769l-47 -58h-13l48 58h12zM984 731l-57 -70v16l57 70v-16zM942 769l-47 -58h-13l47 58h13zM984 702l-34 -43h-13l47 58v-15zM984 672l-10 -13h-13l23 28v-15zM893 769l-18 -22v15l5 7h13zM917 769l-42 -52v15l30 37h12zM812 730
l-15 -19h-13l28 35v-16zM812 760l-40 -49h-12l47 58h5v-9zM812 711h-3l3 5v-5zM947 597l-20 -25v15l8 10h12zM971 597l-44 -55v16l32 39h12zM984 583l-57 -70v15l56 69h1v-14zM795 769l-47 -58h-13l48 58h12zM984 553l-54 -66h-3v12l57 69v-15zM771 769l-47 -58h-13l47 58
h13zM984 523l-29 -36h-13l42 52v-16zM984 494l-5 -7h-13l18 22v-15zM722 769l-19 -23v15l6 8h13zM747 769l-44 -53v15l31 38h13zM641 730l-16 -19h-13l29 35v-16zM641 760l-40 -49h-13l47 58h6v-9zM641 711h-4l4 5v-5zM928 425l-1 -1v1h1zM952 425l-25 -31v15l12 16h13z
M977 425l-50 -61v16l37 45h13zM624 769l-48 -58h-13l48 58h13zM984 405l-57 -71v16l57 70v-15zM599 769l-47 -58h-13l47 58h13zM984 375l-48 -60h-9v5l57 71v-16zM984 345l-24 -30h-13l37 46v-16zM984 315h-12l12 16v-16zM550 769l-19 -23v15l7 8h12zM575 769l-44 -53v15
l31 38h13zM469 758l-39 -47h-13l47 58h5v-11zM469 729l-15 -18h-13l28 33v-15zM469 711h-3l3 3v-3zM933 253l-6 -7v7h6zM957 253l-30 -37v15l17 22h13zM981 253l-54 -67v16l42 51h12zM453 769l-48 -58h-12l47 58h13zM984 227l-57 -70v15l57 70v-15zM428 769l-47 -58h-13
l48 58h12zM984 197l-44 -53h-12l56 68v-15zM984 167l-19 -23h-13l32 39v-16zM984 144h-7l7 9v-9zM753 416q0 -94 -134 -94q-46 0 -86 11l13 58q40 -14 78 -14q63 0 63 29q0 23 -39 42q-64 32 -70 36q-38 27 -38 73q0 88 117 88q47 0 81 -9l-10 -57q-35 13 -71 12
q-52 0 -52 -27q0 -20 39 -38q59 -26 70 -35q39 -28 39 -75zM379 769l-20 -25v16l8 9h12zM404 769l-45 -55v16l32 39h13zM297 757l-38 -46h-13l47 58h4v-12zM297 728l-14 -17h-12l26 32v-15zM297 711h-2l2 2v-2zM938 81l-11 -14v14h11zM962 81l-35 -43v15l23 28h12zM984 78
l-57 -70v15l47 58h10v-3zM282 769l-48 -58h-12l47 58h13zM984 48l-57 -69v15l57 70v-16zM257 769l-47 -58h-13l48 58h12zM984 19l-39 -47h-12l51 62v-15zM984 -11l-14 -17h-12l26 32v-15zM984 -28h-2l2 3v-3zM208 769l-20 -26v15l8 11h12zM233 769l-45 -56v16l32 40h13z
M125 756l-37 -45h-13l48 58h2v-13zM125 727l-13 -16h-12l25 31v-15zM489 640q-1 -24 -35 -114q-24 -60 -48 -119q-11 -29 -23 -77h-70q-1 19 -21 78q-22 60 -44 119q-32 88 -33 113h79q0 -18 14 -62q20 -57 48 -173q6 34 23 85q24 75 27 85q6 21 12 65h71zM125 711h-1l1 1
v-1zM943 -91l-16 -19v15l3 4h13zM967 -91l-40 -49v15l28 34h12zM984 -129l-58 -71h-12l70 86v-15zM984 -100l-82 -100h-13l90 109h5v-9zM984 -159l-33 -41h-13l46 56v-15zM984 -189l-9 -11h-13l22 27v-16zM38 769l-22 -27v15l9 12h13zM62 769l-46 -57v16l33 41h13zM111 769
l-90 -110h-5v9l82 101h13zM86 769l-70 -86v15l58 71h12zM73 693l-28 -34h-12l40 49v-15zM73 664l-3 -5h-13l16 20v-15zM876 -143l-1 -1v1h1zM900 -143l-25 -30v15l13 15h12zM925 -143l-48 -57h-2v12l37 45h13zM812 -160l-32 -40h-13l45 55v-15zM812 -190l-8 -10h-12l20 25
v-15zM18 597l-2 -4v4h2zM42 597l-26 -33v15l14 18h12zM67 597l-51 -63v15l39 48h12zM803 -143l-48 -57h-12l47 57h13zM73 575l-57 -71v16l57 70v-15zM778 -143l-47 -57h-13l48 57h12zM73 545l-47 -58h-10v3l57 70v-15zM597 27q0 -63 -68 -99q-52 -27 -125 -32l-7 44
q135 9 135 78q0 53 -105 53l6 43q87 0 87 44q0 35 -56 35q-23 0 -50 -5l5 49q19 6 70 6q92 0 92 -66q0 -49 -53 -68q31 -6 50 -28.5t19 -53.5zM73 515l-23 -28h-12l35 43v-15zM73 487h-11l11 14v-14zM705 -143l-2 -2v2h2zM729 -143l-26 -32v16l14 16h12zM754 -143l-47 -57
h-4v11l38 46h13zM641 -160l-33 -40h-13l46 55v-15zM641 -190l-9 -10h-12l21 25v-15zM23 425l-7 -9v9h7zM48 425l-32 -39v15l19 24h13zM72 425l-56 -69v16l44 53h12zM631 -143l-48 -57h-12l47 57h13zM73 396l-57 -70v16l57 70v-16zM606 -143l-47 -57h-13l48 57h12zM73 367
l-42 -52h-12l54 67v-15zM73 337l-17 -22h-13l30 38v-16zM73 315h-6l6 8v-8zM533 -143l-2 -2v2h2zM558 -143l-27 -32v16l14 16h13zM582 -143l-47 -57h-4v11l38 46h13zM469 -162l-32 -38h-13l45 54v-16zM469 -191l-8 -9h-12l20 24v-15zM28 253l-12 -16v16h12zM53 253l-37 -45
v15l24 30h13zM73 248l-57 -70v15l48 60h9v-5zM460 -143l-47 -57h-13l47 57h13zM73 218l-57 -70v16l57 70v-16zM436 -143l-48 -57h-13l48 57h13zM73 188l-37 -44h-13l50 60v-16zM73 159l-12 -15h-13l25 30v-15zM73 144h-1l1 1v-1zM362 -143l-3 -3v3h3zM387 -143l-28 -33v15
l15 18h13zM411 -143l-47 -57h-5v10l39 47h13zM297 -163l-31 -37h-13l44 53v-16zM297 -192l-6 -8h-13l19 23v-15zM34 81l-18 -22v16l5 6h13zM58 81l-42 -51v15l29 36h13zM289 -143l-47 -57h-13l47 57h13zM73 70l-57 -70v15l54 66h3v-11zM265 -143l-48 -57h-12l47 57h13z
M73 40l-56 -68h-1v13l57 71v-16zM73 11l-32 -39h-12l44 54v-15zM73 -19l-8 -9h-12l20 24v-15zM191 -143l-3 -4v4h3zM240 -143l-47 -57h-5v9l40 48h12zM216 -143l-28 -34v15l15 19h13zM125 -164l-30 -36h-12l42 52v-16zM125 -194l-5 -6h-13l18 22v-16zM39 -91l-23 -28v15
l10 13h13zM63 -91l-47 -57v15l34 42h13zM118 -143l-47 -57h-13l47 57h13zM73 -108l-57 -70v15l57 70v-15zM94 -143l-48 -57h-12l47 57h13zM73 -138l-51 -62h-6v8l57 69v-15z" />
    <glyph glyph-name="uF729D" unicode="&#xf729d;" 
d="M553 665l-39 -456q-2 -22 -14 -22t-14 23l-39 455q-2 22 15 37q16 14 38 14t38 -14q17 -15 15 -37zM553 53q0 -22 -15.5 -37.5t-37.5 -15.5t-37.5 15.5t-15.5 37.5t15.5 37.5t37.5 15.5t37.5 -15.5t15.5 -37.5z" />
    <glyph glyph-name="uF729E" unicode="&#xf729e;" 
d="M788 671q-304 0 -483 -153q-13 -11 -64 -67q-5 -6 -13 -6q-17 0 -17 13q0 4 3 8q99 125 258 192q148 63 316 63v-50zM699 354q0 -27 -27 -28q-27 0 -27 28q0 27 27 27t27 -27zM627 402q0 -27 -27 -27t-27 27t27 27t27 -27zM748 281q0 -27 -28 -27q-27 0 -27 27t27 28
q28 -1 28 -28zM542 419q0 -27 -27 -27t-28 27q0 27 28 27q27 0 27 -27zM765 196q0 -27 -28 -27q-27 0 -27 27t27 28q28 -1 28 -28zM748 111q0 -27 -28 -27q-27 0 -27 27t27 28q28 -1 28 -28zM457 402q0 -27 -28 -27q-27 0 -27 27t27 27q28 0 28 -27zM385 354q0 -27 -28 -28
q-27 0 -27 28q0 27 27 27q28 0 28 -27zM699 39q0 -27 -27 -27t-27 27t27 27t27 -27zM627 -9q0 -27 -27 -28q-27 0 -27 28q0 27 27 27t27 -27zM336 281q0 -27 -27 -27t-27 27t27 28q27 -1 27 -28zM319 196q0 -27 -27 -27t-27 27t27 28q27 -1 27 -28zM542 -26q0 -27 -27 -28
q-27 0 -28 28q0 27 28 27q27 0 27 -27zM336 111q0 -27 -27 -27t-27 27t27 28q27 -1 27 -28zM457 -9q0 -27 -28 -28q-27 0 -27 28q0 27 27 27q28 0 28 -27zM385 39q0 -27 -28 -27q-27 0 -27 27t27 27q28 0 28 -27z" />
    <glyph glyph-name="uF729F" unicode="&#xf729f;" 
d="M955 162q0 -85 -38 -139q-25 -36 -57 -45q-21 -6 -72 -7h-153q-115 0 -124 -128q-1 -16 -11 -16q-9 0 -12 27q-15 118 -123 117h-153q-52 0 -73 7q-32 10 -56 45q-38 53 -38 139q0 20 11 20q9 0 11 -9q4 -75 46 -115q21 -21 55 -27q15 -2 63 -2h136q43 0 64 -10
q47 -23 69 -99q22 76 69 99q21 10 64 10h135q48 0 63 2q34 5 56 27q42 41 46 115q2 9 11 9q11 0 11 -20z" />
    <glyph glyph-name="uF72A0" unicode="&#xf72a0;" 
d="M588 -6q0 -11 -12 -11q-5 0 -19 11q-77 59 -111 126.5t-34 163.5t34 164.5t111 126.5q13 10 19 10q12 0 12 -11q0 -5 -10 -14q-101 -91 -101 -276t101 -276q10 -9 10 -14z" />
    <glyph glyph-name="uF72A1" unicode="&#xf72a1;" 
d="M871 572l-38 -71l-80 42l37 70zM774 659l-37 -72l-78 42l36 72zM758 528l-37 -71l-79 41l36 71zM909 128h-38q-53 0 -97 34q-21 -19 -37 -25q-22 -9 -67 -9h-60q0 -45 -21 -87q-64 -128 -265 -128q-206 -1 -206 149q0 77 38 172q11 28 37 81l20 -9q-56 -116 -56 -185
q0 -124 166 -123q94 0 168 32q92 41 92 114q0 88 -59 159l41 100q24 -41 33 -71q12 -42 12 -119h60q83 0 83 52q0 26 -6 60l19 29l8 -47q15 -92 85 -92q23 0 24 25q0 43 -45 93l33 53q23 -39 27 -51q11 -30 11 -89v-118z" />
    <glyph glyph-name="uF72A2" unicode="&#xf72a2;" 
d="M779 321q-49 0 -74 -19q-19 -14 -46 -60l-49 -81q-28 -44 -54 -77q57 -66 104 -66q38 0 63 26t27 64h24q-1 -53 -32 -88q-33 -37 -85 -37q-71 0 -141 60q-68 -60 -145 -60q-59 0 -102 33q-48 36 -48 92q0 31 18 59q9 14 40 46q40 41 71 76q-32 82 -32 161q0 53 30 92
q32 42 84 41q39 0 58 -36q16 -29 16 -71q0 -56 -96 -164q37 -94 127 -204q24 31 65 93q49 75 48 90q0 31 -56 30v30q35 -2 102 -2q37 0 83 2v-30zM477 476q0 80 -44 80q-29 0 -43 -31q-11 -24 -12 -57q0 -60 21 -125q78 84 78 133zM494 65q-78 81 -133 196q-35 -34 -47 -56
q-17 -29 -17 -71q0 -43 18 -76q22 -40 62 -40q62 0 117 47z" />
    <glyph glyph-name="uF72A3" unicode="&#xf72a3;" 
d="M967 44q0 -44 -49 -44h-24v88h25q48 0 48 -44zM878 73h-47v-19h44v-15h-44v-39h-21v88h68v-15zM794 73h-47v-19h44v-15h-44v-39h-21v88h68v-15zM960 284q-99 -90 -190 -186h-138v-108h39q-87 -99 -171 -206q-213 273 -460 500q247 226 460 500q213 -274 460 -500zM710 73
h-47v-19h44v-15h-44v-39h-21v88h68v-15zM706 29q-12 -13 -34 -37v37h34zM946 44q0 29 -24 29h-7v-58h6q25 0 25 29zM723 410q0 183 -350 183l-18 -77q261 0 261 -126q0 -54 -54 -98q-46 -38 -104 -52l14 -165h53l17 127q181 71 181 208zM571 -37q0 29 -21 50.5t-50 21.5
t-50 -21t-21 -51q0 -29 21 -49.5t50 -20.5t50 20.5t21 49.5z" />
    <glyph glyph-name="uF72A4" unicode="&#xf72a4;" 
d="M886 591q-136 -61 -241 -149v-287q104 -14 164 -125q50 -94 51 -212l-55 -1q-1 94 -37 172q-44 96 -123 111v-225h-55v225q-79 -15 -124 -110q-37 -79 -38 -172h-55v27q2 106 58 196q62 102 159 114v238q-218 -213 -278 -553l-54 5l2 103q1 70 2 103q0 26 1.5 78.5
t1.5 78.5q0 107 -11 191q-20 149 -68 149q-16 0 -48 -17l-24 49q43 23 72 23q134 0 134 -395q0 -23 -2 -72l-2 -71q91 245 274 404v227h-89v54h231v-54h-87v-183q98 74 219 128z" />
    <glyph glyph-name="uF72A5" unicode="&#xf72a5;" 
d="M504 445q0 -45 -46 -45q-45 0 -44 45q0 46 44 46q46 0 46 -46zM844 425l-26 -156l-26 -23h-437v55h414l16 100l-92 -4q-51 0 -82 28q-3 3 -59 78q-39 52 -72 52h-143v-311q75 -144 107 -423l-54 -6q-25 227 -80 358q-55 -131 -81 -358l-54 6q31 277 107 423v312
q-126 9 -126 103q0 37 20 63q22 28 57 28q91 0 103 -140h144q49 0 86 -37q21 -21 52 -72q25 -41 38 -43q21 -5 55 -6q18 0 53.5 2.5t52.5 2.5zM281 611q-8 85 -48 85q-23 0 -23 -37q1 -43 71 -48z" />
    <glyph glyph-name="uF72A6" unicode="&#xf72a6;" 
d="M573 586q0 -21 -15.5 -36t-36.5 -15t-36.5 15t-15.5 36t15 37t37 16q21 0 36.5 -16t15.5 -37zM732 -27q-52 -79 -94 -112q-57 -43 -138 -43q-86 0 -149 41q-73 47 -73 129q0 68 53 146q37 55 121 140q-127 59 -128 133q0 101 148 121l7 -54q-8 -1 -27 -3q-26 -4 -48 -21
q-25 -19 -25 -43q0 -41 115 -91q87 88 120 134q53 73 53 131q0 57 -57 88q-48 26 -110 27q-65 0 -111 -38q-32 -26 -75 -93l-46 31q50 78 95 111q58 43 137 43q86 0 149 -41q73 -47 73 -128q0 -68 -53 -147q-37 -55 -121 -141q77 -34 111 -59q50 -38 49 -82q0 -89 -144 -107
l-6 54q96 11 96 53q0 37 -148 99q-85 -85 -120 -134q-53 -73 -53 -129q0 -57 58 -89q48 -26 109 -26q64 0 111 38q33 26 76 92z" />
    <glyph glyph-name="uF72A7" unicode="&#xf72a7;" 
d="M660 297l-25 -38h-270l-25 38l135 308h50zM817 259h-55v396h-524v-655h-55v683l27 27h580l27 -27v-424zM620 -97l-18 -52l-217 77l-6 49l83 55l-81 45l2 48l201 93l23 -50l-152 -70l72 -40l2 -47l-74 -50zM593 314l-93 212l-93 -212h186z" />
    <glyph glyph-name="uF72A8" unicode="&#xf72a8;" 
d="M729 0h-445l-12 52q49 22 92 56q57 45 57 84q0 24 -42 65q-60 58 -77 83q-42 58 -42 122q0 105 77 166q71 56 179 57q58 0 100 -14q36 -11 92 -44l-27 -47q-50 29 -78 38q-36 12 -87 12q-85 0 -140 -40q-62 -45 -62 -128q0 -57 42 -104l78 -78q42 -44 42 -88
q0 -70 -91 -137h344v-55z" />
    <glyph glyph-name="uF72A9" unicode="&#xf72a9;" 
d="M877 101q0 -20 -36 -19q-8 0 -23 2.5t-23 2.5q-21 0 -21 -19q0 -7 2.5 -22t2.5 -22q0 -74 -80 -74q-25 0 -67.5 23t-56.5 23q-16 0 -44 -79t-49 -79q-24 0 -77.5 18.5t-72.5 33.5l-2 19q33 53 62 121q37 85 36 127q0 17 -27 67q-13 22 -37 68q-6 14 -19 41q-11 22 -29 33
q-26 16 -110 23q-47 4 -66 9q-42 12 -41 41q0 93 126 178q105 71 213 91q31 6 92 6q87 0 169 -24q99 -29 147 -81l4 -12q-3 -30 -37 -87l-49 -86q66 -69 66 -133q0 -12 -5 -36t-5 -36q0 -17 28.5 -63t28.5 -55zM819 594q-9 9 -16 15l-79 -152q11 -7 18 -12l44 76
q28 48 33 73zM780 625q-10 6 -25 13l-70 -162l14 -6zM730 649q-12 5 -29 10l-60 -168q12 -3 18 -6zM674 667q-16 4 -35 7l-39 -172q5 -1 14 -3zM612 679l-35 4l-17 -172q2 0 13 -3zM550 685h-20h-16l7 -172h11zM493 511l-7 174q-21 -1 -38 -4l39 -171zM460 505l-39 170
q-19 -5 -40 -12l66 -162zM421 492l-66 161q-9 -3 -29 -13l86 -152q3 2 9 4zM388 474l-87 154q-17 -9 -32 -18l112 -141q3 2 7 5zM362 449l-116 147q-22 -15 -38 -27l151 -124zM842 111q-11 17 -32 52q-19 31 -19 56q0 12 5 35.5t5 36.5q0 35 -32 80q-29 43 -62 62
q-30 18 -87 34q-58 17 -91 17q-63 0 -107 -24q-56 -30 -56 -86q0 -28 46 -109t46 -108q0 -81 -96 -251q64 -33 117 -38q12 15 24 58q15 50 25 67q19 32 47 32q22 0 63 -23t61 -23q28 0 39.5 9t11.5 36q0 7 -2.5 22t-2.5 22q0 20 15.5 34t34.5 14q8 0 23.5 -2.5t23.5 -2.5z
M345 421l-157 129q-18 -17 -30 -32l186 -101zM338 390l-195 104q-15 -28 -15 -55q0 -12 64 -20q25 -2 76 -7q46 -6 69 -24zM786 249l-17 -22q-29 22 -58 22q-15 0 -34 -9q-21 -9 -29 -20l-7 -11l-22 16l7 11q11 16 39 28q26 12 46 12q38 0 75 -27zM759 200q0 -11 -16 -18
q-13 -6 -26 -6q-49 0 -50 27q0 24 46 25q46 -1 46 -28zM584 302q-77 -48 -77 -83q0 -26 33 -81l-24 -13q-9 15 -26 43q-10 19 -10 51q0 50 89 106zM732 200q-1 9 -16 9t-15 -8t16 -8q8 0 15 7z" />
    <glyph glyph-name="uF72AA" unicode="&#xf72aa;" 
d="M712 653l-189 -312h-46l-189 312l47 28l165 -273l165 273zM779 489l-252 -366v-123h-54v123l-252 366l46 31l233 -341l233 341z" />
    <glyph glyph-name="uF72AB" unicode="&#xf72ab;" 
d="M822 34l-26 -34h-592l-26 34l148 616h52l122 -505l122 505h52zM761 55l-113 471l-113 -471h226zM465 55l-113 471l-113 -471h226z" />
    <glyph glyph-name="uF72AC" unicode="&#xf72ac;" 
d="M937 637q0 -19 -33 -46q-187 -151 -506 -151q-119 0 -144 -11q-21 -9 -21 -31q0 -55 81 -73q22 -1 66 -5t44 -34q0 -37 -43 -69q-27 -19 -82 -56q-43 -31 -43 -58q0 -28 55 -38q5 -1 102 -7q55 -3 55 -18q0 -8 -11 -21q-31 -36 -89 -61t-106 -25q-133 0 -134 90
q0 35 32.5 92t32.5 71q0 11 -31 54.5t-31 77.5q0 60 62 127q54 59 117 87q112 50 269 50q33 0 109 15q42 8 85 20q22 7 66 22q39 13 68 12q30 1 30 -14z" />
    <glyph glyph-name="uF72AD" unicode="&#xf72ad;" 
d="M729 0h-54v187l-350 168v-355h-54v644l28 27q188 -8 307 -123q123 -118 123 -305v-243zM675 248q-1 154 -100 253q-96 98 -250 113v-198z" />
    <glyph glyph-name="uF72AE" unicode="&#xf72ae;" 
d="M783 135q0 -33 -45 -56l-143 -71q-6 -3 -17 -3q-25 0 -25 20q0 14 28 35q13 9 39 28q31 29 30 71q0 63 -54 167q-44 80 -89 159q-59 -14 -80 -41t-21 -88q0 -218 26 -313q15 -55 15 -77q0 -33 -45 -56l-143 -71q-6 -3 -17 -3q-25 0 -25 20q0 14 28 35q13 9 39 28
q31 29 31 72v401q0 66 52 100q33 22 113 42q-45 72 -89 72h-100q-25 0 -25 30q0 29 25 29h98q113 0 187 -136q69 -128 128 -227q79 -131 79 -167z" />
    <glyph glyph-name="uF72AF" unicode="&#xf72af;" 
d="M825 62q0 -74 -28 -120q-34 -56 -103 -56q-91 0 -147 81q-110 -139 -206 -139q-76 0 -125 75q-43 66 -43 147q0 158 77 260q50 65 158 110q19 5 49 16q6 2 6 11q0 95 8 212q2 27 5 46q8 44 35 44q13 0 22 -10t9 -22l-18 -270q0 -6 6 -7q63 -11 99 -24q111 -42 158 -141
q38 -80 38 -213zM763 69q0 140 -49 208q-53 74 -187 101v-14v-24v-37q0 -35 12 -120q32 -233 155 -233q69 0 69 119zM512 33q0 -7 -17 50q-21 73 -27 155q0 1 -3 30q-2 17 -2 30v58q0 9 -5 16q-42 -13 -90 -44q-51 -33 -73 -66q-24 -36 -43 -99q-18 -62 -17 -108
q0 -56 25 -105q31 -60 81 -60q69 0 159 122q12 17 12 21z" />
    <glyph glyph-name="uF72B0" unicode="&#xf72b0;" 
d="M896 98q0 -20 -13 -20l-269 -4q-22 0 -51 -16l-174 -92q-4 35 -11 104l-37 -1q-30 0 -51 -11l-175 -92q-11 91 -11 132t11 131l175 -92q13 -7 34 -10l-6 339q0 30 -12 52l-90 172q86 10 128 10t128 -10l-91 -172q-11 -21 -11 -52l-6 -341h14q1 29 11 104l174 -92
q13 -7 24 -10l-5 339q0 30 -12 52l-91 172q86 10 128 10t128 -10l-90 -172q-11 -21 -12 -52l-6 -345l256 -4q13 1 13 -19z" />
    <glyph glyph-name="uF72B1" unicode="&#xf72b1;" 
d="M979 583q0 -19 -13 -20l-325 -5q-26 0 -46 -11l-157 -82q-10 82 -9 118q0 36 9 117l157 -82q20 -10 46 -11l325 -5q13 0 13 -19zM948 451l-82 -157q-10 -20 -11 -45l-6 -326q0 -13 -19 -13t-19 13l-5 326q0 26 -11 45l-82 157q82 10 117 9q36 1 118 -9zM710 451l-82 -157
q-10 -20 -10 -45l-6 -326q0 -13 -19 -13t-19 13l-6 326q0 26 -10 45l-82 157q82 10 117 9q35 1 117 -9zM395 -84q-38 18 -196.5 175t-177.5 195q19 38 177.5 195.5t196.5 175.5q-14 -28 -40 -97q-10 -26 -41 -110l-29 -81q-17 -47 -24 -83q6 -33 53 -164q12 -34 41 -109
q14 -37 40 -97zM888 424q-32 3 -58 3t-58 -3q18 -37 58 -110l1 1l1 1zM575 583h-2l-107 57q-3 -36 -4 -57q0 -22 4 -59q37 18 109 59zM651 424q-32 3 -58 3t-58 -3q18 -37 58 -110l1 1v1zM292 59l-44 112q-24 63 -30 115q5 52 30 115q15 37 44 112q-135 -129 -211 -227
q76 -98 211 -227z" />
    <glyph glyph-name="uF72B2" unicode="&#xf72b2;" 
d="M742 0h-94v94q-45 -94 -148 -94q-72 0 -130 42q-112 82 -112 300q0 217 112 299q58 42 130 43q103 0 148 -94v94h94v-684zM576 606q-32 26 -76 27q-111 0 -137 -151q-10 -58 -9 -74v-8q35 2 77 16q108 35 145 190zM648 342q0 97 -19 175q-72 -146 -277 -167v-8
q0 -291 148 -291t148 291z" />
    <glyph glyph-name="uF72B3" unicode="&#xf72b3;" 
d="M690 -65q0 -47 -23 -48q-33 0 -92 49q-51 42 -75 79q-24 -37 -75 -79q-58 -48 -92 -49q-24 0 -23 48q0 19 5 25.5t22 10.5q20 4 23 5q20 9 50 39q34 33 34 50q0 14 -6 20q-9 9 -29 36q-32 45 -56 123q-23 73 -23 132q0 100 38 198q48 125 132 125t132 -125
q38 -98 38 -198q0 -59 -22.5 -132.5t-56.5 -122.5q-6 -8 -29 -36q-6 -7 -6 -20q0 -18 34 -50q30 -30 50 -39q18 -2 44 -14q6 -6 6 -27zM607 391q0 74 -23 153q-31 108 -84 108t-84 -108q-23 -80 -23 -153q0 -44 24 -121q25 -78 51 -111t32 -33q18 0 49 64q22 46 34 80
q24 77 24 121z" />
    <glyph glyph-name="uF72B4" unicode="&#xf72b4;" 
d="M847 289q-66 -340 -235 -340q-68 0 -114 39q-49 41 -49 108q0 31 14 91.5t14 91.5q0 25 -23.5 46t-48.5 21q-57 0 -83 -62q-3 -9 -25 -102l-49 -220h-89q17 67 105 434q30 124 68 170q53 66 166 66q43 0 96 -26q49 -24 82 -56l-45 -63q-68 66 -135 66q-62 0 -98 -46
q-23 -30 -44 -103q-4 -13 -3 -19q0 -10 8 -10q4 0 34 15.5t46 15.5q51 0 92 -38.5t41 -88.5q0 -25 -14 -72.5t-14 -72.5q0 -37 24.5 -63t61.5 -26q104 0 151 262z" />
    <glyph glyph-name="uF72B5" unicode="&#xf72b5;" 
d="M795 -27q0 -31 -24 -54t-56 -23q-30 0 -85.5 24.5t-70.5 24.5q-17 0 -55 -24.5t-82 -24.5t-94 29q-46 26 -77 64q-56 70 -55 218q0 177 85 286q42 54 102 99q73 54 126 54q31 0 53 -23l31 -43q17 -23 36 -24q31 0 50 37q9 23 28 69q16 37 41 37q24 0 37 -28
q10 -21 10 -48q0 -65 -29 -119q-35 -63 -96 -63q-6 0 -18.5 4t-18.5 4q-33 0 -83.5 -75.5t-62.5 -75.5q-11 0 -17.5 11t-6.5 23q0 7 30.5 59t30.5 88q0 54 -43 54q-65 0 -108 -127q-35 -101 -35 -183q0 -208 135 -209q31 0 62 59q23 45 32 87q4 23 13 68q11 44 42 44
q36 0 50 -46q6 -18 16 -96q8 -61 23 -81q7 -9 52 -32q32 -17 32 -44z" />
    <glyph glyph-name="uF72B6" unicode="&#xf72b6;" 
d="M759 410q0 -110 -113 -170q53 -57 77 -99q31 -57 31 -120q0 -93 -79 -142q-66 -41 -165 -41q-98 0 -163 41q-79 49 -79 142q0 70 38 118q31 41 99 77q33 14 97 43q-96 70 -190 107q-19 6 -55.5 19.5t-48.5 28.5q-6 8 -6 20q0 15 9.5 28t24.5 13q9 0 51 -18
q147 -62 298 -164q38 12 67 40q32 32 32 69q0 75 -56 162q-59 93 -128 108q-15 2 -46 8q-25 8 -25 34q0 16 12 27t28 11q109 0 202 -118q88 -111 88 -224zM679 21q0 48 -31 96q-10 17 -39 50q-33 38 -42 38q-8 -2 -43 -18q-82 -36 -116 -62q-64 -47 -65 -106
q0 -104 168 -104t168 106z" />
    <glyph glyph-name="uF72B7" unicode="&#xf72b7;" 
d="M887 -67q0 -9 -16 -20q-73 -45 -151 -45q-15 0 -29 12t-41 37q-64 61 -102 83q-58 35 -125 35q-103 0 -155 -89q-7 -15 -22 -44q-17 -27 -64 -27q-25 0 -47 23t-22 48q0 23 76 64q66 35 102 43q14 2 42 12q12 6 50 38l50 44q50 41 64 54q37 35 51 65q-82 -6 -128 -7
q-74 0 -108 14q-62 25 -94 89q-28 56 -29 130q0 104 59 158q54 50 311 50q125 0 176 -21q84 -35 84 -142t-85 -203q-57 -65 -176 -144q-40 -26 -79 -51q-53 -36 -71 -58q4 -13 42 -13h148q49 0 126.5 -25t115.5 -54q47 -35 47 -56zM608 494q0 131 -77 165q-18 8 -35 8
q-25 0 -48 -27q-19 -23 -26 -51q-8 -33 -8 -58q0 -237 112 -237q35 0 48 13q15 15 26 89q8 60 8 98z" />
    <glyph glyph-name="uF72B8" unicode="&#xf72b8;" 
d="M655 -49q0 -61 -36 -100q-38 -41 -98 -41q-67 0 -108 48q-38 45 -38 113q0 63 27 105q25 37 84 70q-32 31 -61 63q-23 25 -51.5 86t-28.5 93q0 104 57.5 160t162.5 56q33 0 70 -7q16 -14 15 -31q0 -16 -15 -30q-23 2 -45 2q-164 0 -164 -142q0 -57 38 -119
q20 -32 78 -102q35 17 59 21q34 -13 34 -50q-28 -9 -53 -21q73 -95 73 -174zM580 -45q0 77 -52 143q-85 -53 -85 -122q0 -32 20 -67q23 -40 52 -40t48 29q17 26 17 57z" />
    <glyph glyph-name="uF72B9" unicode="&#xf72b9;" 
d="M677 278l-10 -54h-134q-31 -60 -91 -181q-61 -125 -60 -181q0 -15 2 -36l-55 -14q-2 23 -3 40q0 71 56 189l92 183h-133l10 54h150q75 159 75 252q0 63 -45 114q-46 52 -108 52h-27l9 54h28q82 0 141 -64q58 -62 58 -145q0 -102 -73 -263h118z" />
    <glyph glyph-name="uF72BA" unicode="&#xf72ba;" 
d="M870 13l-51 -21l-246 581l-245 -581l-51 21l89 209l-265 112l22 51l264 -113l78 186l-264 112l21 50l264 -112l62 146h51z" />
    <glyph glyph-name="uF72BB" unicode="&#xf72bb;" 
d="M890 470q0 -85 -54 -138q-50 -49 -136 -65l-10 54q15 2 27 5q53 11 85.5 50.5t32.5 93.5q0 124 -145 149l10 53q86 -15 136 -64q54 -53 54 -138zM802 442h-354q52 -75 116 -250q56 -155 82 -272h90v-55h-113l-27 23q-12 61 -47 173h-323q-39 -121 -56 -188h70v-55h-103
l-27 32q14 76 61 226q58 185 114 296l-131 -83l-42 23v318l42 23l205 -133v230h55v-253h388v-55zM485 244q-59 150 -99 191q-37 -37 -96 -191h195zM336 470l-169 110v-219zM531 116q-15 45 -26 73h-236q-13 -35 -25 -73h287z" />
    <glyph glyph-name="uF72BC" unicode="&#xf72bc;" 
d="M784 140l-55 -3q-2 102 -43 154q-32 41 -131 94l26 48q113 -62 151 -113q47 -61 52 -180zM936 629l-40 -37q-93 104 -149 104q-157 0 -272 -342q-82 -243 -101 -481h196v-55h-445v55h194q19 272 116 534q-117 -21 -202 -106q-80 -80 -115 -198l-53 16q21 74 50 123
q53 91 146 151q91 59 197 72q122 286 289 285q79 1 189 -121z" />
    <glyph glyph-name="uF72BD" unicode="&#xf72bd;" 
d="M694 661l-173 -207h-42l-173 207l42 35l152 -182l152 182zM807 624l-271 -323l232 -277l-42 -35l-199 237v-226h-54v226l-199 -237l-42 35l232 277l-271 323l42 35l265 -316l265 316z" />
    <glyph glyph-name="uF72BE" unicode="&#xf72be;" 
d="M777 434q0 -75 -53 -150q-49 -68 -119 -107q-73 -40 -93 -40q-15 0 -14 10q0 16 23 32l37 21q40 23 72 70q36 50 36 93q0 41 -93 60q-62 13 -132 14l-2 -6q1 -9 13.5 -31.5t12.5 -34.5q0 -83 -45 -236q-44 -148 -88 -224q-31 -53 -45 -53q-12 0 -12 26q0 6 22 66
q9 24 26 74q14 42 14 97q0 17 -1.5 50t-1.5 50q0 62 29 171q6 21 11 53q-5 2 -19 4q-132 17 -132 121q0 41 14 101q18 77 44 76q11 0 11 -20q0 -8 -1.5 -23t-1.5 -23q0 -17 16.5 -38t33.5 -28q31 -13 124 -18q110 -6 134 -10q52 -10 103 -40q77 -48 77 -107z" />
    <glyph glyph-name="uF72BF" unicode="&#xf72bf;" 
d="M888 313q0 -68 -43 -129q-55 -79 -194 -182q-153 -112 -231 -112q-86 0 -126 112q-25 71 -39 160q-8 54 -26 162q-10 61 -18 100q-13 61 -31 96q-3 6 -39 58q-29 43 -29 56q0 24 130 24q28 0 48 -5q23 -6 28 -93l4 -66q5 -79 8 -91q15 -83 60 -82q43 0 77 93
q27 77 27 132q0 26 16 26q22 0 66.5 -50.5t44.5 -73.5q0 -42 -64 -99q-29 -26 -118 -91q-63 -45 -64 -59q0 -42 22 -105q26 -77 58 -76q75 0 207 135q52 53 70 86q24 44 24 108q0 60 37 60q95 0 95 -94z" />
    <glyph glyph-name="uF72C0" unicode="&#xf72c0;" 
d="M887 0h-82v435q0 67 -10 82q-14 20 -74 20h-97q-61 0 -90 16q-37 22 -37 79q0 20 4 47h91q-2 -11 -2 -22q0 -39 41 -38h88q116 0 143 -33q25 -28 25 -148v-438zM548 280q0 -15 -3 -30q-28 -131 -154 -236q-81 -66 -246 -150l22 103q258 112 293 271q2 9 2 19q0 58 -89 58
h-260l77 364h83l-58 -273h177q156 0 156 -126z" />
    <glyph glyph-name="uF72C1" unicode="&#xf72c1;" 
d="M686 189l-7 -45l-343 -153l-22 50l303 135l-166 138l2 44l164 114l-280 162l28 47l317 -183l2 -46l-171 -119z" />
    <glyph glyph-name="uF72C2" unicode="&#xf72c2;" 
d="M877 0h-754v68h246v413h67v-413h373v413h68v-481z" />
    <glyph glyph-name="uF72C3" unicode="&#xf72c3;" 
d="M902 527q-97 -55 -224 -157l-213 -173q83 -173 143 -330l-51 -19q-56 150 -137 316q-61 -43 -130 -80q-92 -48 -139 -47q-18 0 -31 13t-13 32q0 85 209 288q-43 82 -93 172l47 26q58 -104 87 -159q124 116 222 190l33 -44q-104 -79 -229 -196q29 -56 57 -111l212 171
q125 101 223 156zM396 215q-24 48 -54 104q-158 -155 -178 -226q87 18 232 122z" />
    <glyph glyph-name="uF72C4" unicode="&#xf72c4;" 
d="M775 40l-24 -49q-104 50 -156 93q-85 70 -85 152q0 27 9 46q-55 45 -110 45q-74 0 -147 -80l-40 37q88 98 187 98q75 0 147 -60l94 43q51 30 51 93q0 48 -79 104q-30 21 -122 71l26 48q106 -58 145 -88q85 -65 85 -135q0 -81 -50 -122q-18 -15 -92 -46q-50 -21 -50 -54
q1 -94 211 -196z" />
    <glyph glyph-name="uF72C5" unicode="&#xf72c5;" 
d="M797 274q0 -62 -19 -189q-14 -92 -14 -122q0 -6 6 -16.5t6 -16.5q0 -22 -6 -40q-2 -8 -14 -25q-12 -20 -16 -20t-9 9q-5 12 -13 62q-7 41 -19 57q1 49 17 144q16 96 17 143q-47 94 -114 178q0 -115 5 -343q15 -28 54 -135q18 -49 41 -127q-59 -26 -417 -26q-11 0 -32 4
q-25 5 -29 9q-4 7 -5 26q0 42 52 105q-9 19 -61 97q-24 37 -24 63q0 28 19.5 50t47.5 22t72 -33q29 -21 88 -57l-45 303l-44 -56q-32 -40 -50 -40q-12 0 -32 10q-27 14 -27 41q0 33 20 94q19 57 37 78q20 23 71 47q-4 18 -4 36q0 88 69 123q42 21 83 22q35 0 61 -25t26 -60
q0 -50 -29 -82q-17 -19 -71 -51q42 2 69 2q33 0 55 -9q30 -13 98 -114q58 -88 80 -138zM530 666q0 21 -22 21q-39 0 -63 -20q-25 -21 -25 -61q0 -32 23 -31q26 0 56.5 32t30.5 59zM439 516l-2 14q-10 2 -32 8q-6 -19 -26 -24q-28 -8 -33 -12q-23 -17 -44 -110q8 7 54 61
q39 45 53 51q10 3 30 12zM639 -118q-28 91 -49 135q-18 37 -29 68q0 5 -2 34l-2 72q-3 108 -3 213q0 9 1 26.5t1 26.5q0 16 -18 16q-74 0 -94 -33q36 -247 58 -383q-33 -35 -124 -108q-59 -47 -58 -66q0 -6 3 -8q7 -4 54 -4q168 -1 262 11zM390 42q-8 6 -60 42
q-46 33 -58 33l-5 -3q0 -13 30 -58q16 -25 39 -59q29 23 54 45z" />
    <glyph glyph-name="uF72C6" unicode="&#xf72c6;" 
d="M873 83l-3 -64q-144 7 -188 17q-64 15 -173 78l-3 54q84 59 123 100q62 68 62 139q0 54 -33 86t-88 32q-19 0 -51 -14l-22 61q45 18 73 17q82 0 134 -50.5t52 -131.5q0 -136 -171 -262q75 -41 140 -52q26 -4 148 -10zM408 189l-50 -271l-64 12l43 232q-91 3 -148 51
q-62 52 -62 141q0 103 68.5 184.5t169.5 98.5l11 -63q-78 -14 -131.5 -77.5t-53.5 -142.5q0 -64 48 -98q42 -30 108 -30q12 0 26 2z" />
    <glyph glyph-name="uF72C7" unicode="&#xf72c7;" 
d="M869 140q0 -81 -84 -153q-77 -65 -147 -65q-76 0 -76 89q0 26 6 33q13 16 38 48q-1 -40 34 -75q33 -34 63 -35q33 0 54 48q17 37 17 64q0 55 -59 116q-13 14 -120 121q-140 -303 -310 -443h-14v12q0 14 52 97q46 71 135 214q85 142 85 230q0 109 -101 158q-26 13 -80 12
q-66 0 -105 -38t-39 -104q0 -59 117 -58q27 0 62 6h14q-21 -33 -72 -57q-45 -22 -76 -22q-58 0 -93 26q-40 28 -39 84q0 92 115 158q94 54 169 55q51 0 107 -26q61 -27 88 -66q23 -35 27 -77q-2 -12 -2 -29v-20q21 -66 82 -121q34 -29 102 -88q50 -45 50 -94z" />
    <glyph glyph-name="uF72C8" unicode="&#xf72c8;" 
d="M791 729q-8 -28 -30 -51q-37 -38 -39 -42q-10 -14 -16 -87q-4 -52 -5 -94q0 -106 68 -205q-93 36 -238 63v-48q0 -364 64 -417q-15 2 -50 13q-30 10 -45 10t-45 -10q-35 -11 -50 -13q64 53 64 417v48q-144 -27 -238 -63q67 98 68 205q0 42 -5 94q-6 73 -16 87
q-3 4 -39 42q-22 22 -30 51q69 -26 90 -27q11 0 76 27q-22 -49 -22 -61q0 -6 1 -18q8 -95 8 -147q0 -91 -15 -160q25 0 76 10.5t77 10.5t77 -10.5t76 -10.5q-15 69 -15 160q0 53 8 147q1 12 1 18q0 12 -22 61q65 -27 76 -27q21 1 90 27z" />
    <glyph glyph-name="uF72C9" unicode="&#xf72c9;" 
d="M818 -126h-89v59q0 236 -71 236q-49 0 -144 -125q-41 -57 -124 -170h-114q122 154 216 304q140 223 140 324q0 126 -89 127q-75 0 -169 -165l-125 -232l-67 48q14 21 61 118q152 317 300 318q80 0 131 -57q47 -54 47 -136q0 -104 -76 -262h14q84 0 127 -96
q32 -73 32 -170v-121z" />
    <glyph glyph-name="uF72CA" unicode="&#xf72ca;" 
d="M812 580l-180 -356l-52 -5l-205 281l-66 -567l-64 7l76 652l55 14l223 -304l155 306z" />
    <glyph glyph-name="uF72CB" unicode="&#xf72cb;" 
d="M962 29q0 -33 -25.5 -64t-58.5 -31q-19 0 -35 21q-16 20 -16 39q0 9 5 26t5 26q0 12 -6 20q-3 3 -23 20q-70 58 -71 106q0 12 7.5 33.5t7.5 30.5q0 15 -33 15q-80 0 -135 -61q-134 -147 -385 -223q-20 -6 -45 -30q-21 -21 -46 -21q-35 0 -56 40q-14 27 -14 60
q0 20 18.5 36.5t38.5 16.5q11 0 31 -11t31 -11q5 0 12 1q68 15 165 76q82 51 147 110q10 9 10 15q0 5 -62 7q-44 1 -103 7q-67 6 -88 6q-22 0 -33 -6q-21 -11 -28 -13q-14 -5 -19 -5q-38 0 -59 39q-18 32 -18 73q0 24 19 45t43 21q17 0 44 -26q31 -29 38 -32q79 -27 265 -27
q34 0 102.5 2t102.5 2q28 0 37 2q21 5 20 27q0 10 8.5 22t17.5 12q54 0 95 -32q44 -35 44 -87q0 -32 -27 -71.5t-27 -61.5q0 -25 41 -53q45 -30 56 -76q2 -8 2 -15z" />
    <glyph glyph-name="uF72CC" unicode="&#xf72cc;" 
d="M917 275q0 -104 -53 -191q-62 -101 -159 -101q-102 0 -193 125q-58 -125 -199 -125q-230 0 -230 272q0 92 33 160q42 87 125 87q62 0 97 -74q28 -59 28 -129q0 -91 -30 -142q-39 -67 -86 -112q15 -13 50 -13q120 0 150 147q9 42 9 68v301q0 12 17 20q13 6 27 6
q10 0 27.5 -8.5t17.5 -16.5v-341q0 -173 159 -174q80 0 123 119q11 29 11 62q0 62 -18 98q-10 21 -28 47q-10 14 -27 41q-13 21 -14 48q0 53 48 53q57 0 90 -89q25 -68 25 -138zM277 315q0 48 -11 83q-16 53 -50 54q-42 0 -73 -68q-27 -58 -27 -105q0 -63 15 -120
q21 -84 65 -84q36 0 61 103q20 81 20 137z" />
    <glyph glyph-name="uF72CD" unicode="&#xf72cd;" 
d="M949 360q0 -45 -40 -67q-24 -13 -76 -19q-45 -5 -50 -10q-10 -13 -26 -75q-22 -89 -48 -127q-41 -62 -112 -62q-23 0 -52 23t-30 46q97 0 140 48q36 40 51 142q-14 16 -105 15q-85 0 -92 -3q-11 -5 -14 -24q-10 -64 -42 -122q-36 -65 -85 -95q-13 -7 -43 -18
q-32 -12 -44 -12q-95 0 -155 54q-63 56 -63 150q0 74 51 115q47 40 123 40q30 0 90 -3.5t90 -3.5q24 0 41 67q25 105 33 125q28 67 82 68q24 0 54 -24t30 -47q0 -10 -13 -10q-8 0 -23.5 4.5t-23.5 4.5q-26 0 -55 -75q-25 -65 -24 -99q0 -11 13 -14q24 -6 83 -6q15 0 44 0.5
t44 0.5q20 0 37 68q27 105 36 127q28 68 71 67q20 0 57 -25q34 -24 34 -42q0 -14 -22 -14q-4 0 -12.5 3.5t-12.5 3.5q-37 0 -65 -65q-23 -54 -24 -98q0 -23 14 -23q48 0 115 36q12 -7 19 -25zM421 259q0 25 -157 25q-127 0 -127 -85q0 -48 43 -85q42 -35 91 -34q59 0 105 61
q45 58 45 118z" />
    <glyph glyph-name="uF72CE" unicode="&#xf72ce;" 
d="M842 234q0 -103 -71 -168q-69 -63 -173 -64q-62 0 -178 22q-142 27 -149 58l258 167q-15 16 -78.5 42.5t-84.5 26.5q-12 0 -106 -64t-113 -64q-22 0 -22 20q0 31 62 76q30 20 89 60q-47 26 -85 68q-46 51 -45 94q0 34 28 60t62 26q14 0 24.5 -12.5t10.5 -25.5
q0 -9 -15 -41t-15 -41q0 -22 41 -49q39 -26 63 -27q146 75 285 75q82 0 149 -79q63 -76 63 -160zM729 250q0 56 -35 96q-36 43 -91 44q-62 0 -109 -35q105 -47 139 -93q3 -12 3 -14q0 -17 -73 -70q-84 -60 -93 -71q47 -13 70 -13q98 0 138 28q51 35 51 128z" />
    <glyph glyph-name="uF72CF" unicode="&#xf72cf;" 
d="M741 293q0 -54 -94 -192q-96 -143 -144 -143q-31 0 -59 49q-16 27 -42 100q-23 62 -34 78q-19 25 -59 25q-6 0 -18 -2.5t-18 -2.5q-50 0 -50 45q0 26 43 53q12 7 67 34q-2 30 -3 57q0 51 4 120q2 45 27 103q30 72 64 72q19 0 32 -24q11 -21 11 -42q0 -5 -2 -11
q-11 -38 -32 -113q-17 -62 -17 -117q0 -34 28 -45q17 -7 57 -7q30 0 89 22t86 22q22 0 44 -30q20 -28 20 -51zM615 207q0 16 -39 26q-28 7 -53 8q-27 0 -64 -14q21 -125 55 -153q48 38 69 67q5 7 18.5 34t13.5 32z" />
    <glyph glyph-name="uF72D0" unicode="&#xf72d0;" 
d="M850 459q0 -46 -11 -101q-41 -217 -153 -420q-43 -77 -73 -77q-64 0 -104 143q-32 111 -46 180q-8 41 -20 55q-17 21 -54 22q-15 0 -44.5 -1.5t-43.5 -1.5q-16 0 -27 -4q-19 -8 -34 -69q-8 -36 -27 -109q-16 -56 -46 -56q-17 0 -17 21q0 8 9 37q10 32 11 40q7 36 7 77
q0 50 -7 75q-1 5 -11 24q-8 15 -9 23q0 22 20 23q12 0 35 -12q27 -14 35 -16q14 -3 38 -3q42 0 84 5q77 10 83 82q13 155 80 243q60 78 118 80q-57 -76 -78 -148q-20 -65 -20 -166q0 -42 27 -42q20 0 86 35q37 20 92 44q71 31 90 31q10 0 10 -14zM778 346q0 20 -10 20
q-3 0 -122 -46q-47 -19 -65 -34q-28 -24 -28 -65q0 -61 17 -149q21 -108 52 -131q41 68 95 200q61 150 61 205z" />
    <glyph glyph-name="uF72D1" unicode="&#xf72d1;" 
d="M768 556q-102 -180 -142 -332q-29 -111 -54 -355l-72 7q13 122 19 175q13 98 31 173q-94 260 -362 414l37 64q242 -139 357 -370q40 115 122 260z" />
    <glyph glyph-name="uF72D2" unicode="&#xf72d2;" 
d="M843 281q0 -13 -63 -55q-97 -65 -135 -103q-63 -63 -88 -145q-6 -21 -6 -44t8 -66q9 -45 9 -66q-78 36 -100 131q-6 52 -20 155q-12 75 -76 76q-38 0 -59 -47q-16 -37 -16 -80q0 -15 17 -53.5t17 -58.5q0 -25 -26 -25q-48 0 -75 82q-20 61 -20 124q0 36 31 94t31 76
q0 23 -29 91.5t-29 106.5q0 55 17 111q24 75 66 75q23 0 23 -20q0 -21 -15.5 -61t-15.5 -61q0 -29 25 -73q28 -49 54 -49q24 0 58 35q28 30 28 78q0 11 -2.5 33.5t-2.5 33.5q0 47 30 107q33 66 73 77q9 -19 9 -45q0 -18 -4.5 -52t-4.5 -52q0 -27 7 -50q14 -47 77 -115
q59 -63 107 -89q100 -52 100 -76zM594 280q0 17 -26 41.5t-42 24.5q-17 0 -45.5 -24.5t-28.5 -40.5q0 -19 28.5 -43t47.5 -24q16 0 41 25t25 41z" />
    <glyph glyph-name="uF72D3" unicode="&#xf72d3;" 
d="M741 261q0 -122 -79 -241q-58 -87 -173 -191q-15 42 -72 105q-90 99 -115 143q-42 74 -43 178q0 131 74 257q54 93 168 211q25 -59 92 -150q77 -104 100 -145q48 -85 48 -167zM595 464q-10 21 -64 91q-38 49 -43 107q-38 -38 -64 -89q-11 -21 -43 -100q11 4 21 4
q30 0 57 -84q34 -104 40 -112q7 12 22 62q17 59 26 81q19 40 42 40h6zM671 267q0 44 -11 89q-16 64 -47 64q-33 0 -97 -170q90 -151 112 -151q23 0 35 71q8 48 8 97zM476 240q-10 15 -28 63q-17 47 -31 65q-22 30 -57 30q-34 -69 -33 -135q0 -69 32 -144q39 0 71 45zM611 39
q-9 -4 -16 -4q-28 0 -47 60q-22 75 -55 119q-25 -37 -45 -111q-14 -53 -39 -54q-8 0 -15 4q11 -24 68 -81q49 -48 53 -89q31 27 55 73z" />
    <glyph glyph-name="uF72D4" unicode="&#xf72d4;" 
d="M861 178q0 -137 -131 -224q-116 -77 -260 -77q-125 0 -217 33q-100 36 -183 119l9 10q135 -61 239 -61q116 0 117 125v349l-125 -42q-38 2 -38 18q0 27 158 93q-3 22 -3 44q0 144 137 144q43 0 80 -32q38 -33 38 -75q0 -74 -162 -124v-271q92 119 204 118q65 0 102 -41
q35 -40 35 -106zM603 594q0 46 -50 46q-33 0 -45 -23q-8 -16 -8 -53q0 -14 14 -14q21 0 52 12q37 14 37 32zM789 171q0 31 -23 49q-21 16 -54 16q-47 0 -79 -19q-22 -13 -61 -53q-18 -18 -43 -50q-2 -4 -10 -41q-13 -58 -65 -117q20 -2 23 -2q96 0 197 60q115 68 115 157z
" />
    <glyph glyph-name="uF72D5" unicode="&#xf72d5;" 
d="M450 450q0 -38 -23 -62q-16 -17 -56 -37q-24 -12 -39 -13q-23 0 -24 18q0 6 32 31t32 59q0 31 -30.5 60.5t-30.5 36.5q0 12 24 13q23 0 54 -17.5t45 -37.5q16 -22 16 -51zM942 490q0 -88 -54 -179q-50 -85 -126 -140q-110 -78 -316 -128l-57 -190q-7 -23 -18 -23
q-10 0 -10 9v5l36 196q-33 -3 -62 -4q-92 0 -181 29l-67 -209q-5 -17 -16 -16q-13 0 -13 18q0 1 1 3l103 491l75 -28l-64 -200q74 -24 173 -24q33 0 62 3l44 243l77 -29l-62 -205q162 34 265 136q100 99 101 227q0 91 -69 156q-67 63 -159 63q-77 0 -147 -43
q-18 -12 -34 -25q-27 -19 -33 -19q-12 0 -12 14q0 15 25 42q20 21 39 32q86 56 169 56q128 0 223 -65q107 -74 107 -196z" />
    <glyph glyph-name="uF72D6" unicode="&#xf72d6;" 
d="M925 139l-42 -35q-113 144 -321 265q-77 -59 -77 -93q0 -26 49 -52q23 -12 71 -36q63 -32 140 -106q81 -79 104 -139l-35 -35q-92 30 -174 30q-57 0 -147 -31q-104 -36 -145 -42l-7 54q120 14 173 102q28 48 28 97q0 14 -4 42q-107 52 -107 116q0 54 64 108q40 31 119 95
q64 52 64 95q0 42 -58 42t-109 -70q-29 -43 -87 -130q-48 -70 -96 -70q-35 0 -59.5 25t-24.5 60q0 30 27.5 79t27.5 67q0 22 -18 45.5t-40 23.5q-49 0 -75 -28q-18 -19 -40 -72l-50 21q28 68 59 97q39 36 106 36q44 0 79 -40q33 -39 34 -83q0 -30 -28 -79.5t-28 -66.5
q0 -12 9 -21t21 -9q21 0 66 70q62 96 93 130q64 70 133 69q48 0 79 -24q34 -26 34 -72q0 -75 -123 -169q197 -120 315 -266zM763 -21q-81 102 -168 152q0 -85 -41 -146q41 8 86 8q59 0 123 -14z" />
    <glyph glyph-name="uF72D7" unicode="&#xf72d7;" 
d="M937 137q0 -37 -29 -62q-27 -24 -65 -24h-729q-44 0 -44 44t44 44h26q2 35 3 44q0 200 -74 348q-6 12 -6 22q0 18 14 31t32 13q23 0 37 -23q41 -68 64 -190q21 -105 20 -201q0 -27 -1 -44h115q18 123 61 199q60 104 159 104q104 0 196 -54q90 -54 143 -146
q34 -60 34 -105zM849 141q-2 27 -28 67q-39 62 -101 101q-9 -1 -15 -1q-16 -28 -16 -104q0 -24 4 -65h150q2 0 6 2zM627 347q-31 7 -63 7q-90 0 -127 -191l-4 -24h171q-3 35 -3 65q0 93 26 143z" />
    <glyph glyph-name="uF72D8" unicode="&#xf72d8;" 
d="M878 604q0 -21 -125 -82q-98 -48 -154 -69q-32 -12 -64 -28q-24 -17 -24 -48q0 -22 37.5 -101.5t37.5 -127.5q0 -231 -349 -231q-36 0 -72 20q-42 23 -43 55q0 126 135 176l8 2q40 0 40 -22q0 -9 -6.5 -27t-6.5 -28q0 -66 77 -66q43 0 75 43q29 40 30 85q0 48 -29 95
q-12 20 -61 78q-25 30 -25 59q0 69 269 197q137 65 205 65q16 0 30.5 -14.5t14.5 -30.5z" />
    <glyph glyph-name="uF72D9" unicode="&#xf72d9;" 
d="M951 32q-100 -3 -142 -4q-31 0 -94.5 -26t-98.5 -26q-21 0 -83 36.5t-119 36.5q-80 0 -185 -31q-97 -29 -106 -29q-60 0 -60 58q0 8 2 22q13 92 111 269q63 114 139 219q15 21 27 33q7 5 20 5q17 0 16 -8q0 -3 -58 -101q-68 -113 -108 -193q-59 -118 -59 -169
q0 -41 29 -41q42 0 42 40q0 6 -1 18t-1 18q0 38 39 88q41 52 77 52q17 0 19.5 -23t12.5 -23q9 0 21 8t13 8q11 0 11 -15q0 -29 -21 -103q-1 -3 -1 -7q0 -10 6 -10q15 0 58 61t55 61q17 0 17 -21q0 -9 -3.5 -26t-3.5 -26q0 -13 9 -13q8 0 51 43.5t56 43.5q9 0 9 -8
q0 -9 -14.5 -40.5t-14.5 -47.5q0 -14 12 -14q3 0 38.5 17.5t57.5 17.5q20 0 43 -44.5t31 -44.5q46 0 151 4v-65zM675 66q0 11 -12.5 20.5t-22.5 9.5q-19 0 -19 -12q0 -9 18 -18q17 -8 27 -7q9 0 9 7z" />
    <glyph glyph-name="uF72DA" unicode="&#xf72da;" 
d="M933 385q0 -86 -91 -169q-77 -70 -198 -117q-114 -44 -197 -44q-138 0 -239 39q-141 55 -141 171q0 81 66 155q68 78 147 78q81 0 169 -126q62 79 134 134q95 74 168 75q75 0 130 -61q52 -59 52 -135zM869 385q0 53 -32 89q-33 38 -86 37q-67 0 -158 -73
q-78 -62 -123 -130l-47 2q-21 42 -59 77q-45 42 -84 42q-56 0 -103 -54q-45 -53 -46 -110q0 -87 122 -128q83 -28 194 -28q112 0 258 82q164 92 164 194z" />
    <glyph glyph-name="uF72DB" unicode="&#xf72db;" 
d="M845 635q0 -27 -31 -65l-46 -60q-49 -77 -49 -222q0 -123 26 -222q3 -10 23 -69q14 -42 14 -71q0 -50 -64 -50q-46 0 -88 20q-52 25 -52 67q0 29 23 40q14 6 43 19q23 15 23 50q0 49 -60 77q-47 22 -103 23q-65 0 -113 -26q-60 -32 -60 -91q0 -19 17 -53t17 -53
q0 -17 -26 -30q-22 -11 -41 -11q-44 0 -93 39q-52 41 -52 83q0 22 27 33q39 15 42 19q12 11 18 33q3 13 10 37q12 38 61 69t106 31q15 0 45.5 -1t45.5 -1q71 0 105 23q24 17 24 39q0 31 -58 48q-43 13 -85 14q-42 0 -124.5 -13t-124.5 -13q-44 0 -85 25q-47 28 -47 69
q0 28 58.5 70t58.5 65q0 10 -26 43.5t-26 44.5q0 25 35 25q11 0 26 -4l26 -6q35 -1 104 -5q73 -6 73 -50q0 -25 -51.5 -73.5t-51.5 -67.5q0 -29 102 -29q78 0 106 5q71 13 71 59q0 22 -25 68.5t-25 68.5q0 38 52 38q22 0 107 -2q118 -4 118 -57z" />
    <glyph glyph-name="uF72DC" unicode="&#xf72dc;" 
d="M893 237q0 -18 -52 -131q-22 -47 -66 -140q-20 -44 -20 -57q0 -15 45 -76l-83 91q-49 62 -49 107q0 26 42 106.5t42 108.5q0 10 -2 17q-17 -21 -94 -44q-82 -24 -115 -55q-41 -39 -69 -111q-27 -69 -27 -128q0 -21 16 -44q1 -1 30 -36q-54 27 -91 83q-39 58 -39 116
q0 52 33 87q-83 25 -180 115q-107 99 -107 174q0 68 68 114q60 41 131 41q85 0 179 -98l44 93q24 59 24 97t-20 69q31 -29 73 -86q50 -67 50 -92q0 -15 -16 -61q-35 -98 -35 -134q0 -5 1 -15q16 15 64 34t69 19q52 0 103 -56t51 -108zM470 403q0 13 -3 33q-2 0 -50 9
q-30 6 -51 6q-69 0 -113.5 -45.5t-44.5 -114.5q25 0 67.5 -13.5t56.5 -13.5q51 0 94.5 44t43.5 95z" />
    <glyph glyph-name="uF72DD" unicode="&#xf72dd;" 
d="M656 148q0 -114 -23 -176q-34 -94 -122 -118q-16 -4 -47 -5q-85 0 -123 96q-25 66 -25 169q0 61 8.5 182t8.5 182q0 67 -11 116q-1 6 -15 43q-12 32 -12 37q0 12 16 29t27 17q-21 0 27 -20.5t59 -20.5q3 0 30 7l101 27q37 0 62.5 -27t25.5 -64q0 -45 -22 -74
q-24 -31 -69 -31q-42 0 -57 36q-6 14 -12 70q-2 18 -16 18q-73 0 -110 -29q8 -50 19 -144q9 -81 9 -114v-238q0 -21 6 -50q3 -13 12 -46q9 -37 70 -60q4 -1 8 -1q54 0 90.5 38.5t36.5 92.5q0 12 -9 21h-5q-10 0 -29.5 -7t-29.5 -7q-43 0 -71 40q-24 36 -24 81q0 54 29 89
q31 38 83 38q104 -1 104 -197zM595 631q0 44 -34 44q-14 0 -24.5 -13.5t-10.5 -27.5q0 -21 10 -35q12 -17 31 -16q12 0 21 18q7 15 7 30zM602 238q0 25 -15 46q-17 23 -41 23q-19 0 -35 -13.5t-16 -31.5q0 -25 16 -51q18 -28 41 -28q18 0 34 18t16 37z" />
    <glyph glyph-name="uF72DE" unicode="&#xf72de;" 
d="M854 350q0 -56 -19 -63q-9 -3 -26 -3q-14 0 -44 7q-36 8 -36 16q0 -18 6.5 23.5t6.5 52.5q0 47 -40 48q-22 0 -36 -22q-12 -19 -13 -43q0 -19 27 -53q38 -48 49 -67q27 -47 27 -99q0 -92 -96 -136q-72 -33 -177 -33q-79 0 -149.5 66t-70.5 144q0 26 50 95t50 101
q0 26 -10 45q-13 23 -38 23q-83 0 -83 -77q0 -8 5.5 -22t5.5 -21q0 -16 -34 -25q-24 -7 -46 -7q-40 0 -70 37q62 205 198 205q54 0 98 -28q49 -31 57 -82q1 -7 1 -22q0 -50 -42.5 -135t-42.5 -93q0 -37 55 -63q45 -22 86 -22q49 0 92 28q47 31 48 78q0 28 -40 113.5
t-40 129.5q0 96 122 96q50 0 91 -22q45 -23 64 -66q14 -32 14 -104z" />
    <glyph glyph-name="uF72DF" unicode="&#xf72df;" 
d="M475 589q-4 -11 -31.5 -40.5t-35.5 -29.5q-11 0 -38.5 25.5t-27.5 36.5q0 4 65 68q22 -20 68 -60zM802 207q-1 -8 -31 -34.5t-38 -26.5q-11 0 -34 24q-19 20 -29 36q62 67 68 67t64 -66zM832 590l-107 -118q-13 -16 -49 -53q-23 -22 -50 -23q-11 0 -35.5 10.5t-36.5 10.5
q-23 0 -48.5 -32t-25.5 -56q0 -16 22 -22q31 -9 41 -17q22 -19 23 -67q0 -108 -73 -218q-81 -120 -183 -120q-74 0 -111 59q-31 49 -31 127q0 106 77 301h7q2 -3 2 -10l-17 -58q-28 -98 -28 -162q0 -147 122 -148q66 0 132 51q70 54 70 118q0 14 -19 21q-48 18 -60 29
q-20 19 -20 63q0 53 46 122q50 74 100 75q11 0 33 -8.5t33 -8.5q27 0 61 41q9 11 49 62q-97 45 -121 45q-16 0 -32 -18q-5 -6 -26 -29h-6q-3 1 -3 5q0 27 27 59.5t53 32.5q21 0 53 -13l51 -21q28 -6 71 -19q8 -3 9 -11z" />
    <glyph glyph-name="uF72E0" unicode="&#xf72e0;" 
d="M908 187q0 -94 -117 -194q-114 -95 -211 -95q-13 0 -13 10q0 15 18.5 36t33.5 26q15 2 44 8q56 13 108 54q61 48 61 99q0 52 -58 82q-47 26 -104 26l-5 -2q4 -21 3 -61q0 -17 -11 -45q-18 -44 -58 -69.5t-88 -25.5q-111 0 -229 138q-84 98 -152 239q-38 78 -38 96
q0 8 9 8q14 0 39 -22q22 -19 31 -35q5 -9 12 -23q61 -135 98 -192q79 -121 159 -120q57 0 98.5 42t41.5 99q0 79 -65 79q-11 0 -33 -6t-33 -6q-21 0 -50 30t-29 52q0 11 9 15l18 6q30 10 66 57q31 41 45 78h-139q-17 0 -29 3q-21 5 -46.5 33t-26.5 49q14 5 21 5h240
q18 0 48 -35q28 -33 31 -53q2 -9 2 -19q0 -57 -64 -152q0 -1 4 -5q37 -25 66 -64q11 -18 33 -40q48 20 75 20q71 0 122 -27q63 -34 63 -99z" />
    <glyph glyph-name="uF72E1" unicode="&#xf72e1;" 
d="M857 418q0 -17 -13 -17q-15 0 -34 27q-13 20 -25 40q-98 129 -236 129q-53 0 -90 -15q-51 -21 -51 -66q0 -55 87 -87q67 -24 134 -24q12 0 34.5 3.5t34.5 3.5q35 0 63 -17q32 -21 32 -53q0 -30 -30 -67q2 -3 5 -4q69 -41 69 -119q0 -109 -107 -169q-87 -49 -206 -49
q-95 0 -156 32q-2 1 -35 21q-1 -1 -11 -6q-24 -12 -53 -12q-39 0 -67 20q-91 62 -91 178q0 109 67.5 176t176.5 67q32 0 37 -1q24 -4 25 -20q0 -9 -7 -12q-11 -1 -39 -5q-45 -10 -45 -44q0 -16 27 -26q21 -8 41 -8h98v-24h-11q-66 0 -117 -26q-64 -32 -64 -91q0 -26 9 -46
q6 -13 15 -29q44 -62 200 -62q79 0 141 17q84 24 112 75q17 30 17 59q0 26 -14 51q-4 7 -20 21t-22 14q3 0 -37 -21q-23 -12 -80 -26q31 -1 56 -19q28 -21 28 -50q0 -87 -134 -87q-83 0 -83 27q0 13 15 13q-16 0 18.5 -4.5t46.5 -4.5q34 0 60 11q37 15 37 43q0 23 -30 38
q-24 12 -51 12h-70q-5 0 -11 5v4q0 17 13 22q5 0 17 2q63 10 84 15q46 11 79 31l-3 1q-32 4 -132 4q-6 5 -6 17q0 17 15 45.5t30 36.5q-4 1 -20 4q-84 11 -138 42q-72 42 -72 113q0 52 65 81q49 21 109 21q83 0 158 -44q70 -42 117 -114v158h38v-211zM749 332q0 45 -56 45
q-34 0 -59.5 -21.5t-34.5 -54.5q65 0 107 -9q29 -6 21 -5q4 0 11.5 12.5t9 19t1.5 13.5zM354 271q-70 7 -70 55q0 34 41 52h-9q-39 0 -81 -32q-39 -29 -60 -66q-23 -43 -23 -94q0 -120 77 -158q17 -8 35 -8q4 0 29 3q-40 45 -40 119q0 100 101 129z" />
    <glyph glyph-name="uF72E2" unicode="&#xf72e2;" 
d="M863 177q0 -27 -17 -117q-6 -33 -13 -67q-13 -47 -38 -48q-20 0 -40 18q-19 16 -26 36q-7 19 -7 57q0 10 1 31t1 31q0 7 -4 9q-5 -2 -10 -8q-1 -1 -52 -66q-45 -58 -98 -82q-50 -22 -125 -22q-50 0 -72 34q312 137 354 339q3 16 3 38q0 31 -20 77q-23 50 -50 54
q-34 -14 -70 -13q-21 0 -38 23q-17 22 -18 43q0 30 21.5 50.5t52.5 20.5q50 0 102 -22q57 -24 82 -62.5t53 -171.5q28 -125 28 -182zM531 292q0 -58 -22 -96q-21 -36 -72 -69q-63 -41 -106 -41q-89 0 -155 58q-68 60 -68 148q0 12 6 12q20 0 44 -31q10 -13 44 -57
q29 -30 62 -30q61 0 122 34q72 39 72 94q0 51 -41 89q-40 36 -92 36q-15 0 -43 -9.5t-43 -9.5q-8 0 -16 5q-17 9 -52 75q-34 65 -35 87q2 5 8 6q3 -6 22 -22q39 -35 53 -39q5 -1 65 -1q12 0 90 -16q18 -3 53 -11q32 -7 48 -23q28 -27 43 -88q13 -52 13 -101z" />
    <glyph glyph-name="uF72E3" unicode="&#xf72e3;" 
d="M934 -67q-27 -7 -47 -8q-42 0 -85 36q-27 22 -69 75q-43 54 -67 75q-45 -14 -84 -14q-41 0 -81 11q-55 16 -55 46q0 22 33 43q30 21 53 21q79 0 143 -45q52 21 85 53q43 40 44 86q0 85 -178 113q-80 12 -246 12q-33 0 -119 -81q-79 -74 -102 -114q69 1 116 -27
q57 -34 57 -99q0 -144 -154 -144q-49 0 -82 45q-30 40 -30 90q0 160 162 293q136 111 353 181q195 62 348 61l-1 -55q-197 2 -438 -98q148 -4 228 -28q141 -43 140 -149q0 -110 -136 -178q25 -30 76 -91q55 -63 89 -63q6 0 34 7zM596 152q-31 11 -64 11q-2 0 -13 -4
q28 -7 63 -7h14zM277 116q0 72 -143 72q-13 -39 -13 -81q0 -28 14 -52q17 -28 43 -28q51 0 74 18q25 21 25 71z" />
    <glyph glyph-name="uF72E4" unicode="&#xf72e4;" 
d="M906 534q0 -21 -25 -53q-39 -47 -60 -100q-12 -30 -34 -38q-8 -1 -26 -4q-23 -4 -40 -31q-15 -24 -15 -50q0 -6 2 -10q15 -42 15 -65q0 -19 -6 -52q-5 -29 -18 -63q-19 -44 -38 -44q-45 0 -78 68q-27 57 -27 108q0 13 4.5 39.5t4.5 39.5q0 35 -27 35q-81 0 -100 -112
q-2 -11 -2 -12v-36q0 -43 -24 -95q-28 -62 -65 -62q-68 0 -68 187q0 54 -39 85q-16 13 -26 13q-16 0 -32.5 -26.5t-35.5 -26.5q-52 0 -52 86q0 40 8 56q12 22 48 22q14 0 49 -12q33 -11 67 -41q29 -26 57 -53q25 45 51 91q36 53 81 54q34 0 85 -35q38 -29 77 -57q5 5 21 40
q46 104 100 149q19 16 54.5 29.5t59.5 13.5q20 0 35 -9q19 -11 19 -29z" />
    <glyph glyph-name="uF72E5" unicode="&#xf72e5;" 
d="M911 -8q0 -48 -46 -79q-41 -28 -90 -28q-31 0 -50 12q-52 35 -53 303q0 35 -11 34q-5 0 -12 -6q-88 -80 -142 -228q-6 -24 -23 -69q-18 -34 -52 -34q-35 0 -35 75q0 7 0.5 21.5t0.5 21.5q0 170 -53 171q-34 0 -48 -74l-26 -138q-21 -74 -69 -74q-17 0 -35 11
q-21 12 -21 27q0 9 23 50t23 45q0 44 -29 106q-39 83 -44 102q-3 20 -12 51q-1 3 -12 23q-6 12 -6 26q0 29 21 52t50 23q16 0 30 -24q14 -22 15 -38q0 -4 -3 -12.5t-3 -12.5q0 -28 9 -59q12 -43 30 -43q15 0 49 74.5t57 74.5q30 0 63 -48q12 -17 51 -89q26 -48 39 -49
q29 0 122 142q92 140 91 176q0 18 -16 30t-34 12q-13 0 -77 -23q-76 -27 -196 -27q-132 0 -186 37q-20 13 -34 41t-14 52q0 37 24 67q25 32 61 32q22 0 43 -16.5t26 -37.5q1 -10 5 -29q12 -31 81 -31q50 0 149.5 13.5t148.5 13.5q31 0 48 -7.5t35 -30.5q45 -59 45 -188
q0 -45 -12 -134.5t-12 -134.5q0 -90 41 -98q13 0 39 -3q36 -8 36 -54z" />
    <glyph glyph-name="uF72E6" unicode="&#xf72e6;" 
d="M947 230q0 -109 -254 -129q-87 -195 -159 -195q-28 0 -60 13q-39 17 -38 41q0 14 10 25t24 11q6 0 28.5 -10t37.5 -10q33 20 80 122q-22 0 -50 -1q-134 0 -191 27q-72 34 -125 145q-14 29 -22 37q-13 12 -41 12q-32 0 -51 -47q-15 -37 -15 -74q0 -34 -34 -34t-34 34
q0 70 31 124q38 65 103 65q78 0 109 -57l60 -106q56 -57 192 -57q41 0 98 3q32 80 61 176q-85 35 -126 69q-62 52 -62 124q0 58 54 94q48 32 109 32q59 0 96 -29q41 -32 41 -89q0 -47 -29 -161q71 -29 105 -55q52 -42 52 -100zM751 546q0 49 -69 49q-30 0 -59 -13
q-36 -17 -36 -44q0 -46 49 -81q27 -20 90 -45q25 95 25 134zM879 230q0 45 -107 89q-21 -71 -49 -144q156 17 156 55z" />
    <glyph glyph-name="uF72E7" unicode="&#xf72e7;" 
d="M974 285q0 -149 -112 -219q-59 -37 -121 -37q-33 0 -84 31q-48 -16 -88 -16q-38 0 -81 16q-46 17 -70 42q-30 30 -30 77q0 42 25 112q9 25 8 35q0 14 -9 37q-5 -48 -36 -77.5t-79 -29.5q-39 0 -72 18q-40 21 -40 57q0 50 44 88q40 35 93 42q-38 47 -93 48
q-103 0 -147 -86q-18 -35 -33 -35q-23 0 -23 25q0 49 54 99q50 47 101 55q18 3 36 3q119 0 178 -113q86 -35 86 -121q0 -27 -16.5 -79t-16.5 -80q0 -33 45 -57q39 -21 74 -21q15 0 27 5q-27 34 -27 78q0 43 27 71t70 28q28 0 45 -24q16 -21 16 -49q0 -56 -30 -97
q32 -19 65 -19q68 0 115 60q42 55 42 125q0 43 -17 90q-5 16 -5 22q0 12 10.5 20.5t21.5 8.5q26 0 39 -54q8 -37 8 -79zM673 197q0 18 -22 18q-13 0 -22 -10t-9 -22q0 -27 30 -44q9 6 16 27q7 18 7 31zM357 378q0 12 -4 25q-10 7 -24 8q-29 0 -55 -20q-28 -21 -28 -49
q0 -13 15 -22q13 -8 28 -8q27 0 47.5 19.5t20.5 46.5z" />
    <glyph glyph-name="uF72E8" unicode="&#xf72e8;" 
d="M937 573h-158v-680l-81 62v112q-113 -120 -235 -119q-59 0 -111 24q-57 26 -88.5 71t-31.5 86q0 58 60 100q-50 31 -88 74q-49 55 -49 100q0 36 31 56q26 18 63 18h177v96h-306l-57 82h817zM698 182v391h-181v-26v-37v-62q0 -50 -49 -51h-194q-18 0 -31 -8
q-16 -10 -16 -27q0 -5 2 -11q18 -63 92 -63q-3 0 46 4q18 1 53 1q115 0 125 -42q5 -19 5 -26q0 -28 -45 -28q-13 0 -38.5 4.5t-38.5 4.5q-43 0 -75 -27q-35 -28 -35 -71q0 -106 79 -106q55 0 140 47q75 42 122 88q18 18 39 45z" />
    <glyph glyph-name="uF72E9" unicode="&#xf72e9;" 
d="M837 546h-279v-260q101 -25 179 -134q31 -43 31 -97q0 -68 -41 -105q-40 -35 -109 -34q-6 0 -24 7q-64 26 -94 100q-11 -43 -38 -67q-20 -18 -66 -40h-39q-47 0 -102 64q-28 33 -28 95q0 64 51 120q43 47 109 77q-6 -1 -14 -1q-58 0 -123 77q-46 54 -54 90q34 -21 79 -21
q38 0 56 25q10 21 28 58q8 16 35 44h-231v61h674v-59zM494 511q0 18 -1 35q-16 -5 -40 -22q-26 -19 -32 -31q-13 -43 -28 -80q-19 -43 -89 -44q-13 0 -28 3q40 -50 104 -50q60 0 91 68q23 53 23 121zM703 75q0 43 -28 86q-45 69 -120 88v-25q0 -95 -35 -184q65 -53 103 -54
q5 0 9 1q71 17 71 88zM482 220v24q-80 -21 -127 -86q-46 -63 -46 -147q0 -30 7 -60q7 -3 13 -3q41 0 90 69q63 86 63 203z" />
    <glyph glyph-name="uF72EA" unicode="&#xf72ea;" 
d="M977 605h-158v-725q-18 25 -36 42q-41 38 -171 85q-127 45 -187 45q-35 0 -86 62q-34 46 -67 93q82 -15 146 -15t135 22q93 30 93 78q0 69 -41 70q-18 0 -46 -24q-39 -34 -59 -45q-43 -24 -99 -24q-92 0 -195 43q-91 42 -183 84q19 13 37 18q168 -64 262 -65q70 0 121 25
q64 32 64 94q0 53 -38 99q-40 48 -92 49q-31 0 -31 -30q0 -6 13 -30t13 -42q0 -27 -30 -43q-24 -12 -54 -12q-31 0 -55.5 28.5t-24.5 59.5q0 57 48 93q44 33 102 33q109 0 174 -81q59 -73 64 -185q15 5 29 5q39 0 63 -41q20 -34 20 -75q0 -47 -40 -91q-35 -39 -83 -56
q-31 -11 -79 -15q-41 -3 -80 -7q73 -20 146 -39q85 -24 141 -54q11 -6 35 -17v587h-67l-72 71h295q5 0 73 -70z" />
    <glyph glyph-name="uF72EB" unicode="&#xf72eb;" 
d="M976 618q0 -45 -43 -118q-111 -194 -155 -259q-105 -157 -207 -238q-130 -104 -273 -103q-85 0 -134.5 50.5t-49.5 136.5q0 35 27.5 102.5t27.5 98.5q0 11 -38 70t-38 99q0 34 20 75q29 60 91 95q59 33 129 33q59 0 107 -25q60 -31 60 -83q0 -40 -27 -40q2 0 -23 4
q-43 7 -102 7q-88 0 -89 -70q0 -38 52.5 -89t52.5 -69q0 -21 -44 -85.5t-44 -79.5q0 -36 29 -59q26 -21 63 -20q41 0 137 85q83 73 120 123q56 75 168 224q138 181 167 181q16 -1 16 -46z" />
    <glyph glyph-name="uF72EC" unicode="&#xf72ec;" 
d="M826 -160l-454 274q-1 32 17 32q17 0 47.5 -12.5t47.5 -12.5q100 0 100 105q0 41 -15 61q-12 16 -51 37v-114q0 -17 -36 -27q-28 -8 -50 -9q-21 0 -32 7l-209 131v29l75 -36q58 -28 69 -29q45 0 46 33v111q0 7 -8 7q-14 0 -30 -34t-42 -34q-37 0 -70 25q-34 26 -34 63
q0 29 18.5 49.5t46.5 20.5q21 0 65 -24t48 -24q5 0 6 9v72q0 15 -16 15q-5 0 -16 -4t-16 -4q-42 0 -102 53q-57 50 -72 93h560v-762l107 -69v-32zM582 335v232q0 31 -20 31q-14 0 -44 -18v-211z" />
    <glyph glyph-name="uF72ED" unicode="&#xf72ed;" 
d="M892 442q0 -38 -63 -81q-30 -21 -85 -21q-42 0 -65 16q-20 14 -56 49t-51 55q-9 12 -9 33q0 48 76 90q49 27 73 27q37 0 68 -23q9 -6 53 -50q59 -58 59 -95zM548 449q0 -49 -39 -80q-36 -29 -86 -29q-29 0 -43 5t-35 23q-19 17 -41 34q-68 57 -68 100q0 45 52 78
q46 28 93 28q38 0 78 -28q37 -26 59 -61q30 -49 30 -70zM691 163q0 -66 -51 -100q-30 -20 -56 -20q-41 0 -80 19l-75 36q-21 10 -59 36q-46 30 -53 40q-2 3 -38 75q-26 51 -48 65q-23 24 -55 51q-10 8 -44 26q-12 4 -23 9q-5 2 -17 17t-12 21v8q7 -2 106 -45q32 -21 98 -54
q41 -15 69 -55q16 -22 40 -78q46 -106 88 -106q19 0 60 19q28 13 42 40q9 16 9 48q0 34 -27 34q-32 0 -31 -72q0 -3 0.5 -10.5t0.5 -10.5t-7 -4q-2 0 -22 15.5t-25 18.5q-6 2 -19 9q-32 25 -31 64q0 32 26 55t59 23q34 0 87 -45q44 -37 71 -73q17 -22 17 -56zM800 494v9
q-16 5 -26 6q-17 0 -45.5 -15t-39.5 -30q-4 -6 -8 -27h14q8 0 34 5q14 3 42 21q29 19 29 31zM467 496q0 7 -3 10q-4 1 -11 2q-26 0 -69 -19q-49 -21 -50 -44q0 -15 12 -14q14 0 66 13q11 3 33 23t22 29z" />
    <glyph glyph-name="uF72EE" unicode="&#xf72ee;" 
d="M948 255q0 -3 -1 -9.5t-1 -10.5q0 -19 -24 -41t-43 -22h-34q20 -54 20 -90q0 -85 -68 -124q-32 -18 -50 -18t-42.5 27.5t-24.5 45.5q0 1 1 4q14 5 48 20q29 14 48 47q18 31 18 66q0 37 -25 73q-13 19 -52 60q-2 0 -5 -2q-49 -28 -78 -38q-36 -12 -87 -12q-25 0 -38 2
q-10 1 -28 3v-284q0 -4 -3 -14h-5q-3 0 -12 8q-49 42 -49 75v172q-148 -102 -166 -102q-13 0 -36 27t-23 40q0 11 21 25q93 61 195 131q-55 48 -141 48q-45 0 -84 -14l-41 -16q-16 0 -39.5 27.5t-23.5 43.5q0 8 20 18q52 25 129 25q6 0 29 -5q84 -18 160 -88v223h-345
q-16 14 -16 29q0 7 2 12h318q8 0 24 3t24 3q7 0 20.5 -3t20.5 -3h315q74 0 75 -29q0 -5 -5 -8q-6 -4 -81 -4q-2 0 -6 -3q50 -59 51 -123q0 -40 -11 -59q17 -1 51 -5q37 -8 67.5 -50.5t30.5 -80.5zM739 526q0 15 -14 15q-34 0 -55 -30q-19 -27 -19 -62q0 -39 18 -63
q28 13 50 61q20 44 20 79zM889 306q0 18 -22 18q-25 0 -46.5 -21.5t-21.5 -47.5q0 -17 23 -16q25 0 46 21t21 46zM645 363q-36 51 -46 76q-16 38 -16 88q0 27 9 49h-100q-7 0 -17 -3q8 -12 7 -33v-229h7q92 0 156 52z" />
    <glyph glyph-name="uF72EF" unicode="&#xf72ef;" 
d="M740 652l-7 -62q-56 6 -89 6q-145 0 -231 -78q-90 -81 -90 -224q0 -120 55 -214q65 -111 177 -111q31 0 66 19q40 22 40 51q0 40 -22.5 63.5t-61.5 23.5q-5 0 -19 -1l-8 62q98 12 98 56q0 30 -20 51t-50 21q-34 0 -124 -46l-28 56q104 53 152 53q56 0 94 -40t38 -95
q0 -50 -44 -82q58 -42 57 -122q0 -56 -57 -96q-52 -36 -111 -36q-140 0 -223 128q-72 111 -72 259q0 170 108 269q104 96 276 96q35 0 96 -7z" />
    <glyph glyph-name="uF72F0" unicode="&#xf72f0;" 
d="M776 -47q0 -48 -12 -59h-489q-17 0 -33.5 18.5t-16.5 35.5q0 13 80 139l98 154q-13 0 -38.5 -0.5t-37.5 -0.5q-46 0 -63 6q-13 5 -25.5 22.5t-12.5 31.5q0 18 61 138q70 136 77 155q-28 -1 -82 1q-22 2 -39 22t-17 42q0 5 4.5 13.5t9.5 8.5h490q8 0 24 -15t19 -23.5
t3 -24.5v-664zM693 -23v616h-227l-131 -264h133q19 0 37 -20.5t18 -39.5q0 -20 -180 -292h350z" />
    <glyph glyph-name="uF72F1" unicode="&#xf72f1;" 
d="M897 273q0 -96 -61 -168q-64 -77 -158 -77q-114 0 -150 144q-61 -167 -215 -166q-97 0 -97 119q0 28 3.5 83t3.5 83q0 103 -81 103q-18 0 -79 -28l9 80q46 21 98 20q61 0 93 -45q27 -39 27 -103q0 -27 -4 -82t-4 -83q0 -82 61 -81q91 0 126 99q24 67 24 192v42l-1 33
l67 68v-84q50 44 127 44q120 0 177 -66q34 -40 34 -127zM832 244q0 94 -53 128q-41 26 -140 26q-27 0 -54 -20q-28 -21 -28 -47q0 -75 38 -149q45 -88 113 -88q59 0 93 47q31 42 31 103z" />
    <glyph glyph-name="uF72F2" unicode="&#xf72f2;" 
d="M877 305q0 -177 -92 -295q-100 -129 -272 -129q-151 0 -261 68q-129 81 -129 222q0 114 89 183q82 62 199 62q41 0 83 -15q56 -19 56 -51v-279h-75v257q-30 13 -64 12q-85 0 -145 -41q-67 -46 -67 -128q0 -107 108 -166q89 -48 206 -48q140 0 218 107q70 96 70 241
q0 120 -84.5 204t-203.5 84q-167 0 -333 -122l-45 60q187 137 378 137q151 0 257.5 -106t106.5 -257z" />
    <glyph glyph-name="uF72F3" unicode="&#xf72f3;" 
d="M944 645q0 -10 -6 -19q-33 -49 -84 -87q-81 -62 -258 -134l-13 -6q-47 -19 -165 -67q-126 -54 -190 -104q-103 -79 -103 -178q0 -68 48 -68q88 0 167 95q20 23 30 24q15 0 24 -25q7 -19 7 -38q0 -44 51 -65q37 -15 90 -15q78 0 137 44q36 26 65 64q36 46 36 80t-24 55.5
t-58 21.5q-42 0 -93 -30q-56 -34 -56 -73q0 -22 31 -22q17 0 39.5 13.5t30.5 13.5q27 0 27 -32q0 -33 -34 -50q-27 -14 -63 -13q-41 0 -69 25q-30 26 -30 65q0 70 75 123q69 48 142 48q63 0 106.5 -41t43.5 -104q0 -54 -45 -115q-38 -52 -91 -89q-74 -52 -170 -52
q-62 0 -114 20q-63 25 -85 73q-86 -70 -170 -69q-59 0 -89 40q-28 36 -28 96q0 118 99 207q68 62 204 123q47 21 205 85q-46 32 -45 80q-1 46 43 82q42 36 89 36q86 0 118 -101q53 33 111 101q14 17 28 16q14 0 25 -10t11 -24zM708 527q-15 67 -57 68q-18 0 -40 -16
q-24 -17 -24 -34q0 -21 58 -47q35 15 63 29z" />
    <glyph glyph-name="uF72F4" unicode="&#xf72f4;" 
d="M640 658q0 -33 -14 -57q-18 -29 -48 -29q-23 0 -44 20.5t-21 43.5q0 28 29.5 60.5t57.5 32.5q40 -1 40 -71zM939 444q0 -17 -7 -33q-9 -21 -24 -19l-257 17q4 -29 10 -86q8 -122 8 -312q0 -53 -2 -117q-1 -56 -27 -56q-13 0 -79 90q-68 93 -104 100q-15 1 -45 5
q-39 5 -119 35q-60 22 -120 75q-73 62 -73 112q0 36 23 37q21 0 62 -41q28 -29 57 -57q31 -28 80 -55q57 -32 89 -32q21 0 46 18.5t25 38.5q0 25 -33 90q-24 47 -69 48h-12t-13 -1q-41 0 -58 22q-8 9 -18 42q-8 25 -23 30q-12 4 -27 4h-123q-45 0 -45 39q0 26 26 33
q10 3 47 5q178 6 286 6h490q29 0 29 -38zM599 43v369q-55 5 -123 5h-37q-41 0 -55 -12q1 -9 44 -44q47 -38 55 -51q19 -33 32.5 -72.5t13.5 -74.5q0 -61 5 -84q3 -18 21 -47q20 -33 33 -32q11 0 11 43z" />
    <glyph glyph-name="uF72F5" unicode="&#xf72f5;" 
d="M958 590q0 -20 -6 -26.5t-26 -10.5q-76 -14 -159 -14q-47 0 -112 -4q-93 -6 -102 -16q-13 -122 -14 -336q0 -54 -2 -160q-1 -10 -3 -29q-2 -25 -4 -51q-7 -28 -36 -28q-33 0 -33 69q0 53 9.5 159t9.5 159q0 39 -48 57q-34 13 -83 13q-32 0 -84 -11q-66 -14 -66 -33
q0 -8 25 -23l32 -20q20 -15 38 -44q19 -32 19 -54q0 -16 -18 -37t-34 -27t-40 -6q-62 0 -118 42q-60 45 -61 106q0 83 108 133q86 41 181 43l91 1q34 0 46 9q16 10 15 42q0 24 -12 31q-10 6 -35 6q-86 0 -229 -21q-8 -1 -55 -11q-34 -7 -55 -7q-6 0 -13 7q0 -9 -1 38
q0 27 15 42q13 14 198 26q152 10 225 9q89 0 215 14q11 1 82 13q50 8 83 8q32 0 44.5 -13t12.5 -45zM222 219q0 13 -36 31q-33 17 -48 17q-13 0 -13 -9q0 -16 27.5 -38t44.5 -22q25 0 25 21z" />
    <glyph glyph-name="uF72F6" unicode="&#xf72f6;" 
d="M795 291q0 -154 -130.5 -282t-284.5 -128q-36 0 -75 23q-41 24 -53 56q-8 21 -7 44q0 79 69 163q43 53 162 133q10 7 38 25q17 10 40 10q41 0 41 -38q0 -21 -17 -34q-15 -4 -41 -14q-10 -5 -44 -31q-160 -120 -160 -204q0 -63 70 -63q86 0 191 124q103 121 103 209
q0 108 -106 109q-65 0 -145 -47q-17 -10 -22 -10q-7 0 -14 10.5t-7 17.5q0 13 17 37q22 30 24 32q4 8 9 38q3 21 23 39q-6 14 -22 13q-18 0 -93 -54q-28 -20 -28 -33q0 -5 10.5 -23.5t10.5 -23.5q0 -13 -13.5 -29t-26.5 -16q-32 0 -41 56l-11 72q-15 20 -15 27q0 15 14 23
q4 2 30 10q43 12 63 25q40 25 60 33q15 5 51 20q10 4 25 18q21 19 24 20q34 26 60 27q25 0 25 -25q0 -2 -28 -56q-29 -56 -32 -65q-5 -14 -6 -38q0 -25 10 -26q2 0 5 1q76 29 120 29q52 0 93 -78q34 -67 34 -126z" />
    <glyph glyph-name="uF72F7" unicode="&#xf72f7;" 
d="M923 236q0 -105 -38 -185q-49 -103 -142 -103q-85 0 -139 50q-56 51 -56 135q0 86 50 142q52 60 136 60q20 0 45 -4q-1 43 -51 97q-91 101 -249 101v-202h42v-99h-42q-3 -102 -50 -179q-57 -92 -151 -92q-102 0 -156 93q-45 76 -45 186q0 188 113 306q115 120 302 120
q194 0 312.5 -116.5t118.5 -309.5zM810 149q0 31 -30 51q-26 18 -58 17q-25 0 -47.5 -23t-22.5 -48q0 -35 21 -58.5t56 -23.5q37 0 59 23.5t22 61.5zM340 228h-68v99h68v149q-129 -86 -129 -245q0 -42 12 -74q16 -45 50 -45q35 0 53 43q14 33 14 73z" />
    <glyph glyph-name="uF72F8" unicode="&#xf72f8;" 
d="M828 139q0 -83 -57 -144q-50 -55 -134 -82q-48 -16 -126 -16q-86 0 -189 47q-28 13 -77 45q-58 37 -66 52q-7 14 -7 25q0 21 16 35q15 13 37 13q15 0 37 -17q18 -13 34 -26q121 -79 229 -78q75 0 135 32q72 40 72 108q0 72 -73 129q-60 47 -140 66q-28 6 -49 10l-56 8
q-31 9 -32 40q0 23 24 43q21 14 42 29q73 52 177 121h-352q-41 0 -41 51q0 48 39 48h504q53 0 53 -42q0 -18 -11 -32t-50 -42q-29 -19 -57 -38q-50 -36 -149 -107q1 -2 6 -3q111 -30 180 -94q81 -76 81 -181z" />
    <glyph glyph-name="uF72F9" unicode="&#xf72f9;" 
d="M908 518h-149v-567h-86v298h-224q33 -16 52 -55q19 -36 19 -74q0 -84 -59 -137q-57 -51 -142 -51q-72 0 -132 35q-63 36 -94 99l68 33q61 -91 157 -91q46 0 83.5 31.5t37.5 77.5q0 65 -44 102q-41 35 -107 34q-21 0 -42 -3v77q12 -1 21 -2q58 0 100 31q47 35 48 91
q0 42 -29 71.5t-70 29.5q-57 0 -119 -29l-23 67q77 40 144 39q76 0 128 -46q54 -49 54 -124q0 -74 -67 -128h240v191h-86v78h321v-78z" />
    <glyph glyph-name="uF72FA" unicode="&#xf72fa;" 
d="M783 -63l-7 -6h-64q-2 0 -64 15l-148 34q-62 -49 -160 -49q-58 0 -110 27q-62 33 -62 86q0 30 24 48q21 16 52 16q17 0 70 -10l142 -28q18 24 17 60q0 33 -15 66q-19 40 -47 39q-34 0 -114 -33q-3 1 -3 5q0 5 5 17q16 38 46 64q13 12 64 45q83 54 83 129q0 117 -120 117
q-56 0 -141 -67q1 25 12 62q12 43 26 54q12 10 53 22q39 11 57 12q93 0 146.5 -51t53.5 -143q0 -46 -43 -96q-35 -41 -83 -69q50 -14 80 -62q28 -45 28 -100q0 -50 -20 -86q53 -11 159 -34v632l8 9h68l7 -9v-716zM396 9l-173 38q0 -26 31 -43q26 -14 56 -14q62 0 86 19z" />
    <glyph glyph-name="uF72FB" unicode="&#xf72fb;" 
d="M869 -157h-111v777h-201v-777h-426v448h109v-337h205v667h-314v110h738v-888z" />
    <glyph glyph-name="uF72FC" unicode="&#xf72fc;" 
d="M558 382q0 -44 -26 -81q-26 -38 -69 -47h91v-55h-236v55h93q-42 10 -69 47q-26 36 -26 81q0 52 35 91t87 39t86 -39q34 -38 34 -91zM745 -79q-34 0 -73 15q-49 18 -48 45v637q-7 8 -21 8q-25 0 -89 -32t-78 -32q-23 0 -82 40t-99 40v23h490v-744zM545 0q0 -15 -18 -38
q-30 -39 -110 -38q-34 0 -77 30q-45 31 -57 32q-5 0 -27 3l4 54q14 -1 27 -2q25 -2 70 -33q42 -29 69 -29q52 0 64 27v125h55v-131zM503 382q0 30 -18 52q-19 24 -47 24q-29 0 -49 -24q-18 -22 -18 -52t18 -52q21 -24 49 -24q29 0 47 24q18 22 18 52z" />
    <glyph glyph-name="uF72FD" unicode="&#xf72fd;" 
d="M825 87q0 -99 -81 -152q-69 -46 -173 -47q-167 0 -281.5 115t-114.5 282q0 161 116 279t276 118q60 0 148 -31q106 -38 107 -85q0 -17 -13 -30.5t-30 -13.5q-7 0 -49 21q-48 24 -55 28q-55 22 -119 22v-361q42 25 98 25q71 0 121 -49.5t50 -120.5zM733 86q0 34 -23 57
t-57 23q-41 0 -69 -28t-28 -68v-95q65 0 114 23q63 30 63 88zM462 -4v576q-84 -34 -138.5 -115.5t-54.5 -173.5q0 -93 53.5 -173t139.5 -114z" />
    <glyph glyph-name="uF72FE" unicode="&#xf72fe;" 
d="M961 -18q0 -38 -24.5 -61.5t-62.5 -23.5q-51 0 -79 39q-7 13 -15 23q-22 32 -58 32q-10 0 -31 -3.5t-31 -3.5q-44 0 -88 20q-54 24 -54 63q0 21 7 21q-2 0 39 -29t77 -29q29 0 62 15q46 21 62 67q21 63 21 183q0 111 -29 112q-12 0 -15 -17q0 -9 -3 -27q-6 -49 -55 -86
q-47 -34 -99 -34q-53 0 -65 20q-1 5 -6 15q-7 10 -33 10q-2 0 -75 -8l-37 -5q-59 0 -100 29q-48 32 -48 88q0 67 116 95q20 5 54 5q54 0 83 -18l19 -16q15 -13 18 -13t5 3v4q0 72 -70 106q-54 26 -135 26q-40 0 -86 -8q-107 -20 -108 -59q0 -16 26 -28.5t26 -22.5
q0 -19 -18 -18q-21 0 -56 35q-56 55 -56 97q0 44 68 64q46 14 107 13q176 0 272 -59q49 -30 61 -83q4 -20 5 -106q0 -65 10 -78q7 -9 28 -9q39 0 65 15q32 19 32 55q0 29 -30.5 56.5t-30.5 36.5q0 24 48 24q19 0 52 -8q58 -15 94 -51q41 -40 40 -96q0 -17 -10 -68
q-31 -147 -32 -171q0 -34 37 -50q11 -4 69 -26q37 -20 37 -57zM902 -49q0 20 -23 44t-43 24q-21 0 -21 -31q0 -23 19.5 -40t43.5 -17t24 20zM461 392q0 23 -39 37q-30 10 -59 10q-57 0 -57 -31q0 -26 27 -42q23 -15 51 -15q24 0 47 9q30 12 30 32z" />
    <glyph glyph-name="uF72FF" unicode="&#xf72ff;" 
d="M798 360q0 -66 -22 -133q-23 -72 -63 -120l-50 51q64 95 65 204q0 110 -52 177q-57 75 -163 74q-106 0 -163 -73q-51 -66 -51 -177q0 -106 65 -196l-49 -57q-85 102 -85 251q0 139 71 227q77 96 213 97q136 0 213 -97q71 -88 71 -228zM555 216q0 -138 -101 -230
q-92 -85 -234 -104l-18 71q67 6 122 26.5t107 85.5q53 67 52 124q0 20 -4 64l74 9q2 -23 2 -46z" />
    <glyph glyph-name="uF7300" unicode="&#xf7300;" 
d="M918 266q0 -9 -6 -20.5t-15 -11.5h-323q65 -71 65 -175q0 -52 -14 -86q-24 -61 -77 -96.5t-118 -35.5t-133 43q-62 40 -102 98q-35 53 -35 88q0 33 27 33q16 0 36.5 -13.5t28.5 -27.5q6 -23 15 -43q12 -30 48 -52q34 -21 69 -21q104 0 144 110q8 21 8 45q0 47 -21 83
q-24 41 -69 47q-13 1 -39 5q-21 2 -38 11q-14 6 -29.5 28.5t-15.5 36.5t15 23q7 4 43 8q38 4 49 9q51 20 79 71q26 47 27 105q0 104 -111 104q-88 0 -140 -57q-16 -18 -19 -26q0 -8 -4 -23q-7 -16 -28 -16q-27 0 -50.5 26t-23.5 54q0 47 48 88q70 60 166 59q113 0 188.5 -75
t75.5 -188q0 -70 -27 -130q2 -2 8 -2h233q7 0 25 -15q17 -13 24 -21q16 -19 16 -40z" />
    <glyph glyph-name="uF7301" unicode="&#xf7301;" 
d="M912 419q-19 -18 -66 -45q-46 -26 -66 -47q0 -31 4.5 -95t4.5 -96q0 -35 -4 -65q-139 -108 -181 -109q-61 0 -177 35.5t-177 35.5q-69 0 -162 -22q43 61 122 97q76 34 154 34q49 0 119 -11q60 -10 119 -19q26 10 26 35q0 30 -41 50q-44 21 -173 28q-153 8 -188 15
q-28 6 -36 11q-13 9 -13 34q0 24 75 92v3q0 37 -24 48q-13 6 -55 8q-39 1 -56 12q22 44 85 99q69 61 110 60q15 0 72.5 -45t92.5 -45q28 0 109 45t108 45q48 0 218 -188zM581 340v57q0 32 -28 32q-73 0 -73 -47q0 -24 20 -42t44 -18q37 0 37 18z" />
    <glyph glyph-name="uF7302" unicode="&#xf7302;" 
d="M844 -84h-688v749l124 -61v-564h440v63h-189v187h-63v-186l-124 61v250h187v63h-187v125h312v-187h64v187h124v-313h-188v-63h188v-311z" />
    <glyph glyph-name="uF7303" unicode="&#xf7303;" 
d="M884 476q0 -86 -64 -121q-47 -25 -141 -25q-67 0 -139 17l-57 -141q32 -20 90 -69.5t90 -68.5q48 -30 92 -30q37 0 101 37l26 -49q-76 -43 -127 -43q-54 0 -109 32q-34 19 -93 69q-62 53 -92 72q-44 -94 -92 -139q-61 -58 -144 -59q-45 0 -77 31.5t-32 76.5q0 82 76 135
q68 47 154 47q44 0 89 -18q18 44 53 132q-87 27 -315 143l25 49l153 -78q86 -42 159 -64q44 94 93 139q62 58 144 58q60 0 98.5 -36.5t38.5 -96.5zM830 476q0 37 -23 58t-60 21q-108 0 -184 -157q61 -13 116 -13q71 0 101 11q50 20 50 80zM413 181q-34 13 -67 12
q-62 0 -115 -32q-61 -37 -61 -95q0 -22 16.5 -37.5t38.5 -15.5q110 1 188 168z" />
    <glyph glyph-name="uF7304" unicode="&#xf7304;" 
d="M878 157q0 -49 -15 -79q-21 -42 -78 -66q-48 -19 -103 -18q-36 0 -65 12q-1 0 -34 20q-22 13 -35 13q-15 0 -39 -12q-19 -9 -38 -17q-37 -15 -79 -15q-80 0 -140 47q-63 50 -63 128q0 55 23 141.5t23 95.5q0 15 -7 24.5t-60 28.5q-46 16 -46 36q0 27 60 27q41 0 90 -19
q55 -22 71 -52q7 -14 8 -35q0 -21 -18 -85q-27 -102 -27 -159q0 -120 81 -120q51 0 71 59q9 28 15 102q3 36 7 110l4 84q4 54 17 79q16 30 48 31q26 0 34 -31q6 -21 8 -53q1 -22 1 -57q-1 -52 -1 -54q0 -270 100 -270q47 0 69 47q17 35 17 88q0 19 -4 38q-12 51 -23 103
q-13 60 -14 104q0 89 44 89q40 0 56.5 -39t29.5 -159q12 -105 12 -167z" />
    </font>
</defs>
</svg>
