<?xml version="1.0" standalone="no"?>
<!DOCTYPE svg PUBLIC "-//W3C//DTD SVG 1.1//EN" "http://www.w3.org/Graphics/SVG/1.1/DTD/svg11.dtd" >
<svg>
<metadata>
Created by FontForge 20110222 at Wed Jun 20 07:39:43 2012
 By Manuel Strehl,,,
Unicode Fonts for Ancient Scripts; George Douros; 2010
</metadata>
<defs>
<font id="Akkadian" horiz-adv-x="2987" >
  <font-face 
    font-family="Akkadian"
    font-weight="400"
    font-stretch="semi-condensed"
    units-per-em="2048"
    panose-1="2 7 1 2 1 7 7 7 7 7"
    ascent="1638"
    descent="-410"
    x-height="951"
    cap-height="1374"
    bbox="-272 -772.071 8361 2820"
    underline-thickness="72"
    underline-position="-664"
    unicode-range="U+0020-FFFB9"
  />
<missing-glyph horiz-adv-x="1234" 
d="M1152 0h-1070v1698h1070v-1698zM1070 82v1534h-906v-1534h906zM905 1071q0 -122 -82 -193q-77 -67 -201 -67q-45 0 -95 12v-222h-112v294l71 54q90 -26 136 -26q171 0 171 148q0 181 -382 243l18 111l55 -9q166 -27 278 -102q143 -96 143 -243zM559 394
q0 -36 -25.5 -61.5t-61.5 -25.5t-61.5 25.5t-25.5 61.5t25.5 61.5t61.5 25.5t61.5 -25.5t25.5 -61.5z" />
    <glyph glyph-name=".notdef" horiz-adv-x="1234" 
d="M1152 0h-1070v1698h1070v-1698zM1070 82v1534h-906v-1534h906zM905 1071q0 -122 -82 -193q-77 -67 -201 -67q-45 0 -95 12v-222h-112v294l71 54q90 -26 136 -26q171 0 171 148q0 181 -382 243l18 111l55 -9q166 -27 278 -102q143 -96 143 -243zM559 394
q0 -36 -25.5 -61.5t-61.5 -25.5t-61.5 25.5t-25.5 61.5t25.5 61.5t61.5 25.5t61.5 -25.5t25.5 -61.5z" />
    <glyph glyph-name=".null" horiz-adv-x="0" 
 />
    <glyph glyph-name="nonmarkingreturn" horiz-adv-x="1024" 
 />
    <glyph glyph-name="space" unicode=" " horiz-adv-x="1024" 
 />
    <glyph glyph-name="exclam" unicode="!" horiz-adv-x="418" 
d="M265 384h-112v990h112v-990zM306 98q0 -40 -28 -69t-68 -29t-69 29t-29 69t29 68t69 28t68 -28t28 -68z" />
    <glyph glyph-name="quotedbl" unicode="&#x22;" horiz-adv-x="900" 
d="M788 1510l-213 -493l-103 45l214 493zM428 1510l-213 -493l-103 45l214 493z" />
    <glyph glyph-name="numbersign" unicode="#" horiz-adv-x="1266" 
d="M1154 831h-238l-52 -288h230v-112h-250l-66 -365l-110 20l62 345h-286l-66 -365l-110 20l62 345h-218v112h238l52 288h-230v112h250l66 365l110 -20l-62 -345h286l66 365l110 -20l-62 -345h218v-112zM802 831h-286l-52 -288h286z" />
    <glyph glyph-name="dollar" unicode="$" horiz-adv-x="1038" 
d="M926 473q0 -127 -116 -207q-96 -66 -235 -80v-186h-112v184q-143 8 -324 72l37 106q156 -56 287 -65v338q-170 8 -245 51q-106 61 -106 215q0 127 116 207q96 66 235 80v186h112v-184q143 -8 324 -72l-37 -106q-161 57 -287 65v-338q170 -8 245 -51q106 -61 106 -215z
M463 744v331q-91 -12 -154 -48q-85 -49 -85 -126q0 -91 79 -128q50 -23 160 -29zM814 473q0 91 -79 128q-50 23 -160 29v-331q91 12 154 48q85 49 85 126z" />
    <glyph glyph-name="percent" unicode="%" horiz-adv-x="1808" 
d="M1696 147q0 -168 -85 -288q-96 -136 -257 -136t-257 136q-85 120 -85 288t85 288q96 136 257 136t257 -136q85 -120 85 -288zM1235 1422l-555 -1714l-107 35l555 1714zM796 1018q0 -168 -85 -288q-96 -136 -257 -136t-257 136q-85 120 -85 288t85 288q96 136 257 136
t257 -136q85 -120 85 -288zM1584 147q0 119 -54 208q-64 104 -176 104t-176 -104q-54 -89 -54 -208t54 -208q64 -104 176 -104t176 104q54 89 54 208zM684 1018q0 119 -54 208q-64 104 -176 104t-176 -104q-54 -89 -54 -208t54 -208q64 -104 176 -104t176 104q54 89 54 208z
" />
    <glyph glyph-name="ampersand" unicode="&#x26;" horiz-adv-x="1364" 
d="M1252 796h-389v-924h-112v924h-524q32 -282 365 -380l-32 -108l-54 16q-176 55 -285 199.5t-109 328.5q0 227 161.5 388.5t388.5 161.5q124 0 280 -72l-46 -102q-134 62 -234 62q-166 0 -289.5 -110t-144.5 -272h1024v-112z" />
    <glyph glyph-name="quotesingle" unicode="'" horiz-adv-x="540" 
d="M428 1510l-213 -493l-103 45l214 493z" />
    <glyph glyph-name="parenleft" unicode="(" horiz-adv-x="799" 
d="M687 -137l-60 -95q-246 156 -380.5 393.5t-134.5 525.5t135 527q134 236 380 392l60 -95q-222 -140 -341 -351q-122 -214 -122 -473t122 -473q119 -211 341 -351z" />
    <glyph glyph-name="parenright" unicode=")" horiz-adv-x="799" 
d="M687 687q0 -288 -134.5 -525.5t-380.5 -393.5l-60 95q222 140 342.5 352.5t120.5 471.5t-122 473q-119 211 -341 351l60 95q246 -156 380 -392q135 -239 135 -527z" />
    <glyph glyph-name="asterisk" unicode="*" horiz-adv-x="1206" 
d="M1094 1051h-394l197 -341l-97 -56l-197 341l-197 -341l-97 56l197 341h-394v112h394l-197 341l97 56l197 -341l197 341l97 -56l-197 -341h394v-112z" />
    <glyph glyph-name="plus" unicode="+" horiz-adv-x="1206" 
d="M1094 631h-435v-435h-112v435h-435v112h435v435h112v-435h435v-112z" />
    <glyph glyph-name="comma" unicode="," horiz-adv-x="540" 
d="M428 51l-213 -493l-103 45l214 493z" />
    <glyph glyph-name="hyphen" unicode="-" horiz-adv-x="768" 
d="M656 631h-544v112h544v-112z" />
    <glyph glyph-name="period" unicode="." horiz-adv-x="418" 
d="M306 98q0 -40 -28 -69t-68 -29t-69 29t-29 69t29 68t69 28t68 -28t28 -68z" />
    <glyph glyph-name="slash" unicode="/" horiz-adv-x="851" 
d="M739 1575l-520 -1807l-107 31l520 1807z" />
    <glyph glyph-name="zero" unicode="0" horiz-adv-x="1232" 
d="M1085 500q0 -243 -110 -379q-121 -149 -359 -149q-232 0 -355 151q-114 140 -114 377v403q0 223 122 358q126 141 347 141q213 0 344 -144q125 -139 125 -355v-403zM973 500v403q0 169 -93 275q-97 112 -264 112q-174 0 -268 -108q-89 -102 -89 -279v-403
q0 -416 357 -416t357 416z" />
    <glyph glyph-name="one" unicode="1" horiz-adv-x="1232" 
d="M827 1318l-1 -1318h-112l1 1262h-310v112h366z" />
    <glyph glyph-name="two" unicode="2" horiz-adv-x="1232" 
d="M1061 1005q0 -128 -80 -249q-50 -78 -174 -201l-445 -443h670v-112h-805l-40 96q213 203 624 625q138 153 138 284q0 116 -87.5 200.5t-203.5 84.5q-148 0 -232 -94q-79 -90 -79 -240v-56h-112v56q0 197 112 319q116 127 311 127q163 0 283 -117.5t120 -279.5z" />
    <glyph glyph-name="three" unicode="3" horiz-adv-x="1232" 
d="M1051 375q0 -189 -140 -300q-130 -103 -323 -103q-182 0 -292 126q-98 111 -122 301l111 15q42 -330 303 -330q146 0 243 71q108 79 108 220q0 139 -99 224q-91 78 -234 87l-7 111q107 20 178 91q75 77 75 182q0 98 -79 161q-73 59 -174 59q-203 0 -234 -254l-112 14
q2 19 7 56q19 134 111.5 215t227.5 81q148 0 254 -91q111 -96 111 -241q0 -198 -172 -313q259 -107 259 -382z" />
    <glyph glyph-name="four" unicode="4" horiz-adv-x="1232" 
d="M1120 271h-217v-271h-112v271h-632l-47 87l688 1049l103 -31v-993h217v-112zM791 383v806l-528 -806h528z" />
    <glyph glyph-name="five" unicode="5" horiz-adv-x="1232" 
d="M1061 430q0 -191 -128.5 -324.5t-318.5 -133.5q-206 0 -328 144q-113 134 -116 345l112 2q2 -165 83 -267q89 -112 249 -112q144 0 240 102q95 99 95 244q0 142 -90 243q-93 106 -233 106q-95 0 -161 -44t-132 -89l-81 59l115 623l55 46h575v-112h-528l-82 -440
q118 69 239 69q187 0 313 -138q122 -135 122 -323z" />
    <glyph glyph-name="six" unicode="6" horiz-adv-x="1232" 
d="M1062 426q0 -192 -128.5 -323t-320.5 -131q-187 0 -315.5 135.5t-128.5 323.5q0 112 51 217q29 58 120 189l391 559l92 -64q-154 -213 -451 -646q-91 -139 -91 -255q0 -142 94 -243q97 -104 238 -104q146 0 241.5 98t95.5 244q0 126 -85 229q-90 109 -213 109h-56v112h56
q170 0 293 -142q117 -135 117 -308z" />
    <glyph glyph-name="seven" unicode="7" horiz-adv-x="1232" 
d="M1024 1295l-604 -1313l-101 47l567 1233h-663v112h750z" />
    <glyph glyph-name="eight" unicode="8" horiz-adv-x="1232" 
d="M1046 397q0 -180 -128 -302.5t-308 -122.5q-176 0 -300 120.5t-124 295.5q0 118 58 217.5t161 155.5q-157 101 -157 291q0 149 109 251q107 99 257 99q145 0 249.5 -103t104.5 -248q0 -182 -155 -287q107 -54 170 -152t63 -215zM856 1051q0 98 -72 168.5t-170 70.5
q-104 0 -179 -67.5t-75 -170.5q0 -105 73 -171.5t179 -66.5q98 0 171 69.5t73 167.5zM934 397q0 128 -96.5 216t-225.5 88q-133 0 -223.5 -90.5t-90.5 -222.5q0 -129 91 -216.5t221 -87.5q134 0 229 90t95 223z" />
    <glyph glyph-name="nine" unicode="9" horiz-adv-x="1232" 
d="M1062 938q0 -111 -52 -216q-25 -52 -118 -190l-373 -554l-93 63q105 153 314 461q-58 -17 -121 -17q-187 0 -319 138q-130 135 -130 323q0 187 131.5 321.5t317.5 134.5q187 0 317 -139q126 -136 126 -325zM950 938q0 142 -94 245q-96 107 -237 107q-140 0 -238.5 -102
t-98.5 -242q0 -141 98 -245t239 -104q137 0 270 134q61 107 61 207z" />
    <glyph glyph-name="colon" unicode=":" horiz-adv-x="418" 
d="M306 808q0 -40 -28 -69t-68 -29t-69 29t-29 69t29 68t69 28t68 -28t28 -68zM306 98q0 -40 -28 -69t-68 -29t-69 29t-29 69t29 68t69 28t68 -28t28 -68z" />
    <glyph glyph-name="semicolon" unicode=";" horiz-adv-x="540" 
d="M367 808q0 -40 -28 -69t-68 -29t-69 29t-29 69t29 68t69 28t68 -28t28 -68zM428 51l-213 -493l-103 45l214 493z" />
    <glyph glyph-name="less" unicode="&#x3c;" horiz-adv-x="1087" 
d="M975 277l-55 -97l-808 458v98l808 458l55 -97l-722 -410z" />
    <glyph glyph-name="equal" unicode="=" horiz-adv-x="1206" 
d="M1094 831h-982v112h982v-112zM1094 431h-982v112h982v-112z" />
    <glyph glyph-name="greater" unicode="&#x3e;" horiz-adv-x="1087" 
d="M975 638l-808 -458l-55 97l722 410l-722 410l55 97l808 -458v-98z" />
    <glyph glyph-name="question" unicode="?" horiz-adv-x="849" 
d="M737 958q0 -147 -97 -232q-93 -80 -242 -80q-67 0 -133 18v-280h-112v360l80 51q80 -37 165 -37q227 0 227 200q0 140 -177 229q-131 66 -301 84l12 112q218 -23 376 -116q202 -118 202 -309zM306 98q0 -40 -28 -69t-68 -29t-69 29t-29 69t29 68t69 28t68 -28t28 -68z
" />
    <glyph glyph-name="at" unicode="@" horiz-adv-x="1816" 
d="M1704 677h-389v-805h-112v805h-273l91 -226l-104 -42l-108 268h-409l-185 -438l-103 43l447 1058l104 -1l222 -550h819v-112zM764 789l-154 382l-162 -382h316z" />
    <glyph glyph-name="A" unicode="A" horiz-adv-x="1437" 
d="M1325 26l-103 -43l-200 472h-607l-200 -472l-103 43l555 1314h103zM975 567l-257 607l-256 -607h513z" />
    <glyph glyph-name="B" unicode="B" horiz-adv-x="1109" 
d="M997 371q0 -317 -825 -371l-60 56v1262l60 56q825 -54 825 -372q0 -226 -380 -315q380 -90 380 -316zM885 1002q0 209 -661 256v-512q661 45 661 256zM885 371q0 210 -661 257v-512q661 47 661 255z" />
    <glyph glyph-name="C" unicode="C" horiz-adv-x="1287" 
d="M1175 60q-185 -88 -348 -88q-296 0 -505.5 209.5t-209.5 505.5t209.5 505.5t505.5 209.5q160 0 348 -87l-46 -102q-166 77 -302 77q-250 0 -426.5 -177t-176.5 -426t177 -426t426 -177q135 0 302 78z" />
    <glyph glyph-name="D" unicode="D" horiz-adv-x="1126" 
d="M1014 687q0 -315 -273 -511q-246 -176 -573 -176l-56 56v1262l56 56q327 0 573 -176q273 -196 273 -511zM902 687q0 252 -219 414q-193 143 -459 159v-1146q266 16 459 159q219 162 219 414z" />
    <glyph glyph-name="E" unicode="E" horiz-adv-x="945" 
d="M833 0h-665l-56 56v1262l56 56h665v-112h-609v-519h609v-112h-609v-519h609v-112z" />
    <glyph glyph-name="F" unicode="F" horiz-adv-x="945" 
d="M833 631h-609v-631h-112v1318l56 56h665v-112h-609v-519h609v-112z" />
    <glyph glyph-name="G" unicode="G" horiz-adv-x="1287" 
d="M1175 1315l-46 -102q-166 77 -302 77q-250 0 -426.5 -177t-176.5 -426q0 -250 176.5 -426.5t426.5 -176.5q113 0 218 41v406h-274v112h330l56 -56v-499l-33 -51q-141 -65 -297 -65q-296 0 -505.5 209.5t-209.5 505.5t209.5 505.5t505.5 209.5q160 0 348 -87z" />
    <glyph glyph-name="H" unicode="H" horiz-adv-x="1164" 
d="M1052 0h-112v631h-716v-631h-112v1374h112v-631h716v631h112v-1374z" />
    <glyph glyph-name="I" unicode="I" horiz-adv-x="496" 
d="M304 0h-112v1374h112v-1374z" />
    <glyph glyph-name="J" unicode="J" horiz-adv-x="559" 
d="M367 187q0 -515 -583 -515h-56v112h56q471 0 471 403v1187h112v-1187z" />
    <glyph glyph-name="K" unicode="K" horiz-adv-x="1056" 
d="M944 222l-72 -86l-648 543v-679h-112v1374h112v-603l648 547l72 -86l-601 -507z" />
    <glyph glyph-name="L" unicode="L" horiz-adv-x="1085" 
d="M973 0h-805l-56 56v1318h112v-1262h749v-112z" />
    <glyph glyph-name="M" unicode="M" horiz-adv-x="1382" 
d="M1270 0h-112v1153l-421 -589h-92l-421 589v-1153h-112v1328l102 33l477 -668l477 668l102 -33v-1328z" />
    <glyph glyph-name="N" unicode="N" horiz-adv-x="1125" 
d="M1013 106l-102 -31l-687 1011v-1086h-112v1268l102 31l687 -1011v1086h112v-1268z" />
    <glyph glyph-name="O" unicode="O" horiz-adv-x="1542" 
d="M1430 687q0 -273 -193 -466t-466 -193t-466 193t-193 466t193 466t466 193t466 -193t193 -466zM1318 687q0 226 -160.5 386.5t-386.5 160.5t-386.5 -160.5t-160.5 -386.5t160.5 -386.5t386.5 -160.5t386.5 160.5t160.5 386.5z" />
    <glyph glyph-name="P" unicode="P" horiz-adv-x="1109" 
d="M997 951q0 -355 -773 -418v-533h-112v1318l60 56q825 -60 825 -423zM885 951q0 251 -661 306v-612q661 55 661 306z" />
    <glyph glyph-name="Q" unicode="Q" horiz-adv-x="1654" 
d="M1542 687q0 -201 -104 -372q-102 -166 -273 -258l323 -339l-81 -77l-351 368q-109 -37 -229 -37q-296 0 -505.5 209.5t-209.5 505.5t209.5 505.5t505.5 209.5t505.5 -209.5t209.5 -505.5zM1430 687q0 249 -177 426t-426 177q-250 0 -426.5 -177t-176.5 -426
q0 -250 176.5 -426.5t426.5 -176.5q72 0 142 17l-207 217l81 77l241 -253q156 74 251 220.5t95 324.5z" />
    <glyph glyph-name="R" unicode="R" horiz-adv-x="1116" 
d="M1004 992q0 -186 -248 -311q-165 -83 -413 -129l649 -473l-66 -90l-702 511v-500h-112v1318l60 56q832 -60 832 -382zM892 992q0 127 -280 202q-163 44 -388 63v-610q230 32 408 102q260 101 260 243z" />
    <glyph glyph-name="S" unicode="S" horiz-adv-x="1200" 
d="M1088 1249l-55 -97q-241 138 -426 138q-151 0 -250 -57q-122 -71 -122 -211q0 -181 218 -241l406 -94q218 -86 218 -329q0 -184 -155 -291q-137 -95 -329 -95q-206 0 -481 106l40 104q250 -98 441 -98q143 0 248 64q124 76 124 210q0 186 -218 248q-203 47 -406 93
q-218 84 -218 323q0 190 153 292q132 88 331 88q213 0 481 -153z" />
    <glyph glyph-name="T" unicode="T" horiz-adv-x="1354" 
d="M1242 1262h-509v-1262h-112v1262h-509v112h1130v-112z" />
    <glyph glyph-name="U" unicode="U" horiz-adv-x="1390" 
d="M1278 587q0 -269 -155 -439q-161 -176 -428 -176t-428 176q-155 170 -155 439v787h112v-787q0 -223 123 -360q128 -143 348 -143t348 143q123 137 123 360v787h112v-787z" />
    <glyph glyph-name="V" unicode="V" horiz-adv-x="1508" 
d="M1396 1342l-591 -1342h-102l-591 1342l103 45l539 -1225l539 1225z" />
    <glyph glyph-name="W" unicode="W" horiz-adv-x="2048" 
d="M1936 1342l-591 -1342h-102l-219 497l-219 -497h-102l-591 1342l103 45l539 -1225l209 474l-311 706l103 45l269 -612l269 612l103 -45l-311 -706l209 -474l539 1225z" />
    <glyph glyph-name="X" unicode="X" horiz-adv-x="1399" 
d="M1287 48l-87 -71l-500 621l-501 -621l-87 71l516 639l-516 639l87 71l501 -621l500 621l87 -71l-515 -639z" />
    <glyph glyph-name="Y" unicode="Y" horiz-adv-x="1387" 
d="M1275 1326l-526 -689v-637h-112v637l-525 689l89 67l492 -645l493 645z" />
    <glyph glyph-name="Z" unicode="Z" horiz-adv-x="1021" 
d="M909 1291l-653 -1179h620v-112h-715l-49 83l653 1179h-620v112h715z" />
    <glyph glyph-name="bracketleft" unicode="[" horiz-adv-x="571" 
d="M459 -232h-291l-56 56v1725l56 57h291v-113h-235v-1613h235v-112z" />
    <glyph glyph-name="backslash" unicode="\" horiz-adv-x="851" 
d="M739 -201l-107 -31l-520 1807l107 31z" />
    <glyph glyph-name="bracketright" unicode="]" horiz-adv-x="571" 
d="M459 -175l-56 -57h-291v113h235v1613h-235v112h291l56 -56v-1725z" />
    <glyph glyph-name="asciicircum" unicode="^" horiz-adv-x="1016" 
d="M904 981l-95 -59l-301 489l-301 -489l-95 59l348 566h96z" />
    <glyph glyph-name="underscore" unicode="_" horiz-adv-x="1130" 
d="M1130 -368h-1130v112h1130v-112z" />
    <glyph glyph-name="grave" unicode="`" horiz-adv-x="540" 
d="M428 1062l-103 -45l-213 493l102 45z" />
    <glyph glyph-name="a" unicode="a" horiz-adv-x="1117" 
d="M1032 29l-101 -47l-152 327h-440l-153 -327l-101 47l423 909h102zM727 421l-168 360l-168 -360h336z" />
    <glyph glyph-name="b" unicode="b" horiz-adv-x="862" 
d="M777 270q0 -235 -633 -270l-59 56v858l59 56q633 -36 633 -271q0 -148 -227 -214q227 -67 227 -215zM665 699q0 73 -195 117q-119 28 -273 38v-310q468 34 468 155zM665 270q0 122 -468 156v-310q468 31 468 154z" />
    <glyph glyph-name="c" unicode="c" horiz-adv-x="999" 
d="M914 48q-156 -67 -279 -67q-220 0 -381 141q-169 147 -169 363t169 363q161 141 381 141q121 0 279 -66l-43 -103q-136 57 -236 57q-173 0 -302 -108q-136 -114 -136 -284t136 -284q129 -108 302 -108q98 0 236 58z" />
    <glyph glyph-name="d" unicode="d" horiz-adv-x="950" 
d="M865 485q0 -280 -188 -395q-148 -91 -446 -91h-90l-56 56v859l56 56h90q298 0 446 -90q188 -115 188 -395zM753 485q0 239 -172 320q-112 53 -384 53v-747h34q252 0 365 61q157 84 157 313z" />
    <glyph glyph-name="e" unicode="e" horiz-adv-x="739" 
d="M654 0h-513l-56 56v858l56 56h513v-112h-457v-317h457v-112h-457v-317h457v-112z" />
    <glyph glyph-name="f" unicode="f" horiz-adv-x="739" 
d="M654 429h-457v-429h-112v914l56 56h513v-112h-457v-317h457v-112z" />
    <glyph glyph-name="g" unicode="g" horiz-adv-x="999" 
d="M914 923l-43 -103q-136 57 -236 57q-173 0 -302 -108q-136 -114 -136 -284t136 -284q129 -108 302 -108q77 0 150 24v244h-206v112h262l56 -56v-339l-34 -52q-108 -45 -228 -45q-220 0 -381 141q-169 147 -169 363t169 363q161 141 381 141q121 0 279 -66z" />
    <glyph glyph-name="h" unicode="h" horiz-adv-x="903" 
d="M818 0h-112v429h-509v-429h-112v970h112v-429h509v429h112v-970z" />
    <glyph glyph-name="i" unicode="i" horiz-adv-x="402" 
d="M257 0h-112v970h112v-970z" />
    <glyph glyph-name="j" unicode="j" horiz-adv-x="448" 
d="M303 145q0 -368 -451 -368h-56v112h56q339 0 339 256v825h112v-825z" />
    <glyph glyph-name="k" unicode="k" horiz-adv-x="827" 
d="M742 175l-67 -89l-478 362v-448h-112v970h112v-396l478 364l67 -89l-443 -338z" />
    <glyph glyph-name="l" unicode="l" horiz-adv-x="844" 
d="M759 0h-618l-56 56v914h112v-858h562v-112z" />
    <glyph glyph-name="m" unicode="m" horiz-adv-x="1067" 
d="M982 0h-112v774l-293 -371h-88l-292 371v-774h-112v935l100 35l348 -442l349 442l100 -35v-935z" />
    <glyph glyph-name="n" unicode="n" horiz-adv-x="874" 
d="M789 90l-101 -34l-491 656v-712h-112v880l101 34l491 -656v712h112v-880z" />
    <glyph glyph-name="o" unicode="o" horiz-adv-x="1187" 
d="M1102 485q0 -200 -156 -336q-150 -130 -353 -130t-352 130q-156 136 -156 336t156 336q149 130 352 130t353 -130q156 -136 156 -336zM990 485q0 153 -124 256q-117 98 -273 98t-273 -98q-123 -103 -123 -256t123 -256q117 -98 273 -98t273 98q124 103 124 256z" />
    <glyph glyph-name="p" unicode="p" horiz-adv-x="862" 
d="M777 665q0 -258 -580 -302v-363h-112v914l60 56q632 -40 632 -305zM665 665q0 152 -468 189v-379q468 39 468 190z" />
    <glyph glyph-name="q" unicode="q" horiz-adv-x="1271" 
d="M1186 485q0 -140 -76 -256q-71 -110 -193 -176l234 -223l-77 -81l-270 257q-84 -25 -169 -25q-220 0 -381 141q-169 147 -169 363t169 363q161 141 381 141t382 -141q169 -147 169 -363zM1074 485q0 170 -137 284q-129 108 -302 108t-302 -108q-136 -114 -136 -284
t136 -284q129 -108 302 -108q38 0 71 5l-139 133l77 81l186 -177q109 48 174 137q70 96 70 213z" />
    <glyph glyph-name="r" unicode="r" horiz-adv-x="867" 
d="M779 79l-62 -94l-520 344v-329h-112v914l60 56q632 -40 632 -305q0 -229 -450 -289zM665 665q0 152 -468 189v-379q468 39 468 190z" />
    <glyph glyph-name="s" unicode="s" horiz-adv-x="937" 
d="M852 877l-51 -99q-191 99 -328 99q-101 0 -171 -32q-94 -43 -94 -132q0 -112 164 -150q152 -32 304 -65q164 -63 164 -237q0 -137 -125 -214q-106 -66 -252 -66q-158 0 -378 77l36 106q200 -71 342 -71q95 0 170 36q95 47 95 132q0 116 -164 154q-152 33 -304 65
q-164 62 -164 233q0 141 124 215q102 61 253 61q163 0 379 -112z" />
    <glyph glyph-name="t" unicode="t" horiz-adv-x="1046" 
d="M961 858h-382v-858h-112v858h-382v112h876v-112z" />
    <glyph glyph-name="u" unicode="u" horiz-adv-x="1073" 
d="M988 417q0 -198 -126.5 -317t-325.5 -119t-325 119t-126 317v553h112v-553q0 -151 95 -239q92 -85 244 -85t246 86.5t94 237.5v553h112v-553z" />
    <glyph glyph-name="v" unicode="v" horiz-adv-x="1172" 
d="M1087 927l-451 -927h-100l-451 927l101 49l400 -824l400 824z" />
    <glyph glyph-name="w" unicode="w" horiz-adv-x="1577" 
d="M1492 927l-451 -927h-100l-152 313l-153 -313h-100l-451 927l101 49l400 -824l140 289l-236 486l101 49l197 -407l198 407l101 -49l-236 -486l140 -289l400 824z" />
    <glyph glyph-name="x" unicode="x" horiz-adv-x="1091" 
d="M1006 51l-84 -74l-376 424l-377 -424l-84 74l386 434l-386 434l84 74l377 -424l376 424l84 -74l-386 -434z" />
    <glyph glyph-name="y" unicode="y" horiz-adv-x="1082" 
d="M997 919l-400 -475v-444h-112v444l-400 475l86 72l370 -440l370 440z" />
    <glyph glyph-name="z" unicode="z" horiz-adv-x="790" 
d="M705 885l-472 -773h450v-112h-550l-48 85l472 773h-450v112h550z" />
    <glyph glyph-name="braceleft" unicode="{" horiz-adv-x="804" 
d="M692 -121l-17 -111q-453 70 -453 348q0 52 25.5 152t25.5 152q0 114 -161 220v94q161 106 161 220q0 52 -25.5 152t-25.5 152q0 278 453 348l17 -111q-358 -55 -358 -237q0 -52 25.5 -152t25.5 -152q0 -151 -146 -267q146 -116 146 -267q0 -52 -25.5 -152t-25.5 -152
q0 -182 358 -237z" />
    <glyph glyph-name="bar" unicode="|" horiz-adv-x="336" 
d="M224 -232h-112v1838h112v-1838z" />
    <glyph glyph-name="braceright" unicode="}" horiz-adv-x="804" 
d="M692 640q-161 -106 -161 -220q0 -52 25.5 -152t25.5 -152q0 -278 -453 -348l-17 111q358 55 358 237q0 52 -25.5 152t-25.5 152q0 151 146 267q-146 116 -146 267q0 52 25.5 152t25.5 152q0 182 -358 237l17 111q453 -70 453 -348q0 -52 -25.5 -152t-25.5 -152
q0 -114 161 -220v-94z" />
    <glyph glyph-name="asciitilde" unicode="~" horiz-adv-x="1244" 
d="M1132 710q0 -89 -60 -154.5t-148 -65.5q-99 0 -272.5 121t-277.5 121q-63 0 -105 -36q-45 -38 -45 -99v-56h-112v56q0 108 78 179q75 68 184 68q104 0 218 -63q10 -5 179 -116q96 -63 153 -63q42 0 70 34q26 31 26 74v56h112v-56z" />
    <glyph glyph-name="delete_Cc" horiz-adv-x="1369" 
d="M1287 0h-1205v1698h1205v-1698zM1205 82v1534h-1041v-1534h1041zM1005 1200h-641v97h554v249h87v-346zM1005 741h-641v346h87v-251h164v233h87v-233h216v251h87v-346zM1005 212h-641v174q0 66 12 108q28 92 120 141q80 43 189 43q110 0 194 -48q97 -56 118 -157
q8 -39 8 -92v-169zM922 309v56q0 51 -6 77q-35 135 -232 135q-201 0 -233 -141q-5 -24 -5 -71v-56h476z" />
    <glyph glyph-name="nonbreakingspace" unicode="&#xa0;" horiz-adv-x="512" 
 />
    <glyph glyph-name="exclamdown" unicode="&#xa1;" horiz-adv-x="418" 
d="M306 1276q0 -40 -29 -68t-69 -28t-68 28t-28 68t28 69t68 29t69 -29t29 -69zM265 0h-112v990h112v-990z" />
    <glyph glyph-name="cent" unicode="&#xa2;" horiz-adv-x="999" 
d="M914 48q-156 -67 -279 -67v-213h-112v224q-185 36 -308 167q-130 139 -130 326t130 326q123 131 308 167v224h112v-213q121 0 279 -66l-43 -103q-136 57 -236 57v-784q98 0 236 58zM523 106v758q-139 -34 -229 -133q-97 -106 -97 -246t97 -246q90 -99 229 -133z" />
    <glyph glyph-name="sterling" unicode="&#xa3;" horiz-adv-x="1184" 
d="M1072 0h-911l-23 107q102 46 188 115q117 93 117 171q0 51 -86 134q-126 123 -159 169q-86 117 -86 250q0 215 158 341q146 115 367 115q117 0 205 -28q74 -24 187 -89l-55 -97q-100 58 -160 78q-75 24 -177 24q-174 0 -287 -83q-126 -93 -126 -261q0 -110 86 -212
q79 -80 159 -161q86 -92 86 -180q0 -144 -187 -281h704v-112z" />
    <glyph glyph-name="currency" unicode="&#xa4;" horiz-adv-x="1139" 
d="M1027 309l-79 -79l-138 138q-104 -76 -233 -76q-134 0 -241 83l-145 -145l-79 79l146 146q-76 104 -76 232t76 232l-146 146l79 79l145 -145q107 83 241 83q129 0 233 -76l138 138l79 -79l-137 -137q82 -106 82 -241t-82 -241zM880 687q0 125 -89 214t-214 89t-214 -89
t-89 -214t89 -214t214 -89t214 89t89 214z" />
    <glyph glyph-name="yen" unicode="&#xa5;" horiz-adv-x="1387" 
d="M1275 1326l-445 -583h322v-112h-403v-631h-112v631h-402v112h321l-444 583l89 67l492 -645l493 645z" />
    <glyph glyph-name="brokenbar" unicode="&#xa6;" horiz-adv-x="336" 
d="M224 818h-112v788h112v-788zM224 -232h-112v788h112v-788z" />
    <glyph glyph-name="section" unicode="&#xa7;" horiz-adv-x="1017" 
d="M905 1299l-90 -67q-73 101 -127 140q-74 53 -180 53q-90 0 -164 -31q-98 -41 -98 -117q0 -103 165 -261q153 -141 307 -282q165 -172 165 -307q0 -155 -176 -222q176 -178 176 -318q0 -129 -129 -201q-105 -59 -246 -59q-133 0 -229 64q-76 51 -167 174l90 67
q75 -102 127 -140q74 -53 179 -53q90 0 164 31q99 41 99 117q0 102 -165 260q-153 142 -307 283q-165 172 -165 307q0 154 176 222q-176 179 -176 318q0 130 128 201q105 59 246 59q133 0 230 -65q76 -51 167 -173zM771 427q0 95 -147 244l-224 202q-154 -36 -154 -136
q0 -95 146 -243l224 -202q155 40 155 135z" />
    <glyph glyph-name="dieresis" unicode="&#xa8;" horiz-adv-x="1154" 
d="M869 1271q0 -40 -28 -69t-68 -29t-69 29t-29 69t29 68t69 28t68 -28t28 -68zM479 1271q0 -40 -28 -69t-68 -29t-69 29t-29 69t29 68t69 28t68 -28t28 -68z" />
    <glyph glyph-name="copyright" unicode="&#xa9;" horiz-adv-x="1754" 
d="M1642 541q0 -318 -223.5 -541.5t-541.5 -223.5t-541.5 223.5t-223.5 541.5t223.5 541.5t541.5 223.5t541.5 -223.5t223.5 -541.5zM1530 541q0 272 -190.5 462.5t-462.5 190.5t-462.5 -190.5t-190.5 -462.5t190.5 -462.5t462.5 -190.5t462.5 190.5t190.5 462.5zM1196 104
q-156 -67 -279 -67q-220 0 -381 141q-169 147 -169 363t169 363q161 141 381 141q121 0 279 -66l-43 -103q-136 57 -236 57q-173 0 -302 -108q-136 -114 -136 -284t136 -284q129 -108 302 -108q98 0 236 58z" />
    <glyph glyph-name="ordfeminine" unicode="&#xaa;" horiz-adv-x="1041" 
d="M956 782l-100 -52l-139 267h-393l-139 -267l-100 52l386 736h100zM658 1109l-137 262l-138 -262h275z" />
    <glyph glyph-name="guillemotleft" unicode="&#xab;" horiz-adv-x="1121" 
d="M1009 309l-79 -79l-418 417v80l418 417l79 -79l-378 -378zM609 309l-79 -79l-418 417v80l418 417l79 -79l-378 -378z" />
    <glyph glyph-name="logicalnot" unicode="&#xac;" horiz-adv-x="1288" 
d="M1176 0h-112v631h-952v112h1008l56 -56v-687z" />
    <glyph glyph-name="sfthyphen" unicode="&#xad;" horiz-adv-x="0" 
 />
    <glyph glyph-name="registered" unicode="&#xae;" horiz-adv-x="1754" 
d="M1642 541q0 -318 -223.5 -541.5t-541.5 -223.5t-541.5 223.5t-223.5 541.5t223.5 541.5t541.5 223.5t541.5 -223.5t223.5 -541.5zM1530 541q0 272 -190.5 462.5t-462.5 190.5t-462.5 -190.5t-190.5 -462.5t190.5 -462.5t462.5 -190.5t462.5 190.5t190.5 462.5zM1261 135
l-62 -94l-520 344v-329h-112v914l60 56q632 -40 632 -305q0 -229 -450 -289zM1147 721q0 152 -468 189v-379q468 39 468 190z" />
    <glyph glyph-name="overscore" unicode="&#xaf;" horiz-adv-x="1130" 
d="M1130 1420h-1130v112h1130v-112z" />
    <glyph glyph-name="degree" unicode="&#xb0;" horiz-adv-x="854" 
d="M742 1087q0 -130 -92.5 -222.5t-222.5 -92.5t-222.5 92.5t-92.5 222.5t92.5 222.5t222.5 92.5t222.5 -92.5t92.5 -222.5zM630 1087q0 84 -59.5 143.5t-143.5 59.5t-143.5 -59.5t-59.5 -143.5t59.5 -143.5t143.5 -59.5t143.5 59.5t59.5 143.5z" />
    <glyph glyph-name="plusminus" unicode="&#xb1;" horiz-adv-x="1206" 
d="M1094 631h-435v-435h-112v435h-435v112h435v435h112v-435h435v-112zM1094 0h-982v112h982v-112z" />
    <glyph glyph-name="twosuperior" unicode="&#xb2;" horiz-adv-x="787" 
d="M702 1322q0 -79 -60 -152q-34 -42 -123 -114l-241 -194h404v-112h-562l-35 100q141 110 417 337q88 77 88 135t-62 96q-54 34 -116 34q-82 0 -134 -36q-59 -41 -59 -120v-56h-112v56q0 127 91 200q84 68 214 68q110 0 196 -65q94 -71 94 -177z" />
    <glyph glyph-name="threesuperior" unicode="&#xb3;" horiz-adv-x="801" 
d="M716 980q0 -122 -109 -189q-91 -56 -221 -56q-257 0 -301 278l110 18q29 -184 191 -184q79 0 139 28q79 35 79 105t-72 109q-57 30 -135 34l-5 111q57 9 100 38q54 35 54 86q0 45 -56 72q-46 22 -97 22q-74 0 -106 -36q-27 -31 -38 -107l-111 17q3 19 9 56q17 88 88 137
q66 45 158 45q101 0 178 -51q87 -59 87 -155q0 -100 -84 -165q142 -68 142 -213z" />
    <glyph glyph-name="acute" unicode="&#xb4;" horiz-adv-x="1154" 
d="M680 1471l-122 -335l-84 24l90 346z" />
    <glyph glyph-name="mu1" unicode="&#xb5;" horiz-adv-x="1067" 
d="M982 0h-112v774l-293 -371h-88l-292 371v-774h-112v935l100 35l348 -442l349 442l100 -35v-935z" />
    <glyph glyph-name="paragraph" unicode="&#xb6;" horiz-adv-x="1168" 
d="M1056 -373h-112v1798h-225v-1798h-112v1136h-108q-160 0 -273.5 113.5t-113.5 273.5t113.5 273.5t273.5 113.5h501l56 -56v-1854z" />
    <glyph glyph-name="middot" unicode="&#xb7;" horiz-adv-x="480" 
d="M368 808q0 -53 -37.5 -90t-90.5 -37t-90.5 37t-37.5 90t37.5 90t90.5 37t90.5 -37t37.5 -90z" />
    <glyph glyph-name="cedilla" unicode="&#xb8;" horiz-adv-x="1155" 
d="M696 -263q0 -82 -62 -128q-56 -41 -141 -41h-28v55q138 -1 138 88q0 107 -144 99v104h26q88 0 146 -44q65 -48 65 -133z" />
    <glyph glyph-name="onesuperior" unicode="&#xb9;" horiz-adv-x="491" 
d="M406 750h-112v686h-209v112h265l56 -56v-742z" />
    <glyph glyph-name="ordmasculine" unicode="&#xba;" horiz-adv-x="1097" 
d="M1012 1149q0 -171 -150 -283q-137 -101 -314 -101t-313 101q-150 112 -150 283t150 283q136 101 313 101t314 -101q150 -112 150 -283zM900 1149q0 123 -118 202q-105 70 -234 70t-233 -70q-118 -79 -118 -202t118 -202q104 -70 233 -70t234 70q118 79 118 202z" />
    <glyph glyph-name="guillemotright" unicode="&#xbb;" horiz-adv-x="1121" 
d="M1009 647l-418 -417l-79 79l378 378l-378 378l79 79l418 -417v-80zM609 647l-418 -417l-79 79l378 378l-378 378l79 79l418 -417v-80z" />
    <glyph glyph-name="onequarter" unicode="&#xbc;" horiz-adv-x="1580" 
d="M406 750h-112v686h-209v112h265l56 -56v-742zM1381 1295l-1129 -1504l-90 68l1129 1504zM1495 -253h-147v-147h-112v147h-408l-43 91l464 571l99 -35v-515h147v-112zM1236 -141v357l-290 -357h290z" />
    <glyph glyph-name="onehalf" unicode="&#xbd;" horiz-adv-x="1487" 
d="M406 750h-112v686h-209v112h265l56 -56v-742zM1311 1295l-1129 -1504l-90 68l1129 1504zM1402 172q0 -79 -60 -152q-34 -42 -123 -114l-241 -194h404v-112h-562l-35 100q141 110 417 337q88 77 88 135t-62 96q-54 34 -116 34q-82 0 -134 -36q-59 -41 -59 -120v-56h-112
v56q0 127 91 200q84 68 214 68q110 0 196 -65q94 -71 94 -177z" />
    <glyph glyph-name="threequarters" unicode="&#xbe;" horiz-adv-x="1580" 
d="M716 980q0 -122 -109 -189q-91 -56 -221 -56q-257 0 -301 278l110 18q29 -184 191 -184q79 0 139 28q79 35 79 105t-72 109q-57 30 -135 34l-5 111q57 9 100 38q54 35 54 86q0 45 -56 72q-46 22 -97 22q-74 0 -106 -36q-27 -31 -38 -107l-111 17q3 19 9 56q17 87 88 137
q66 45 158 45q101 0 178 -51q87 -59 87 -155q0 -100 -84 -165q142 -68 142 -213zM1431 1295l-1129 -1504l-90 68l1129 1504zM1495 -253h-147v-147h-112v147h-408l-43 91l464 571l99 -35v-515h147v-112zM1236 -141v357l-290 -357h290z" />
    <glyph glyph-name="questiondown" unicode="&#xbf;" horiz-adv-x="849" 
d="M737 1285q0 -40 -29 -68t-69 -28t-68 28t-28 68t28 69t68 29t69 -29t29 -69zM702 112l-12 -112q-218 23 -376 116q-202 118 -202 309q0 147 97 232q93 80 242 80q67 0 133 -18v280h112v-360l-80 -51q-80 37 -165 37q-227 0 -227 -200q0 -140 177 -229q131 -66 301 -84z
" />
    <glyph glyph-name="multiply" unicode="&#xd7;" horiz-adv-x="1139" 
d="M1027 309l-79 -79l-379 378l-378 -378l-79 79l378 378l-378 378l79 79l378 -378l379 378l79 -79l-378 -378z" />
    <glyph glyph-name="divide" unicode="&#xf7;" horiz-adv-x="1206" 
d="M700 1101q0 -40 -28 -69t-68 -29t-69 29t-29 69t29 68t69 28t68 -28t28 -68zM1094 631h-982v112h982v-112zM700 275q0 -40 -28 -69t-68 -29t-69 29t-29 69t29 68t69 28t68 -28t28 -68z" />
    <glyph glyph-name="florin" unicode="&#x192;" horiz-adv-x="945" 
d="M833 631h-609v-631h-112v687q0 301 154 498q168 216 461 216h56v-112h-56q-231 0 -366 -164q-121 -147 -135 -382h607v-112z" />
    <glyph glyph-name="turnedcomma" unicode="&#x2018;" horiz-adv-x="452" 
d="M340 882h-47q-128 0 -207 60q-86 67 -86 192q0 116 85 181q77 59 196 59h40v-55q-205 2 -205 -175q0 -79 76 -119q60 -31 148 -31v-112z" />
    <glyph glyph-name="turnedcomma" unicode="&#x2bb;" horiz-adv-x="452" 
d="M340 882h-47q-128 0 -207 60q-86 67 -86 192q0 116 85 181q77 59 196 59h40v-55q-205 2 -205 -175q0 -79 76 -119q60 -31 148 -31v-112z" />
    <glyph glyph-name="apostrophe" unicode="&#x2019;" horiz-adv-x="452" 
d="M452 1122q0 -116 -85 -181q-77 -59 -196 -59h-40v55q205 -2 205 175q0 79 -76 119q-60 31 -148 31v112h47q128 0 207 -60q86 -67 86 -192z" />
    <glyph glyph-name="apostrophe" unicode="&#x2bc;" horiz-adv-x="452" 
d="M452 1122q0 -116 -85 -181q-77 -59 -196 -59h-40v55q205 -2 205 175q0 79 -76 119q-60 31 -148 31v112h47q128 0 207 -60q86 -67 86 -192z" />
    <glyph glyph-name="Heta" unicode="&#x370;" horiz-adv-x="1154" 
d="M1042 631h-818v-631h-112v1374h112v-631h818v-112z" />
    <glyph glyph-name="heta" unicode="&#x371;" horiz-adv-x="896" 
d="M811 429h-614v-429h-112v970h112v-429h614v-112z" />
    <glyph glyph-name="Sampiarchaic" unicode="&#x372;" horiz-adv-x="1354" 
d="M1242 720h-112v542h-397v-1262h-112v1262h-397v-542h-112v598l56 56h1018l56 -56v-598z" />
    <glyph glyph-name="sampiarchaic" unicode="&#x373;" horiz-adv-x="1046" 
d="M961 490h-112v368h-270v-858h-112v858h-270v-368h-112v424l56 56h764l56 -56v-424z" />
    <glyph glyph-name="dexiakeraia" unicode="&#x374;" horiz-adv-x="540" 
d="M428 1510l-213 -493l-103 45l214 493z" />
    <glyph glyph-name="aristerikeraia" unicode="&#x375;" horiz-adv-x="540" 
d="M428 51l-213 -493l-103 45l214 493z" />
    <glyph glyph-name="Digammapamphylian" unicode="&#x376;" horiz-adv-x="1125" 
d="M1013 0h-112v1123l-686 -1097l-103 30v1318h112v-1123l686 1097l103 -30v-1318z" />
    <glyph glyph-name="digammapamphylian" unicode="&#x377;" horiz-adv-x="874" 
d="M789 0h-112v734l-490 -710l-102 32v914h112v-734l490 710l102 -32v-914z" />
    <glyph glyph-name="iotasub" unicode="&#x37a;" horiz-adv-x="336" 
d="M224 -434h-112v402h112v-402z" />
    <glyph glyph-name="antisigma" unicode="&#x37b;" horiz-adv-x="999" 
d="M914 485q0 -216 -169 -363q-161 -141 -381 -141q-123 0 -279 67l43 103q138 -58 236 -58q173 0 302 108q136 114 136 284t-136 284q-129 108 -302 108q-100 0 -236 -57l-43 103q158 66 279 66q220 0 381 -141q169 -147 169 -363z" />
    <glyph glyph-name="sigma_periestigmenon" unicode="&#x37c;" horiz-adv-x="999" 
d="M914 48q-156 -67 -279 -67q-220 0 -381 141q-169 147 -169 363t169 363q161 141 381 141q121 0 279 -66l-43 -103q-136 57 -236 57q-173 0 -302 -108q-136 -114 -136 -284t136 -284q129 -108 302 -108q98 0 236 58zM736 485q0 -40 -28 -69t-68 -29t-69 29t-29 69t29 68
t69 28t68 -28t28 -68z" />
    <glyph glyph-name="antisigma_periestigmenon" unicode="&#x37d;" horiz-adv-x="999" 
d="M914 485q0 -216 -169 -363q-161 -141 -381 -141q-123 0 -279 67l43 103q138 -58 236 -58q173 0 302 108q136 114 136 284t-136 284q-129 108 -302 108q-100 0 -236 -57l-43 103q158 66 279 66q220 0 381 -141q169 -147 169 -363zM457 485q0 -40 -28 -69t-68 -29t-69 29
t-29 69t29 68t69 28t68 -28t28 -68z" />
    <glyph glyph-name="erotimatiko" unicode="&#x37e;" horiz-adv-x="540" 
d="M367 808q0 -40 -28 -69t-68 -29t-69 29t-29 69t29 68t69 28t68 -28t28 -68zM428 51l-213 -493l-103 45l214 493z" />
    <glyph glyph-name="tonos" unicode="&#x384;" horiz-adv-x="1154" 
d="M680 1471l-122 -335l-84 24l90 346z" />
    <glyph glyph-name="dieresistonos" unicode="&#x385;" horiz-adv-x="1154" 
d="M732 1571l-122 -335l-84 24l90 346zM869 1191q0 -40 -28 -69t-68 -29t-69 29t-29 69t29 68t69 28t68 -28t28 -68zM479 1191q0 -40 -28 -69t-68 -29t-69 29t-29 69t29 68t69 28t68 -28t28 -68z" />
    <glyph glyph-name="Alphatonos" unicode="&#x386;" horiz-adv-x="1437" 
d="M1325 26l-103 -43l-200 472h-607l-200 -472l-103 43l555 1314h103zM975 567l-257 607l-256 -607h513zM350 1361l-122 -335l-84 24l90 346z" />
    <glyph glyph-name="anoteleia" unicode="&#x387;" horiz-adv-x="418" 
d="M306 808q0 -40 -28 -69t-68 -29t-69 29t-29 69t29 68t69 28t68 -28t28 -68z" />
    <glyph glyph-name="Epsilontonos" unicode="&#x388;" horiz-adv-x="1271" 
d="M1159 0h-665l-56 56v1262l56 56h665v-112h-609v-519h609v-112h-609v-519h609v-112zM206 1361l-122 -335l-84 24l90 346z" />
    <glyph glyph-name="Etatonos" unicode="&#x389;" horiz-adv-x="1490" 
d="M1378 0h-112v631h-716v-631h-112v1374h112v-631h716v631h112v-1374zM206 1361l-122 -335l-84 24l90 346z" />
    <glyph glyph-name="Iotatonos" unicode="&#x38a;" horiz-adv-x="742" 
d="M550 0h-112v1374h112v-1374zM206 1361l-122 -335l-84 24l90 346z" />
    <glyph glyph-name="Omicrontonos" unicode="&#x38c;" horiz-adv-x="1678" 
d="M1566 687q0 -273 -193 -466t-466 -193t-466 193t-193 466t193 466t466 193t466 -193t193 -466zM1454 687q0 226 -160.5 386.5t-386.5 160.5t-386.5 -160.5t-160.5 -386.5t160.5 -386.5t386.5 -160.5t386.5 160.5t160.5 386.5zM206 1361l-122 -335l-84 24l90 346z" />
    <glyph glyph-name="Upsilontonos" unicode="&#x38e;" horiz-adv-x="1683" 
d="M1571 1326l-526 -689v-637h-112v637l-525 689l89 67l492 -645l493 645zM206 1361l-122 -335l-84 24l90 346z" />
    <glyph glyph-name="Omegatonos" unicode="&#x38f;" horiz-adv-x="1923" 
d="M1811 82l-49 -101l-355 173l-13 91q193 179 193 442q0 249 -176.5 426t-425.5 177t-426 -177t-177 -426q0 -263 193 -442l-14 -91l-354 -173l-49 101l285 139q-173 201 -173 466q0 296 209.5 505.5t505.5 209.5t505 -209.5t209 -505.5q0 -265 -173 -466zM206 1361
l-122 -335l-84 24l90 346z" />
    <glyph glyph-name="iotadieresistonos" unicode="&#x390;" horiz-adv-x="402" 
d="M257 0h-112v970h112v-970zM352 1571l-122 -335l-84 24l90 346zM489 1191q0 -40 -28 -69t-68 -29t-69 29t-29 69t29 68t69 28t68 -28t28 -68zM99 1191q0 -40 -28 -69t-68 -29t-69 29t-29 69t29 68t69 28t68 -28t28 -68z" />
    <glyph glyph-name="Alpha" unicode="&#x391;" horiz-adv-x="1437" 
d="M1325 26l-103 -43l-200 472h-607l-200 -472l-103 43l555 1314h103zM975 567l-257 607l-256 -607h513z" />
    <glyph glyph-name="Beta" unicode="&#x392;" horiz-adv-x="1109" 
d="M997 371q0 -317 -825 -371l-60 56v1262l60 56q825 -54 825 -372q0 -226 -380 -315q380 -90 380 -316zM885 1002q0 209 -661 256v-512q661 45 661 256zM885 371q0 210 -661 257v-512q661 47 661 255z" />
    <glyph glyph-name="Gamma" unicode="&#x393;" horiz-adv-x="1085" 
d="M973 1262h-749v-1262h-112v1318l56 56h805v-112z" />
    <glyph glyph-name="Delta" unicode="&#x394;" horiz-adv-x="1394" 
d="M1282 78l-52 -78h-1066l-52 78l533 1262h104zM1146 112l-449 1062l-449 -1062h898z" />
    <glyph glyph-name="Epsilon" unicode="&#x395;" horiz-adv-x="945" 
d="M833 0h-665l-56 56v1262l56 56h665v-112h-609v-519h609v-112h-609v-519h609v-112z" />
    <glyph glyph-name="Zeta" unicode="&#x396;" horiz-adv-x="1021" 
d="M909 1291l-653 -1179h620v-112h-715l-49 83l653 1179h-620v112h715z" />
    <glyph glyph-name="Eta" unicode="&#x397;" horiz-adv-x="1164" 
d="M1052 0h-112v631h-716v-631h-112v1374h112v-631h716v631h112v-1374z" />
    <glyph glyph-name="Theta" unicode="&#x398;" horiz-adv-x="1654" 
d="M1542 687q0 -296 -209.5 -505.5t-505.5 -209.5t-505.5 209.5t-209.5 505.5t209.5 505.5t505.5 209.5t505.5 -209.5t209.5 -505.5zM1430 687q0 249 -177 426t-426 177q-250 0 -426.5 -177t-176.5 -426t177 -426t426 -177q250 0 426.5 177t176.5 426zM1227 631h-800v112
h800v-112z" />
    <glyph glyph-name="Iota" unicode="&#x399;" horiz-adv-x="496" 
d="M304 0h-112v1374h112v-1374z" />
    <glyph glyph-name="Kappa" unicode="&#x39a;" horiz-adv-x="1056" 
d="M944 222l-72 -86l-648 543v-679h-112v1374h112v-603l648 547l72 -86l-601 -507z" />
    <glyph glyph-name="Lambda" unicode="&#x39b;" horiz-adv-x="1437" 
d="M1325 26l-103 -43l-504 1191l-503 -1191l-103 43l555 1314h103z" />
    <glyph glyph-name="Mu" unicode="&#x39c;" horiz-adv-x="1382" 
d="M1270 0h-112v1153l-421 -589h-92l-421 589v-1153h-112v1328l102 33l477 -668l477 668l102 -33v-1328z" />
    <glyph glyph-name="Nu" unicode="&#x39d;" horiz-adv-x="1125" 
d="M1013 106l-102 -31l-687 1011v-1086h-112v1268l102 31l687 -1011v1086h112v-1268z" />
    <glyph glyph-name="Xi" unicode="&#x39e;" horiz-adv-x="1354" 
d="M1242 1262h-1130v112h1130v-112zM1042 631h-730v112h730v-112zM1242 0h-1130v112h1130v-112z" />
    <glyph glyph-name="Omicron" unicode="&#x39f;" horiz-adv-x="1542" 
d="M1430 687q0 -273 -193 -466t-466 -193t-466 193t-193 466t193 466t466 193t466 -193t193 -466zM1318 687q0 226 -160.5 386.5t-386.5 160.5t-386.5 -160.5t-160.5 -386.5t160.5 -386.5t386.5 -160.5t386.5 160.5t160.5 386.5z" />
    <glyph glyph-name="Pi" unicode="&#x3a0;" horiz-adv-x="1164" 
d="M1052 0h-112v1262h-716v-1262h-112v1318l56 56h828l56 -56v-1318z" />
    <glyph glyph-name="Rho" unicode="&#x3a1;" horiz-adv-x="1109" 
d="M997 951q0 -355 -773 -418v-533h-112v1318l60 56q825 -60 825 -423zM885 951q0 251 -661 306v-612q661 55 661 306z" />
    <glyph glyph-name="Sigma" unicode="&#x3a3;" horiz-adv-x="1128" 
d="M1016 0h-857l-47 86l389 601l-389 601l47 86h857v-112h-754l353 -545v-60l-353 -545h754v-112z" />
    <glyph glyph-name="Tau" unicode="&#x3a4;" horiz-adv-x="1354" 
d="M1242 1262h-509v-1262h-112v1262h-509v112h1130v-112z" />
    <glyph glyph-name="Upsilon" unicode="&#x3a5;" horiz-adv-x="1387" 
d="M1275 1326l-526 -689v-637h-112v637l-525 689l89 67l492 -645l493 645z" />
    <glyph glyph-name="Phi" unicode="&#x3a6;" horiz-adv-x="1453" 
d="M1341 600q0 -239 -161 -415t-397 -197v-243h-112v243q-236 21 -397.5 197t-161.5 415t161.5 414.5t397.5 196.5v163h112v-163q236 -21 397 -196.5t161 -414.5zM1229 600q0 193 -128.5 335.5t-317.5 163.5v-999q189 21 317.5 164t128.5 336zM671 100v999
q-189 -21 -318 -163.5t-129 -335.5t129 -336t318 -164z" />
    <glyph glyph-name="Chi" unicode="&#x3a7;" horiz-adv-x="1399" 
d="M1287 48l-87 -71l-500 621l-501 -621l-87 71l516 639l-516 639l87 71l501 -621l500 621l87 -71l-515 -639z" />
    <glyph glyph-name="Psi" unicode="&#x3a8;" horiz-adv-x="1542" 
d="M1430 1365q-69 -725 -603 -763v-602h-112v602q-525 37 -603 763l112 12q66 -627 491 -663v660h112v-660q424 36 491 663z" />
    <glyph glyph-name="Omega" unicode="&#x3a9;" horiz-adv-x="1877" 
d="M1765 82l-49 -101l-355 173l-13 91q193 179 193 442q0 249 -176.5 426t-425.5 177t-426 -177t-177 -426q0 -263 193 -442l-14 -91l-354 -173l-49 101l285 139q-173 201 -173 466q0 296 209.5 505.5t505.5 209.5t505 -209.5t209 -505.5q0 -265 -173 -466z" />
    <glyph glyph-name="Iotadieresis" unicode="&#x3aa;" horiz-adv-x="564" 
d="M338 0h-112v1374h112v-1374zM574 1510q0 -40 -28 -69t-68 -29t-69 29t-29 69t29 68t69 28t68 -28t28 -68zM184 1510q0 -40 -28 -69t-68 -29t-69 29t-29 69t29 68t69 28t68 -28t28 -68z" />
    <glyph glyph-name="Upsilondieresis" unicode="&#x3ab;" horiz-adv-x="1387" 
d="M1275 1326l-526 -689v-637h-112v637l-525 689l89 67l492 -645l493 645zM986 1510q0 -40 -28 -69t-68 -29t-69 29t-29 69t29 68t69 28t68 -28t28 -68zM596 1510q0 -40 -28 -69t-68 -29t-69 29t-29 69t29 68t69 28t68 -28t28 -68z" />
    <glyph glyph-name="alphatonos" unicode="&#x3ac;" horiz-adv-x="1117" 
d="M1032 29l-101 -47l-152 327h-440l-153 -327l-101 47l423 909h102zM727 421l-168 360l-168 -360h336zM720 1471l-122 -335l-84 24l90 346z" />
    <glyph glyph-name="epsilontonos" unicode="&#x3ad;" horiz-adv-x="739" 
d="M654 0h-513l-56 56v858l56 56h513v-112h-457v-317h457v-112h-457v-317h457v-112zM540 1471l-122 -335l-84 24l90 346z" />
    <glyph glyph-name="etatonos" unicode="&#x3ae;" horiz-adv-x="903" 
d="M818 0h-112v429h-509v-429h-112v970h112v-429h509v429h112v-970zM590 1471l-122 -335l-84 24l90 346z" />
    <glyph glyph-name="iotatonos" unicode="&#x3af;" horiz-adv-x="402" 
d="M257 0h-112v970h112v-970zM340 1471l-122 -335l-84 24l90 346z" />
    <glyph glyph-name="upsilondieresistonos" unicode="&#x3b0;" horiz-adv-x="1082" 
d="M997 919l-400 -475v-444h-112v444l-400 475l86 72l370 -440l370 440zM702 1571l-122 -335l-84 24l90 346zM839 1191q0 -40 -28 -69t-68 -29t-69 29t-29 69t29 68t69 28t68 -28t28 -68zM449 1191q0 -40 -28 -69t-68 -29t-69 29t-29 69t29 68t69 28t68 -28t28 -68z" />
    <glyph glyph-name="alpha" unicode="&#x3b1;" horiz-adv-x="1117" 
d="M1032 29l-101 -47l-152 327h-440l-153 -327l-101 47l423 909h102zM727 421l-168 360l-168 -360h336z" />
    <glyph glyph-name="beta" unicode="&#x3b2;" horiz-adv-x="862" 
d="M777 270q0 -235 -633 -270l-59 56v858l59 56q633 -36 633 -271q0 -148 -227 -214q227 -67 227 -215zM665 699q0 73 -195 117q-119 28 -273 38v-310q468 34 468 155zM665 270q0 122 -468 156v-310q468 31 468 154z" />
    <glyph glyph-name="gamma" unicode="&#x3b3;" horiz-adv-x="844" 
d="M759 858h-562v-858h-112v914l56 56h618v-112z" />
    <glyph glyph-name="delta" unicode="&#x3b4;" horiz-adv-x="1175" 
d="M1090 82l-50 -82h-905l-50 82l453 858h100zM947 112l-359 682l-360 -682h719z" />
    <glyph glyph-name="epsilon" unicode="&#x3b5;" horiz-adv-x="739" 
d="M654 0h-513l-56 56v858l56 56h513v-112h-457v-317h457v-112h-457v-317h457v-112z" />
    <glyph glyph-name="zeta" unicode="&#x3b6;" horiz-adv-x="790" 
d="M705 885l-472 -773h450v-112h-550l-48 85l472 773h-450v112h550z" />
    <glyph glyph-name="eta" unicode="&#x3b7;" horiz-adv-x="903" 
d="M818 0h-112v429h-509v-429h-112v970h112v-429h509v429h112v-970z" />
    <glyph glyph-name="theta" unicode="&#x3b8;" horiz-adv-x="1271" 
d="M1186 485q0 -216 -169 -363q-162 -141 -382 -141t-381 141q-169 147 -169 363t169 363q161 141 381 141t382 -141q169 -147 169 -363zM1074 485q0 170 -137 284q-129 108 -302 108t-302 -108q-136 -114 -136 -284t136 -284q129 -108 302 -108t302 108q137 114 137 284z
M949 429h-628v112h628v-112z" />
    <glyph glyph-name="iota" unicode="&#x3b9;" horiz-adv-x="402" 
d="M257 0h-112v970h112v-970z" />
    <glyph glyph-name="kappa" unicode="&#x3ba;" horiz-adv-x="827" 
d="M742 175l-67 -89l-478 362v-448h-112v970h112v-396l478 364l67 -89l-443 -338z" />
    <glyph glyph-name="lambda" unicode="&#x3bb;" horiz-adv-x="1117" 
d="M1032 29l-101 -47l-372 799l-373 -799l-101 47l423 909h102z" />
    <glyph glyph-name="mu" unicode="&#x3bc;" horiz-adv-x="1067" 
d="M982 0h-112v774l-293 -371h-88l-292 371v-774h-112v935l100 35l348 -442l349 442l100 -35v-935z" />
    <glyph glyph-name="nu" unicode="&#x3bd;" horiz-adv-x="874" 
d="M789 90l-101 -34l-491 656v-712h-112v880l101 34l491 -656v712h112v-880z" />
    <glyph glyph-name="xi" unicode="&#x3be;" horiz-adv-x="1046" 
d="M961 858h-876v112h876v-112zM811 429h-576v112h576v-112zM961 0h-876v112h876v-112z" />
    <glyph glyph-name="omicron" unicode="&#x3bf;" horiz-adv-x="1187" 
d="M1102 485q0 -200 -156 -336q-150 -130 -353 -130t-352 130q-156 136 -156 336t156 336q149 130 352 130t353 -130q156 -136 156 -336zM990 485q0 153 -124 256q-117 98 -273 98t-273 -98q-123 -103 -123 -256t123 -256q117 -98 273 -98t273 98q124 103 124 256z" />
    <glyph glyph-name="pi" unicode="&#x3c0;" horiz-adv-x="903" 
d="M818 0h-112v858h-509v-858h-112v914l56 56h621l56 -56v-914z" />
    <glyph glyph-name="rho" unicode="&#x3c1;" horiz-adv-x="862" 
d="M777 665q0 -258 -580 -302v-363h-112v914l60 56q632 -40 632 -305zM665 665q0 152 -468 189v-379q468 39 468 190z" />
    <glyph glyph-name="sigma1" unicode="&#x3c2;" horiz-adv-x="873" 
d="M788 91l-25 -109l-655 148l-23 99l326 256l-326 256l23 99l655 148l25 -109l-541 -123l290 -227v-88l-290 -227z" />
    <glyph glyph-name="sigma" unicode="&#x3c3;" horiz-adv-x="873" 
d="M788 0h-657l-46 89l284 396l-284 396l46 89h657v-112h-548l244 -340v-66l-244 -340h548v-112z" />
    <glyph glyph-name="tau" unicode="&#x3c4;" horiz-adv-x="1046" 
d="M961 858h-382v-858h-112v858h-382v112h876v-112z" />
    <glyph glyph-name="upsilon" unicode="&#x3c5;" horiz-adv-x="1082" 
d="M997 919l-400 -475v-444h-112v444l-400 475l86 72l370 -440l370 440z" />
    <glyph glyph-name="phi" unicode="&#x3c6;" horiz-adv-x="1120" 
d="M1035 426q0 -172 -126 -296q-120 -118 -293 -137v-166h-112v166q-173 19 -293 137q-126 124 -126 296t126 296q120 117 293 136v112h112v-112q173 -19 293 -136q126 -124 126 -296zM923 426q0 126 -93 216q-87 85 -214 103v-639q127 18 214 104q93 90 93 216zM504 106
v639q-127 -18 -214 -103q-93 -91 -93 -216q0 -126 93 -216q87 -86 214 -104z" />
    <glyph glyph-name="chi" unicode="&#x3c7;" horiz-adv-x="1091" 
d="M1006 51l-84 -74l-376 424l-377 -424l-84 74l386 434l-386 434l84 74l377 -424l376 424l84 -74l-386 -434z" />
    <glyph glyph-name="psi" unicode="&#x3c8;" horiz-adv-x="1189" 
d="M1104 961q-2 -19 -6 -56q-61 -461 -448 -495v-410h-112v410q-392 33 -453 551l111 13q48 -420 342 -451v447h112v-447q294 31 343 451z" />
    <glyph glyph-name="omega" unicode="&#x3c9;" horiz-adv-x="1446" 
d="M1361 85l-45 -103l-280 124l-13 94q138 116 138 285t-136 284q-129 108 -302 108t-302 -108q-136 -115 -136 -284t138 -285l-13 -94l-280 -124l-45 103l205 90q-117 137 -117 310q0 216 169 363q161 141 381 141t381 -141q169 -147 169 -363q0 -173 -117 -310z" />
    <glyph glyph-name="iotadieresis" unicode="&#x3ca;" horiz-adv-x="524" 
d="M318 0h-112v970h112v-970zM554 1271q0 -40 -28 -69t-68 -29t-69 29t-29 69t29 68t69 28t68 -28t28 -68zM164 1271q0 -40 -28 -69t-68 -29t-69 29t-29 69t29 68t69 28t68 -28t28 -68z" />
    <glyph glyph-name="upsilondieresis" unicode="&#x3cb;" horiz-adv-x="1082" 
d="M997 919l-400 -475v-444h-112v444l-400 475l86 72l370 -440l370 440zM833 1271q0 -40 -28 -69t-68 -29t-69 29t-29 69t29 68t69 28t68 -28t28 -68zM443 1271q0 -40 -28 -69t-68 -29t-69 29t-29 69t29 68t69 28t68 -28t28 -68z" />
    <glyph glyph-name="omicrontonos" unicode="&#x3cc;" horiz-adv-x="1187" 
d="M1102 485q0 -200 -156 -336q-150 -130 -353 -130t-352 130q-156 136 -156 336t156 336q149 130 352 130t353 -130q156 -136 156 -336zM990 485q0 153 -124 256q-117 98 -273 98t-273 -98q-123 -103 -123 -256t123 -256q117 -98 273 -98t273 98q124 103 124 256zM740 1471
l-122 -335l-84 24l90 346z" />
    <glyph glyph-name="upsilontonos" unicode="&#x3cd;" horiz-adv-x="1082" 
d="M997 919l-400 -475v-444h-112v444l-400 475l86 72l370 -440l370 440zM670 1471l-122 -335l-84 24l90 346z" />
    <glyph glyph-name="omegatonos" unicode="&#x3ce;" horiz-adv-x="1446" 
d="M1361 85l-45 -103l-280 124l-13 94q138 116 138 285t-136 284q-129 108 -302 108t-302 -108q-136 -115 -136 -284t138 -285l-13 -94l-280 -124l-45 103l205 90q-117 137 -117 310q0 216 169 363q161 141 381 141t381 -141q169 -147 169 -363q0 -173 -117 -310zM840 1471
l-122 -335l-84 24l90 346z" />
    <glyph glyph-name="Kai" unicode="&#x3cf;" horiz-adv-x="1086" 
d="M974 1316l-657 -629l617 -591l2 -78l-404 -439l-82 76l367 399l-593 567v-621h-112v1374h112v-621l673 644z" />
    <glyph glyph-name="betacurled" unicode="&#x3d0;" horiz-adv-x="862" 
d="M777 270q0 -235 -633 -270l-59 56v858l59 56q633 -36 633 -271q0 -148 -227 -214q227 -67 227 -215zM665 699q0 73 -195 117q-119 28 -273 38v-310q468 34 468 155zM665 270q0 122 -468 156v-310q468 31 468 154z" />
    <glyph glyph-name="thetascript" unicode="&#x3d1;" horiz-adv-x="1271" 
d="M1186 485q0 -216 -169 -363q-162 -141 -382 -141t-381 141q-169 147 -169 363t169 363q161 141 381 141t382 -141q169 -147 169 -363zM1070 541q-23 148 -153 244q-125 92 -282 92t-281 -92q-130 -96 -153 -244h869zM1070 429h-869q23 -148 153 -244q124 -92 281 -92
t282 92q130 96 153 244z" />
    <glyph glyph-name="Upsilonhook" unicode="&#x3d2;" horiz-adv-x="1408" 
d="M1296 1277q-18 -5 -54 -16q-94 -34 -211 -190q-92 -122 -152 -251q-48 -102 -83 -242q-36 -147 -36 -252v-326h-112v326q0 105 -36 252q-35 140 -83 242q-60 129 -152 251q-117 156 -211 190q-15 5 -54 16l31 107q18 -5 53 -15q122 -41 255 -211q105 -134 178 -290
q45 -96 75 -202q30 106 75 202q73 156 178 290q133 170 255 211q10 3 53 15z" />
    <glyph glyph-name="Upsilonhooktonos" unicode="&#x3d3;" horiz-adv-x="1693" 
d="M1581 1277q-18 -5 -54 -16q-94 -34 -211 -190q-92 -122 -152 -251q-48 -102 -83 -242q-36 -147 -36 -252v-326h-112v326q0 105 -36 252q-35 140 -83 242q-60 129 -152 251q-117 156 -211 190q-15 5 -54 16l31 107q18 -5 53 -15q122 -41 255 -211q105 -134 178 -290
q45 -96 75 -202q30 106 75 202q73 156 178 290q133 170 255 211q10 3 53 15zM206 1361l-122 -335l-84 24l90 346z" />
    <glyph glyph-name="Upsilonhookdieresis" unicode="&#x3d4;" horiz-adv-x="1408" 
d="M1296 1277q-18 -5 -54 -16q-94 -34 -211 -190q-92 -122 -152 -251q-48 -102 -83 -242q-36 -147 -36 -252v-326h-112v326q0 105 -36 252q-35 140 -83 242q-60 129 -152 251q-117 156 -211 190q-15 5 -54 16l31 107q18 -5 53 -15q122 -41 255 -211q105 -134 178 -290
q45 -96 75 -202q30 106 75 202q73 156 178 290q133 170 255 211q10 3 53 15zM997 1510q0 -40 -28 -69t-68 -29t-69 29t-29 69t29 68t69 28t68 -28t28 -68zM607 1510q0 -40 -28 -69t-68 -29t-69 29t-29 69t29 68t69 28t68 -28t28 -68z" />
    <glyph glyph-name="phiscript" unicode="&#x3d5;" horiz-adv-x="1120" 
d="M1035 426q0 -172 -126 -296q-120 -118 -293 -137v-166h-112v166q-173 19 -293 137q-126 124 -126 296t126 296q120 117 293 136v112h112v-112q173 -19 293 -136q126 -124 126 -296zM923 426q0 126 -93 216q-87 85 -214 103v-639q127 18 214 104q93 90 93 216zM504 106
v639q-127 -18 -214 -103q-93 -91 -93 -216q0 -126 93 -216q87 -86 214 -104z" />
    <glyph glyph-name="omegapi" unicode="&#x3d6;" horiz-adv-x="903" 
d="M818 0h-112v858h-509v-858h-112v914l56 56h621l56 -56v-914z" />
    <glyph glyph-name="kai" unicode="&#x3d7;" horiz-adv-x="850" 
d="M765 908l-488 -423l446 -387l2 -82l-313 -310l-79 79l271 268l-407 353v-406h-112v970h112v-406l495 429z" />
    <glyph glyph-name="Koppaarchaic" unicode="&#x3d8;" horiz-adv-x="1654" 
d="M1542 687q0 -281 -191 -486t-468 -227v-394h-112v394q-277 22 -468 227t-191 486q0 296 209.5 505.5t505.5 209.5t505.5 -209.5t209.5 -505.5zM1430 687q0 249 -177 426t-426 177q-250 0 -426.5 -177t-176.5 -426q0 -250 177 -426.5t426 -176.5q250 0 426.5 177
t176.5 426z" />
    <glyph glyph-name="koppaarchaic" unicode="&#x3d9;" horiz-adv-x="1271" 
d="M1186 485q0 -201 -150 -345q-142 -136 -345 -156v-270h-112v270q-203 20 -345 156q-149 144 -149 345q0 216 169 363q162 141 381 141t382 -141q169 -147 169 -363zM1074 485q0 169 -137 284q-129 108 -302 108t-302 -108q-136 -115 -136 -284t136 -284
q129 -108 302 -108t302 108q137 115 137 284z" />
    <glyph glyph-name="Stigma" unicode="&#x3da;" horiz-adv-x="1110" 
d="M998 1283q-312 -104 -476 -198q-298 -169 -298 -369q0 -317 706 -353l53 -62l-70 -651l-112 12l64 593q-753 55 -753 461q0 249 314 443q181 111 536 230z" />
    <glyph glyph-name="stigma" unicode="&#x3db;" horiz-adv-x="865" 
d="M780 877q-583 -175 -583 -372q0 -199 516 -222l53 -63l-55 -460l-111 13l47 402q-562 40 -562 330q0 183 250 321q136 75 412 158z" />
    <glyph glyph-name="Digamma" unicode="&#x3dc;" horiz-adv-x="945" 
d="M833 631h-609v-631h-112v1318l56 56h665v-112h-609v-519h609v-112z" />
    <glyph glyph-name="digamma" unicode="&#x3dd;" horiz-adv-x="739" 
d="M654 429h-457v-429h-112v914l56 56h513v-112h-457v-317h457v-112z" />
    <glyph glyph-name="Koppa" unicode="&#x3de;" horiz-adv-x="1124" 
d="M1012 662l-458 -933l-101 49l418 853h-709l-50 81l334 681l100 -49l-294 -601h709z" />
    <glyph glyph-name="koppa" unicode="&#x3df;" horiz-adv-x="867" 
d="M782 458l-351 -649l-99 53l307 567h-505l-49 83l257 478l99 -53l-213 -396h505z" />
    <glyph glyph-name="Sampi" unicode="&#x3e0;" horiz-adv-x="1437" 
d="M1325 26l-103 -43l-273 647l-274 -647l-103 43l316 748l-169 400l-504 -1191l-103 43l555 1314h103z" />
    <glyph glyph-name="sampi" unicode="&#x3e1;" horiz-adv-x="1300" 
d="M1215 -277l-111 -13q-33 299 -134 544l-473 -364l-69 89l495 380q-63 123 -146 222l-604 -463l-69 89l595 456q-230 214 -558 214h-56v112h56q489 0 776 -405q233 -329 298 -861z" />
    <glyph glyph-name="Shei" unicode="&#x3e2;" horiz-adv-x="1654" 
d="M1542 87q0 -515 -477 -515h-597v112h597q362 0 365 395q-105 -107 -237 -107q-262 0 -363 184q-110 -184 -297 -184q-421 0 -421 455v947h112v-947q0 -343 309 -343q91 0 164.5 80.5t73.5 172.5v1037h112v-947q0 -343 310 -343q91 0 165 82q72 79 72 171v1037h112v-1287z
" />
    <glyph glyph-name="shei" unicode="&#x3e3;" horiz-adv-x="1271" 
d="M1186 77q0 -368 -372 -368h-462v112h462q241 0 258 217q-77 -57 -162 -57q-190 0 -273 116q-89 -116 -222 -116q-330 0 -330 327v662h112v-662q0 -215 218 -215q59 0 111.5 47.5t52.5 106.5v723h112v-662q0 -215 219 -215q59 0 111.5 47.5t52.5 106.5v723h112v-893z" />
    <glyph glyph-name="Fei" unicode="&#x3e4;" horiz-adv-x="1200" 
d="M1088 0h-112v635q-120 -150 -355 -150q-214 0 -358 127q-151 132 -151 343q0 236 230 449l76 -82q-194 -178 -194 -367q0 -164 118 -264q112 -94 279 -94q355 0 355 428v56h112v-1081z" />
    <glyph glyph-name="fei" unicode="&#x3e5;" horiz-adv-x="930" 
d="M845 0h-112v414q-93 -84 -252 -84q-161 0 -273 86q-123 95 -123 251q0 171 191 331l72 -86q-151 -126 -151 -245q0 -108 91 -170q80 -55 193 -55q252 0 252 273v56h112v-771z" />
    <glyph glyph-name="Khei" unicode="&#x3e6;" horiz-adv-x="1075" 
d="M963 87q0 -515 -528 -515h-316v112h316q416 0 416 403v522q0 98 -89 177q-86 76 -185 76q-353 0 -353 -343v-519h-112v1374h112v-522q118 122 353 122q145 0 264 -109q122 -112 122 -256v-522z" />
    <glyph glyph-name="khei" unicode="&#x3e7;" horiz-adv-x="836" 
d="M751 77q0 -368 -410 -368h-251v112h251q298 0 298 256v355q0 62 -66 110q-61 44 -125 44q-251 0 -251 -215v-371h-112v970h112v-340q92 68 251 68q112 0 205 -76q98 -81 98 -190v-355z" />
    <glyph glyph-name="Hori" unicode="&#x3e8;" horiz-adv-x="1057" 
d="M945 77q-229 -105 -403 -105q-177 0 -301 111q-129 114 -129 289q0 195 176 309l326 160q176 94 176 241q0 208 -235 208q-80 0 -141 -25q-46 -19 -123 -74l-64 92q91 64 153 89q77 30 175 30q154 0 248 -82q99 -86 99 -238q0 -192 -176 -305q-163 -80 -326 -159
q-176 -96 -176 -246q0 -128 96 -210q92 -78 222 -78q148 0 357 95z" />
    <glyph glyph-name="hori" unicode="&#x3e9;" horiz-adv-x="826" 
d="M741 59q-187 -78 -319 -78q-134 0 -231 77q-106 83 -106 213q0 140 132 221q122 55 245 110q132 61 132 152q0 123 -163 123q-92 0 -204 -74l-61 95q140 91 265 91q118 0 193 -57q82 -64 82 -178q0 -138 -132 -219q-122 -54 -245 -109q-132 -62 -132 -155q0 -83 74 -133
q65 -45 151 -45q111 0 277 69z" />
    <glyph glyph-name="Gangia" unicode="&#x3ea;" horiz-adv-x="1411" 
d="M1299 1140l-111 -15q-22 165 -119 165q-123 0 -204 -199l-99 -242l316 -772l-52 -77h-649l-52 77l316 772l-99 242q-81 199 -204 199q-97 0 -119 -165l-111 15l8 56q13 85 75.5 145.5t146.5 60.5q143 0 239 -140q41 -61 125 -265q84 206 124 265q95 140 239 140
q194 0 230 -262zM947 112l-241 589l-241 -589h482z" />
    <glyph glyph-name="gangia" unicode="&#x3eb;" horiz-adv-x="1094" 
d="M1009 779l-110 -17q-15 115 -79 115q-103 0 -216 -270l238 -528l-51 -79h-487l-51 79l233 516l-70 156q-57 126 -141 126q-64 0 -79 -115l-111 17q3 18 9 55q13 66 63.5 110.5t117.5 44.5q103 0 174 -83q42 -49 98 -174q56 125 99 174q70 83 174 83q157 0 189 -210z
M704 112l-157 347l-156 -347h313z" />
    <glyph glyph-name="Shima" unicode="&#x3ec;" horiz-adv-x="1291" 
d="M1179 452q0 -201 -147.5 -340.5t-349.5 -139.5q-249 0 -409.5 156.5t-160.5 405.5q0 805 1008 842l4 -112q-675 -25 -843 -419q162 120 356 120q236 0 386 -137q156 -142 156 -376zM1067 452q0 187 -123 296q-117 105 -307 105q-237 0 -408 -223q-5 -51 -5 -96
q0 -202 127.5 -326t330.5 -124q156 0 270.5 107t114.5 261z" />
    <glyph glyph-name="shima" unicode="&#x3ed;" horiz-adv-x="998" 
d="M913 325q0 -149 -120 -249q-114 -95 -266 -95q-186 0 -310 105q-132 112 -132 295q0 565 784 591l4 -112q-459 -15 -604 -222q105 54 224 54q177 0 293 -93q127 -102 127 -274zM801 325q0 125 -94 194q-85 61 -214 61q-166 0 -293 -143q-3 -32 -3 -56q0 -136 99 -215
q92 -73 231 -73q105 0 186 62q88 68 88 170z" />
    <glyph glyph-name="Dei" unicode="&#x3ee;" horiz-adv-x="1354" 
d="M1242 690h-112v272h-397v-962h-112v962h-397v-272h-112v328l56 56h453v300h112v-300h453l56 -56v-328z" />
    <glyph glyph-name="dei" unicode="&#x3ef;" horiz-adv-x="1046" 
d="M961 469h-112v185h-270v-654h-112v654h-270v-185h-112v241l56 56h326v204h112v-204h326l56 -56v-241z" />
    <glyph glyph-name="kappascript" unicode="&#x3f0;" horiz-adv-x="827" 
d="M742 175l-67 -89l-478 362v-448h-112v970h112v-396l478 364l67 -89l-443 -338z" />
    <glyph glyph-name="rhotailed" unicode="&#x3f1;" horiz-adv-x="862" 
d="M777 665q0 -258 -580 -302v-363h-112v914l60 56q632 -40 632 -305zM665 665q0 152 -468 189v-379q468 39 468 190z" />
    <glyph glyph-name="sigmalunate" unicode="&#x3f2;" horiz-adv-x="999" 
d="M914 48q-156 -67 -279 -67q-220 0 -381 141q-169 147 -169 363t169 363q161 141 381 141q121 0 279 -66l-43 -103q-136 57 -236 57q-173 0 -302 -108q-136 -114 -136 -284t136 -284q129 -108 302 -108q98 0 236 58z" />
    <glyph glyph-name="yot" unicode="&#x3f3;" horiz-adv-x="448" 
d="M303 145q0 -368 -451 -368h-56v112h56q339 0 339 256v825h112v-825z" />
    <glyph glyph-name="Thetasymbol" unicode="&#x3f4;" horiz-adv-x="1654" 
d="M1542 687q0 -296 -209.5 -505.5t-505.5 -209.5t-505.5 209.5t-209.5 505.5t209.5 505.5t505.5 209.5t505.5 -209.5t209.5 -505.5zM1430 687q0 249 -177 426t-426 177q-250 0 -426.5 -177t-176.5 -426t177 -426t426 -177q250 0 426.5 177t176.5 426zM955 687
q0 -53 -37.5 -90t-90.5 -37t-90.5 37t-37.5 90t37.5 90t90.5 37t90.5 -37t37.5 -90z" />
    <glyph glyph-name="epsilonlunate" unicode="&#x3f5;" horiz-adv-x="999" 
d="M914 48q-156 -67 -279 -67q-220 0 -381 141q-169 147 -169 363t169 363q161 141 381 141q121 0 279 -66l-43 -103q-136 57 -236 57q-157 0 -281 -92q-130 -96 -153 -244h655v-112h-655q23 -148 153 -244q124 -92 281 -92q98 0 236 58z" />
    <glyph glyph-name="epsilonlunatereversed" unicode="&#x3f6;" horiz-adv-x="999" 
d="M914 485q0 -216 -169 -363q-161 -141 -381 -141q-123 0 -279 67l43 103q138 -58 236 -58q157 0 281 92q130 96 153 244h-655v112h655q-23 148 -153 244q-124 92 -281 92q-100 0 -236 -57l-43 103q158 66 279 66q220 0 381 -141q169 -147 169 -363z" />
    <glyph glyph-name="Sho" unicode="&#x3f7;" horiz-adv-x="1128" 
d="M1016 537q0 -252 -178.5 -430.5t-430.5 -178.5q-94 0 -183 28v-356h-112v1774h112v-256q89 28 183 28q252 0 430.5 -178.5t178.5 -430.5zM904 537q0 206 -145.5 351.5t-351.5 145.5q-95 0 -183 -35v-924q88 -35 183 -35q206 0 351.5 145.5t145.5 351.5z" />
    <glyph glyph-name="sho" unicode="&#x3f8;" horiz-adv-x="985" 
d="M900 485q0 -192 -136.5 -328.5t-328.5 -136.5q-119 0 -223 57v-277h-112v1574h112v-481q104 57 223 57q192 0 328.5 -136.5t136.5 -328.5zM788 485q0 146 -103.5 249.5t-249.5 103.5q-126 0 -223 -79v-548q97 -79 223 -79q146 0 249.5 103.5t103.5 249.5z" />
    <glyph glyph-name="Sigmalunate" unicode="&#x3f9;" horiz-adv-x="1287" 
d="M1175 60q-185 -88 -348 -88q-296 0 -505.5 209.5t-209.5 505.5t209.5 505.5t505.5 209.5q160 0 348 -87l-46 -102q-166 77 -302 77q-250 0 -426.5 -177t-176.5 -426t177 -426t426 -177q135 0 302 78z" />
    <glyph glyph-name="San" unicode="&#x3fa;" horiz-adv-x="1594" 
d="M1482 13l-111 -13l-141 1163l-391 -447h-84l-391 447l-141 -1163l-111 13l156 1288l98 30l431 -493l431 493l98 -30z" />
    <glyph glyph-name="san" unicode="&#x3fb;" horiz-adv-x="1230" 
d="M1145 15l-111 -15l-104 779l-274 -285h-81l-274 285l-105 -779l-111 15l120 893l96 32l314 -326l315 326l95 -32z" />
    <glyph glyph-name="rhopavla" unicode="&#x3fc;" horiz-adv-x="1020" 
d="M935 665q0 -258 -580 -302v-251h340v-112h-340v-200h-112v200h-158v112h158v802l60 56q632 -40 632 -305zM823 665q0 152 -468 189v-379q468 39 468 190z" />
    <glyph glyph-name="Antisigma" unicode="&#x3fd;" horiz-adv-x="1287" 
d="M1175 687q0 -296 -209.5 -505.5t-505.5 -209.5q-163 0 -348 88l46 102q167 -78 302 -78q249 0 426 177t177 426t-176.5 426t-426.5 177q-136 0 -302 -77l-46 102q188 87 348 87q296 0 505.5 -209.5t209.5 -505.5z" />
    <glyph glyph-name="Sigma_periestigmenon" unicode="&#x3fe;" horiz-adv-x="1287" 
d="M1175 60q-185 -88 -348 -88q-296 0 -505.5 209.5t-209.5 505.5t209.5 505.5t505.5 209.5q160 0 348 -87l-46 -102q-166 77 -302 77q-250 0 -426.5 -177t-176.5 -426t177 -426t426 -177q135 0 302 78zM953 687q0 -53 -37.5 -90t-90.5 -37t-90.5 37t-37.5 90t37.5 90
t90.5 37t90.5 -37t37.5 -90z" />
    <glyph glyph-name="Antisigma_periestigmenon" unicode="&#x3ff;" horiz-adv-x="1287" 
d="M1175 687q0 -296 -209.5 -505.5t-505.5 -209.5q-163 0 -348 88l46 102q167 -78 302 -78q249 0 426 177t177 426t-176.5 426t-426.5 177q-136 0 -302 -77l-46 102q188 87 348 87q296 0 505.5 -209.5t209.5 -505.5zM590 687q0 -53 -37.5 -90t-90.5 -37t-90.5 37t-37.5 90
t37.5 90t90.5 37t90.5 -37t37.5 -90z" />
    <glyph glyph-name="punctuationspace" unicode="&#x2008;" horiz-adv-x="256" 
 />
    <glyph glyph-name="thinspace" unicode="&#x2009;" horiz-adv-x="128" 
 />
    <glyph glyph-name="zerospace" unicode="&#x200b;" horiz-adv-x="0" 
 />
    <glyph glyph-name="zeronojoin" unicode="&#x200e;" horiz-adv-x="0" 
 />
    <glyph glyph-name="zeronojoin" unicode="&#x200c;" horiz-adv-x="0" 
 />
    <glyph glyph-name="zerojoin" unicode="&#x200f;" horiz-adv-x="0" 
 />
    <glyph glyph-name="zerojoin" unicode="&#x200d;" horiz-adv-x="0" 
 />
    <glyph glyph-name="endash" unicode="&#x2013;" horiz-adv-x="1024" 
d="M912 631h-800v112h800v-112z" />
    <glyph glyph-name="emdash" unicode="&#x2014;" horiz-adv-x="2048" 
d="M1936 631h-1824v112h1824v-112z" />
    <glyph glyph-name="dashdbl" unicode="&#x2016;" horiz-adv-x="673" 
d="M561 -407h-112v1979h112v-1979zM224 -407h-112v1979h112v-1979z" />
    <glyph glyph-name="quotesinglbase" unicode="&#x201a;" horiz-adv-x="452" 
d="M452 -58q0 -116 -85 -181q-77 -59 -196 -59h-40v55q205 -2 205 175q0 79 -76 119q-60 31 -148 31v112h47q128 0 207 -60q86 -67 86 -192z" />
    <glyph glyph-name="quotereversed" unicode="&#x201b;" horiz-adv-x="452" 
d="M340 1262q-88 0 -148 -31q-76 -40 -76 -119q0 -177 205 -175v-55h-40q-119 0 -196 59q-85 65 -85 181q0 125 86 192q79 60 207 60h47v-112z" />
    <glyph glyph-name="quotereversed" unicode="&#x2bd;" horiz-adv-x="452" 
d="M340 1262q-88 0 -148 -31q-76 -40 -76 -119q0 -177 205 -175v-55h-40q-119 0 -196 59q-85 65 -85 181q0 125 86 192q79 60 207 60h47v-112z" />
    <glyph glyph-name="quotedblleft" unicode="&#x201c;" horiz-adv-x="872" 
d="M760 882h-47q-128 0 -207 60q-86 67 -86 192q0 116 85 181q77 59 196 59h40v-55q-205 2 -205 -175q0 -79 76 -119q60 -31 148 -31v-112zM340 882h-47q-128 0 -207 60q-86 67 -86 192q0 116 85 181q77 59 196 59h40v-55q-205 2 -205 -175q0 -79 76 -119q60 -31 148 -31
v-112z" />
    <glyph glyph-name="quotedblright" unicode="&#x201d;" horiz-adv-x="872" 
d="M872 1122q0 -116 -85 -181q-77 -59 -196 -59h-40v55q205 -2 205 175q0 79 -76 119q-60 31 -148 31v112h47q128 0 207 -60q86 -67 86 -192zM452 1122q0 -116 -85 -181q-77 -59 -196 -59h-40v55q205 -2 205 175q0 79 -76 119q-60 31 -148 31v112h47q128 0 207 -60
q86 -67 86 -192z" />
    <glyph glyph-name="quotedblright" unicode="&#x2ee;" horiz-adv-x="872" 
d="M872 1122q0 -116 -85 -181q-77 -59 -196 -59h-40v55q205 -2 205 175q0 79 -76 119q-60 31 -148 31v112h47q128 0 207 -60q86 -67 86 -192zM452 1122q0 -116 -85 -181q-77 -59 -196 -59h-40v55q205 -2 205 175q0 79 -76 119q-60 31 -148 31v112h47q128 0 207 -60
q86 -67 86 -192z" />
    <glyph glyph-name="quotedblbase" unicode="&#x201e;" horiz-adv-x="872" 
d="M872 -58q0 -116 -85 -181q-77 -59 -196 -59h-40v55q205 -2 205 175q0 79 -76 119q-60 31 -148 31v112h47q128 0 207 -60q86 -67 86 -192zM452 -58q0 -116 -85 -181q-77 -59 -196 -59h-40v55q205 -2 205 175q0 79 -76 119q-60 31 -148 31v112h47q128 0 207 -60
q86 -67 86 -192z" />
    <glyph glyph-name="quotedblrev" unicode="&#x201f;" horiz-adv-x="872" 
d="M760 1262q-88 0 -148 -31q-76 -40 -76 -119q0 -177 205 -175v-55h-40q-119 0 -196 59q-85 65 -85 181q0 125 86 192q79 60 207 60h47v-112zM340 1262q-88 0 -148 -31q-76 -40 -76 -119q0 -177 205 -175v-55h-40q-119 0 -196 59q-85 65 -85 181q0 125 86 192q79 60 207 60
h47v-112z" />
    <glyph glyph-name="dagger" unicode="&#x2020;" horiz-adv-x="1006" 
d="M894 831h-335v-735h-112v735h-335v112h335v335h112v-335h335v-112z" />
    <glyph glyph-name="daggerdbl" unicode="&#x2021;" horiz-adv-x="1006" 
d="M894 431h-335v-335h-112v335h-335v112h335v288h-335v112h335v335h112v-335h335v-112h-335v-288h335v-112z" />
    <glyph glyph-name="bullet" unicode="&#x2022;" horiz-adv-x="578" 
d="M466 808q0 -72 -51 -125t-125 -53q-73 0 -125.5 52.5t-52.5 125.5q0 74 53 125t125 51q73 0 124.5 -51.5t51.5 -124.5z" />
    <glyph glyph-name="ellipsis" unicode="&#x2026;" horiz-adv-x="1218" 
d="M1106 98q0 -40 -28 -69t-68 -29t-69 29t-29 69t29 68t69 28t68 -28t28 -68zM706 98q0 -40 -28 -69t-68 -29t-69 29t-29 69t29 68t69 28t68 -28t28 -68zM306 98q0 -40 -28 -69t-68 -29t-69 29t-29 69t29 68t69 28t68 -28t28 -68z" />
    <glyph glyph-name="perthousand" unicode="&#x2030;" horiz-adv-x="2604" 
d="M2492 147q0 -168 -85 -288q-96 -136 -257 -136t-257 136q-85 120 -85 288t85 288q96 136 257 136t257 -136q85 -120 85 -288zM1696 147q0 -168 -85 -288q-96 -136 -257 -136t-257 136q-85 120 -85 288t85 288q96 136 257 136t257 -136q85 -120 85 -288zM1235 1422
l-555 -1714l-107 35l555 1714zM796 1018q0 -168 -85 -288q-96 -136 -257 -136t-257 136q-85 120 -85 288t85 288q96 136 257 136t257 -136q85 -120 85 -288zM2380 147q0 119 -54 208q-64 104 -176 104t-176 -104q-54 -89 -54 -208t54 -208q64 -104 176 -104t176 104
q54 89 54 208zM1584 147q0 119 -54 208q-64 104 -176 104t-176 -104q-54 -89 -54 -208t54 -208q64 -104 176 -104t176 104q54 89 54 208zM684 1018q0 119 -54 208q-64 104 -176 104t-176 -104q-54 -89 -54 -208t54 -208q64 -104 176 -104t176 104q54 89 54 208z" />
    <glyph glyph-name="minute" unicode="&#x2032;" horiz-adv-x="540" 
d="M428 1510l-213 -493l-103 45l214 493z" />
    <glyph glyph-name="second" unicode="&#x2033;" horiz-adv-x="870" 
d="M758 1510l-213 -493l-103 45l214 493zM428 1510l-213 -493l-103 45l214 493z" />
    <glyph glyph-name="primetriple" unicode="&#x2034;" horiz-adv-x="1200" 
d="M1088 1510l-213 -493l-103 45l214 493zM758 1510l-213 -493l-103 45l214 493zM428 1510l-213 -493l-103 45l214 493z" />
    <glyph glyph-name="primerev" unicode="&#x2035;" horiz-adv-x="540" 
d="M428 1062l-103 -45l-213 493l102 45z" />
    <glyph glyph-name="primedblrev" unicode="&#x2036;" horiz-adv-x="870" 
d="M758 1062l-103 -45l-213 493l102 45zM428 1062l-103 -45l-213 493l102 45z" />
    <glyph glyph-name="primetriplerev" unicode="&#x2037;" horiz-adv-x="1200" 
d="M1088 1062l-103 -45l-213 493l102 45zM758 1062l-103 -45l-213 493l102 45zM428 1062l-103 -45l-213 493l102 45z" />
    <glyph glyph-name="guilsinglleft" unicode="&#x2039;" horiz-adv-x="721" 
d="M609 309l-79 -79l-418 417v80l418 417l79 -79l-378 -378z" />
    <glyph glyph-name="guilsinglright" unicode="&#x203a;" horiz-adv-x="721" 
d="M609 647l-418 -417l-79 79l378 378l-378 378l79 79l418 -417v-80z" />
    <glyph glyph-name="refmark" unicode="&#x203b;" horiz-adv-x="1244" 
d="M719 1101q0 -40 -28 -69t-68 -29t-69 29t-29 69t29 68t69 28t68 -28t28 -68zM1132 687q0 -40 -29 -69t-69 -29t-68 29t-28 69t28 68t68 28t69 -28t29 -68zM1081 309l-79 -79l-379 378l-378 -378l-79 79l378 378l-378 378l79 79l378 -378l379 378l79 -79l-378 -378z
M719 275q0 -40 -28 -69t-68 -29t-69 29t-29 69t29 68t69 28t68 -28t28 -68zM306 687q0 -40 -29 -69t-69 -29t-68 29t-28 69t28 68t68 28t69 -28t29 -68z" />
    <glyph glyph-name="exclamdbl" unicode="&#x203c;" horiz-adv-x="818" 
d="M665 384h-112v990h112v-990zM265 384h-112v990h112v-990zM706 98q0 -40 -28 -69t-68 -29t-69 29t-29 69t29 68t69 28t68 -28t28 -68zM306 98q0 -40 -28 -69t-68 -29t-69 29t-29 69t29 68t69 28t68 -28t28 -68z" />
    <glyph glyph-name="interrobang" unicode="&#x203d;" horiz-adv-x="886" 
d="M774 834q0 -133 -111 -214q-99 -73 -237 -73q-29 0 -58 4v-195h-112v810q-66 13 -144 21l11 111q80 -8 133 -18v76h112v-102q406 -112 406 -420zM414 75q0 -41 -30 -71t-71 -30t-71 30t-30 71t30 71t71 30t71 -30t30 -71zM662 834q0 213 -294 304v-474q29 -5 58 -5
q89 0 157 42q79 49 79 133z" />
    <glyph glyph-name="fraction" unicode="&#x2044;" horiz-adv-x="662" 
d="M662 1422l-555 -1714l-107 35l555 1714z" />
    <glyph glyph-name="reversedsemicolon" unicode="&#x204f;" horiz-adv-x="540" 
d="M367 808q0 -40 -28 -69t-68 -29t-69 29t-29 69t29 68t69 28t68 -28t28 -68zM428 -397l-103 -45l-213 493l102 45z" />
    <glyph glyph-name="flower_mark" unicode="&#x2055;" horiz-adv-x="900" 
d="M820 687q0 -38 -27 -68.5t-65 -30.5q-21 0 -61.5 35t-65.5 35q-32 0 -32 -34q0 -26 44 -34q70 -13 81 -18q44 -20 44 -76q0 -38 -29 -65t-67 -27q-52 0 -68 46q-8 42 -15 84q-10 46 -44 46q-43 0 -43 -41q0 -15 35 -59t35 -77q0 -35 -30 -56t-66 -21q-34 0 -63 22t-29 55
q0 28 36.5 68.5t36.5 67.5q0 41 -41 41q-33 0 -41 -46q-15 -81 -17 -84q-19 -46 -78 -46q-34 0 -63 31t-29 65q0 57 45 75q4 2 82 15q45 7 45 38q0 30 -32 30q-26 0 -66 -33t-64 -33q-39 0 -63.5 27.5t-24.5 67.5q0 88 84 88q31 0 75 -32.5t60 -32.5q34 0 34 28
q0 34 -44.5 42.5t-88.5 16.5q-46 17 -46 70q0 36 30 66t66 30q55 0 74 -44q2 -3 19 -81q10 -44 41 -44q39 0 39 38q0 23 -34.5 63t-34.5 62q0 37 32 64q30 24 68 24q36 0 64 -26t28 -62q0 -31 -35 -70.5t-35 -58.5q0 -41 46 -41q27 0 35 45q11 72 16 82q19 45 77 45
q37 0 62.5 -25.5t25.5 -62.5q0 -59 -44 -77q-9 -4 -81 -13q-44 -6 -44 -35q0 -38 31 -38q21 0 62.5 35.5t74.5 35.5q35 0 59 -28t24 -64zM501 687q0 49 -47 49q-55 0 -55 -52q0 -20 17.5 -34.5t37.5 -14.5q47 0 47 52z" />
    <glyph glyph-name="triangular_colon" unicode="&#x2056;" horiz-adv-x="926" 
d="M814 1323q0 -41 -30 -71t-71 -30t-71 30t-30 71t30 71t71 30t71 -30t30 -71zM314 582q0 -41 -30 -71t-71 -30t-71 30t-30 71t30 71t71 30t71 -30t30 -71zM814 -159q0 -41 -30 -71t-71 -30t-71 30t-30 71t30 71t71 30t71 -30t30 -71z" />
    <glyph glyph-name="quadrupleprime" unicode="&#x2057;" horiz-adv-x="1530" 
d="M1418 1510l-213 -493l-103 45l214 493zM1088 1510l-213 -493l-103 45l214 493zM758 1510l-213 -493l-103 45l214 493zM428 1510l-213 -493l-103 45l214 493z" />
    <glyph glyph-name="diamond_colon" unicode="&#x2058;" horiz-adv-x="1426" 
d="M814 1323q0 -41 -30 -71t-71 -30t-71 30t-30 71t30 71t71 30t71 -30t30 -71zM1314 582q0 -41 -30 -71t-71 -30t-71 30t-30 71t30 71t71 30t71 -30t30 -71zM314 582q0 -41 -30 -71t-71 -30t-71 30t-30 71t30 71t71 30t71 -30t30 -71zM814 -159q0 -41 -30 -71t-71 -30
t-71 30t-30 71t30 71t71 30t71 -30t30 -71z" />
    <glyph glyph-name="quintuple_colon" unicode="&#x2059;" horiz-adv-x="1426" 
d="M1314 1082q0 -41 -30 -71t-71 -30t-71 30t-30 71t30 71t71 30t71 -30t30 -71zM314 1082q0 -41 -30 -71t-71 -30t-71 30t-30 71t30 71t71 30t71 -30t30 -71zM814 582q0 -41 -30 -71t-71 -30t-71 30t-30 71t30 71t71 30t71 -30t30 -71zM1314 82q0 -41 -30 -71t-71 -30
t-71 30t-30 71t30 71t71 30t71 -30t30 -71zM314 82q0 -41 -30 -71t-71 -30t-71 30t-30 71t30 71t71 30t71 -30t30 -71z" />
    <glyph glyph-name="two_dot_punctuation" unicode="&#x205a;" horiz-adv-x="426" 
d="M314 1090q0 -41 -30 -71t-71 -30t-71 30t-30 71t30 71t71 30t71 -30t30 -71zM314 75q0 -41 -30 -71t-71 -30t-71 30t-30 71t30 71t71 30t71 -30t30 -71z" />
    <glyph glyph-name="four_dot_punctuation" unicode="&#x205b;" horiz-adv-x="1426" 
d="M814 1423q0 -41 -30 -71t-71 -30t-71 30t-30 71t30 71t71 30t71 -30t30 -71zM1314 582q0 -41 -30 -71t-71 -30t-71 30t-30 71t30 71t71 30t71 -30t30 -71zM314 582q0 -41 -30 -71t-71 -30t-71 30t-30 71t30 71t71 30t71 -30t30 -71zM814 -259q0 -41 -30 -71t-71 -30
t-71 30t-30 71t30 71t71 30t71 -30t30 -71z" />
    <glyph glyph-name="dotted_cross" unicode="&#x205c;" horiz-adv-x="1226" 
d="M1114 982q0 -41 -30 -71t-71 -30t-71 30t-30 71t30 71t71 30t71 -30t30 -71zM314 982q0 -41 -30 -71t-71 -30t-71 30t-30 71t30 71t71 30t71 -30t30 -71zM1104 526h-435v-435h-112v435h-435v112h435v435h112v-435h435v-112zM1114 182q0 -41 -30 -71t-71 -30t-71 30
t-30 71t30 71t71 30t71 -30t30 -71zM314 182q0 -41 -30 -71t-71 -30t-71 30t-30 71t30 71t71 30t71 -30t30 -71z" />
    <glyph glyph-name="tricolon" unicode="&#x205d;" horiz-adv-x="426" 
d="M314 1223q0 -41 -30 -71t-71 -30t-71 30t-30 71t30 71t71 30t71 -30t30 -71zM314 582q0 -41 -30 -71t-71 -30t-71 30t-30 71t30 71t71 30t71 -30t30 -71zM314 -59q0 -41 -30 -71t-71 -30t-71 30t-30 71t30 71t71 30t71 -30t30 -71z" />
    <glyph glyph-name="vertical_four_dots" unicode="&#x205e;" horiz-adv-x="426" 
d="M314 1505q0 -41 -30 -71t-71 -30t-71 30t-30 71t30 71t71 30t71 -30t30 -71zM314 890q0 -41 -30 -71t-71 -30t-71 30t-30 71t30 71t71 30t71 -30t30 -71zM314 275q0 -41 -30 -71t-71 -30t-71 30t-30 71t30 71t71 30t71 -30t30 -71zM314 -341q0 -41 -30 -71t-71 -30
t-71 30t-30 71t30 71t71 30t71 -30t30 -71z" />
    <glyph glyph-name="Euro" unicode="&#x20ac;" horiz-adv-x="1592" 
d="M1480 1165l-52 -110q-173 207 -442 207q-184 0 -334 -107.5t-210 -281.5h900l-53 -112h-873q-5 -39 -5 -74t5 -74h804l-53 -112h-725q60 -174 210 -281.5t334 -107.5q263 0 436 201v-156q-190 -157 -436 -157q-230 0 -414.5 139.5t-246.5 361.5h-213l54 112h137
q-4 37 -4 74t4 74h-191l54 112h159q62 222 246.5 361.5t414.5 139.5q292 0 494 -209z" />
    <glyph glyph-name="minus" unicode="&#x2212;" horiz-adv-x="1206" 
d="M1094 631h-982v112h982v-112z" />
    <glyph glyph-name="periodcentered" unicode="&#x2219;" horiz-adv-x="418" 
d="M306 687q0 -40 -28 -69t-68 -29t-69 29t-29 69t29 68t69 28t68 -28t28 -68z" />
    <glyph glyph-name="circledash" unicode="&#x25cc;" horiz-adv-x="1154" 
d="M967 808l-79 -65q-25 30 -55 55l65 79q38 -31 69 -69zM814 933l-48 -90q-32 17 -71 29l30 98q46 -14 89 -37zM1060 635l-98 -30q-12 39 -29 71l90 48q23 -43 37 -89zM625 990l-9 -102q-19 2 -39 2t-39 -2l-9 102q21 2 39 2h18q18 0 39 -2zM1082 478q0 -18 -2 -39l-102 9
q4 39 0 78l102 9q2 -21 2 -39v-18zM459 872q-39 -12 -71 -29l-48 90q43 23 89 37zM1060 339q-14 -46 -37 -89l-90 48q17 32 29 71zM321 798q-30 -25 -55 -55l-79 65q31 38 69 69zM967 166q-31 -38 -69 -69l-65 79q30 25 55 55zM221 676q-17 -32 -29 -71l-98 30q14 46 37 89z
M814 41q-43 -23 -89 -37l-30 98q39 12 71 29zM176 448l-102 -9q-2 21 -2 39v18q0 18 2 39l102 -9q-4 -39 0 -78zM625 -16q-21 -2 -39 -2h-18q-18 0 -39 2l9 102q39 -4 78 0zM221 298l-90 -48q-23 43 -37 89l98 30q12 -39 29 -71zM459 102l-30 -98q-46 14 -89 37l48 90
q32 -17 71 -29zM321 176l-65 -79q-38 31 -69 69l79 65q25 -30 55 -55z" />
    <glyph glyph-name="leftwhitesquarebracket_m" unicode="&#x27e6;" horiz-adv-x="796" 
d="M684 -407h-516l-56 57v1866l56 56h516v-112h-235v-1754h235v-113zM337 -294v1754h-113v-1754h113z" />
    <glyph glyph-name="rightwhitesquarebracket_m" unicode="&#x27e7;" horiz-adv-x="796" 
d="M684 -350l-57 -57h-515v113h235v1754h-235v112h515l57 -56v-1866zM571 -294v1754h-112v-1754h112z" />
    <glyph glyph-name="leftanglebracket_m" unicode="&#x27e8;" horiz-adv-x="924" 
d="M812 -357l-96 -60l-604 971v58l604 970l96 -59l-587 -940z" />
    <glyph glyph-name="rightanglebracket_m" unicode="&#x27e9;" horiz-adv-x="924" 
d="M812 554l-605 -971l-95 60l586 940l-586 940l95 59l605 -970v-58z" />
    <glyph glyph-name="zero_os" unicode="&#xfffb0;" horiz-adv-x="940" 
d="M836 358q0 -179 -94 -278t-272 -99q-173 0 -269.5 101.5t-96.5 275.5v274q0 165 100.5 261t265.5 96q160 0 263 -99t103 -258v-274zM724 358v274q0 113 -70 179t-184 66q-119 0 -186.5 -63.5t-67.5 -181.5v-274q0 -265 254 -265t254 265z" />
    <glyph glyph-name="one_os" unicode="&#xfffb1;" horiz-adv-x="940" 
d="M642 0h-112v858h-232v112h288l56 -56v-914z" />
    <glyph glyph-name="two_os" unicode="&#xfffb2;" horiz-adv-x="940" 
d="M809 701q0 -93 -63 -179q-38 -53 -134 -140l-298 -270h473v-112h-618l-38 97q158 138 466 424q100 99 100 180q0 75 -66 127q-61 49 -138 49q-100 0 -160 -55t-60 -154v-56h-112v56q0 146 92.5 233.5t239.5 87.5q124 0 218 -81q98 -85 98 -207z" />
    <glyph glyph-name="three_os" unicode="&#xfffb3;" horiz-adv-x="940" 
d="M814 273q0 -140 -114 -221q-101 -71 -247 -71q-280 0 -326 324l111 15q32 -227 215 -227q98 0 166 40q83 49 83 140t-75 143q-65 45 -161 50l-6 111q71 12 120 54q57 48 57 115q0 61 -60 99q-51 32 -116 32q-83 0 -122 -48q-30 -39 -42 -127l-111 15q3 19 8 56
q15 100 91 159q73 57 176 57q113 0 197 -64q91 -69 91 -179q0 -128 -108 -210q173 -82 173 -263z" />
    <glyph glyph-name="four_os" unicode="&#xfffb4;" horiz-adv-x="940" 
d="M860 184h-163v-184h-112v184h-460l-45 89l516 714l101 -33v-658h163v-112zM585 296v485l-350 -485h350z" />
    <glyph glyph-name="five_os" unicode="&#xfffb5;" horiz-adv-x="940" 
d="M818 310q0 -142 -102.5 -235.5t-246.5 -93.5q-162 0 -256 104q-88 99 -91 264l112 2q4 -258 235 -258q97 0 165 59q72 63 72 158q0 94 -67 157t-161 63q-57 0 -112 -29q-50 -29 -100 -59l-82 60l86 423l55 45h445v-112h-399l-51 -252q80 36 158 36q141 0 240.5 -96
t99.5 -236z" />
    <glyph glyph-name="six_os" unicode="&#xfffb6;" horiz-adv-x="940" 
d="M819 308q0 -143 -105 -237q-101 -90 -246 -90q-141 0 -244 95t-103 235q0 80 40 155q23 41 93 133l303 394l89 -69l-35 -44q-88 -108 -259 -328q-32 -43 -89 -131q-30 -56 -30 -110q0 -94 70 -156t165 -62q99 0 167 57q72 61 72 158q0 83 -63.5 147.5t-146.5 64.5h-56
v112h56q129 0 225.5 -97.5t96.5 -226.5z" />
    <glyph glyph-name="seven_os" unicode="&#xfffb7;" horiz-adv-x="940" 
d="M784 889l-460 -908l-100 50l419 827h-486v112h577z" />
    <glyph glyph-name="eight_os" unicode="&#xfffb8;" horiz-adv-x="940" 
d="M807 288q0 -134 -105 -223q-99 -84 -236 -84q-133 0 -230 83q-102 87 -102 218q0 166 145 255q-99 74 -99 196q0 113 90 187q84 69 199 69q111 0 193 -72q86 -75 86 -184q0 -117 -97 -193q156 -89 156 -252zM636 733q0 62 -53 105q-50 39 -114 39q-68 0 -119 -37
q-58 -42 -58 -107q0 -67 56 -107q50 -37 119 -37q64 0 114 39q55 43 55 105zM695 288q0 83 -74 138q-68 51 -154 51q-89 0 -153 -52q-68 -56 -68 -143q0 -84 69 -139q65 -50 151 -50q90 0 156 52q73 56 73 143z" />
    <glyph glyph-name="nine_os" unicode="&#xfffb9;" horiz-adv-x="940" 
d="M819 656q0 -112 -131 -288l-291 -390l-89 67l223 290q-31 -5 -59 -5q-139 0 -242 92q-108 97 -108 239t109 237q103 91 241 91q140 0 242 -94q105 -97 105 -239zM707 656q0 92 -69 156.5t-166 64.5t-167.5 -63t-70.5 -153q0 -91 70.5 -155t167.5 -64q96 0 165.5 60
t69.5 154z" />
    <glyph glyph-name="uF7A1" unicode="&#x123f0;" horiz-adv-x="2976" 
d="M2419 2380q0 4 -2 -75h-4q-15 210 -15 214v17l19 -3q2 -113 2 -153zM2343 2333q-54 1 -160 -8q-3 7 -3 13v3h163v-8zM2215 2503q-86 4 -78 4h-62v-49l121 4v-8q-70 -13 -121 -10v-73q9 0 29 2.5t30 2.5q24 0 60 -5l12 -8q-48 1 -51 1q-67 0 -82 -10v-31q35 -4 122 -1
q-24 -20 -122 -13l-8 -8v8h-6v10l5 5l-5 198h13l5 -3q7 0 21.5 1t21.5 1q42 0 95 -18zM2624 2222q-18 -3 -27 -3l-360 1q-3 5 -11 10l-76 -56q-5 5 -13 11v4q-8 6 -82 50l-63 -33q-8 2 -18 12l66 29q-21 12 -61 38q4 8 11 12l69 -42q40 16 89 50l6 -2l9 3l-4 -8l67 -53
l24 12q-7 -11 -16 -20l2 -2l-1 2l389 -10v-5zM1863 2585h-8q-6 58 -6 107q0 1 1 21h13v-128zM1951 2138h-15q0 31 1 94t1 95q0 53 -6 158t-6 158v92h11l9 -274q5 -152 5 -136v-187zM2687 1568l-5 -1q-13 40 -26 118l12 5zM2661 1552q-30 34 -33 125l11 2zM2864 1691
q-100 -96 -183 -146l-3 -6q-10 -3 -20 -3q-44 0 -92 31q-46 -66 -74 -71l-4 2q-19 -8 -32 -8q-55 0 -55 92q0 13 8 18l-2 4q8 59 109 132l4 -10l-2 -2l9 6l32 -85l79 57v-9q-9 -9 -25 -22h5l20 -121q14 -3 29 -3l-3 6q27 14 48 27l-5 -1q-26 105 -26 118l1 2h-35l2 13h211
v-8l-101 -4q2 -39 13 -77l89 71zM1864 2576q-27 -83 -64 -117q-44 -41 -125 -41l-10 2q-67 14 -80 19q-37 16 -55 59l-71 -4l-6 -4q-9 115 -9 194q0 2 1.5 5.5t1.5 8.5h173l6 -9l-17 -1v-152l69 5l-2 -2q-7 -8 -19 -9l72 -91q45 5 80 56l52 88zM2760 1311l-82 -9l-3 3v11h85
v-5zM2761 1342l-86 -8v7q-78 -10 -90 -10h-13v13q38 3 50 3q8 0 53 -5v8h86v-8zM2757 1266l-84 -9v14h83zM2613 1477l-252 -27v18l249 17zM2658 1308l-72 -10q-3 0 -14 2v13h85zM2656 1260l-86 -8v15h86v-7zM1420 2584q0 -67 -300 -95l-3 9h8q17 17 17 61q0 68 -47 81
q75 3 103 3q64 0 128 -11q94 -16 94 -48zM2297 1481l-15 -15l-4 3q5 6 16 16zM2334 1256q-6 -2 -9 -4q1 -16 1 -12q0 -19 -6 -62q-7 7 -7 72q-67 -5 -58 -5q-1 0 -11 2v14h69q0 5 -1 17v16q0 14 2 24q8 -4 15 -4q0 -18 -3 -53q3 -1 8 -5zM2680 1037l-1 -10q-37 -27 -76 -59
q-1 -3 -1 -24q-6 10 -7 18l-97 -77q-14 2 -40 54l-195 -29l-6 -10l-5 159l198 5q2 4 9 21q8 13 24 40q6 0 10 -6l6 9l177 -88l-2 -4l-110 46v-128q30 21 30 35v72l5 2l6 -1v-78zM2623 2265h-19q-5 95 -13 136q-15 76 -56 123q-102 118 -489 199v-86l2 -1l2 3q41 7 58 7
q50 0 62 -29l10 -72q7 -1 232 -3v-4l-89 -5q-7 -28 -7 -59q8 1 12 1q16 0 36 -3q-19 -7 -47 -6q0 -2 -1 -6q0 -40 33 -91q1 -1 61 -79q-25 7 -65.5 70t-40.5 90q0 3 -1 13h-109v14h108l7 56l-177 -1q-3 1 -8 3q-19 -1 -23 -1q-71 0 -71 62q0 5 2 14t2 14v101
q-220 45 -469 69q-63 6 -81 6h-141q-15 0 -84 -5q-387 -28 -679 -91q-257 -55 -319 -136q-37 -48 -51 -137q-18 -117 -24 -301q-10 -336 -17 -784h-18v41q0 394 15 750q6 132 8 164q6 92 21 162q16 76 49 118q66 83 326 141q304 68 734 96q31 2 35 2h148q14 0 49 -3
q886 -76 1037 -309q50 -77 50 -243zM2720 704l-6 -108h-2v-7l-143 -6v15h140l-4 106q-88 -4 -98 -4q-30 0 -44 4q5 -70 5 -76q0 -49 -17 -149q1 0 29 -2v-5q-2 0 -44 -5l-2 -4l-6 5q-13 0 -40 -3.5t-40 -3.5h-144v15h155l-64 51q1 5 8 11l73 -62q20 0 48 1q-29 64 -29 141
q-35 -3 -87 -3l-7 -5v14q4 2 9 2q16 0 43 -1q32 -2 42 -2v35q-9 0 -28.5 -2t-29.5 -2q-14 0 -28 3l-2 9h18h70q2 9 3 21q-69 0 -91 -4v11q2 1 18 1h74q1 3 3 19l-2 2q-10 -5 -51 -5q-28 0 -42 5v3q-14 -9 -58 -9q-6 0 -17.5 1.5t-17.5 1.5l-6 -12l2 27q24 -6 53 -6h44v7
q32 -5 44 -5h53q1 6 1 13q0 10 -2.5 30t-2.5 29l9 14q8 -26 8 -61q0 -19 -2.5 -55.5t-2.5 -55.5q0 -82 23 -159h8q13 47 13 145q0 75 -7 85q-6 5 -16 15q-17 19 -17 53q0 9 9 16q10 -56 34 -71q19 -11 80 -11q11 0 34 1.5t34 1.5q14 0 13 -10zM2404 687q-48 -6 -62 -6
q-5 0 -14 1.5t-13 1.5l-6 -5v14q3 2 8 2q16 0 43 -1q33 -2 43 -2zM2496 580q-45 -2 -95 -8l2 13q4 2 8 2q16 0 43 -1q31 -2 42 -2v-4zM2405 658q-40 -5 -62 -5q-14 0 -33 3v12q16 -3 95 -5v-5zM2397 617q-48 -6 -61 -6q-5 0 -14 1t-13 1l-1 1l-6 -7v15q4 3 8 3q16 0 44 -1
q33 -2 43 -2v-5zM2608 352l-4 -4l-66 52q2 4 7 10zM2759 346l-105 -15q-3 -5 -40 -43l-10 6v5q17 15 38 31l-27 -3q-16 -20 -45 -48l-10 11q21 17 49 37q-159 -15 -164 -15q-77 0 -114 54v14l7 -1q36 -53 113 -53h17l-132 93q8 10 13 10q15 0 129 -102h16q10 -1 15 -1
q29 0 73 4l-78 64l7 10q26 -23 71 -74q44 5 71 8l-66 54l7 10l64 -57l-4 -7q35 5 104 13zM2579 316l-43 -44q-3 2 -11 6q20 25 46 40zM1465 1512q0 -39 -135 -68q-106 -23 -173 -23l-10 153q5 -7 10 -7q4 0 11.5 1.5t11.5 1.5h104q44 0 103 -13q78 -18 78 -45zM2540 317
l-48 -49q-6 2 -11 7q30 31 59 42zM1724 1415q0 -41 -23 -80q-31 -52 -248 -247l-4 4l215 225l-94 16q-57 14 -80 46l-57 -6q34 -12 34 -31q0 -61 -281 -90l-26 -3l-11 146q43 4 87 4q63 0 96 -4q49 -6 48 -6q2 0 108 5l7 24l3 -2q15 21 123 108l-122 91l9 17q34 -25 100 -76
q37 -30 75 -60q41 -39 41 -81zM962 2055q0 -39 -126 -70q-100 -24 -162 -24q-7 0 -24 4q26 4 30 29q-62 -35 -192 -47l-10 155l5 -4q7 0 21 1t21 1q95 0 153 -26q-9 28 -34 35q22 4 34 4h107q44 0 101 -13q76 -17 76 -45zM981 1871q0 -66 -299 -94l-3 8h7q17 19 17 48
q-71 -57 -202 -56h-5l-11 151h78q64 0 129 -27q-6 18 -19 22v4q93 4 87 4q62 0 127 -12q94 -16 94 -48zM985 1708q0 -38 -124 -69q-101 -24 -161 -24q-7 0 -37 5q44 3 44 64q0 68 -45 79q34 5 46 5h92q45 0 105 -13q80 -19 80 -47zM2786 1171h-24l18 -4v-91q0 9 -3 -133h-5
q-3 66 -10 228h-75v-47q0 -60 80 -195h-5q-1 0 -4 1q-60 72 -80 153q-3 13 -5 80v6h-38h-38q-82 0 -89 4h-24q-71 -1 -71 63q0 4 2 13t2 13v83l-1 1l-63 -5q-1 -10 -9 -14l1 14q-25 0 -51 -19l2 -7q-28 -22 -61 -67l-5 1l1 8q-26 -25 -77 -76h-1q-11 -11 -12 -27
q42 37 89 93l5 -1l-2 -16l84 -56l-4 -7l-83 46q-6 -50 -32 -146v2q-4 -5 -39 -26v-3l15 -236h6q-1 0 70 6l339 27q34 3 47 3l2 -12l-340 -27v-16q0 -12 1.5 -35t1.5 -33l5 -4l-5 -5l1 -139l2 19q16 -5 84 -5h9v-5q-46 -6 -88 -4l-1 1l-6 -8l2 -273q23 2 49 6l2 -5l-2 -3
q-16 -2 -48 -8v-1q0 -11 1 -71q76 7 158 18q165 22 166 22v-12l-324 -41v-25h-12v9q0 9 -2 14q-358 -28 -381 -28h-82v-21l-12 -2v19l-304 -15q17 -20 26 -47.5t17 -53.5l5 26l13 -2q-7 -30 -7 -52q0 -11 15 -40l9 90h12q-9 -84 -9 -76q0 -10 1 -19h10l11 95h13
q-11 -84 -11 -89l1 -8h19l10 95h14v-9q0 4 -6 -36q-1 -17 -4 -50q3 -1 8 -1h17q3 44 15 130h16v-7q0 -1 -7 -32q-11 -49 -11 -131l13 -8h-14q1 -7 1 -13q0 -5 -1 -18q10 0 17 -9h-18v-19l23 -4l-24 -6l-2 -22l29 -8l-29 -1q-2 -43 -2 -55q0 -23 23 -46q33 -32 37 -38h85
q-70 92 -70 160l6 2q35 54 35 148q0 45 -8 91q-6 35 -6 43l12 2q18 -67 18 -136q0 -97 -40 -146v-5q-1 -3 -1 -5q0 -72 66 -153h4q20 0 46 2q-38 64 -38 136q0 9 2 18l7 1q32 43 32 161q0 20 -3.5 60t-3.5 61l12 2q11 -56 11 -125q0 -66 -12 -104q-2 -6 -18 -38
q-11 -23 -11 -40q0 -46 34 -133l100 5q0 92 9 477h11q1 -25 1 -54q0 -71 -5 -211.5t-5 -209.5q2 -1 6 -1q-7 0 57 4q273 17 523 42l5 61l21 -1q-12 -135 -15 -151q-15 -85 -52 -141q-101 -150 -375 -200q-440 -80 -774 -80q-3 0 -32 2q-355 24 -680 82q-147 26 -228 53
q-256 85 -319 185q-38 61 -38 194q0 69 1 104l35 1234v47h20l-7 -317l146 -22q2 0 62.5 36.5t77.5 36.5q12 0 30 -6q22 -8 30 -9q18 -3 52 -3q4 0 14 8q0 6 32 21v114q9 -3 16 -3q1 0 7 2q-90 69 -101 68l-121 -6v21h63q9 0 27.5 -1.5t27.5 -1.5t10 7q49 -30 110 -86
q83 1 216 32q107 26 214 53v21q0 -8 5 86q-85 -6 -256 -16q-36 -41 -75 -82h-19l76 78q-6 4 -20 4q-4 0 -41.5 -43t-41.5 -43q-5 0 -11 6l77 78q-3 0 -11 1h-10q-15 0 -49 -38q-22 -27 -44 -53l-8 9l1 4l74 74h-11q-2 14 20 16l-93 83l10 11q4 -4 95 -94q11 0 41 4l-80 73
l9 9l88 -82q73 5 278 9q4 8 4 47v45q-150 25 -205 33q-116 16 -207 19l1 6q-56 -51 -108 -84h1v-5q5 -6 81 -81l9 5l-3 -11l11 -15l-16 7q-36 -38 -75 -82q-7 1 -13 8l80 81l-88 81l2 2l-134 -7q-2 0 -9 2v18l125 1q86 55 139 94l1 10h10q-6 0 41 -7q210 -32 356 -65
q2 250 2 284q0 40 -2 105q-2 83 -2 105q-6 439 -22 983l11 2l19 -675q4 -1 10 -1q53 0 137 8q111 11 136 13q328 21 529 21q319 0 719 -21l-3 -11h-25q27 -46 68 -144l6 -2q-4 -27 -15 -80q-17 -35 -50 -106l2 -5h-22l9 4q-69 74 -80 176l-173 -4l6 -11l-20 10l-75 -55
q-11 6 -13 14l-82 49l-64 -32l-16 11q4 -172 4 -199q0 -5 5 -5l552 31v-12l-554 -31q-1 -6 0 -29h-13q1 6 1 10l-1 17h-8l-375 -26q43 -15 132 -36q125 -18 164 -52q7 -6 21 -32q-7 0 -21.5 -1t-22.5 -1q-11 0 -32 10t-34 10h-97v-50h72q40 0 89 18l4 -8q-80 -26 -164 -26
l-3 -189q75 0 100 -5q26 -10 72 -20l167 -6v-5q-130 -7 -167 -7v18q-5 -5 -10 -5q-17 0 -49.5 7t-49.5 7q-9 0 -63 -1v-50q22 -1 42 -1q66 0 137 10q-51 -26 -168 -26h-11v10l-1 -47h-8l-11 389q-48 2 -184 47q-73 24 -77 24q-11 0 -34 -4l-9 -12l-12 10l-360 -54v-319
l16 -10l-17 2q1 -50 1 -91q0 -63 -6 -111q24 6 47 9q-18 -6 -36 -13q-13 -6 -14 -26l-11 -291q173 5 302 10q255 11 273 22q5 3 14 14q37 45 52 102q11 56 23 113q162 21 333 51q6 6 12 19l5 -3q52 88 52 107q0 4 -6 75q-5 62 -11 285q-98 -6 -138 -6h-26v15h163v154h11
q1 -127 9 -382q58 9 82 53q-23 0 -35 -10h-1l-18 -20l-3 4q7 8 21 22q-25 0 -44 -20l8 16h-4v14q10 -1 37 20q-24 0 -33 -9l-3 3l2 3l-2 2v14q3 -1 8 -2q11 0 26 18h-7q-14 0 -23 -6l-8 4l-2 14l10 -1q13 0 28 19q-13 -1 -38 -3q1 8 -3 13q18 1 37 3t30 14h-1q-11 0 -33 -3
t-33 -3v14q27 2 82 7l19 11l-9 -10h78q-27 -2 -69 -22h12q15 0 23 10l4 -2l-3 -5q17 1 52 4l1 -5q-23 -3 -47 -6q-19 -4 -40 -28q24 -1 34 9l3 -3v-1h3q6 0 19 2t19 2q3 0 20 -3q0 25 -1 76l-197 -25l-3 20l199 15l-1 14l17 2q0 -21 1 -63.5t1 -63.5q0 -50 -4 -87q1 0 62 5
l1 12h6q5 0 8 -2v-9q60 2 215 23l2 -12l-217 -23v-15q0 -10 -2 -56h2v1q51 7 61 7q49 0 62 -29q5 -11 9 -71l196 -4q10 0 28 -9zM2673 46l-2 -10l-7 1q-18 -14 -56 -40l37 -126l6 2l-5 -3l1 -2h-4q-16 -11 -88 -65l-6 18l7 4q-1 7 -10 24q-50 -11 -147 -41l-45 -33l-10 8
l30 20q-19 -2 -61 -35l-11 7q6 5 18 14q-6 -1 -46 -27l-10 7l14 10q-93 -13 -96 -13q-41 0 -78 35.5t-37 76.5q16 -25 33 -50q33 -49 89 -49q81 0 115 18q3 2 11 5l4 -3l15 3l-78 51l8 8q50 -35 71 -58l26 7l-56 39l9 6l60 -43l170 46l-28 79h-3q-92 0 -119 -15
q-13 -12 -33 -31l-9 4q6 12 24 26q-21 -1 -55 -39q-7 1 -12 8l31 26l-1 1q-5 0 -56 -43l-9 5q10 15 35 33q-88 -6 -103 -6q-80 0 -127 61l3 19q48 -66 136 -66h13l-126 114l11 12l122 -122l-4 -4q31 3 93 7l-67 53l8 8q38 -31 64 -61q27 0 64 8l-52 44l7 8q20 -17 60 -52
q6 -1 13 -1q-8 0 89 10q-2 11 -16 43q-9 0 -27 -1h-26q-40 0 -59 8q-30 13 -30 31q1 4 3 8q0 3 -1 10.5t-1 11.5q0 53 92 99q7 3 140 55q0 -12 11 -27q15 -21 17 -26l-91 -73q27 -16 51 -16q10 0 34 5.5t37 3.5l3 8q6 -14 23 -38zM2367 -63l-5 -6l-67 55q4 6 8 10zM706 1693
q0 -39 -96 -66q-73 -21 -131 -22l-10 151h47q190 0 190 -63zM999 1545q0 -40 -130 -70q-101 -23 -168 -24l-12 6q20 2 26 26q-30 -54 -221 -72l-10 152h47q184 0 188 -62q2 12 2 20q0 51 -26 74l-21 3q39 7 94 7q67 0 133 -11q98 -16 98 -49zM2294 -192l-5 -5l-66 44
q3 6 7 10zM2206 -205l-3 -3l-131 93l12 12zM713 1152q-12 4 -21 11q-27 -31 -84 -92q-5 0 -11 7q7 12 43 46t49 41l-92 85l8 9zM503 1164q-122 -21 -201 -21q-107 0 -140 54q-14 23 -14 46q0 53 42 93l6 -16q-34 -37 -34 -75q0 -40 38 -64q33 -21 76 -21h96q-8 0 131 8v-4z
M2171 2544v4q0 59 -20 75q-10 8 -45 8q-10 0 -28.5 -1.5t-27.5 -1.5q-4 -30 -4 -32q0 -52 55 -52h70zM2647 1963q-1 14 -40 77q5 -27 5 -50q0 -14 -4.5 -42t-4.5 -42q0 9 10 -78h-5q-16 110 -16 92q0 1 5 18q4 14 4 48q0 11 -3.5 31.5t-3.5 31.5l8 -1l-24 38
q-39 -73 -58 -132q3 -5 6 -28q7 -64 68 -145q32 70 37 86q11 35 14 94zM2765 1617q-3 9 -8.5 26t-10.5 57h-20v-7q0 8 17 -94q13 9 22 18zM2213 2238q-24 16 -69 49l-73 -40l73 -52zM2742 1599q-14 4 -28 100h-21l19 -119q9 6 30 19zM2631 1552q-13 39 -26 113
q-22 -17 -43 -33q10 -50 10 -53q28 -19 59 -27zM2310 1949q-33 21 -71 50l-72 -42l73 -50zM1599 2536l-6 150l-132 -5v-171h64q-11 34 -11 77q0 26 5 59q7 6 13 6q5 -1 6 -4q-8 -31 -8 -67q0 -27 5 -51q41 5 64 6zM1717 2438q-32 34 -76 85v4q-90 -13 -99 -13l-2 1l2 -7
l7 -2l-3 -7q30 -57 113 -68l3 3q18 1 55 4zM2564 1584q-4 20 -11 41q-6 -5 -17 -11l-3 13q9 4 15 12l-31 83l-2 -1l-40 -40h4l45 -143h-8l-48 135q-54 -56 -54 -81q0 -87 47 -87q49 0 95 69q0 11 8 10zM1412 2583q0 25 -73 40q-55 12 -96 12q18 0 -107 -2q32 -21 32 -72
q0 -42 -24 -61q57 1 150 23q118 27 118 60zM2342 1438v25q-33 -5 -60 -30q25 1 47 23q-4 -9 -11 -18h24zM2245 1502h-6q-18 0 -32 -15h10q7 0 28 15zM2554 1183q-4 29 -9 58q-10 28 -45 28h-14q-4 0 -55 -4q0 -5 -1 -15t-1 -15q0 -52 55 -52h70zM2294 1455q-29 -3 -47 -25
q27 1 47 25zM2253 1480h-6q-19 0 -39 -23q24 2 25.5 3t19.5 20zM2566 2104q-319 18 -543 18q-453 0 -934 -41l-1 -1l6 -463q2 0 36 7t193 30q66 7 140 20q6 4 10 10l-19 11l12 37q13 -3 40 -7q47 57 47 61q0 40 -4.5 119t-4.5 119l-4 2q-12 0 -49 -3q-32 -2 -50 -1v-33h99
v-9q-63 -7 -98 -5q0 -3 -1 -8q0 1 1 -21l97 -5v-5q-58 -7 -96 -5q-1 -6 -1 -9t1 -9h102v-8l-102 -7l-2 -16h104v-9q-61 -5 -104 -5v-47l13 13q-6 -11 -13 -32h48q6 8 21 16l-9 -17q9 1 17 -8h-8q-9 0 -16 -1q-42 -62 -87 -119q-7 4 -11 12l86 107h-1q-24 0 -51 -3
q-46 -68 -78 -105l-12 12l77 93h-21q-18 0 -21 -1q-8 -2 -19 -21q-25 -42 -68 -91l-10 12l78 98h-57q-26 -38 -83 -111l-10 12l77 97h-43q-10 0 -22 -1q-29 -42 -93 -120l-11 133l6 4l97 1q8 5 27 27q-6 -16 -13 -27q29 -1 37 -1q21 0 31 3l22 22q-3 -7 -11 -22h59l13 17
l7 -4l-10 -14q8 -1 17 -1h29l7 9l-7 113q-38 -28 -140 -48q-88 -17 -150 -17l-10 152l6 -5q53 2 131 2q102 0 162 -32v63h170v-8q-21 0 -33 -3l4 -313l109 -26q13 4 118 13q140 12 271 21l-8 396h12l4 -188l64 28q-21 13 -61 39l10 12l70 -42q37 14 92 51l4 -4l9 3l-3 -7
l65 -54q12 8 24 8l-5 -5l169 -5q2 10 57 150zM2343 1358v18q0 13 -1 58q-15 0 -47 -19l-4 3l6 8h-1q-25 0 -47 -26q26 0 36 11l3 -4l-4 -4q24 0 43 19l4 -3q-3 -4 -10 -11q6 0 14 2l4 -8q-28 -3 -46 -19q-18 -20 -35 -39q6 -1 9 -1q17 0 64 50l3 -4q-12 -15 -40 -41
q26 0 35 9l4 -3l-4 -4h4q10 0 10 8zM2256 1449h-1q-24 0 -44 -22h8q18 0 37 22zM2217 1475h-5q-19 0 -39 -22h13q13 0 31 22zM2258 1419h-6q-19 0 -39 -22h9q17 0 36 22zM2300 1396h-5q-24 0 -64 -47q5 -6 10 -6q10 0 59 53zM2220 1444h-8q-18 0 -36 -19h12q13 0 32 19z
M2260 1390q-27 -2 -50 -28q5 -4 14 -8zM2221 1414h-8q-19 0 -35 -20q21 1 25 2.5t18 17.5zM2307 1337q-25 0 -46 -21l-3 4l14 14h-7q-25 0 -25 -8q0 -7 2 -21.5t2 -22.5l50 42v-1zM1986 1571l-1 2l-2 -2h3zM1981 1579l-4 7l-15 -15h11zM2201 1353q-7 -7 -14 -15h4q3 5 10 15
zM1971 1591q-3 1 -8 4l-22 -21l8 -3q7 0 22 20zM1956 1597l-8 4q-4 -1 -21 -21q5 -3 8 -4q4 1 21 21zM2223 1345l-8 4q-20 -3 -32 -44zM2562 1083q-26 11 -67 31q-3 -5 -14 -22h7v-166h-8l14 -25q13 8 32 24q0 1 -1 5v5v159h9v-163q21 14 21 25v127h7zM1941 1604l-8 3
q-4 0 -21 -21q3 -1 8 -3zM1925 1610l-7 3l-21 -20q3 -2 8 -3zM2231 1331v9l-2 1q-17 -15 -35 -30q-20 -20 -22 -39zM1910 1616l-9 4q-7 -7 -20 -21l9 -3zM1894 1622l-8 3q-8 -8 -25 -24h6q7 0 27 21zM2234 1315l-1 7q-65 -62 -65 -75q5 5 66 68zM2447 1056q-6 -1 -9 -1v-35z
M1878 1627l-8 3q-9 -9 -28 -27q2 0 7 -1q6 0 29 25zM2479 927v162q-29 -47 -29 -86q0 -25 29 -76zM1861 1632q-7 2 -10 2t-30 -30h12zM2236 1294l-1 9q-22 -19 -43 -39q-28 -26 -31 -45zM2425 1002v51h-16v-51h16zM1842 1635q-3 1 -8 1t-35 -32h11zM2182 1325l-39 -4l8 -109
q7 39 31 113zM2236 1283q-26 -23 -51 -46q-34 -33 -37 -54l2 1q25 23 51 47q35 34 35 52zM1824 1638q-6 2 -9 2q-12 -12 -37 -36h11zM2396 1002v49q-15 -1 -22 0v-49q13 1 22 0zM2456 943q-14 29 -19 45l-1 -44q12 0 20 -1zM1805 1641l-8 2l-39 -38h11zM1787 1645l-8 2
l-41 -41h11zM2428 944q-1 45 -1 48q-10 -1 -18 0q0 -17 -2 -50zM2361 1001v48h-17v-48h17zM1769 1649l-8 2l-44 -42l7 -2l4 1zM1752 1653l-9 3l-41 -43q1 0 7 -3zM2226 1229q-88 -68 -92 -104q27 25 53 50q38 38 39 54zM2399 941q-1 17 -3 50q-11 -1 -23 0v-53zM2333 1001
q-3 35 0 48h-20v-49q3 0 10 1h10zM1734 1658l-8 3l-43 -42q4 -1 9 -3q4 0 42 42zM1719 1663l-8 3l-44 -42q4 -1 9 -3q4 0 43 42zM1703 1669q-2 1 -8 3l-44 -43l7 -3zM2222 1204q-38 -33 -55 -50q-38 -39 -40 -56q28 25 55 50q40 38 40 56zM2301 998v48l-8 -1v-47h8z
M2363 936q0 46 -2 52q-8 -1 -17 0v-53q21 1 19 1zM1686 1675l-8 2l-44 -43l8 -3q5 2 44 44zM1670 1679q-6 2 -9 2t-44 -42q4 -1 9 -3q4 0 44 43zM2280 997v46h-13v-46h13zM2219 1180q-15 -15 -101 -99l-3 -13q8 5 24 18l62 61q8 8 18 33zM1652 1684l-8 2l-43 -42l7 -3z
M2334 934v52q-14 -1 -21 0v-55zM1556 1716l-3 53l-31 -46zM1635 1688l-9 3l-41 -42l7 -3zM1618 1692l-9 3q-14 -13 -41 -40q3 -1 9 -4zM1600 1697q-5 2 -8 2t-39 -39l8 -3q4 1 39 40zM2304 931v17q0 7 -1 19t-1 17h-11v-55zM2215 1154q-24 -24 -73 -72q-15 -11 -44 -53
q42 34 116 112zM1583 1701l-9 3l-37 -38l8 -3zM1565 1705l-8 2l-35 -35l7 -3zM2287 928q-3 5 -7 55q-7 -1 -13 -3q-1 -18 -2 -55q7 1 22 3zM2129 1133q-10 -15 -32 -44q19 7 32 44zM1426 1934v30q-51 36 -215 36q-10 0 -63 -3q27 -21 27 -70q0 -41 -19 -60q182 11 270 67z
M1548 1709q-3 1 -9 2q-12 -10 -34 -32q3 -2 8 -4q5 1 35 34zM1531 1714q-4 1 -10 1q-4 0 -30 -30l7 -3zM1512 1716q-6 2 -8 2q-3 0 -28 -26q2 -1 8 -3zM2211 1129q-72 -69 -145 -143v-9q8 6 115 109q12 10 30 43zM1493 1719q-3 1 -8 1q-17 0 -21 -22l6 -3q8 8 23 24z
M1475 1722l-3 1l-9 -12l4 -3zM2203 1099q-43 -39 -128 -120q-13 -13 -13 -28q43 39 89 96q25 14 48 42l1 -5zM2093 1037q-14 -13 -39 -40q30 13 39 40zM2112 1080q-21 -22 -110 -111q81 37 110 111zM2148 1028q-90 -85 -89 -101l5 4v1q25 23 49 45q35 34 35 51zM2122 1108
q-9 -13 -24 -26l-2 3q-24 -31 -55 -65l-12 -3q-4 -2 -73 -74q32 15 81 65l74 78l3 -3v2h1zM2060 1057q-16 -2 -32 -18l-4 3l9 10q-18 -1 -43 -29v-1l-8 -9q17 2 32 18l4 -3l-7 -8q20 5 49 37zM2143 1000q-87 -74 -87 -91q0 -1 1 -6l5 5v1q23 22 47 43q33 33 34 48z
M1709 1413q0 51 -75 101l1 -4l-135 -94l10 -2l-2 -16l5 -4q3 0 55 1q-10 -7 -54 -14q19 -29 72 -39q74 -14 84 -19q39 44 39 90zM2138 975l-12 -12q-35 -27 -75 -87q25 23 50 47q35 33 37 52zM2162 804l-12 191q-3 -16 -66 -197zM2007 1048q-18 0 -51 -39h1q19 0 50 39z
M1980 1043q-15 0 -46 -35h8q7 0 38 35zM2129 944l-69 -66h-1q-16 -16 -20 -36l2 2h1q22 21 65 63h1q17 17 21 37zM1956 1040q-13 0 -46 -35h1q7 0 45 35zM2016 1014q-17 -2 -33 -19h-1q-18 -20 -54 -58h1q14 0 87 77zM2116 909q-25 -23 -51 -46q-33 -32 -37 -54q25 23 50 47
q34 33 38 53zM1987 1006q-17 -2 -45 -30l-40 -42v-1q14 -1 27 13h1zM1204 1782h-73v-89zM2105 876q-39 -35 -84 -86h10q21 20 43 39q26 26 31 47zM1961 1002q-17 -1 -83 -72q18 1 45 29q19 22 38 43zM2091 841l-49 -49h12q22 0 37 49zM2078 807l-14 -14h9q2 5 5 14z
M1937 1000h-3q-12 0 -79 -71q2 0 7 -1q5 0 75 72zM1932 1038q-23 -1 -115 -107h6q37 35 109 107zM955 2055q0 51 -223 51q-25 0 -53 -1q35 -22 35 -70q0 -40 -27 -64q268 23 268 84zM1914 998q-15 -1 -79 -68l9 -1zM2059 981l-203 -202h5q5 0 8 1t95 93t93.5 96.5t1.5 11.5z
M2054 956l-175 -175q17 1 52 36l69 69q52 53 54 70zM2052 932l-149 -149h12q31 24 78 72q59 59 59 77zM1909 1035q-11 -2 -57 -46q-30 -29 -59 -57l5 1l5 -1zM2049 907l-123 -123h9q33 30 65 59q48 46 49 64zM2059 991q-17 -7 -26 -13.5t-66 -64.5l-133 -135h4l8 1
q10 7 56 54q53 52 157 158zM2045 881l-96 -96h6q5 0 42.5 35.5t41.5 43.5t6 17zM2034 849l-63 -62q2 0 6 -1q14 0 35 25q18 22 22 38zM2022 814l-27 -26q20 0 27 26zM1456 1513q0 49 -224 49q-29 0 -63 -1q29 -24 29 -71q0 -38 -21 -60q75 6 156 23q123 26 123 60z
M1882 1031h-2q-14 0 -54 -44q-11 -12 -63 -64q23 6 63 47q28 30 56 61zM2011 965q-27 -13 -201 -188h6l8 1q8 6 41 40q6 7 146 147zM1857 1028q-9 -1 -15.5 -3.5t-107.5 -108.5q20 3 123 112zM1755 1012l-12 -3l-2 -11zM1781 1016h-4q-14 0 -28 -16.5t-15 -30.5zM2605 159
q-5 7 -28 28v2l-18 -7l27 -36zM1807 1021q-18 -1 -47.5 -31t-31.5 -48zM1831 1024q-20 -3 -63 -45.5t-46 -62.5zM1960 937q-6 -2 -18 -7q-1 0 -154 -155h8q6 0 164 162zM1818 923q-2 1 -6 1q-8 0 -24 -30zM1932 930q-16 -1 -39 -25q-73 -76 -128 -131h10zM974 1870
q0 25 -73 40q-55 12 -96 12q19 0 -106 -2q30 -20 30 -71q0 -43 -24 -62q54 1 150 23q119 28 119 60zM1907 926h-1q-9 0 -14 -2t-151 -152q3 0 8 -1q3 0 158 155zM1882 923q-8 0 -15 -3q-2 -1 -149 -150q8 0 14.5 2.5t149.5 150.5zM1459 1342q0 10 -18.5 20.5t-29.5 10.5
q-15 0 -43.5 -2.5t-42.5 -2.5q0 12 6 19q-30 4 -45 4q8 0 -114 -2q28 -21 28 -70q0 -39 -20 -60q279 24 279 83zM1739 909q-15 -3 -17.5 -5.5t-4.5 -16.5zM1768 917q-49 -7 -60 -59q29 28 60 59zM1858 921l-8 1l-3 -1q-25 -24 -152 -152h7q5 0 156 152zM686 2031q0 10 -6 33
q-39 27 -123 27h-54q33 -21 33 -71q0 -43 -24 -63h5q98 0 166 48q3 17 3 26zM1838 922q-3 1 -8 1q-13 0 -57 -54q-34 -33 -101 -101h4q6 0 8 0.5t154 153.5zM1796 924h-2q-21 0 -79 -69q-60 -73 -61 -73q-6 1 -27 -15h6q1 0 6.5 2.5t52.5 49.5zM1783 900l-133 -132h5
q6 0 54 46q45 43 56 57t18 29zM2292 210v72q-35 -5 -105 -16q-23 -17 -64 -56q-7 5 -9 11q18 16 57 42q-46 -5 -60 -12.5t-47 -42.5l-11 9q30 26 49 38q-29 -1 -72 -51l-10 10q23 20 45 35q-20 0 -77 -55l-10 9q22 20 57 42q-70 -5 -73 -5q-51 0 -97 37q-33 27 -33 34t3 15
q63 -71 140 -71q36 0 317 36v269q0 -23 -3 136q-77 -74 -192 -158q-16 31 -121 31q-27 0 -105 -79l-14 13q91 80 120 80q82 0 118 -25q1 1 52 39l-262 -4v12h265v-6q86 65 135 107l-348 9q-19 0 -56 3q2 6 2 9q0 5 -2 10l407 -22v25q0 28 -4 60l-457 -33v-586h80
q10 0 385 29zM976 1709q0 51 -213 51q-27 0 -63 -1q33 -21 33 -73q0 -41 -24 -61q70 4 150 23q117 26 117 61zM2654 52l-5 7q-11 0 -32 -4t-32 -4q-21 0 -68 25l-8 -5l-6 17l74 53q-29 27 -25 38q-47 -16 -134 -62l66 -100l-4 -2l-69 90l5 11q-50 -37 -50 -76q0 -44 123 -44
q11 0 21 4l54 -169q35 24 75 38q-11 28 -32 84q-4 17 -12 36l-7 5l4 3q-1 5 -11 31l15 6q5 -17 9 -27q24 18 49 45zM703 1852q0 26 -8 38.5t-75 22.5q-53 8 -87 8q-9 0 -21 -1q33 -20 33 -71q0 -41 -26 -63q41 1 104 19q80 21 80 47zM1628 778q-12 -2 -23 -13h7q5 0 16 13z
M990 1545q0 25 -75 40q-53 11 -96 11q-49 0 -104 -1q32 -22 32 -72q0 -41 -25 -62h7q51 0 146 24q115 28 115 60zM1605 775q-16 -2 -24 -11h9q6 0 15 11zM1581 773q-16 -2 -23 -10h10q5 0 13 10zM1557 771q-13 0 -21 -9h11zM1534 769h-6q-8 0 -15 -9h12zM697 1693
q0 56 -180 56q-10 0 -22 -1q33 -19 33 -70q0 -42 -25 -63q194 23 194 78zM1510 766h-8q-5 0 -12 -7h12zM1484 764q-7 0 -18 -6h13q2 2 5 6zM1462 763h-8q-4 0 -10 -6h12zM1440 761h-7q-8 0 -13 -6q7 0 20 6zM1393 758h-13l-4 -6q6 0 17 6zM1369 756q-7 0 -18 -6h6q7 0 12 6z
M712 1499q0 26 -62 43q-48 13 -85 13h-56q34 -23 34 -72q0 -41 -26 -62q46 1 112 21q83 25 83 57zM1349 756h-11q-4 0 -10 -7h10q5 0 11 7zM1325 755h-12l-7 -7h3q9 0 16 7zM1610 527l-78 59l-90 -58l73 -63zM1304 755h-12l-9 -8h5q8 0 16 8zM1282 755h-9q-5 0 -14 -10h7
q7 0 16 10zM1260 754h-13l-10 -10h6q8 0 17 10zM1814 179v590l-576 -39v-5q0 -42 30 -100q173 -9 173 -56q0 -16 -16 -27l4 -3q49 26 110 62l86 -65l56 38l6 -5l-53 -42l128 -110l-6 -3l-135 104l-96 -70l-99 72l-54 -32l-18 12l58 30l-5 3q-20 -9 -61 -24l13 -63
q94 -16 94 -47q0 -25 -58 -47q20 -47 91 -162q17 -27 19 -27zM1237 754h-6q-6 0 -16 -11h6q6 0 16 11zM1214 753h-11l-11 -11h7q5 0 15 11zM1193 753h-3q-10 0 -22 -13h9q6 0 16 13zM1434 569q0 44 -161 48q10 -16 41 -41q22 -18 31 -59q29 9 54 20q-15 12 -30 27l10 12
q35 -29 38 -29q17 0 17 22zM1169 751h-9q-5 -4 -14 -12h10q4 4 13 12zM1147 750h-12l-12 -12h11q4 4 13 12zM1125 750h-8q-6 0 -11 -5l-3 3v1h-5q-8 0 -21 -14h12l11 10l4 -3l-5 -5h13q3 0 13 13zM1074 1064h-2q-12 0 -86 -23q-95 -29 -96 -29q-68 -18 -150 -34l-6 -81
q75 -20 135 -56l-6 -5l-4 2l18 -23v2h170l-1 -5h18zM1065 798v5h-7l-48 -49l8 -2zM1065 781q0 1 -1 7l-38 -39l8 -3q6 1 18.5 15t12.5 20zM1079 748h-8q-4 0 -12 -10l9 -3zM1062 763l-19 -19l8 -3q10 0 11 22zM1048 803l-5 1l-5 -1l-45 -44l8 -2zM1444 399q0 23 -85 39v-1
q0 -11 32 -78h2q16 8 31 16q20 11 20 24zM1336 515q-5 38 -30 59q-35 28 -43 43q-57 1 -52 1q-14 0 -64 -2q28 -21 28 -70q0 -39 -20 -59q86 5 181 28zM1028 804h-13l-38 -40l9 -2zM1088 727l-2 5q-7 -1 -20 -5q-2 -1 -24 -27l27 27h12h7zM1007 804h-13l-34 -35l9 -2z
M1061 730l-8 2l-35 -34q17 1 43 32zM984 804h-11l-33 -33q3 0 8 -1q3 0 36 34zM1045 735l-8 2l-41 -41h6q11 0 43 39zM963 804h-12l-29 -30l3 -1l7 1zM1028 740l-7 2l-50 -48h5q12 0 52 46zM2599 -272q-165 -17 -585 -47v-58l-8 -1l-4 2v56l-94 -4l10 -21l-4 -6
q-16 27 -30 27q-8 0 -35 -2q1 -4 1 -7v-4l-11 9l-9 -147q-5 -82 -5 -76q0 -4 49 -167h8q9 0 39 5q108 15 323 54q240 56 322 221q14 28 27 117q3 16 6 49zM942 804h-13l-28 -28q3 -1 10 -2q11 10 31 30zM1012 745l-8 2l-54 -53h9zM920 805h-5q-8 0 -34 -28q5 -1 9 -1
q2 0 30 29zM996 750l-7 2l-58 -56q3 0 8 -2zM1059 708l-12 -15q-99 -9 -96 -9q-5 0 -37 7v-10h143l1 -2zM979 755q-3 2 -8 4l-60 -59l9 -2zM899 805h-10l-26 -25q2 0 6 -1q6 0 30 26zM962 761l-6 1l-4 -1l-59 -59l12 -1q11 10 57 60zM877 805q-2 2 -7 5l-27 -29q4 0 11 -1
q8 8 23 25zM1383 355q-15 27 -32 84q-77 9 -81 9q8 0 -113 -2q28 -21 28 -70q0 -41 -20 -60q136 12 218 39zM866 815q-2 2 -6 7l-38 -39h13zM943 763q-3 1 -8 1q-3 0 -62 -60h9zM857 829q-2 4 -5 6l-51 -52h11zM846 840l-5 4l-62 -61h12zM924 764l-9 2l-61 -60h11zM834 848
l-7 4l-69 -68q5 -1 9 -1q8 0 67 65zM1677 -66v29h-25v-29h25zM905 767q-2 1 -7 1q-1 0 -5 -1l-59 -59l9 -1zM819 856q-1 0 -7 4l-75 -76h11zM722 900v73l-63 -14q-5 5 -6 9q-5 5 -12 5q-26 0 -19 -1l-6 -93q55 22 106 21zM885 769q-3 1 -8 1q-3 0 -62 -59l8 -2zM806 863
l-9 3l-81 -82h11zM1638 -65v28q-11 -1 -20 0v-28q8 1 20 0zM865 771q-5 0 -8 1l-61 -59q3 0 8 -1zM1676 -105v28h-25l-1 -28h26zM789 869l-7 2q-30 -28 -88 -86q6 -1 8 -1h4q23 22 83 85zM1575 -24q-2 4 -9 22l-1 -22h10zM845 773h-11l-57 -57l8 -2zM774 874l-9 3l-93 -93
h11q31 30 91 90zM1605 -64v26h-11q0 -2 -1 -7q0 -2 8 -19h4zM825 774h-12l-51 -52l7 -3zM1675 -133v16h-26v-16h26zM1637 -104v27l-20 -1v-23q0 -1 1 -3h19zM756 879l-7 2l-98 -97h11zM1597 -64h-6l2 -2v1l2 -3zM803 774q-4 1 -8 1h-2l-48 -47l9 -4zM1580 -64v25h-17v-25h17
zM740 884q-3 0 -8 1l-103 -101h12zM783 775h-12l-41 -41q3 -1 8 -4zM1604 -104v15l-5 11h-7v-26h12zM1637 -133v15h-12q4 -9 7 -15h5zM1674 -165v19h-26v-19h26zM721 887l-6 1l-5 -1q-12 -11 -103 -103h13zM1623 -133l-7 15v-15h7zM761 775h-12l-35 -35q2 -1 8 -3z
M1579 -104v26h-18v-26h18zM701 889h-9l-108 -106h6q7 0 111 106zM739 775q-10 2 -8 2q-2 0 -33 -32l8 -2zM1603 -132v14h-13v-14h13zM1635 -165v7l-6 12q-2 0 -5 1h-5q-1 0 -5 -1v-19h21zM1673 -220v43h-21zM719 776h-12l-30 -30q2 0 7 -1q6 0 35 31zM678 887
q-17 -2 -115 -104h12zM1579 -132v14h-19v-14h19zM1602 -164v17h-13v-17h13zM895 694l-106 11v-217q19 9 28 17q15 13 46.5 89.5t31.5 99.5zM698 776h-13l-29 -29q2 0 7 -1q1 0 6 1q7 6 29 29zM645 876q-27 -9 -57 -40q-23 -27 -47 -53h12zM1734 -315q-19 17 -52 56
q1 -19 -1 -57zM677 776h-13l-28 -28q5 -1 11 -1q10 9 30 29zM774 697v12q-92 29 -101 29q-4 0 -56 -38h33q22 1 33 1h38q24 0 51 -3zM1578 -164v17h-19q1 -9 0 -17h19zM654 776h-12l-32 -32q17 2 44 32zM774 614v79q-9 -4 -28 -4q-1 -27 -2 -45l-3 -3l-4 2q-4 28 -4 46
l-14 -1v-67l-9 6q-1 20 -3 61l-14 -1v-71q9 0 28 -1t29 -1h24zM610 861q-25 -9 -91 -78h13zM1674 -316l-4 4q0 10 2 35q1 22 1 35q0 5 -26 57l-6 -127h-5v133h-23l-4 -126q0 -6 -8 -9v135h-12q0 -59 -10 -139zM633 776h-7q-6 0 -43 -39q16 1 50 39zM1826 -327h-79v-4
q0 -30 29 -91l10 7v-7l-7 -8q14 -29 37 -88q10 161 10 141v50zM1578 -318v139h-20q0 -57 -7 -130h-5v130h-38v14h40v19h-37v14h37v15h-37v14h38v24q-14 -1 -15 -1q-19 0 -27 4v10q7 4 43 3v24h-45l3 -280zM566 839q-4 -1 -14 -2q-6 -5 -53 -53h9zM610 775h-13l-43 -44
q19 4 56 44zM683 616q-4 68 -4 71l-13 -1l2 -2v-68h15zM543 838q-5 1 -8 1h-3q-18 -18 -53 -54h9zM588 775h-12l-46 -47l4 -2q10 2 54 49zM522 839q-1 0 -9 1l-54 -52h12zM658 616q-5 39 -3 70l-19 -1q1 -23 -4 -69h26zM566 775h-11l-41 -42l8 -3zM503 841q-3 1 -8 2
q-2 0 -56 -54q5 -1 8 -1h2zM545 775h-6q-6 0 -42 -36l8 -3q13 13 40 39zM485 845l-9 2l-57 -56q2 0 9 -2zM626 616l-1 2q-2 22 -5 67q-9 -1 -12 -1q-5 0 -7 3l-4 -71h29zM524 774h-13l-34 -34h3q7 0 44 34zM468 849l-9 2l-61 -61h7q6 0 63 59zM780 483l-5 122l-160 -6
l159 -119zM502 776q-3 1 -8 1q-4 0 -40 -38h1q9 0 47 37zM450 854h-3q-9 0 -71 -64h11zM763 476q-4 2 -146 100q-24 17 -55 37l-4 6q0 7 -4 48l-3 6q1 8 92 67h-5q-13 0 -103 -21l-43 13v-6q15 1 11 1q8 0 11 -7q-9 -3 -23 -5q-3 -50 -3 -72q0 -37 5 -53q48 0 66 -6
q-12 -5 -64 -9q13 -60 82 -90q34 -15 103 -19l2 9l15 -3l-2 -7h25q13 0 43 11zM586 619v59q-5 -3 -15 -11q0 -8 -1 -25v-9q5 -5 16 -14zM482 777q-2 1 -7 1t-43 -40h6q9 0 44 39zM415 840q-21 -8 -61 -50h12zM463 778h-13l-42 -41h2q7 0 53 41zM1866 -720l-41 143l-12 -150z
M441 780l-8 1l-47 -46h4q8 0 51 45zM372 818q-24 -14 -39 -28h11zM480 728v4l-101 -6l2 -5zM422 782q-2 1 -7 1t-50 -46l1 -2h10zM401 783h-12l-36 -37q2 -2 7 -5zM380 783h-13l-26 -27q2 -2 6 -5zM358 783h-3q-10 0 -27 -18q2 -2 7 -5zM335 781h-12l-4 -4l5 -7zM477 714
h-18q-14 0 -37 -2q-30 -3 -38 -3v-118h92q-4 37 -4 35v34q0 -2 5 54zM679 349v98q-32 1 -74 13l-7 -113q12 0 39.5 1t41.5 1zM1814 -544q1 21 -41 108q-69 -69 -224 -181q-4 8 -7 10q-7 4 -101 4q-44 0 -79 -30l-60 -60l-14 14q92 82 114 86q13 2 35 2q65 0 88 -4l16 -3
q6 0 111 78.5t117 92.5q-17 39 -31 99q-173 -5 -475 -5h-233l-2 4v6l472 4q-11 178 -11 359q0 33 8 54l5 -2l4 2l4 -4q-6 -48 -6 -57q0 -3 1 -58h45l4 53q0 5 -12 44t-16 46q-8 15 -23 33h-8l-445 -25l-4 4v7l448 27q-40 59 -107 184q-129 -42 -238 -42q-5 2 -5 4l-9 140
l4 4q66 2 96 2q21 0 59.5 -4t55.5 -4l-12 59q-103 -29 -197 -29q-1 0 -7 1l-9 141q0 4 10 4q17 0 62 1h62q-18 39 -22 50q-4 15 -8 55l-156 -11l-67 -1430l-11 2l63 1383q-70 -6 -148 -6q-5 -24 -37.5 -86.5t-48.5 -80.5q-15 -10 -37 -36l-7 1q-43 -21 -86 -20q0 -45 -5 -97
q1 1 3 1q4 0 7 -6q-3 -5 -10 -5q0 -8 -7 -15l-2 14l-88 -9q-9 -1 -9 8q0 5 2 9h4v118l-12 3q1 9 -17 16q-65 27 -81 92q-26 -3 -83 -3q-14 0 -24 1l2 17q-8 81 -8 138q-39 19 -58 53q-44 8 -147 23q-28 -925 -28 -1115q0 -58 23 -107q47 -100 281 -185q169 -61 504 -107
q308 -42 519 -42q140 0 341 25zM2579 1822l-7 8q-15 99 -15 83q0 11 2 20l3 3q4 37 4 49q0 10 -3.5 29t-3.5 29l5 4h8q6 -42 6 -62q0 -14 -4.5 -41t-4.5 -41t5 -40.5t5 -40.5zM2032 2005l-206 -4v16h139q-8 0 67 -4v-8zM2035 1818l-174 -12q-12 -1 -9 -1l-21 1v16h204v-4z
M1826 1766l-7 -8q-64 -10 -117 -10q-30 0 -46 5v-38h-9l-9 348h96q4 0 81 -16l-1 -5h-10q-8 0 -24.5 2.5t-24.5 2.5h-98v-68h65q-11 0 100 19q-8 -10 -46.5 -22.5t-54.5 -12.5h-65v-140q75 10 83 10q40 0 83 -10l4 -7q-10 0 -30 1t-30 1q-19 0 -56.5 -6t-53.5 -6v-37
q99 -6 93 -6q7 0 77 3zM2507 926h-10v166h10v-166zM2178 676q-47 -6 -100 -6h-129q-14 0 -36 1q-26 1 -35 1l2 12h298v-8zM2177 640l-297 -7v12h297v-5zM2207 520q-82 -6 -97 -6q-16 0 -40 4v15q34 -5 118 -4h19v-9zM2189 489q-71 -8 -78 -8q-13 0 -41 5v11h6q4 0 11.5 -2
t11.5 -2h89zM2189 454q-31 -3 -114 -3q-1 -3 -6 -11l2 25q21 -4 117 -6zM2180 407q-79 -7 -83 -7q2 0 -36 4v9q7 2 11 2q21 0 54 -1q42 -2 54 -2v-5zM2040 504q-49 -5 -66 -5h-26q-16 0 -32 4l2 15q28 -6 122 -9v-5zM2182 284l-5 -5l-67 53q2 5 8 11zM2033 462
q-89 -6 -84 -6q-10 0 -37 5v11h7q16 0 56 -1q36 -1 58 -1v-8zM2127 283l-5 -5l-69 55l9 9zM2020 421q-60 -6 -66 -6h-25q-12 0 -27 3v14q24 -6 103 -6h14zM2094 276l-5 -6l-66 53q2 4 7 10zM2029 384q-90 -9 -98 -9q-19 0 -46 18v14q30 -20 44 -20q13 0 100 5v-8zM1983 291
l-5 -5l-147 87q3 6 9 15zM2421 -424q0 -21 -12 -105q-56 -19 -107 -19q-54 0 -54 60q0 40 23 106l8 -2l1 13q38 7 49 7q41 0 87 -21q5 -21 5 -39zM2182 -456q0 -7 -6.5 -55.5t-7.5 -50.5q-5 -8 -67 -16q-56 -8 -77 -8q-55 0 -55 62q0 52 29 111l10 -2v14q51 7 62 7
q13 0 54 -7q45 -7 49 -12q9 -10 9 -43zM1404 15q0 -40 -135 -69q-102 -21 -172 -22l-9 151l5 -5q22 2 30 2h99q45 0 103 -13q79 -17 79 -44zM1628 -495q-198 -8 -179 -8h-164v12h343v-4zM1724 -430l-355 -8q-8 -14 -28 -25l274 -1q5 0 46 -8q-111 0 -333 -3q-11 0 -43 -10
q-118 -36 -222 -35l-10 153q5 -7 13 -7q3 0 9.5 1t9.5 1h114q87 0 138 -24q10 -7 30 -20l357 -6v-8zM880 83q0 -66 -66 -75q6 82 7 147q59 -14 59 -72zM1611 -548q-211 -5 -221 -5h-123v14h344v-9zM815 154q0 -37 -10 -177q-11 153 -11 180q0 5 1 17v17h19v-19q1 -12 1 -18z
M795 8q-66 9 -66 75q0 58 59 72q1 -65 7 -147zM867 -167q0 -65 -66 -74q4 49 8 147q58 -14 58 -73zM802 -94q0 -37 -10 -177q-11 153 -11 180q0 5 1 17v17h19v-19q1 -12 1 -18zM690 69l-310 -20v29l310 -1v-8zM782 -241q-65 8 -65 74q0 59 58 73q1 -65 7 -147zM687 -29
l-307 -21v30h307v-9zM687 -124l-307 -21v30l307 -1v-8zM2409 -427q0 27 -6 38t-78 11q-11 0 -44 -8q-8 -25 -20 -77h113v-7l-114 -8q-1 -9 -1 -10q0 -48 49 -48q61 0 94 14q7 118 7 95zM2168 -456q0 21 -7 38q-56 10 -87 10q-22 0 -64 -9q-21 -49 -26 -80l139 -2l1 -5
q-73 -8 -132 -8q-6 0 -9 3q-1 -9 -1 -15q0 -48 51 -48q63 0 126 12q9 93 9 104zM1397 15q0 50 -224 50q-9 0 -63 -3q28 -23 28 -70q0 -39 -21 -60h4q52 0 154 24q122 28 122 59zM1358 -438h-50v23h46q-49 36 -216 36l-63 -2q29 -22 29 -71q0 -39 -21 -59q145 11 213 39l2 9
q6 -1 9 -1q30 0 51 26z" />
    <glyph glyph-name="uF7A2" unicode="&#x123f1;" horiz-adv-x="2918" 
d="M1623 2809l-100 -101l-5 5l101 101zM1840 1896q-49 -41 -91 -41q-16 0 -78 20q-7 11 -7 17q0 20 31 38l48 24l8 -2q-20 -13 -41 -25q-23 -16 -32 -35v-1q65 -21 71 -21q14 0 44 14t38 14q3 0 9 -2zM899 2686l-40 -40l-5 5l40 40zM949 2703l-111 -111l-5 5l111 111z
M973 2695l-127 -128l-5 4l126 128zM990 2678l-136 -137l-6 4l136 137zM1006 2661l-143 -145l-5 4l143 145zM1023 2644l-148 -149l-6 3l148 150zM1737 1801l-122 -11q2 7 2 18h91q1 0 29 -7zM1718 1743l-108 -10q0 6 1 19h107v-9zM1702 1662l-107 -11v8q0 2 3 11l104 -3v-5z
M2499 865h-98q-83 0 -163 27q-35 12 -57 46.5t-20 71.5h-3q-1 -1 -24 -18q-36 -26 -83 -44l-8 3v16q50 17 101 48l-57 20q-59 -29 -182 -70l-11 2v15q84 20 179 57l-145 52h6q-8 3 -25 7q1 8 7 17l67 -24h-6l177 -70l7 5q1 11 5 32l-95 31l13 2q-24 8 -72 21q4 8 9 16
l92 -36l-11 -1q21 -8 65 -23q1 2 8 23h9q9 7 26 22q27 23 248 112q-1 7 -1 25q12 -4 19 -11v-148h4v-218zM1610 1678q-95 -9 -100 -9t-10 4q1 4 4 13h106v-8zM1837 1417l-38 -38l-5 5l37 37zM2786 631l-6 -5l-3 -21q-1 6 -5 17v3l-237 -3q-1 -18 -4 -54q-7 7 -6 54h-37
q-1 -17 -4 -51l6 -3v-85l27 3v86l17 -6l-4 -78q19 1 115 17t112 22v11q-1 8 -1 11q6 -1 18 -2l-2 -116h-5q-1 4 -2 11h-236q-1 -21 -12 -71v69h-30q-1 -20 -5 -60q-7 10 -6 60h-37q-2 -12 -4 -54l-8 -4v58h-16q-3 -19 -5 -50h-6q0 2 -4 26q-3 18 1 25h-53q-3 -28 -13 -86v84
q-9 0 -27 -3l2 5h-59q8 11 12 20h72v100q5 -1 16 -3q0 -15 -1 -44t-1 -44v-7q17 3 51 7l1 1q2 14 2 16v136h-34q0 -24 -4 -58l-7 -4v61h-7q-21 0 -39 -5l-1 5h-58q2 8 12 21q70 0 93 3v106q5 -2 16 -6v-42q0 -10 -2 -28t-2 -27q4 0 33 3v107q10 -4 16 -4v-47q0 -8 -2 -25
t-2 -25v-3h1q5 0 16 1v96q5 -1 16 -3v-49q0 -7 -1.5 -20.5t-1.5 -19.5q5 0 34 3v91q6 0 18 -4l-4 -84q7 0 35 3v90q5 0 16 -5q0 -15 -1 -42.5t-1 -40.5q15 0 113 17t112 22v13q-1 9 -1 13q6 -2 16 -7q2 -32 2 -94zM2258 538l-15 -4q-4 -11 -13 -36.5t-54 -110.5l-5 9
q32 70 54 136q-11 0 -34.5 -2t-35.5 -2h-13l1 15h84q6 12 8 26l5 -4q-1 6 -4 17l-106 -7q5 9 5 15h100q-2 19 -10 51l-94 -7q2 6 7 17h28q20 0 57 -3q-3 11 -8 23q-5 0 -80 -5q1 6 2 17l76 -1q-1 4 -8 21l-73 -5l1 13q-16 -30 -32 -59q-20 -37 -20 -64l7 -25q12 -44 86 -181
h-5l-4 2q-56 73 -109 216l19 7q18 97 46 123q3 3 13 3q8 0 8 -5l-7 -13l67 -2q-3 6 -6 21q4 1 8 1q8 0 11 -7q34 -75 34 -166q0 -8 -4 -19zM1599 2798q-7 1 -12 1q-12 0 -76 -68l-4 4l61 62h-4q-22 0 -60 -39l-3 4l33 34h-6q-21 0 -34 -16l5 13q-200 -7 -438 -42
q-33 -4 -98 -16q-24 -8 -73 -16l-4 2q-81 -104 -115 -133q-62 -52 -161 -71q-11 -2 -74 -2q-3 0 -30.5 -3.5t-77.5 -12.5q-19 -8 -59 -22q-22 -7 -66 -14q-97 -770 -97 -1378q0 -187 14 -473h-20q-14 228 -14 478q0 600 97 1376q57 18 173 46q63 11 146 11q2 0 41 11
q17 4 51 15q87 36 189 181l-1 8q211 51 616 76q80 5 101 5v-21zM761 2036q0 -45 -101 -72q-75 -20 -139 -20q3 5 3 9q0 9 -1 34q-65 -43 -200 -43q0 27 -1 81t-1 81q0 6 4 9h55q66 0 140 -31v31h61q47 0 106 -19q74 -24 74 -60zM2591 -37l-12 -12l-5 6l12 12zM2806 1386
l-49 16q-14 -12 -42 -40l-9 15q12 12 33 31q-30 14 -60 23l1 2l-184 -32l202 -16v-4q-146 3 -438 17q-54 8 -161 17l-5 -122l2 -4l646 -11v-12l-776 12q-3 0 -18 -11l8 12h-92l5 -188h1l7 -283h112q173 0 778 7l-3 210q-1 22 -4 66l-12 245h20q17 -354 20 -572q-9 3 -20 3
l-1 36l-712 -8q-184 -176 -184 -183v-19l188 184l3 -4l-189 -192v-21l171 169l4 -3l-174 -177v-21l151 149l4 -4l-122 -123h165v-9q-177 -9 -180 -7l-16 -17v-22l15 14l-15 -25l11 -281l317 8l-11 15l15 6q10 -21 16 -21q3 1 7 3q9 -2 24 -2q8 0 16 8l4 -3q6 11 9 11t13 -3
l-8 -12q3 0 12 4q3 4 30 23l-25 -27h2q20 0 41 18l3 -4l-11 -12q22 0 48 22l3 -4l-17 -17h3q19 0 49 26l4 -4l-20 -21h23q9 9 28 26l4 -4l-22 -21q9 -1 14 -1q11 0 38 28l4 -4q-6 -7 -21 -22q21 0 50 26l4 -4l-21 -21h5q18 0 38 17l4 -4l-12 -12h5q19 -1 26 6l3 -2h159v-14
h-48l2 -2l-65 -75l87 -110l-4 -3l-94 103l-109 -110l8 -13l110 108l4 -4l-109 -112q2 -5 8 -13l86 84l3 -4l-85 -87l10 -14l56 56l4 -4l-56 -58l4 -6l-4 -2h-2l-4 2l-50 -47l-4 3l49 50l-10 13l-70 -68l-4 4l69 70l-9 12l-90 -87l-4 4l88 89l-9 13l-109 -106l-4 4l108 108
l-9 13l-128 -125l-4 4l127 128l-8 14l-148 -145l-4 4l115 115q-37 -10 -78 -49l-64 -68l-3 3l85 87q-9 -4 -28 -10l-5 2l-81 -81l-4 4l163 164l-10 13l-181 -179l-4 4l180 182l-9 13l-192 -191l-3 4l191 194l-9 13l-120 -120l4 -3l-6 1l-79 -77l-3 3l75 76l-16 6l-78 -74
l74 -123l-6 -6l-89 131l-16 -53q8 -5 25 -32q7 14 17 44q-8 -68 -8 -56q0 -4 30 -47q86 13 255 48q30 12 91 36q66 25 111 60l-97 -19v16q38 3 113 16q6 2 87 37l15 407h20l-15 -411q-3 1 -9 2q-18 0 -87 -41q-21 -17 -65 -46q-7 -4 -96 -40q-50 -21 -151 -62
q-34 -13 -136 -40q-109 -29 -134 -29h-28q-19 1 -28 1q-18 0 -47 -20q-43 -30 -45 -31l-57 -21q-37 -20 -112 -55q-80 -12 -202 -53q-8 -6 -42 -72l2 -87q0 -8 -81 -73q-91 -72 -98 -80q1 -4 -4 -7h-8q3 0 -111 11q-304 29 -481 70q-62 11 -181 45q-118 48 -174 149
q-34 61 -73 222q-31 127 -31 147l20 4q25 -125 48 -216q55 -216 207 -283q75 -33 117 -33q9 0 56 64l-176 150q5 2 14 8q1 1 10 31q7 23 40 79l-132 139q11 8 16 8q3 0 63 -68q64 -72 75 -80q0 -5 31 -44q-14 4 -38 30q-33 -43 -56 -96l159 -149q55 74 55 140
q0 117 -156 231q3 8 9 23q175 -136 175 -246q0 -73 -72 -158l9 -7l-4 -9l-10 9l-56 -57q74 -19 172 -36l-17 885q-63 -81 -112 -112l44 -30l-3 -4q-127 61 -171 98q-5 4 -5 10q0 16 117 118l-7 3q6 4 18 11l2 -2l17 14q1 -2 1 -5v0q-1 -7 -8 -14l105 -69l2 2v46l-7 -4l-3 4
q8 8 8 17v7v7l-18 -16l-4 4q7 8 21 23v22l-33 -31l-3 4l34 40q1 12 1 20l-46 -44l-3 3l49 52v8h-10q-1 0 -6 -1q-1 0 -44 -44l-4 4l40 41h-5q-17 0 -43 -24l-4 4q4 4 15 17h-13q-4 0 -11 -1q-1 -1 -4 -3q-36 -27 -73 -55q-50 -35 -80 -35q-40 0 -76 42l-1 5h-2l-102 -6
q0 3 1 -6q0 -4 -5 -24l-17 131h12l1 6h114l4 28l8 -3q1 19 71 47v2q0 17 -2 95l-21 -26q4 0 20 -5q-6 -1 -20 -1q-10 0 -52 -43q-26 -27 -52 -55l-6 16l84 79q-21 0 -41 -3q-17 -20 -99 -97l-3 16l84 81q-30 0 -37 -3q-2 -1 -20 -21.5t-93 -89.5v6q0 7 -2 12l98 92
q-10 0 -34.5 1.5t-37.5 1.5q-40 0 -58 -8q-1 0 -43 -39q-37 -34 -121 -98q0 9 -3 18q92 66 153 118l-161 -5v-108q-10 10 -20 106q-6 0 -9 -1l1 15l4 8q225 5 331 5q18 0 18 15q0 1 -8 261q18 -6 163 -6q-3 -8 -8 -9l5 -1q-1 -118 6 -133l-4 -1v-190q4 0 14 2t15 2
q41 0 103 -56h87l-43 2056h12l46 -2056h2l5 2l-3 9l2 5l18 -2q0 -3 -1 -8q0 -8 28 -6q-8 -4 -25 -9v-99l-8 10l-15 -16v-23l27 27l4 -4q-32 -37 -32 -36q0 -13 1 -20l32 30l4 -4l-35 -35v-23l35 34l3 -4l-39 -41v-15l13 12q-1 -6 -6 -15.5t-5 -13.5q0 -8 16 -16t16 -19
l-32 17l16 -881l-3 -1q118 -20 478 -56v-2q46 35 93 70q70 55 70 76q0 6 -3.5 18t-3.5 18v162l19 -6q-3 -25 -2 -52v-44q18 31 40 65q6 4 38 11q-25 2 -72 8q0 10 -1 19l105 -16q9 2 27 7q-52 55 -52 116q0 8 7 36l13 -2l77 165q3 0 15 -8l-87 -159q-6 -11 -6 -40
q0 -21 10 -50q19 -56 34 -56q5 1 19 6l-10 182l17 -3v-179q1 0 38 9l1 2l-11 177l17 -5v-171q13 0 19 3q19 43 47 102l-84 154l18 4q46 -90 76 -158l-1 -3l4 -3q-9 -28 -45 -89l93 45v307q0 -21 -7 224q-54 0 -233.5 -1t-232.5 -1v-273q0 -21 -7 -124q-15 -219 -47 -530h-13
v12q0 5 8 77q52 469 49 671v18l-20 753l-519 -9v11l266 8v290q0 81 -2 285q-3 181 -2 285l-128 -7q3 9 3 19l62 4l-168 161v-381q72 84 189 199l7 -4l-203 -237q-11 18 -11 21t4 7t4 6l-15 406h6l-18 16q16 10 19 10q14 0 200 -205q9 -1 21 -1h27v220l-10 -10l-4 3
q6 9 15 17v24l-34 -32l-3 3l38 40v23l-57 -56l-4 3l38 36q26 25 26 40l-1 12l-82 -80l-4 4q88 86 88 92q0 10 -1 20l-89 -90l-4 4q44 40 93 95q2 7 2 16l-1 8q-6 -8 -19 -24q-24 -22 -71 -66l-4 3l35 36q-76 -32 -185 -38l-5 172h41q29 0 73 -7l25 24h-3q-20 0 -35 -11l7 13
v18q-49 -26 -119 -26l-5 165h42q10 0 29.5 -6t29.5 -6q7 7 21 22l-4 -1q1 5 1 10q0 4 -1 11l-24 -24l-3 4l27 28q-45 -39 -141 -39l-4 165h40q4 0 24 -4l149 145l4 -4l-142 -143q6 -1 18 -4l128 126l3 -3l-122 -126l16 -5l110 108l4 -3l-75 -77h24q19 19 57 56l3 -3l-52 -54
q14 -3 19 -3q6 0 37 34l4 -3l-31 -33q11 -4 19 -4q5 4 14 12l3 -4l-9 -10q65 -24 70 -59q5 73 19 219l11 -3l-30 -371q3 -12 3 -39l9 9l3 -3q-20 -26 -20 -34q0 2 1 -12l27 27l4 -3q-33 -38 -33 -46q0 -3 1 -13l39 39l3 -4q-44 -48 -44 -51v-19l52 52l4 -4q-60 -63 -60 -67
t2 -16l64 64l4 -4q-71 -74 -71 -79q0 -3 1 -15l78 76l3 -4q-83 -81 -83 -89q0 -9 1 -19l89 90l4 -4q-96 -99 -96 -103q0 1 1 -17l103 101l3 -4l-105 -108v-22l115 114l2 -2q1 31 -1 49h10q1 9 1 10q0 115 -5 141l7 3l-4 139l-12 1l-5 171h47q54 0 114 -17q81 -24 81 -63
q0 -55 -138 -82q153 -14 153 -77q0 -52 -128 -79q127 -18 127 -74q0 -53 -133 -80q126 -24 126 -72q0 -29 -41 -48q-32 -14 -64 -27q-5 -3 -87 -86l12 -11l91 88l4 -3l-88 -89l12 -11l92 90l3 -3l-89 -92l12 -10l94 91l4 -3l-92 -92l12 -11l95 93l4 -3l-94 -94l13 -12l94 92
l4 -3l-92 -93l12 -11l87 84l3 -3l-85 -86l12 -11l80 78l3 -3l-78 -80l13 -11q28 23 64 64q3 7 3 33q0 43 3 128.5t3 128.5q0 165 -17 559h12q18 -338 18 -615q0 14 -8 -215h100l5 -9q-35 -3 -105 -10l-1 -2v-20l7 6l3 -3q-13 -11 -13 -21q0 -2 1 -16l11 10l-11 3q2 10 7 16
h47q35 0 70 -8q-111 -11 -112 -11l3 -3q-18 -22 -18 -32q14 3 16 3q11 0 45 -3q29 -2 46 -1l-2 -8q-28 -4 -101 -9l-3 -3q-11 -239 -22 -428q137 5 364 3l-3 3l65 70l-11 10l-69 -68l-3 4l66 68l-13 11l-64 -63l-3 3l61 63l-13 12l-53 -52l-3 3l51 52q-14 16 -25 16
q-15 0 -27 -9l-3 4l2 2l-229 -10q1 -7 1 -9q0 -11 -9 -19v165l17 -4q-2 -13 -1 -24v-4h266l-1 1l99 109h-7q0 67 -4 104l-110 -10l2 18h107q-3 25 -19 60q-28 23 -99 23q-4 0 -16 -1l2 -4q-3 -14 -30 -67q-23 -47 -23 -78q0 -44 44 -44q43 0 137 49v-8q-76 -61 -148 -61
q-49 0 -49 58q0 48 54 165q39 4 63 4q13 0 34 -3q25 -3 34 -3q13 -13 101 -154l-4 -3l-68 92v-2q0 -9 2 -27.5t2 -27.5q0 -7 -3 -78l21 24l3 -2q3 12 17 24l-70 -327l-5 1l-1 8l-64 -64h5q8 0 20 1q19 19 58 56l3 -3l-51 -53h24q14 13 41 40l3 -3l-34 -37h23q11 11 26 24
l4 -3l-19 -21q25 -1 15 -1q8 0 14 7l4 -3l-2 -3l105 -2l13 420l-73 -50l-5 17q44 29 79 50q1 7 1 16q0 7 -95 159q-9 -12 -25 -39l-12 14q12 20 25 40l-4 10q15 1 48 56q-13 9 -37 28l-29 -22l26 -32l-8 -3q-2 2 -29 26q-6 -5 -17 -12l-4 2l-2 -1q-11 8 -11 13q0 4 12 20
l-36 35q-7 -6 -22 -18q-3 17 -42 31q-32 12 -55 12q-35 0 -96 -26q59 -42 68 -42q17 0 61 18q-33 -32 -66 -32q-17 0 -75 44l6 16l2 -1l3 12q44 26 88 26q43 0 102 -38q21 14 61 44q6 6 20 18q8 5 24 14q5 3 47 34h-64q-204 0 -425 -6v12q201 6 566 6l-1 7q-25 15 -56 47
q-25 26 -50 53q15 44 81 141l5 -5l-1 7l10 -3l-9 190l-18 -16l18 26v22l-12 -10l-3 3q4 4 14 19q0 12 -1 21q-7 -7 -21 -18l-3 3q22 25 22 45l-29 -27l-3 4l10 11q-8 0 -23 -1l37 -72q-6 -4 -17 -31q-15 -37 -84 -155l-5 2q16 32 48 97q11 25 33 76l-105 -7l1 15h107l7 14
q-17 31 -37 60q-19 -1 -58 -5l1 17l9 1l-1 1l21 24l-10 12l-40 -37l-3 4l38 39l-2 3q-52 -38 -116 -111l-4 2l15 24l-119 -120l64 43l1 -1l52 52q25 -86 76 -203q1 -2 15 -11q43 -30 43 -79q0 -54 -52 -91q-48 -34 -104 -34q-89 0 -115 93h-2q-4 0 -15 -5v-20q11 -5 21 -13
q-7 0 -21 3v-61l-15 7v58q-27 12 -33 12t-32 -9q-1 -44 -1 -61l-16 -6v32q1 22 1 32l-56 -17v8v9q34 7 57 14l2 13q-35 16 -81 33q2 8 9 14l71 -31l7 118l-8 -3l-4 17l13 7l5 83q-3 2 -30 15l7 15q8 -4 24 -13q1 15 2 32l-8 -6l-3 3q8 6 15 34l-1 5q-11 -11 -25 -23l-3 4
q33 32 33 58l-42 -42l-4 3q16 15 33 31.5t17 36.5l-1 8l-62 -61l-4 3l67 68l-51 -31l-2 2l-42 -41q36 56 37 54q15 6 51 42l-16 7l-71 -69l-3 3l67 69q-7 5 -16 9l-62 -62l-4 3l60 62l-12 6q7 11 13 11q5 0 11 -5l46 45l4 -4l-44 -45l15 -8l60 58l3 -4l-56 -57l16 -7
q15 35 17 35q4 0 10 -9l44 42l3 -4l-42 -44l9 -10l4 8l4 -3l42 41h-10v19h97q-2 0 35 -2q212 -11 338 -44q193 -50 291 -163q-6 -12 -136 -139l14 -5q-22 -5 -52 -32l-4 3l24 24q-24 0 -54 -27l-3 3l19 20q-23 0 -31 -6q-10 -9 -20 -19l-3 4l20 20l-12 -2q1 6 2 19
q13 -1 19 -1q12 0 40 33q-8 1 -16 1t-85 -75l-3 3l69 69h-13l2 16q-13 -16 -41 -46q-13 -12 -40 -35l-3 4l27 28q-23 0 -47 -21l-3 3l13 14q-25 0 -33 -8l-3 3l1 2q-5 2 -21 -1l2 8l-2 -2l-3 4l47 48q-2 1 -7 1q-16 0 -51 -34l-4 4l6 -112l7 5l125 -100h48l32 33
q-10 9 -42 32l14 11l94 -76q11 10 42 25l-23 -24h61l-100 76l13 10l21 -17l128 135q-11 -4 -32 -15q-2 -1 -109 -105l-3 4l92 93l-13 -6l-3 13l-87 -86l-4 3l115 117q-6 1 -18 4l-109 -106l-3 4l103 104l-17 4l-98 -94l-4 3q44 42 95 96q1 4 5 10q9 2 52 48l-1 6l16 2
q5 -13 10 -21l2 -1l-2 -4q2 -6 8 -17l4 4l4 -4l-6 -6q1 -5 7 -17q4 6 15 76q9 -2 14 -11l-15 -75q3 2 86 37l2 -4l-72 -39l109 -24l-1 -5l-120 18l-6 -4q1 -9 6 -18l17 16l4 -3l-18 -21q1 -7 6 -17q8 9 32 24q107 -197 142 -445q15 -109 30 -470q2 -49 2 -88v-13l-4 -8h-22
l6 5q0 400 -47 665q-5 0 -18 1t-20 1q-5 0 -10 -2q20 -99 53 -341q12 -87 12 -103h-4l6 -5l-3 -6l7 4q13 -26 13 -50q0 -22 -9 -33q-12 -14 -77 -71t-75 -60l-6 3q54 53 54 55q0 24 -3 64q-3 47 -4 65q-1 40 -1 92q0 21 -49 54q4 -39 4 -201q0 5 -2 -126h-5l-14 339
q4 7 13 10l55 -46l-21 140l-254 -225l-2 17l234 232l-16 8l-213 -212l-3 3l210 212q-8 5 -16 8l-31 -30l5 -5l-6 -3l-4 2l-165 -164l-4 4l162 163q-6 2 -17 7l-151 -151l-4 4l149 150l-16 7l-140 -138l-3 4l136 138l-15 7l-128 -126l-3 4l163 164l-22 11l3 -4l-148 -150
l13 -8h-15q3 -25 50 -131h-4q-5 0 -27 47q-20 42 -25 57q-9 27 -11 27l-66 -4l2 16h61q-5 50 -5 47q0 37 13 71q-9 1 -18 1q-10 0 -31 -2t-32 -2l-2 -117h-4l-4 55l-75 -6q-2 -7 -2 -68v-44q1 -31 1 -44l37 23v-8q-16 -13 -41 -32l-9 -289q5 6 9 6q17 0 46 -5q37 -6 47 -7
q66 -7 196 -16l-32 25q-15 -10 -28 -18l-3 16q8 5 18 13l-36 29q-11 -8 -19 -13l-4 16l10 8q-12 11 -36 32q-10 -9 -22 -16l-4 16l15 11q-6 6 -19 17l-4 -119h-5q-3 58 -10 173l18 -6v-1l1 5l158 -4q-10 0 10 3l4 -2q25 0 76 -9l1 -66l15 -27l-14 10l-4 -85l201 28l5 4
l16 -2l-2 -4l48 -21q25 20 54 41q-12 -16 -38 -48q13 -7 39 -20v-7zM770 1519q0 -45 -100 -72q-73 -20 -138 -20v56q-86 -49 -214 -49l4 5v17q0 96 -5 145l6 3v3q1 20 0 52q-2 39 -2 53q0 29 -2 49q7 2 17 1v15q0 131 -7 149q14 2 27 2q93 0 163 -28q2 16 0 33h56
q50 0 108 -18q76 -24 76 -62q0 -77 -217 -90q206 -8 206 -80q0 -58 -161 -86q183 -13 183 -78zM736 991q-3 -4 -7 -4q-41 0 -71 21q-34 23 -34 63q-37 6 -66 19h17q-61 21 -55 71q-10 2 -27 2q-54 0 -72 -17q-23 -28 -45 -56h1l-128 -151q-4 7 -13 20q8 7 8 11v120h-2
q-4 171 -4 202q0 14 -4 35.5t-4 30.5l2 4l-1 20q7 -2 22 -7q-1 -6 4 -12q25 -20 72 -58q58 -48 146 -132h47l1 1q5 30 40 49q30 16 62 16q-6 14 -6 26q0 37 36 62q32 23 70 22l5 -165h-23q-52 0 -79 49v-143h-1l1 -1l9 3q-5 -12 -5 -24q0 -29 27 -50q24 -19 54 -22
q-47 27 -47 75q0 45 42 74q-57 -8 -74 -53l-4 1q18 58 99 63q3 -6 3 -120q0 -28 4 -45zM1256 536l-121 -123q7 -4 15 -7l95 93l4 -4l-91 -93l12 -10l63 62l4 -4l-62 -63q13 -16 13 -27q0 -71 -236 -93l-4 147q-3 1 -14 0v135q-5 1 -22 -1q0 154 -3 172h40q57 0 117 -16
q85 -22 85 -63q0 -16 -24 -39q-18 -16 -37 -32q6 -2 17 -5l58 53l4 -3l-54 -53q5 -3 15 -8l61 57l3 -4l-55 -56q4 -4 13 -10l65 62l3 -3l-62 -64q5 -6 10 -13l66 66l4 -4q-20 -21 -67 -69q2 -6 2 -9q0 -9 -5 -18l78 77l4 -4l-139 -140q4 -2 16 -6l126 124zM1705 -88
q0 -41 -87 -69q-68 -23 -122 -23h-28q-3 111 -9 332l4 3h53q50 0 109 -19q76 -24 76 -61q0 -61 -173 -85q177 -14 177 -78zM1309 -21q-3 -3 -7 -3q-39 0 -70 21q-36 24 -36 61q0 76 107 85zM1302 -209q-4 -3 -8 -3q-37 0 -69 22q-35 24 -35 60t36 61q33 23 71 23zM1181 -113
q-6 -3 -12 -3q-36 0 -68 23t-32 58q0 33 30 58.5t63 25.5h16q-2 -19 -2 -44q0 -14 1.5 -41t1.5 -41q0 -21 2 -36zM549 175l-186 10q-6 -5 -8 -8l66 -90l-4 -3l-60 70v-114h-5l-9 127l-72 -65v21l63 56q-6 7 -74 7q3 5 9 16q20 1 45 1l-64 71q6 4 15 4q5 0 70 -78h4l-5 131
q9 -5 18 -19l2 -113h1l102 80l6 -6l-86 -75l172 -17v-6zM848 -71q-5 -12 -4 -16h-10l-1 9h-4q-88 0 -265.5 -5t-265.5 -5q-10 0 -38 1h-38q12 18 32 20q-18 -2 40 -2q20 0 109 10l-1 2v2q0 14 39 90.5t41 90.5l-14 20h12q3 0 8 -1q30 -46 98 -171l-5 -3l-94 145l-22 -59
l4 -1l24 -36q7 13 20 40q-5 -18 -13 -53q10 -18 32 -52l3 -1l289 35q1 4 -1 19q7 0 20 -1v-76zM289 -25l-21 -3q-28 189 -50 390q-3 30 -3 38v5q12 0 20 2q17 -213 54 -432zM2518 2515q-3 5 -6 13q-4 -3 -10 -10zM2422 2649l-12 10l-42 -44q9 0 17 -4zM2510 2534q0 4 -8 17
l-26 -27q6 -2 18 -4zM2499 2559q-3 5 -8 14l-40 -41q10 -3 17 -5zM2404 2663l-14 10l-58 -58h24zM2582 2441l-9 15q-2 -2 -14 -15l6 -17zM2539 2464q0 2 -3 8q-1 -4 -2 -13zM2593 2419q0 3 -7 16l-18 -19l6 -17q3 3 19 20zM2384 2677q-5 3 -14 9l-70 -69h24zM2440 2633
l-12 11l-88 -88h20zM2509 2502q-6 1 -18 4l-25 -25q17 5 43 21zM2548 2441q0 4 -6 17q-9 -8 -15 -38zM2457 2617q-5 5 -12 10l-75 -75v-5q-8 -1 -31 -26q11 -1 19 -1q15 0 99 97zM2472 2600q-5 6 -11 11l-91 -91l6 -3q-1 -6 -12 -6q-5 0 -40 -38h24zM2382 2607q-10 0 -30 -5
q-3 -2 -44 -45q10 -1 17 -1h5q18 17 52 51zM2295 2722l-17 6l-92 -91h23zM2342 2701q-6 3 -17 8l-124 -126h6h16q12 11 119 118zM2635 2326q0 2 -7 17l-56 -56q17 0 22 -3q6 6 41 42zM2625 2350q-2 6 -7 17l-79 -81h23zM2270 2731l-15 5l-99 -98l20 -1zM2615 2373
q-1 4 -7 16l-106 -104h21q8 0 47 39q34 34 45 49zM2318 2712q-5 3 -16 8l-81 -83q6 0 9 -6q-8 -1 -23 -7q-9 -6 -39 -40h23zM2363 2690q-2 1 -15 9l-160 -162q20 -1 18 -1q1 0 4 1q18 16 64 64q1 8 3 13q5 0 14 3q1 0 72 73zM2342 2602h-13q-16 0 -55 -44h24zM2605 2396
q-3 5 -8 15q-4 -3 -21 -19q0 -3 5 -12l-5 -2h-3q-1 3 -3 8l-93 -92l-5 3l95 96q-3 5 -6 15l-103 -101l21 -18l26 21l5 -5q-10 -12 -18 -20h6l-2 3zM2558 2416l-7 17q-13 -10 -29 -30q0 -6 -5 -17q-5 5 -5 9l-73 -73q8 -8 14 -12zM2524 2472l-122 -120q9 -7 14 -11
q45 38 104 104q4 8 4 27zM2352 2545q-24 -2 -26 -3t-20 -20q10 -1 14 -1q12 0 32 24zM2138 2766q-6 1 -19 4l-32 -32q1 -17 1 -21zM2166 2760q-7 2 -20 5q-57 -46 -57 -60q0 -3 1 -10v-10zM2518 2420v14l-96 -98q8 -6 12 -10l50 44q34 32 34 50zM2192 2754l-16 4l-85 -86
q1 -10 1 -18zM2220 2746q-6 3 -19 6q-109 -103 -109 -111q0 -3 1 -9.5t1 -9.5zM2246 2739q-13 6 -17 6q-1 0 -80 -79q-55 -55 -55 -56q0 -3 1 -10v-11l31 30l-6 2q1 5 3 16h17q9 0 106 102zM2317 2542q-12 1 -13 1q-15 0 -36 -22q-7 -1 19 -1q11 0 30 22zM2350 2509h-11
q-17 0 -47 -34q30 -2 21 -2q2 0 37 36zM2110 2770q-7 2 -20 5l-71 -73q6 -11 10 -11t45 44q0 11 1 14h9l2 -3zM2081 2776q-11 3 -18 3q-5 0 -59 -57l10 -14zM2307 2600h-8q-22 0 -45 -23q-17 -21 -34 -41l9 -6q-7 -1 -21 -5q-5 -3 -43 -43q12 -1 24 -1q39 40 118 119z
M2049 2781q-2 0 -7 1t-8 1q-6 0 -44 -42l10 -14zM2197 2624h-10q-20 0 -52 -39q16 0 23 -1zM2077 2705q0 3 -1 10t-1 10l-34 -34h24q12 11 12 14zM2020 2784q-6 1 -17 3q-12 -11 -34 -33l2 -1q5 2 7 4q4 -4 8 -10zM2278 2538q-10 0 -16 2v5l-64 -64h20zM2214 2574h-5
q-23 0 -55 -36h24zM2162 2622h-5q-12 1 -17.5 -1.5t-25 -21t-19.5 -21.5l2 -21q9 8 21 27h5zM2177 2570q-26 0 -58 -33q17 -1 18 -1q10 0 40 34zM2003 2698l-10 13l-20 -19q12 -1 30 6zM2198 2525h-6q-22 0 -60 -42h24zM2141 2568l-18 -2l-6 3q-9 -9 -19 -17l-1 1l3 -61
l27 28l-10 -2q2 8 2 19q-1 -1 -17 -16l-3 3zM2693 2132q-13 66 -46 163q-15 -15 -33 -29q10 12 29 37l-5 15q-11 -10 -44 -42l-3 3l-96 -3q11 -9 21 -19l-6 -4l-29 21l-75 -74l-8 15l63 59h-64q11 -9 31 -28l-5 -5l-38 27l-66 -68l-8 15l61 57h-73q-7 0 -28 -27
q-23 -30 -30 -34l-7 13l39 47h-24l-2 -6l-9 5q-11 0 -33 -1t-33 -1q-40 0 -64 64l7 -174h116q154 -9 462 -26zM2361 2285q-9 7 -35 26l-22 -26h57zM1899 2796h-18l-107 -104l16 -7zM1868 2797q-3 0 -10 1h-11q-36 -32 -96 -96q5 -2 16 -6zM2708 1676l-77 442l-52 -4
q10 -28 29 -186l18 12q-9 -14 -17 -21q4 -5 14 -10q-8 -2 -13 -1q-1 -9 -1 -17q0 -105 16 -139q10 -22 37 -42zM1836 2799q-27 1 -22 1q-29 -29 -87 -88l16 -6zM1768 2800h-19l-29 -28zM1962 2791q-31 1 -23 1q-142 -138 -209 -212l6 -3l-3 -15zM1805 2799h-22l-74 -71
q6 -8 12 -13zM1989 2787q-24 3 -14 3q-1 0 -4 -1l-157 -156q-26 -23 -73 -72q-10 -12 -15 -40zM1931 2794q-3 0 -8 1h-9q-1 0 -5 -1q-39 -36 -111 -112q5 -2 14 -6l-5 -5q-5 2 -16 5l-84 -85v-9v-12zM2217 2285l-110 83l1 -7l9 -5q27 -71 57 -71h43zM1743 2772
q-14 -9 -41 -26v-4q0 -6 3 -9zM2524 1950q-5 3 -14 8l-29 -30q5 -3 14 -9zM2503 1960l-16 9l-27 -28q4 -3 14 -9zM1734 2697l-4 5l-3 -3q2 -1 7 -2zM2082 2324l-2 62l-22 -30q9 -10 24 -32zM2481 1972l-17 9v-1l-26 -26q4 -3 15 -10zM1663 2752v7q-2 -2 -4 -5zM1678 2746
q-2 3 -8 9q-10 -9 -10 -13v-2l5 -2q3 0 13 8zM1684 2735l-4 1l-1 -6l2 1h-1zM1711 2706l-7 2v-9zM1729 2689q-4 5 -12 13q-13 -12 -13 -18v-7q0 6 1 -11zM1759 2688q-10 5 -15 6q-39 -33 -39 -41v-17zM1783 2678q-15 7 -17 7q-7 0 -34.5 -30.5t-27.5 -37.5q0 -3 2 -16z
M2588 1928l-24 186l4 12q-342 20 -379 20h-37q-26 -1 -37 -1v-80q6 -7 13 -21l-13 7v-146q36 -1 72 -6l-5 74l15 -2l1 4q50 3 85 0q20 50 40 80l5 -3l13 9zM1678 2714v4q-6 3 -9 3q-15 0 -15 -25v-14q24 22 24 32zM2591 1914v3l-14 7l-142 -142zM2700 1671l-71 59l5 -59h66z
M1648 2727v2l-3 1q-5 -5 -15 -14q6 3 18 11zM1928 2431l-4 9l-5 -4zM1920 2447q0 4 -6 16q-9 -8 -19 -18q6 -3 17 -7zM1862 2589l-6 18l-106 -105l17 -7zM1910 2470q0 3 -8 16l-34 -34q17 -5 19 -5zM1870 2565q-2 8 -5 16l-91 -89q5 -2 16 -7zM1879 2541l-6 15l-75 -75
l16 -6zM1899 2494q-4 9 -7 15l-55 -55h24zM1674 2692q-24 -21 -24 -37q0 5 1 -10q20 16 23 47zM1890 2517q0 2 -7 15l-62 -60q4 -3 8 -9q-9 0 -14 2l-23 -23q12 3 35 12q6 4 34.5 32.5t28.5 30.5zM2100 2181l-3 91v-86zM2087 2194l-4 115l-34 34l-18 -27h2q49 -47 49 -60
q0 -1 -1 -5q-10 5 -57 54l-15 -27zM1691 2659q0 -2 -2 15q-3 -9 -16 -30q-7 3 -6 8q-20 -16 -20 -30q0 1 1 -13q43 38 43 50zM2438 1994l-100 51q-17 -21 -28 -44l38 36l3 -4q-23 -19 -55 -61l5 -7q-10 0 -16 -23l85 84l3 -3q-44 -43 -91 -94q-3 -8 -3 -25l114 112l3 -3
q-40 -39 -117 -120q0 -10 3 -21l134 132l3 -3l-135 -140q2 -10 4 -16zM1780 2542l-46 -34q3 -1 9 -4zM1691 2621q0 -3 -2 20q-44 -39 -44 -48q0 -2 1 -5v-6l5 2l3 -2q37 35 37 39zM1717 2570q-11 -8 -11 -19q0 -3 1 -17q5 4 10 36zM1692 2595q0 4 -1 15l-33 -33q3 -5 11 -13
q23 21 23 31zM2710 1663q-43 -6 -82 -6v-138q25 24 50 47q30 32 30 57q0 20 -7 34zM1692 2558v6q0 1 -1 12l-18 -18q5 -6 11 -13q8 7 8 13zM1711 2519v1q-1 2 -1 3l1 6l-4 -5l2 -5h2zM1783 2477l-17 7l-19 -19l10 -14zM1692 2535v9l-4 -4zM1989 2334q0 45 -51 79
q-45 31 -93 31q-46 0 -77.5 -33t-31.5 -79q0 -16 5 -32q5 23 40 41q32 16 58 16q43 0 84.5 -20.5t51.5 -48.5q14 24 14 46zM1759 2487q-13 6 -17 6t-10 -10q3 -4 11 -12zM1733 2495q-4 2 -11 4l-1 -1q2 -3 7 -9zM1657 2553q-3 4 -10 12q-3 -8 -3 -14v-4l4 -2v1h3zM1674 2534
l-12 13l-6 -6q14 -7 18 -7zM2102 2080v4l-1 -3zM2102 2090v59h-71q-3 -7 -26 -27l6 -6q20 30 25 30q4 0 51 -49l3 2l3 -5l-1 -3l4 -6zM1692 2496v14h-3l-4 4q-14 5 -42 16l-4 -69zM1807 2468l-17 6l-29 -27l2 -3l-4 -7l-42 46q-8 -36 -8 -43v-133q11 1 18 3q0 3 -1 10.5
t-1 11.5q0 56 82 136zM2075 2088q-23 23 -44 41q-7 -14 -12 -21l35 -36q12 10 21 16zM2088 2074q-2 3 -7 7l-21 -17q4 -5 14 -14q4 8 14 24zM1967 2277q0 20 -47 39q-40 15 -65 15q-98 0 -98 -62q0 -19 34 -36q30 -14 52 -14q24 0 71 18q53 21 53 40zM2042 2063l-32 30
q-2 -4 -11 -20q0 -2 23 -24zM2002 2102l-11 10q-11 -9 -16 -15l14 -15zM2067 2038q-3 4 -17 17l-20 -16l21 -27zM1694 2303v97q-1 1 -1 12v66q-32 -23 -54 -36q-7 -105 -7 -129v-5q29 -12 31 -12q-7 0 31 7zM2010 2041l-19 18l-8 -12l15 -15zM1980 2069l-18 18q-3 0 -9 -9
l20 -20q3 6 7 11zM2049 2008q-12 5 -29 22q-3 -1 -11 -9q12 -16 26 -36zM2470 1532q-1 36 0 49h-13l-20 -16zM2441 1580h-20l9 -9q4 3 11 9zM1986 2023l-11 11l-19 -32zM1964 2044q-21 25 -24 25t-28 -22l32 -33zM1696 2283l-1 9l-13 -4q8 -3 14 -5zM2102 1905v157
q-3 3 -8 6l-14 -26q4 -5 10 -15q-6 -3 -8 -2q-4 5 -7 7l-64 -114l86 -151v121h-35q-7 0 -13 4q5 11 10 13.5t16 1.5q17 -2 27 -2zM2463 1520l-38 35l-16 -14l34 -35q5 4 20 14zM2417 1562l-19 17h-28l30 -29q6 3 17 12zM1638 2291l-5 2v-3zM2433 1500l-36 32q-11 -7 -21 -16
l36 -32zM2387 1542l-38 32q-12 -8 -18 -14q12 -12 36 -34zM2335 1578h-24q6 -5 9 -8q3 0 15 8zM2478 1414l-7 100h-1q-4 -2 -19 -16l20 -21l-4 -8q-10 11 -24 22q-7 -5 -21 -16q11 -13 34 -38q-16 11 -42 31l-40 -29q38 -33 47 -33q-1 0 57 8zM1465 2497q0 33 -71 55
q-56 17 -100 17h-37q33 -23 33 -79q0 -42 -25 -70h43q36 0 92 22q65 26 65 55zM2402 1477l-36 31l-38 -28l34 -30zM2354 1519l-36 32l-37 -27q11 -11 35 -33q13 9 38 28zM2307 1560q-20 19 -34 19q-11 0 -37 -1l1 -17l1 1l31 -27zM1482 2339q0 33 -74 55q-57 16 -103 16
q-14 0 -29 -2q30 -26 30 -76q0 -40 -19 -65q38 -4 48 -4q33 0 86 23q61 26 61 53zM1481 2186q0 29 -59 51q-49 18 -85 18q-3 0 -55 -6q23 -27 23 -70q0 -42 -20 -66q41 -4 46 -4q32 0 87 24q63 27 63 53zM1291 2259q-10 0 -15 -2zM1053 2482q-13 4 -18 4l-21 -20q2 -5 7 -15
zM1025 2488q-10 2 -16 2h-3q-5 0 -7 -5l11 -12zM994 2491h-3q-6 4 -10 5l-1 -5h11l2 -1zM1130 2420q0 20 -24.5 39t-44.5 21q-25 -23 -39 -37q0 -3 4 -21l47 47l4 -3q-19 -17 -35.5 -33t-19.5 -48l52 52l4 -4q-47 -62 -83 -90q19 0 45 25q18 19 37 39l3 -7l-51 -52
q20 1 55 30h8l-12 -12q50 24 50 54zM1135 2406q-7 -24 -28.5 -35t-42.5 -21q-5 -4 -26 -25l19 -5l37 36l4 -3l-33 -34q6 -3 18 -7l23 21l4 -3l-20 -20l16 -9l23 22q2 28 6 83zM965 2460l-1 23q-6 -5 -16 -16q5 -4 15 -8zM1129 2321q-10 -16 -17 -23l13 -11l1 1zM1473 2034
q0 27 -59 49q-49 19 -83 19q2 0 -56 -6q25 -32 25 -76q0 -6 -10 -36l24 23l4 -3q-26 -33 -50 -53h11q14 0 30 17q13 13 25 27l3 -5v-2l-34 -34h2q23 0 50 28l2 -7l-14 -15q130 24 130 74zM1316 2103l-1 5l-49 -4l3 -4q2 3 47 3zM2472 874v5q0 23 -3 47q-160 53 -160 103
q0 30 48 61h-1q60 40 68 40q2 0 15 -5q-17 -13 -52 -34h2q-56 -39 -56 -60q0 -43 135 -95q-4 155 -11 272q-42 -18 -128 -51q-27 -9 -78 -32q-17 -12 -52 -34h2q-5 -4 -13 -11q-9 -13 -9 -64q0 -37 12 -57q26 -44 133 -68q73 -17 148 -17zM1050 2347q-15 -2 -42 -19
q11 -2 18 -2q6 0 24 21zM1077 2306l-18 6l-33 -33q2 -6 4 -20zM1051 2313q-15 5 -19 5l-17 -16l8 -15zM1100 2296q-13 7 -16 7q-7 0 -31.5 -27t-24.5 -36q0 -2 1 -7v-8zM1007 2337q-12 0 -32 -8h24zM1022 2319q-3 0 -10 1h-8q-1 0 -5 -1q8 -6 12 -12q5 5 11 12zM2770 635
l-7 65q-121 -32 -226 -47v-14zM968 2404q0 1 -2 15l-37 -36l-4 3q1 2 23 24q18 19 18 23l-2 16l-1 1l-44 -43l-4 4l42 42q-7 4 -15 8l-35 -32l-4 4l31 31l-16 7l-22 -21q-1 3 -2 7q5 5 15 16l-19 4l-6 -6l-1 7q-11 3 -34 3q36 -22 36 -75q0 -49 -32 -73q64 3 114 40v13
l-30 -29l-4 3q11 10 21 20q14 13 14 24zM1123 2242l-51 -51q51 19 51 38v13zM1125 2269q0 4 -1 7l-99 -99q12 2 31 8q19 11 44 38.5t25 45.5zM1119 2282q-9 10 -13 10q-5 0 -39.5 -35t-40.5 -44q-7 -15 -27 -40q18 0 120 109zM1965 1645l-111 -145q-7 7 -12 15v-5
q-88 -4 -265 -14l-2 -1q-2 -22 -5 -66l1 -1h10q39 0 118 1t118 1q14 0 21 6l66 -57q9 39 45 193q5 25 16 73zM968 2307v13l-10 -9q4 -1 10 -4zM1122 2192q0 4 -1 14l-80 -79l18 -7q8 1 35.5 32t27.5 40zM1492 1794q0 4 -1 14l-58 -60l12 -10q47 44 47 56zM1120 2157v7
q-1 5 -1 7l-54 -54q4 -2 15 -9q7 0 23.5 20t16.5 29zM1361 1956q-30 -3 -50.5 -24.5t-40.5 -43.5l14 -11zM1490 1773l-40 -40q6 -6 16 -6q14 0 22 20q3 8 2 26zM1096 2192q-13 -4 -38 -15q-4 -3 -42 -42q11 -3 18 -5zM1118 2122q0 -1 -1 13l-31 -31q6 -5 12 -11q20 19 20 29
zM1488 1737l-10 -10l9 -1v4q1 3 1 4v3zM1322 1949h-6q-23 0 -64 -47l12 -10zM1115 2082q0 3 -1 8v9q-5 -4 -13 -13q2 -6 5 -20q9 7 9 16zM1044 2173q-30 -4 -56 -32q6 -2 19 -4q13 12 37 36zM1241 2062q-119 -121 -119 -128v-17l118 122zM973 2204q0 3 -1 10v10l-10 -9l-3 7
q12 8 12 17v9q-1 5 -1 8l-13 -12q-1 3 -2 7l15 15v23q-8 -6 -18 -17l-3 5v2l19 19q-5 3 -16 7l-5 -2h-3l1 4q-34 10 -55 10h-13q35 -21 35 -75q0 -49 -32 -73q93 7 93 35zM976 2196l-4 1v-2l-4 -1l2 -4zM1282 1944q-2 0 -6 1h-6q-14 0 -58 -48q7 -3 6 -18l13 12q-7 5 -12 10
q6 4 19 12q2 -1 8 -6zM2523 640v11q-11 -1 -34 -4l-1 -7h35zM1244 2007q0 7 -2 20q-123 -116 -123 -128q0 -4 3 -16q122 119 122 124zM2763 453l-5 64q-127 -31 -228 -47v-13zM1098 2070q0 4 -3 10l-69 -69q72 26 72 59zM1250 1877l-14 11q-20 -18 -20 -28q0 -3 1 -15z
M2474 642v1q-7 -1 -15 -1h-22l1 -5q9 2 21 5h15zM1092 2086q-5 7 -12 12l-61 -59l-5 2l60 61l-15 9l-49 -48l-6 3l49 48q-2 1 -18 7l-35 -36l-4 6q10 11 31 33q-12 4 -17 4q-3 0 -20 -19q-3 6 -2 8l13 13q-56 11 -75 11h-37q33 -23 33 -80q0 -50 -29 -74q74 5 126 22l-2 2z
M2474 481v141h-37v-54h2l4 -4q1 -9 1 -19q0 8 -4 -68q11 1 34 4zM2426 474v149h-16q0 -19 -2 -48q7 -1 7 -12q0 -22 -3 -90q13 1 14 1zM2515 458v10l-27 -4v-6h27zM2474 460v2l-12 -2h12zM1865 808l-3 77l-20 1q-21 0 -60 -4.5t-57 -4.5q-1 2 -6 17q86 4 98 4q21 0 43 -5
l2 -6l-7 203h-1v124q-43 -2 -129 -5l6 17h122q-1 18 -2 53q-8 2 -19 2q-299 0 -701 -21l-3 12q159 9 338 16l21 426l-145 -6q3 9 3 20h91l1 2l-13 11l-13 -11l-3 4l11 11l-14 11l-16 -15l-3 3q7 9 14 16l-13 10l-19 -16l-4 3l17 17q-7 9 -13 11l-21 -19l-3 4l18 19l-12 11
q-14 -12 -24 -22l-3 4q12 14 20 22l-11 10l-26 -23l-4 3l23 24l-13 11l-29 -28l-4 4l28 28l-14 11l-34 -32l-3 3l32 32l-13 11l-39 -36l-3 4l35 36l-12 10q-24 -22 -39 -40l-6 -312q116 107 227 189l8 -2l-229 -212l-6 15l-1 -36h-4l-10 374l-7 -5l-3 3q11 9 11 34l-31 -27
l-3 3q33 38 32 45l9 -2l44 43l-5 1q2 9 2 20l-102 -99l-3 3q44 42 105 106v21l-123 -124v-196h58l3 -8l-59 -5v-570h3v-290q10 -1 16 -1q39 0 107 2q77 3 108 3q249 3 507 3zM2689 211h-77q-8 0 -142 -134l8 -14l137 133l3 -4l-21 -22q7 -7 11 -12l14 13l4 -3l-12 -15l5 -7z
M752 2036q0 34 -76 55q-58 16 -106 16h-27q34 -23 34 -79q0 -51 -30 -75h4q49 0 116 21q85 26 85 62zM2592 209h-18q-1 0 -6 -1l-114 -114l5 1l8 -12zM2040 795h-19q-2 0 -4 -1q-19 -9 -134 -134q-6 -7 -13 -16v-10q1 -6 1 -9zM1973 793h-23q-82 -80 -82 -84q0 -1 1 -19z
M1940 793h-24q-49 -47 -49 -50t1 -10v-10zM2007 793h-24q-116 -113 -116 -121q0 -1 3 -16zM1906 793h-23q-17 -16 -17 -24q0 -4 1 -14zM1872 793h-6v-6zM2597 147q-4 4 -11 12l-103 -104q3 -5 9 -14zM2607 137l-5 5l-39 -40q-18 -19 -67 -68l8 -14l66 68l-7 14q13 9 44 35z
M2557 208h-22l-118 -119q3 -7 8 -14zM2522 207h-23l-95 -96q4 -9 8 -15zM2489 207l-13 1q-8 0 -45.5 -35t-38.5 -42l9 -13zM2455 205q-2 0 -8 1h-8q-7 0 -32.5 -24t-26.5 -29q3 -7 8 -14zM2421 204h-20q-3 0 -17.5 -13t-14.5 -16q2 -5 7 -14zM752 1853q0 35 -79 56
q-59 16 -109 16h-21q34 -23 34 -79q0 -51 -30 -75h1q51 0 118 20q86 25 86 62zM2466 50q-3 5 -9 14l-41 -41q19 4 50 27zM2282 200h-2l-7 -9zM522 1995v79q-47 33 -152 33h-25q33 -23 33 -79q0 -52 -28 -75q109 8 172 42zM2318 202h-10q-12 0 -53 -41q5 -7 10 -12zM2453 70
q-6 8 -10 13l-81 -81q33 8 52 25q20 22 39 43zM2262 199h-4l-17 -18l4 -5zM2247 197h-17q2 -3 7 -9zM1859 657q0 -2 -2 10l-110 -110q18 3 24 1q88 83 88 99zM2385 203h-22l-164 -164l15 -9q47 46 139 140l-1 3l2 5h2q11 0 29 25zM1859 614q0 7 -2 20q-87 -82 -87 -94
q0 -3 2 -15q87 85 87 89zM2351 202h-23l-151 -151q5 -2 16 -8zM2366 150q-3 5 -9 14l-136 -137q5 -3 14 -8zM2379 128l-9 14l-127 -126q7 -4 14 -10zM1860 580q0 1 -2 21l-86 -86v-5q0 -5 1 -17q87 85 87 87zM1859 550v18q-87 -83 -87 -89q0 -1 1 -18zM739 1683q0 33 -72 54
q-56 17 -101 17h-34q33 -24 33 -79q0 -49 -30 -75q204 17 204 83zM2258 142l-11 12l-97 -96q7 2 11 2q3 0 10 -6zM1861 516q-1 15 -1 20l-86 -85v-22zM521 1801v91q-73 27 -128 27h-36q33 -24 33 -79q0 -53 -30 -76q84 2 161 37zM1862 484v19q-29 -29 -87 -86q1 -8 1 -21z
M524 1780q0 4 -1 13q-58 -23 -132 -33q67 -7 116 -24q0 18 -1 25q9 2 17 2q1 7 1 17zM1749 403q-45 30 -41 83h-2l-5 2q7 19 45 60q-8 -2 -47 -39l-3 3l-1 3q4 3 21 21q-44 -24 -44 -62q0 -58 77 -71zM761 1519q0 33 -73 54q-57 17 -102 17h-34q33 -23 33 -79q0 -52 -29 -76
q55 2 119 21q86 25 86 63zM2228 11q-2 1 -15 7l-66 -65l9 -15zM2204 21q-7 4 -15 7l-63 -61l11 -2l5 -6zM1875 202l-8 174q-11 -11 -29 -25q3 6 29 38v10q-1 6 -1 9l-59 -58l-3 3v3q0 1 61 65v7v11l-73 -70l-4 4v2l76 77q-1 11 -1 19l-87 -85l-2 2v1l-1 2l5 -162h-21
q-29 0 -60 24q-34 26 -31 55q1 9 1 8q-106 15 -106 82q0 37 35 61q30 21 69 22q5 45 47 63q7 2 19 9t69 65t57 61v10q-1 6 -1 9l-164 -162l-3 5q3 8 85 86t82 84v10q-1 6 -1 9l-154 -150l-3 4q44 42 87 84q71 70 71 81q0 1 -2 16l-144 -144q-1 1 -3 5v2l147 147l-1 9l1 9h-5
l-123 -123q-3 3 -3 5v2l116 116h-23l-81 -81q-4 4 -4 9h2l72 72h-21l-45 -43l-3 5v1l36 36h-393l16 -594zM1760 393q-69 5 -90 55l3 -109q22 47 87 54zM511 1640l-3 87q-39 27 -126 27h-37q32 -22 32 -79q0 -46 -25 -70q18 -2 23 -2q21 0 76 12q60 14 60 25zM529 1566v24
q-6 2 -15 0q-5 7 -5 38q-45 -20 -92 -28q74 -11 112 -34zM2392 -182q-125 -29 -243 -49l104 3q43 1 139 46zM2238 166q-3 4 -6 7l-180 -179l-4 4l179 181q-3 4 -8 11l-2 1l-173 -173h5v-5l-83 -9q0 7 2 10v4h74q-2 3 -2 6l170 173h-20l-141 -138l8 -1v-5l-83 -8v7q0 12 73 7
l-3 3l134 134h-23l-88 -85l-4 3l81 82q-51 0 -154 -6q-85 -176 -85 -205q0 -12 86 -225l83 13l-1 2q24 74 60 171q-4 5 -11 17l-9 -9l-4 5l72 74l-14 7l-73 -73l-3 2q0 2 -1 4q0 1 69 71q-6 2 -14 9l-70 -70h2v-8l-143 -8q4 8 4 16h134l-4 3l161 161q0 11 9 19zM1752 239
q-42 29 -42 73q0 42 36 69q-71 -18 -71 -71q0 -60 77 -71zM1646 327q-42 29 -42 73q0 40 38 70q-73 -17 -73 -72q0 -59 77 -71zM2193 -244l-195 -13l2 -7l-5 -6l-6 10q-8 0 -11 3q-7 0 -22 -2t-23 -2q-9 0 -14 1l14 16q23 2 47 4q-92 198 -92 228q0 42 82 201h-95
q8 -279 8 -327q0 -50 -4 -200q20 7 59 23q2 1 43 30q27 18 47 18h38q21 0 127 23zM2176 -210q-8 11 -26 33l-17 -40zM532 1511q0 1 -1 44q-48 39 -149 39q-16 0 -34 -2q27 -24 27 -75q0 -53 -29 -76q128 10 185 51q1 13 1 19zM2141 -164l-23 32l-29 -92q3 1 27 4q8 19 25 56
zM705 1193q-43 28 -43 74q0 41 38 70q-73 -19 -73 -72q0 -59 78 -72zM603 1230q-63 -9 -73 -56q11 -1 34 -4q6 36 39 60zM608 1081l-16 12l3 -1q-37 33 -32 75q-12 -1 -36 -6v-3q0 -38 53 -68q9 -4 28 -9zM1143 641q0 33 -75 55q-58 16 -104 16h-29q33 -23 33 -79
q0 -17 -9 -47q33 0 60 -3q49 -5 33 -5q3 0 23.5 21t34.5 24l-39 -39q31 11 55 31q17 15 17 26zM1093 582q-10 -4 -21 -8q2 0 10 -2q5 4 11 10zM1692 75q0 35 -79 56q-59 16 -109 16h-21q33 -22 33 -79q0 -53 -28 -75h6q48 0 115 21q83 26 83 61zM1164 508l-53 -52
q53 23 53 52zM1161 517q-6 9 -10 13l-91 -92q19 1 34 11q8 5 37.5 34.5t29.5 33.5zM1034 573h-4l-15 -5l3 -4q2 2 6 7zM1146 535q-6 5 -14 9l-103 -106q16 -3 17 -3zM1143 465q-23 -10 -59 -36q6 -2 18 -5zM1020 574l-65 4q16 -16 20 -16q35 0 45 12zM1125 547q-7 4 -16 7
l-107 -106l-3 5v2l103 102l-17 5l-91 -88l-3 5v2l84 84q-6 1 -18 4l-67 -67l-1 2q0 -38 -14 -63q12 -1 37 -2q9 8 113 108zM1040 564q-16 0 -48 -19l10 12l-26 -4q10 -20 12 -42zM462 1173l-207 165v-358l100 110h-1l66 65q-9 0 -29.5 -1.5t-30.5 -1.5q1 2 5 21h72l10 10
q3 -5 2 -10h13zM1081 436q-9 -3 -14 -5q3 -1 5 -1h3q3 2 6 6zM1697 -89q0 32 -73 54q-57 17 -101 17h-33q32 -23 32 -78q0 -51 -29 -75q204 19 204 82zM1180 360q0 8 -10 21q-3 -3 -11 -5l6 10q-4 4 -14 10q-12 -13 -19 -12h-3l16 15q-6 4 -16 8l-17 -17l-3 7l12 12l-18 7
q-7 -9 -25 -23q3 5 17 24v1q-6 2 -18 4q-8 -6 -13 -11h-8l11 12q-8 3 -16 3q-3 0 -11 -6h-8l5 6q-17 -3 -52 -9q19 -24 19 -64q0 -53 -29 -76q54 2 119 21q86 25 86 62zM1009 430q-2 1 -5 1h-32q2 -2 8 -6zM597 797v27l-120 -7v-20h120zM598 759v29l-121 -7v-22h121z
M1282 -14q-42 27 -42 74q0 43 39 72q-74 -24 -74 -74q0 -61 77 -72zM863 423q0 3 -1 8v8h-3l-5 -6v-24q9 7 9 14zM600 733v15q-5 4 -29 4q-17 0 -47 -4q-35 -5 -47 -6v-9h123zM866 386l-3 23q-6 -4 -9 -9v-14h12zM602 669q-1 12 0 19q-123 -7 -116 -7q-5 0 -10 4l5 12h120
v27l-125 -8v-58q2 6 5 9q24 2 121 2zM842 385v2l-3 -2h3zM841 403q0 7 -2 16l-32 -34h23q11 7 11 18zM870 359v3q0 2 -1 6.5t-1 6.5h-5l-8 -7v-23q6 5 15 14zM841 429v9h-9q-9 0 -59 -53h22zM813 436l-15 1q-16 0 -28 -18t-12 -34h5zM777 434q-6 0 -19 -1q2 -7 4 -16
q2 2 15 17zM605 604v54l-129 -5v-71q5 5 10 8q2 -2 3 -6l-13 -17h37q13 12 38 38h2q1 0 6 -2l-30 -36h29q9 0 47 37zM1277 -201q-43 29 -43 72t38 71q-73 -26 -73 -72q0 -60 78 -71zM1154 -105q-43 29 -43 73q0 40 38 70q-72 -16 -72 -73q0 -58 77 -70zM749 393v2l-12 -11
q3 7 10 18l2 5q0 29 -10 41t-43.5 25t-52.5 13q-14 0 -22 -5v-136h-9l-4 133q-32 -13 -62 -31q1 -2 1 -5t-1.5 -9t-1.5 -8h3l11 -5q-7 -4 -14 -5q-4 -8 -4 -40q0 -5 1 -42q10 0 27 -7h-17q-4 -1 -10 -2v-2l-2 -2q29 -25 60 -25q34 0 144 73q-4 0 -9 -2q0 5 1 16q9 3 13 3
q1 3 1 8zM835 199l-108 65q-33 -39 -108 -110l102 -64v1q39 35 114 108zM1518 -621v5h-1l-4 -3zM531 334v5q0 13 -3.5 38t-3.5 37l-105 -6v-74h112zM831 -69q-2 20 -6 50q-221 -43 -333 -48zM522 -46l-29 39l-22 -45zM486 6q-1 4 -27 37l-40 -101h3q9 0 31 4zM1718 1182
q-16 -19 -67 -22q-34 1 -68 1q1 5 3 16l74 -1q9 0 25.5 3.5t25.5 3.5q1 0 7 -1zM1738 1236l-1 -5h-161l4 -140h1v-156q14 0 40 1.5t39 1.5q31 0 49 -12l-3 -8q-14 5 -31 5q-104 0 -94 -4q0 -4 -2 -52h-5q-12 224 -17 381q6 -2 19 -5v-6l4 11q20 1 25 1q66 0 133 -13z
M1743 870q-124 -24 -169 -24l-4 17q53 2 157 12zM1530 1010l-2 -1q-6 -48 -83 -179v15q32 67 41 90q21 52 26 95l-28 61h1l-38 87l17 3zM1441 881h-5q-11 112 -11 178q0 2 2 9l14 -4v-183zM1389 873h-8q0 4 -9 188q8 -4 17 -4v-184zM1414 1155q-9 -15 -18 -29q3 -8 3 -16
q0 -6 -4 -14l3 3q-7 -16 -20 -26q-25 -19 -26 -20q-41 -40 -41 -58q0 -5 6 -29q17 -68 80 -115l-4 -9q-61 40 -78 65q-22 32 -22 98l11 -1q4 0 24 39q-58 -22 -165 -29v7q-2 26 0 69h-3q0 8 1 26v25q0 25 -5 46q9 2 21 2q155 0 206 -49q5 7 17 27q8 -4 14 -12zM1668 645
q0 -46 -100 -73q-74 -19 -138 -19l-4 171h61q48 0 106 -18q75 -24 75 -61zM2067 87l-82 -6v9q0 3 1 6l81 -3v-6zM1516 1020l-2 5q1 -2 2 -5zM1392 1109q0 1 -1 7q-21 -27 -33 -50q10 6 29 23q5 14 5 20zM1380 1132q-55 48 -166 48h-31q33 -23 33 -70v-20h-2q0 -44 -29 -67
q116 5 148 31q4 3 23 36h-1zM1660 645q0 33 -77 55q-59 16 -105 16h-26q32 -22 32 -79q0 -52 -29 -75h3q49 0 117 21q85 26 85 62z" />
    <glyph glyph-name="uF7A3" unicode="&#x123f2;" horiz-adv-x="2875" 
d="M2763 1021q0 -4 -6 -9q1 -19 -20 -42.5t-41 -29.5q-42 -13 -85 -13q-17 0 -32 8v1q-1 -1 -1 -4t16 -28.5t16 -28.5q0 -2 -9 -13t-10 -15q-7 -16 -19 -49v-47q0 -30 -33 -57q-4 -2 -12 -9q-6 -18 -20 -51q-27 -55 -27 -202q0 -16 2 -42q3 -33 4 -43l-3 -9v-7q0 -45 6 -83
q1 -9 12 -42.5t11 -37.5q0 -11 -17 -23q-21 -15 -25 -21q-15 -24 -21 -87q-22 -238 -22 -310v-62q0 -8 2.5 -25t2.5 -26q0 -14 -4 -26q-5 -15 -39.5 -69t-45.5 -65q-5 -5 -15 -5q-21 0 -52 27t-50 27q-3 0 -17 -13q-16 -16 -18 -17q-26 -17 -77 -52q-5 -6 -15 -16
q-42 -34 -110 -78q-86 -54 -111 -54q-7 0 -24 9q-4 20 -13 61.5t-35 112.5q-14 28 -37 85q-17 31 -43 94v8q0 -6 -17 32q-4 8 -16 53q-14 28 -37 85q-19 55 -55 164q-7 47 -36 143q-19 51 -47 136q-1 10 -4 29q-8 27 -27 81q-8 15 -22 45q-7 18 -23 76q-7 6 -73 26
q-6 2 -146 17q-21 4 -62 11q-27 2 -81 8q-15 5 -47 11q-47 6 -142 14q-9 0 -26.5 5t-26.5 5q-5 0 -8 -3q-13 -1 -24 -1q-103 0 -103 19q0 5 44.5 63.5t44.5 71.5q-47 24 -138 81q-113 87 -197 216q-5 12 -16 34q-9 12 -24 39q-6 22 -21 64l-9 12q-18 74 -58 168
q-59 52 -117 79q-12 10 -32 26q-68 54 -68 141q0 53 37 140q8 13 22 40q52 116 111 168q27 24 94 24q42 0 92 -13q10 -6 32 -16q84 -24 102 -24q3 12 12 35q52 91 86 192l-1 6q19 48 64 144q8 13 22 41q1 4 4 13q9 13 26 43q7 20 23 59q9 12 24 38q78 152 297 226
q21 7 138 34q65 15 106 15q3 0 3.5 -2t3.5 -2q5 0 15.5 4t14.5 4q9 1 191 1q8 0 25 2t25 2q2 0 5 -3.5t6 -3.5q5 0 14.5 1.5t14.5 1.5q-1 0 27 -8q6 0 17 -2q84 -18 217 -66q17 -9 51 -26q2 -1 111 -58q128 -67 169 -93q79 -50 151 -121q3 -5 10 -14q12 -12 33 -42
q-11 1 17 1q4 0 10 -2q27 -6 81 -19q3 -1 9.5 -5.5t9.5 -4.5q2 0 4.5 1t4.5 1q35 0 62 -43q0 2 17 -38q6 -14 10 -51q6 -8 6 -29q0 -52 -15 -75q-24 -28 -47 -56l1 -5q0 -2 -1.5 -6.5t-1.5 -6.5q0 -3 4 -11v-5q0 -6 1.5 -16t3 -13.5t1.5 -8.5q0 -4 -17 -15q7 -14 7 -88
q0 -10 -4.5 -30.5t-4.5 -30.5q21 -10 21 -34q0 -31 -88 -191q-16 -12 -16 -44q0 -26 49 -102q60 -94 65 -105q26 -56 29 -140l5 -7q-1 -2 -1 -7q0 -13 17 -57.5t17 -69.5zM1230 -297q0 -2 -1 -6.5t-1 -6.5q-10 0 -29 -1.5t-29 -1.5q-18 0 -35.5 18.5t-17.5 36.5q0 19 31 49
l6 -3q-5 -5 -5 -10q40 -27 38 -27q-1 0 16 11q4 -2 9 -7q6 -9 18 -52zM1083 -221q-5 -5 -10 -5q-13 0 -13 11q0 6 7 13h16v-19zM1106 -315h-11q-7 2 -11 14l2 6q-2 2 -2 4q0 4 3 12t3 12q0 7 -10 7q-2 0 -5 -2t-5 -2h-29l1 28q2 0 9 -4.5t13 -4.5q30 0 33 4h9v-74z
M1066 -355q-4 -2 -11 -2q-8 0 -11 2q-5 42 -44 42q-4 0 -13.5 -1.5t-14.5 -1.5q-12 0 -31 3v17h68q-62 89 -62 85q0 11 10 16q16 9 17 10q1 -9 4 -26q9 -29 56 -81v-9q10 -22 32 -44v-10zM1211 -459q0 -26 -73 -26q-5 -4 -11 -4q-2 0 -3.5 2t-3.5 2h-56q-5 -11 -18 -32
q0 8 -4 24q-1 3 -9.5 13t-8.5 12q0 9 14 19l5 -1q19 -14 20 -14q4 0 12.5 1t12.5 1q13 43 33 43q8 0 18.5 -9.5t11.5 -9.5q2 0 8.5 9.5t14.5 9.5q11 0 24 -14.5t13 -25.5zM1054 -417q-5 -7 -14 -19q-20 20 -20 23q0 19 15 19q9 0 19 -23zM925 -319h-10q-10 0 -10 56
q-2 1 -8 1h-12q-20 0 -20 -20q0 -18 26 -21l5 -4q-4 -12 -16 -12q-31 0 -31 26q0 39 19 44q27 4 53 8l4 -2v-76zM1237 -641q0 -37 -38 -37q-4 0 -13 6t-12 6q8 0 -17 -10q-13 -5 -61 -5q-22 0 -29 26q3 0 10 -1t11 -1q2 0 2.5 2t1.5 2l5 -6q7 1 21 7q-6 14 -24 14
q-1 0 -25 -4l-2 2v21q4 6 24 6q35 0 47 -40h12l2 2q0 4 -1.5 12t-1.5 12q0 38 26 38q11 0 17 -7q10 -11 12 -12q33 -19 33 -33zM1105 -582q0 3 -2 -13h-28v16q0 11 12 11h16q2 -5 2 -9v-5zM856 -384l-2 -7h-8q-47 45 -47 75q0 9 2 37q31 -14 31 -26v-16q-10 0 -10 -6
q0 -12 34 -57zM1086 -556q-9 -16 -21 -16q5 0 -10 3q-69 13 -154 40q-18 9 -55 26q-14 3 -40 12q-12 7 -12 22q0 -4 6.5 14.5t35.5 18.5q16 0 18 -39q8 -10 76 -37q63 -25 86 -30q1 -1 2 -1t2 2l-117 72q10 16 20 18zM1083 -711q0 -3 -8.5 -10.5t-11.5 -7.5q-15 0 -15 15
q0 3 1.5 8t1.5 7q0 6 -8.5 18.5t-13.5 12.5q-27 -13 -41 -13q-2 0 -6 1q-5 8 -10 8q-4 0 -14.5 -5.5t-14.5 -5.5q-23 0 -23 26q0 36 28 36q17 0 28 -19t19 -19q3 0 9.5 2t9.5 2v-1q1 1 1 4q0 5 -21 37t-21 41q0 3 7 17q74 -79 74 -118q0 -10 14.5 -17.5t14.5 -18.5z
M820 -541q-3 -4 -8 -4q-11 0 -44 38.5t-33 48.5q0 7 14 16q14 -6 25 -37q7 -19 21 -34q20 -21 25 -28zM939 -735q-2 -3 -6 -3q-2 0 -24.5 21t-27 23t-12.5 8q-1 8 -7 17q4 9 14 11q15 2 16 3v-5q0 -13 19 -38q28 -36 28 -37zM620 -570q0 2 -7 -40l-121 2q-7 0 -23 -2.5
t-24 -2.5q-68 0 -121 55t-53 124q0 29 21 59q3 27 87 96q9 -5 9 -13q0 -6 -4 -17.5t-4 -17.5q0 -5 22 -13q26 -11 28 -12q16 -11 27 -31q3 -9 6 -17q4 -11 15 -11q21 0 42.5 24.5t26.5 24.5t5 -1q2 -4 17 -50q6 -14 18 -43q8 -25 28 -76q5 -10 5 -38zM2716 2118
q0 40 -20 100q-24 73 -55 73h-18q15 -41 15 -65q0 -21 -32 -81q11 0 26 -1q20 -24 36 -90q17 13 43 54q5 16 5 10zM2614 2247q0 3 -7.5 23t-8.5 25q-80 18 -70 18h-11q11 -12 31 -38q17 -26 54 -77q12 19 12 49zM2589 2174l-95 124q-14 -12 -48 -73t-32 -74l1 -6q46 2 67 2
h40q-6 0 40 -1l7 -3q12 15 20 31zM2474 2314l-219 39l150 -161q24 52 69 122zM2480 2337q-82 95 -107 109q-17 9 -67 9q-4 0 -11 -1t-11 -1q-17 0 -52 4.5t-53 4.5q-159 0 -287 -69l2 -6q133 5 124 5q7 0 20.5 -2.5t15.5 -2.5q85 0 151 -7q76 -8 73 -8q7 0 20.5 -3t21.5 -3
q-1 0 27 -8q31 -4 92 -12q14 -4 41 -9zM2650 1888q0 6 -6 48q-3 0 -9 2.5t-9 2.5q-10 0 -10 -11q0 -38 32 -66q0 4 1 12t1 12zM2395 2167q-19 18 -55 56l-56 66q-5 0 -150 -166v-8q31 2 92 7q18 6 54 14q28 1 82 9l5 -4q1 1 2 1q5 4 13 4q4 7 13 21zM2594 1939q0 5 -1 8
q-10 5 -40 10q2 -3 2 -7q0 -18 -39 -18q-10 0 -19 6q4 9 12 9q2 0 5.5 -1t5.5 -1q-2 0 33 14l-8 4q8 1 -39 1h-15q-5 -30 -5 -48q0 -2 -5 -10.5t-5 -11.5q0 -5 2 -10q7 0 21.5 -1.5t21.5 -1.5q27 0 48 15q25 17 25 43zM2259 2310l-28 32q-17 18 -35 18q-2 0 -4 -1.5t-4 -1.5
q14 0 -38 8q-13 0 -38 1q-3 4 -6 4l-174 -1l202 -209q46 47 125 150zM2342 2468q-8 8 -61.5 41t-60.5 33h-89q-7 0 -11 -3q-82 4 -245 -5l-6 -1l-7 -3q-6 1 -9 1q-10 0 -22 -2q-55 -9 -162 -32q-5 -3 -15 -7q-18 -3 -53 -12q-65 -25 -196 -75l66 -3q18 -1 63 -7q41 -6 63 -6
q2 0 3.5 2t3.5 2q3 0 3 -2t3 -2h33q84 0 130 4q39 3 55 3l172 66q3 -2 6 -2q8 0 22.5 5t19.5 6q9 2 95 10q5 0 17 3t18 3q29 0 144 -13q5 -4 20 -4zM2661 1752q0 9 -12 10q-39 -71 -62 -170q74 156 74 160zM2468 1950q0 5 -3 12h-7q-6 0 -18.5 -4t-18.5 -4q-2 0 -6.5 1
t-6.5 1q13 0 -134 -28q-2 -14 -7 -43q-9 -18 -25 -55h80q1 0 43 14q103 34 103 106zM2121 2144q-29 21 -78.5 74.5t-80.5 75.5q-24 -24 -65 -77q-4 -5 -63 -70q-40 -43 -53 -78h11q10 0 52 6q84 10 251 37q10 10 26 32zM2185 2562q-40 17 -107 57q-35 28 -79 28
q-5 0 -14 -3.5t-14 -3.5q18 0 -160 -5q-3 -3 -7 -3q-3 0 -9.5 2t-9.5 2t-7.5 -2t-6.5 -2q-82 0 -127 -7q-30 -7 -90 -20q-93 -16 -174 -49q-47 -26 -143 -68q-8 -2 -25 -6q-28 -10 -94 -45q-69 -37 -85 -53l173 20q3 0 8.5 -3t7.5 -3q4 0 7 3q11 0 40 2q25 2 39 2
q35 0 155 45q75 29 228 75q30 4 91 14q81 14 117 14q10 0 16 -1q2 -3 5 -3t8.5 2.5t8.5 2.5q21 2 43 3zM1949 2314q-46 36 -43 54h-3q-7 0 -21 2t-21 2q-15 0 -44.5 -1t-44.5 -1q-3 0 -13.5 -2t-16.5 -2q-79 0 -133 6q18 -25 56 -72q7 -6 20 -19q64 -86 116 -136zM2576 1641
q0 4 -4.5 18.5t-5.5 18.5q-13 70 -61 95q-44 23 -66 23q-23 0 -75 -9q-15 -6 -45 -16q-23 -5 -70 -16q-14 -7 -42 -18q-75 -19 -226 -57q2 0 7 -1.5t8 -1.5q12 0 37.5 9.5t37.5 9.5q3 0 2.5 -2t1.5 -2q9 0 29.5 6.5t26.5 7.5q57 11 121 28q5 0 13 1q92 38 136 38
q116 0 142 -59q12 -28 12 -42l3 -5q5 -54 13 -56q1 9 1 16v8q4 3 4 6zM2246 1916v8q-14 -4 -43 -10q-55 -7 -107 -20q-10 0 -29 -2q-57 -7 -71 -23q3 -3 3 -9q0 -8 -4 -25.5t-4 -26.5q1 -7 3 -9q34 -30 104 -30q24 0 71 31.5t57 53.5q20 46 20 62zM1985 2666q-72 27 -218 69
q-6 0 -19 1q-2 0 -6 3t-7 3q-28 0 -51 -7q-11 -7 -34 -16q-11 0 -38 -6q-10 -4 -143 -30q-53 -10 -247 -76q-13 -7 -40 -17q-8 -2 -23 -6q-68 -39 -207 -111q-6 -1 -15.5 -7t-28.5 -17q-23 -7 -56 -28q-24 -33 -24 -56q0 -5 16 -5q12 0 33 6q25 7 33 8q22 1 66 7q3 1 81 46
q25 10 73 33q30 17 102 47q12 7 36 20q35 18 106 49q50 12 142 41q20 8 13 8q3 0 6 -2l157 30q3 1 39 -1q4 -3 9 -3q7 0 10 3q51 0 72 1q5 0 15.5 3t15.5 3q3 0 3 -2t3 -2t8.5 2t8.5 2t3 -2t3 -2q2 0 4.5 2t4.5 2h76q-11 0 18 7zM2559 1571v20q0 -1 -14.5 57t-24.5 71
q-14 18 -68 34q-17 5 -33 5q-55 0 -119 -24q-73 -27 -112 -32q-7 -1 -26 -7.5t-27 -6.5q-3 0 -5 2l-162 -31h90q6 0 17.5 2t17.5 2l8 6l4 -5q57 17 66 17q2 0 3 -1t3 -1q5 0 11 6q30 6 52.5 13t68.5 19q79 13 98 13q71 0 103 -43q22 -29 41 -109zM1666 2746h-143
q-68 0 -91 -5t-14 -5l-30 1q-26 1 -61 -9q-41 -12 -58 -13q-62 -5 -110 -25q-115 -47 -166 -85q-62 -46 -122 -140v-7q34 19 59 28q10 3 28 10q174 104 299 146q8 1 23 5q23 12 96 32q9 1 29 9t32 8q-13 0 98 26q44 7 131 24zM1787 2124q0 7 -22 28q-15 16 -47 47
q-16 27 -55 74q-8 7 -16 8q-39 -46 -114 -139q-21 -35 -69 -101h11q8 0 24 3t22 4q224 20 218 20q11 0 29.5 22.5t18.5 33.5zM1634 2300q0 -2 -56 72l-157 2q-10 0 -30.5 4.5t-30.5 4.5h-77q18 -29 54 -86q11 -13 31 -41q3 -5 3 -11q38 -42 111 -132q1 5 36 51q18 13 37 40
q8 3 14 9q2 2 19 28q1 2 26 29q20 21 20 30zM2657 1982q-9 32 -9 60.5t-21 54.5q0 8 -9 19q-29 11 -77 10l-124 -2q-14 -2 -41 -6q-50 -4 -152 -14q-5 -1 -19 -5.5t-20 -4.5q-2 0 -6.5 1t-6.5 1q-90 0 -242 -31q-44 -9 -37 -9q-2 0 -3.5 2t-3.5 2q-12 0 -34 -5
q-25 -6 -35 -7q-23 -1 -69 -5l-9 3q-40 -2 -85 -6q-8 -1 -27.5 -5.5t-29.5 -4.5q-35 0 -87 -8q-24 0 -73 -3q-127 -19 -171 -19q-3 0 -8 2.5t-8 2.5q-22 0 -67 -7.5t-67 -7.5q-3 0 -10 2t-10 2q-73 0 -117 -25q-50 -28 -99 -56v-7q0 -5 3.5 -28t4.5 -30q2 -27 2 -35
q0 -6 -2 -17t-2 -16q0 -8 3 -31t3 -32l5 -8q37 16 111 40q17 2 49 15l5 -4q67 17 53 17h73q2 0 2 2h1q0 2 2 2q16 0 48 3.5t48 3.5h59l310 49l9 -3q2 0 6 3.5t6 3.5q3 0 2.5 -1t2.5 -1q-9 0 15 7q55 16 73 16q3 0 3 -1t3 -1q19 0 53.5 8.5t51.5 8.5q12 0 36 7.5t36 7.5
q8 0 12 4l4 -4l185 40q2 -4 3 -4q8 0 25 5.5t23 6.5q25 2 73 10q56 14 50 14q2 0 4 -1t4 -1q3 0 6.5 3t5.5 3q15 3 46 8q103 12 108 12q68 0 150 -34zM2735 1030q0 34 -23 73q0 4 -1 13q-8 48 -15 96q-10 60 -27 90q-35 54 -101 164q-8 31 -34 92q-4 7 -6 23l-5 6
q-1 18 -10 40q-32 78 -101 78q-6 0 -42 -6.5t-39 -4.5q-250 -59 -312 -59q-83 0 -90 7q-35 2 -75 2q-19 0 -29 9v6q18 11 61.5 17.5t65.5 19.5v-3q1 -3 3 -1q60 17 191 54q26 11 81 23l8 5q7 2 21 4l5 5q14 2 42 7q105 30 137 30q31 0 58 -12q4 -3 13 -9q75 -42 76 -98h10
q14 56 24 66q6 4 14 13q15 36 15 49q0 -7 -33 35q-6 9 -19 26q-32 -32 -82 -32q-10 0 -27.5 5t-26.5 5q3 0 -24 -20q-59 -43 -157 -43q-9 0 -25.5 1t-25.5 1q-13 0 -29 -15q-22 -20 -26 -23q-41 -24 -99 -24q-21 0 -90 24q2 0 -51 -48t-132 -48q-53 0 -86 23q-14 12 -29 24
q-13 -18 -13 -55q0 -17 3 -35q-4 -5 -4 -22q0 -58 3 -83q4 -10 10 -30q0 -7 3 -21q14 -30 27 -60q17 -32 41 -51q39 -31 168 -88l54 -27q2 0 2 1t2 1q3 0 8 -3.5t7 -4.5q33 -9 119 -71q10 -15 31 -42q58 -66 128 -123q22 -18 41 -18q13 0 42 7.5t41 8.5q-3 8 -3 29
q0 43 24 61q35 26 43 40q3 5 13 5q7 0 7 -7q0 -24 -32 -53.5t-32 -48.5q0 -4 3 -7q3 -29 25 -29q12 0 34 6.5t33 6.5q56 0 56 -30q6 0 12.5 -10.5t15.5 -10.5q2 0 4 1.5t4 1.5q3 0 6.5 -3.5t5.5 -3.5h21q33 0 63.5 23.5t30.5 54.5zM1979 1858q0 4 -3 10h-26q-31 0 -92 -15
q-65 -16 -62 -16q-2 0 -5 2t-5 2q-14 0 -40.5 -8.5t-29.5 -8.5q-7 0 -9 2q-11 -55 -11 -68q0 -17 41 -46q19 -14 60 -14q57 0 94 27q77 57 82 98q-1 -9 -1 12q0 3 3.5 11t3.5 12zM2551 957l-6 2l-1 -3l5 -2zM2525 977v4h-8v-4h8zM2555 964q-5 2 -7 9q-3 -3 -7 -3h-1
q1 2 3 12q-11 -11 -16 -11q-7 0 -14 9v-2q-1 -2 -3 -2t-2.5 2t-2.5 2q-8 0 -12 -4q33 -11 20 -11q2 0 4.5 1t4.5 1t6 -11q8 8 27 8zM1470 2090q0 3 -37 50q-31 40 -62 73q-19 30 -55 66q-16 -17 -88 -129q-74 -118 -74 -133h11q-11 0 24 6q6 1 48 1q6 0 15 3t13 3q1 0 6 -6
h18q-3 0 32 5q7 1 39 1q10 0 28.5 4t29.5 4t16.5 3.5t20.5 23t15 25.5zM1305 2301q0 4 -24 38.5t-29 38t-18 3.5q-49 0 -87 -17l-82 -40q-37 -14 -111 -44l199 -212q37 60 112 179q40 64 40 54zM2580 876v10q-9 22 -24 46q-22 4 -64 14q-12 3 -39 21q-24 15 -39 15
q-4 0 -12.5 -3t-12.5 -3q-3 0 -6.5 2t-5.5 2q-10 0 -40.5 -10.5t-34.5 -17.5q-6 -19 -20 -54q-22 -44 -48 -73h7q46 21 136 36q49 8 51 8q3 0 8 -1t8 -1q9 0 26.5 2.5t26.5 2.5q3 4 5 4t2.5 -2.5t2.5 -2.5t3 2.5t3 2.5h67zM1685 1812q-5 5 -10 5q-3 0 -10.5 -4t-10.5 -4
q-2 0 -3 1t-3 1q-5 0 -11 -6q-26 -4 -79 -12q-3 -3 -168 -23v-7q0 -22 15 -49l26 -44q23 -15 46 -29.5t55 -14.5q23 0 31 8q33 6 44 16q47 40 58 83zM2567 838v16h-24l-5 -4q-3 2 -10 2q-10 0 -30 -4t-30 -4q-52 0 -123 -10q-20 -4 -58 -14l2 -6q151 5 143 5q12 0 48.5 -10
t49.5 -10q8 0 13 1q24 32 24 38zM1122 2373l-14 4q-39 -4 -117 -16q-34 -7 -48 -7q5 0 -63 -11q-28 -4 -64 -14q-32 -26 -66 -118l196 89q16 6 47 19q42 21 129 54zM2548 769q0 7 -4 9l-6 -1q-20 -3 -57 7.5t-41 10.5q-2 0 -7 -1t-7 -1q-3 0 -8.5 2t-8.5 2q-2 0 -3 -2t-3 -2
t-2.5 2t-2.5 2t-4 -2.5t-4 -2.5h-69q20 -11 60 -34q33 -21 30 -21q2 0 2.5 1.5t1.5 1.5q64 -28 78 -28q8 0 25 3q30 5 30 54zM975 2224q0 -4 -43 46q-55 -20 -120 -55q-5 -8 -5 -28q0 -6 10 -99q14 13 43 39q33 26 68 48q5 6 17 18q30 23 30 31zM1141 2048q-64 74 -150 152
q-16 -33 -51.5 -97.5t-108.5 -193.5q18 9 52 28q5 6 17 14q11 3 30 12q57 37 61 39q24 11 72 11q4 0 13 2t13 2q6 0 34 -4q2 9 18 35zM1462 1597q-5 12 -16 35q-21 12 -60 57q-7 29 -23 73q-5 9 -15 9q-4 0 -11 -5q-11 0 -36.5 -3t-39.5 -3q-168 0 -237 -32q2 -27 23 -102
q22 -83 34 -83q9 0 50 35q20 17 25 33q7 21 13 28q47 61 94 62q3 4 8 4q123 0 188 -113zM799 2069q0 39 -11 60l3 6q-5 42 -5 65h-8q-34 -19 -43 -34t-9 -52q0 -32 8 -83l-3 -7l10 -7q58 58 58 52zM945 2166q-75 -53 -201 -172q-7 -9 -7 -31q0 -83 9 -105q7 10 17 9
q12 7 37 21l1 11zM1394 1517q-6 22 -6 21q0 58 -31 76q-22 12 -84 12q-32 0 -41 -24q-12 -31 -12 -27q0 -24 20 -59.5t20 -58.5q0 -8 5.5 -19t5.5 -13v-90l3 -2q4 -41 25 -41q28 0 59 47q-43 1 -56 93q-1 5 -6.5 18.5t-5.5 15.5t5 16q14 40 57 40q17 0 39 -17zM1460 1544
q0 14 -30 52q-27 35 -43 48q-38 31 -97 31q-46 0 -64 -12q-55 -36 -55 -109q0 -38 30 -85q7 -6 16 -17q17 -36 17 -121q0 -26 33 -76q34 -53 58 -53q52 0 62 25q39 97 39 132q0 6 -3 6q-100 -100 -128 -100q-7 0 -23 16t-18 23q-2 42 -12 128q-4 23 -28 71q-20 41 -20 74
q0 4 3 7v11q4 21 37 48q16 2 46 7q19 4 13 4q89 0 107 -40q19 -43 19 -91v-70q-10 -10 -13 -10q-8 0 -24.5 28t-32.5 28q-11 0 -23.5 -11t-12.5 -22q0 -3 5.5 -18t6.5 -19q4 -22 8 -45q9 -26 34 -26q10 0 28 15q22 19 30 22q5 14 20 76.5t15 72.5zM720 2002q0 -7 -14 83
q-8 -33 -33 -81q-36 -71 -39 -78zM873 1701v18q0 4 -4 9q-2 9 -2 144q0 -2 -7 26q-7 -4 -23 -11q0 -6 2 -16.5t2 -15.5q0 -9 3.5 -32.5t3.5 -27.5t-2 -6l-3 -28q0 -12 5 -33q5 -25 6 -34q7 2 19 7zM1175 1457q0 3 -9 18t-10 19q-3 8 -14 66q-17 -12 -52 -37q21 -32 69 -90
q16 16 16 24zM1200 1391q-4 12 -9 42q-16 -11 -16 -19q0 -12 20 -28zM1056 1531v2q0 -4 -19 46q-3 8 -35 127l2 9l-4 5q-11 -2 -44 -15t-36 -13t-3 1t-3 1q-17 0 -54 -26q5 -24 20 -69q3 -4 7 -12q0 -6 2 -17q8 -27 29 -71q41 2 138 32zM830 1688v8q-7 8 -6 25q0 22 -2 26
t-2 76q0 55 -3 49q-3 -3 -44 -22q-31 -15 -30 -26l18 -159l7 -3q34 14 62 26zM722 1848q-3 142 -3 122q-34 -20 -106 -102q-6 -32 -13 -49q-14 -37 -14 -32q1 -6 4 -6q8 5 132 67zM1139 1417q0 2 -15 17q-17 28 -59 79q-22 -17 -51 -17h-6q-10 -4 -30 -10q-17 -2 -52 -9
q40 -68 95 -149q10 6 28 18q10 10 30 26q60 38 60 45zM741 1661q-2 19 -7 54q-4 23 -4 19q-37 -21 -46 -21q-7 0 -7 7q0 5 2 6q6 0 48 22q0 2 2 6t2 6q0 3 -3 10q-4 -1 -19.5 -10t-21.5 -9q0 1 -1 2v8q21 18 33 18q5 0 6 -3l3 4v15q0 1 -7 29q-19 -9 -56 -30v-157h7
q3 0 13.5 5t13.5 5q2 0 2.5 -1t2.5 -1q10 0 37 16zM2502 686l-1 2q-3 0 -9.5 -1t-9.5 -1q-12 0 -64 22q-8 3 -101 58q-71 42 -104 42q-5 0 -16.5 -2.5t-16.5 -2.5q-8 0 -15 6v6q63 28 108 116q3 11 12 32q4 4 10 12q-7 2 -19 7q-41 40 -109 105q-11 9 -31 28q-50 59 -123 95
q-70 31 -141 62q-11 3 -32 12q-11 7 -32 20q-11 3 -30 12q-58 44 -90 106q-1 5 -6 15q-26 34 -33 115l3 10q-3 8 -3 10q0 33 8 66q0 9 2 28q-17 -19 -68 -49q-21 -4 -62 -13q-26 -6 -15 -6q-4 0 -34 15q5 -40 5 -51t-11.5 -70.5t-15.5 -64.5q1 -2 1 -6v-4q-10 -54 -33 -125
l1 -11q-40 -117 -40 -265q0 -153 27 -280q6 -21 17 -72q1 -6 5 -9l-3 -8q11 -72 24 -105q3 13 10 39q5 8 11 26q0 4 1 12q3 4 8 13q3 22 12 64q9 28 9 19q0 24 3 32q15 27 41 83q15 33 45 101q1 6 4 18q9 25 80 168q7 8 18 25q2 8 6 23q8 16 22 49q4 11 18 105q1 1 8 1h5
l4 -1l-1 -6q-1 -6 1 -16q2 -13 2 -17q0 -11 -11.5 -49.5t-17.5 -47.5q-3 -13 -39 -90.5t-42 -83.5q-16 -33 -47 -100l-27 -72q-16 -30 -41 -90q-2 -10 -6 -29q-26 -86 -51 -188q-1 -4 -7.5 -20t-6.5 -19t14 -42q1 -9 6 -26q4 -7 11 -21q0 -4 2 -13q11 -20 30 -63
q5 -30 19 -89q10 -20 26 -62q12 -35 32 -106q6 -38 25 -113q13 -33 39 -100q2 -14 9 -41q12 -25 32 -78q6 -23 24 -68q78 -151 122 -298q6 -35 18 -75q61 32 112 65q46 34 142 99q12 11 38 31q10 5 30 18q29 23 35 23q16 0 47 -23q21 -17 43 -34q15 18 41 55q5 12 16 34
q9 11 20 33q4 21 4 37q0 10 -3 16q0 22 1 72t1 74.5t10 112.5q2 51 12 151q4 16 11 47q1 18 17 47q10 4 30 14q-6 14 -14 43q0 9 -1 28q-8 37 -8 31q0 6 3 13q-5 20 -5 30v194q0 31 15 110q2 10 15 35t13 34zM1203 1337q0 -9 -44 57l-124 -83q3 -12 38 -54.5t44 -42.5
q15 0 44 32q8 19 23 56q19 44 19 35zM888 1495q-17 56 -56 167q-32 -12 -69 -19q3 -28 13 -82q3 -14 25 -81h13q-20 0 74 15zM1155 1210v4q-23 -23 -23 -21q0 -8 13 -13q10 35 10 30zM478 1921q-14 8 -69 18q-3 1 -11 4.5t-11 3.5q-5 0 -22 -11q-1 -19 13 -48q3 0 9 -2.5
t9 -2.5t9.5 3.5t9.5 3.5q4 0 12.5 -3.5t12.5 -3.5q7 0 12 3q8 12 26 35zM643 1756q0 7 -5 27q-30 -14 -62 -39q-3 -27 -3 -132l3 -3q28 6 65 24l-4 9q4 9 4 17q0 4 -2 11.5t-2 11.5q0 9 1.5 25.5t1.5 25.5q0 4 1.5 11.5t1.5 11.5zM990 1318q-14 23 -40 69q-2 9 -10 26
q-15 18 -40 58q-30 -6 -91 -15q12 -32 33 -97q1 -6 3 -19q1 -7 18 -41h18q39 0 83 11q8 3 26 8zM777 1481q-19 41 -35 156q-77 -29 -77 -31q0 -49 17 -143q28 8 78 8q11 0 17 10zM430 1866q-14 0 -41 2l-9 -2v-20q0 -34 20 -34h1l-1 4q0 9 12 25q16 21 18 25zM348 1894
q-4 15 -11 44q-55 -18 -55 -35v-2q3 0 9.5 -2.5t9.5 -2.5q2 0 4.5 2t4.5 2t38 -6zM566 1783q-14 -12 -50 -91q24 4 23 4q8 0 9 -5q-7 -10 -24 -10q-3 0 -12 9q0 -10 -19.5 -44t-19.5 -49q0 -3 1.5 -8.5t1.5 -8.5q24 7 71 25q3 47 3 110q0 14 9 52q3 5 7 16zM1088 1202
q-40 28 -86 97q-99 -22 -131 -22l24 -54q8 -16 49 -84q19 1 81.5 26.5t62.5 36.5zM658 1464q-17 81 -17 143h-8q-21 -7 -60 -22v-111q9 -9 13 -9h4l4 3q2 0 5 1h6q8 0 10 -4l5 6q13 -2 38 -7zM369 1807q-4 7 -10 22q-1 5 -1 14v5q0 19 -11 26q-6 0 -18.5 2.5t-19.5 2.5
q-10 0 -10 -17q0 -3 6.5 -12t6.5 -12q0 -4 -1 -4h-1h-12q-10 20 -10 27q0 9 9 15q-15 0 -44 5q-16 -24 -16 -22q0 -36 24 -39q34 -3 37 -7q7 7 16 7l5 -4q16 -1 26 -1q1 0 8 -4t16 -4zM1135 1142q0 5 -12.5 21.5t-17.5 16.5q14 0 -61 -32q-40 -17 -88 -33q26 -32 51 -64
q39 -48 56 -48t59 109q13 33 13 30zM839 1299q-11 26 -26 80l-5 6q-2 26 -23 62h-97v-24q0 -18 14 -59t25 -56q45 -9 68 -9h44zM590 1889l-20 5q-18 -25 -51 -77q-45 -82 -111 -226q-2 -8 -6 -23q-10 -23 -29 -70q-8 -29 -26 -85q-10 -28 -10 -24q0 -6 5 -12q3 21 42 113
q36 88 51 113q51 96 155 286zM556 1895l-12 3q-84 -96 -165 -309q-57 -150 -57 -190q0 -8 4 -15q16 73 29 113q11 25 32 75q57 143 131 274q13 16 38 49zM380 1785q-13 1 -48 6q-30 5 -47 5q-14 0 -22 -9q5 -28 26 -92l4 -3q18 0 49 7q13 28 38 86zM524 1906q-5 6 -22 5
q-20 -23 -56 -71q-24 -49 -78 -151q-78 -143 -78 -258q0 -25 17 -32q4 62 29 126q3 4 7 13q7 20 21 59q27 69 70 157q13 31 46 89q19 23 44 63zM1432 514v16q0 3 -3.5 13t-4.5 13q-1 16 -5 49q-6 19 -14 57q0 14 -3 41q-35 174 -35 259q0 6 3 10q0 18 -2 54q0 2 -2 7t-2 8
q0 18 9 101q1 6 4.5 20t3.5 22h-11q-4 0 -14 -5.5t-13 -5.5q-34 0 -48 12q-16 17 -32 35q-30 33 -52 86l-8 -1l3 -7q-20 -66 -62 -198q-30 -94 -30 -92q0 -6 1.5 -18t1.5 -18q0 -14 -4 -41.5t-4 -41.5q0 -4 1.5 -10.5t1.5 -10.5q0 -24 -4 -42q-5 -22 -5 -11q0 -3 4 -8.5
t4 -9.5q-4 -64 -51 -64h-5q-14 17 -14 27q0 8 4 23t4 22q0 -1 -10.5 18.5t-10.5 38.5q0 10 4 22l-10 2q-14 -56 -14 -107q0 -10 -6 -27t-7 -26q0 -5 1 -13t1 -12q0 -13 -15 -29.5t-28 -16.5q-28 0 -28 27q0 7 13 35q-12 12 -15 31q-4 30 -5 32q-26 -3 -26 -110
q0 -6 2.5 -18.5t2.5 -18.5q0 -14 -11 -22q-15 -12 -16 -14q3 0 7.5 1t6.5 1q6 -1 8 -4q58 0 145 -13q114 -17 144 -20q9 -3 26 -7q32 -2 97 -7l5 -3q51 -7 59 -9q33 -7 55 -22h8zM233 1825l-10 9l-7 -7v-9h10zM550 1476q-1 14 -1 89v16q-29 -6 -73 -26v-37q-1 -25 -1 -37
q0 -6 1 -8q12 4 32 4q13 0 37 -10zM920 1139q-14 13 -26 37q-17 35 -20 41q-9 21 -18.5 40.5t-34.5 19.5q-4 0 -12 -1t-12 -1q-46 0 -59 7q-5 -4 -5 -9q0 -15 60 -153h62q-9 0 19 6q5 1 15 1h6q11 0 17 2t8 10zM451 1563v12h-4v-12h4zM699 1310q-21 36 -34 107q0 6 -1 17
q-17 9 -24 9h-60v-9q0 -20 7 -66q9 -51 17 -59q8 1 68 0l5 2q4 -3 13 -3q4 0 9 2zM1094 970q0 6 -1 14q-15 -20 -39 -62q0 -7 -3 -20l2 -6q-4 -12 -4 -11q0 -6 4 -11l-2 -6q0 -9 3 -26q6 -7 13 -21q24 9 27 51q-2 -24 -2 58q0 7 1 20t1 20zM333 1675h-8q-1 0 -26 -13
q0 -22 10 -55q9 30 24 68zM1032 992q-35 24 -96 118q-2 3 -9 4q-6 0 -11 -6q-37 -2 -111 -7q1 -9 7 -25q4 -5 11 -15q16 -35 53 -104q63 8 82 11q56 10 74 24zM265 1686v7q-8 21 -19 49q-1 19 -18 52q-3 1 -5 1q-12 0 -23.5 -15t-12.5 -28q1 2 5 2q5 0 7.5 -29t8.5 -34
q-3 -7 -9 -7q-14 0 -14 65q-16 -31 -16 -28q0 -3 25 -59zM452 1476v69h-10q-15 -26 -39 -82h8q15 0 41 13zM573 1310v7q0 13 -6 36q-7 29 -8 36q-1 20 -4 47q-2 6 -6 9q-46 7 -60 7q-3 0 -13 -5v-7q0 -4 2.5 -11.5t2.5 -11.5q2 -41 14 -122q34 10 78 15zM765 1123
q-7 15 -21 47q-25 64 -36 106q-25 12 -68 12h-33v-11q0 -4 8 -28q10 -27 11 -32q4 -25 16 -73q4 -9 13 -26q52 3 105 0zM1056 971h-8q-30 -13 -78 -23l-80 -16q12 -15 25 -39l6 -15q12 -14 32 -43q26 27 72 84q2 7 9 18.5t22 33.5zM1090 784q0 5 -5 15q-21 -7 -21 -33
q0 -6 6 -9q20 11 20 27zM293 1562q0 -7 -8 12q-4 31 -14 86q-2 0 -74 -20q9 -23 32 -109l59 13q0 3 2.5 9t2.5 9zM174 1655q-3 5 -16 31l-4 -2q-10 -32 -10 -36q0 -6 2 -9q11 5 28 16zM847 952v10q-24 33 -70 139h-44v-8q0 -26 26 -68q1 -2 14 -16.5t13 -16.5q0 -7 -5 -8
q-22 15 -41.5 53t-17.5 64q-48 0 -59 -3q25 -70 64 -154q24 8 120 8zM471 1295q-6 50 -17 150h-24q-32 0 -43 -19q-26 -46 -26 -67q0 -38 19 -83l9 -9q13 10 40 16q31 6 42 12zM629 1123q-12 31 -29 94l-5 7q-1 10 -12 56q-7 6 -16 6q15 0 -25 -8q-15 -1 -45 -5l36 -172
q37 14 93 17zM990 837q-45 -31 -45 -66q0 -42 19 -42q17 0 21 50q3 29 5 58zM212 1525q-3 6 -35 105q-38 -8 -44 -31q4 -2 4 -20q0 -10 4 -14l-1 -8q20 -50 29 -50q8 0 43 18zM280 1514q0 6 -3 8q-13 0 -40 -13q0 -6 8 -38v4q0 4 -1.5 11t-1.5 11q0 9 9 10q3 -3 5 -6
q0 -7 2.5 -20.5t2.5 -20.5q-1 -1 -2 -4q-6 2 -11 11v-11q0 -29 16 -30l5 5q-1 10 -1 16q0 13 6 37t6 30zM930 821q-26 33 -42.5 67.5t-23.5 38.5t-51 4q-40 0 -78 -6q23 -41 45 -83q30 -51 56 -73q24 6 94 52zM229 1450l-13 53q-34 -9 -34 -19q0 -7 18 -21.5t24 -14.5
q5 0 5 2zM973 696v7h-14q-9 -9 -9 -14v-7l5 -2q3 1 18 16zM699 949q-20 50 -64 149q-4 3 -10 3q9 0 -11 -6q-30 -1 -77 -20q5 -14 14 -41q1 -15 6 -45q4 -14 11 -45q14 -21 19 -21q23 0 105 19zM512 1093q-12 32 -22 89q-12 65 -19 89q-16 -5 -48 -16q-11 -6 -33 -16
l50 -127q15 10 23 10q2 0 2 -1t2 -1q3 0 11 6t11 7l6 -7q-13 -19 -32 -19q-15 0 -21 3q13 -28 24 -39zM879 700q-3 2 -5 3q-7 -14 -19 -23l-3 4q0 16 18 28q2 -3 2 -6l5 6q-3 6 -2 21q-7 0 -15 -12.5t-11 -14.5l-4 3v13q0 15 22 24q1 -1 6 -4q0 6 2 12h-10q-15 -6 -30 -13
q17 -69 23 -69q7 0 21 28zM817 760l-1 -2q-4 0 -11 6v-2q0 -10 5 -14q2 4 7 12zM796 774q-11 12 -29 37q-18 37 -58 109h-6q5 0 -59 -12q-13 0 -30 -8q21 -18 54 -55l64 -42q47 -30 64 -29zM535 980v12q0 7 -10.5 40t-14.5 37q-12 -5 -30 -22q6 -10 55 -67zM879 638l-2 16
q-19 -7 -19 -15q0 -9 10 -14q4 4 11 13zM854 604q-24 10 -14 50q-8 7 -17 21q0 12 -4 37q-28 -34 -80 -105l5 -6q3 0 7.5 2.5t7.5 2.5q5 0 16.5 -2.5t17.5 -2.5q31 0 61 3zM1209 -292v8q-7 11 -14 18q-18 -10 -18 -18v-8q10 -3 17 -3t15 3zM1164 -259v5q-5 9 -14 9
q-13 0 -13 -14q0 -20 15 -28h8q4 10 4 28zM1183 -461q-11 16 -18 16q1 0 -11 -20q28 4 29 4zM1139 -463q-21 16 -24 16h-10q-1 -3 -4 -9q24 -12 26 -12q8 0 12 5zM1215 -650q-9 13 -18 16q-2 -2 -7 -10q9 -9 16 -9q6 0 9 3zM1181 -624l-7 7h-12q5 -7 16 -19zM833 -467
q-2 3 -15 10l-2 -8q4 -2 12 -7zM958 -659q-4 12 -12 12q-5 0 -9 -7l5 -5h16zM603 -560l-56 173q-47 -38 -69 -38q-21 0 -33 24q-15 30 -23 36q-17 5 -49 19q-9 5 -7 35q-78 -76 -78 -123q0 -63 49 -113.5t112 -50.5q15 0 45 2t45 2q60 0 50 -2l5 1q16 14 9 35zM2667 2222
q0 -38 -17 -54h-10v7q0 3 6.5 14.5t7.5 14.5q-2 15 6 41q7 -11 7 -23zM2610 2248q-2 -3 -6 -3l-54 47q3 7 8 10q31 -27 52 -54zM2688 2178q0 -14 -19 -56h-12q25 60 21 91h10v-35zM2703 2124q0 -5 -11.5 -19.5t-15.5 -14.5q-2 1 -2 5q0 6 9.5 19.5t9.5 21.5q0 5 -2 8h12v-20
zM2554 2210q-5 -16 -23 -44h-8v7q8 15 17 40zM2529 2226q0 1 -26 -51h-7q-3 2 -3 7q15 39 22 49q3 2 9 7l5 -2v-10zM2446 2279h-7q-66 36 -67 48q5 0 74 -38v-10zM2504 2263q0 4 -35 -80h-9q-3 2 -3 7q0 6 37 80h7q3 -2 3 -7zM2401 2381h-121q-6 0 -19 -2t-19 -2t-10 6
q30 8 130 8q4 0 11.5 3.5t11.5 3.5q2 0 16 -7v-10zM2429 2263q0 -8 -5 -8q-3 0 -38.5 27.5t-36.5 31.5q4 2 6 2q27 0 74 -53zM2359 2413h-13q8 0 -26 5q-7 1 -44 1h-9q-58 0 -112 -11q-16 -5 -46 -12h-7q-1 12 7 14q68 20 165 20q14 0 41.5 -1.5t41.5 -1.5zM2408 2235
q-3 -5 -7 -5q2 0 -104 94l3 7q3 0 10 -2.5t51 -44.5t47 -49zM2644 1886h-8q-4 8 -13 24l2 9h10v-9q0 -10 9 -17v-7zM2338 2188q-15 -19 -29 -30h-7v10q10 11 26 30q7 -5 10 -10zM2223 2288q-4 -3 -10 -3q-2 0 -39 30q-41 33 -44 35l2 7h7q5 0 42 -31t42 -38zM2312 2227
q-4 -6 -53 -71h-10v9q18 20 51 62h12zM2563 1920q-13 -22 -40 -22q-24 0 -30 16q3 6 9 6q3 0 10 -4.5t11 -4.5q-1 0 37 19zM2289 2248l-90 -107h-8v9q0 17 82 100q2 3 6 5q7 0 10 -7zM2185 2263q0 -5 -3 -12h-7l-90 80l3 5h6q4 0 43 -33q45 -38 48 -40zM2163 2495l-2 -6
q-20 -6 -83 -6q-5 0 -16.5 -2t-16.5 -2q-3 0 -2.5 1t-2.5 1q18 0 -48 -10q-62 -9 -261 -69l-5 3q1 10 11 13q21 5 62 15q50 17 151 43q81 15 125 16q3 4 40 4q3 0 3.5 -2.5t3.5 -2.5q2 0 2 2l1 1q0 2 2 2t4 -2.5t4 -2.5q4 0 13 2t15 2zM2176 2513q-109 -2 -226 -12
q-88 -5 -147 -21q-188 -52 -187 -52l-3 2v8q221 78 380 78q10 0 30 4.5t29 4.5q5 0 14.5 -2t14.5 -2h93zM2146 2235q-3 -9 -8 -9q3 0 -46 42q-34 23 -75 55q6 3 10 3q9 0 60 -40t59 -51zM2408 1938q-27 -44 -74 -44h-12q-7 0 -29 11v10q1 2 8 2q3 0 9 -4t10 -4q31 0 44 9
q17 13 34 27q4 -2 10 -7zM2012 2612l-2 -8q-135 2 -123 2q-179 0 -345 -54q-26 -9 -77 -26q-33 -5 -93 -32h-8l-2 12q33 10 99 31q37 15 114 39q33 8 100 21q53 10 147 20l138 2q-3 0 52 -7zM2423 1912q-56 -56 -94 -56q-39 0 -44 15q1 8 6 8q3 0 10 -5.5t10 -5.5q28 0 40 3
t36.5 27t30.5 24l5 -3v-7zM2055 2572q-12 -6 -24 -6q-5 0 -15 2t-15 2q-67 0 -148 4q-24 1 -181 -31q-163 -34 -185 -49q-54 -22 -131 -43l-1 5q7 18 134 55q99 29 152 39q16 1 47 6q25 6 16 6q2 0 4 -1.5t4 -1.5q18 0 59.5 12t57.5 12q46 1 138 2q14 0 88 -13zM1900 2286
q-3 -3 -11 -3q-14 0 -66 57q0 4 6 9zM2036 2193q-50 -71 -57 -76q-3 2 -3 8q0 8 23.5 41t31.5 34q5 -3 5 -7zM2000 2224q0 4 -65 -85l-12 2q27 38 74 91q3 -2 3 -8zM1976 2265l-109 -141q-8 0 -8 6q0 11 107 140zM1866 2261q0 -10 -10 -10q-13 0 -86 73l3 12q28 -26 93 -75z
M1710 2704q-3 0 -34 -8q-28 -2 -85 -10q-36 -6 -87 -17q-27 -6 -221 -79q-32 -8 -94 -23q-6 -2 -27.5 -11.5t-27.5 -9.5q-2 0 -6 1v8q14 7 43 18q30 6 88 21q28 13 85 37q19 7 74 22l4 5q26 8 79 22q37 8 110 18l5 6q3 -4 6 -4q13 0 39 8.5t39 8.5q9 0 10 -13zM1819 2225
q-3 -4 -6 -4t-23 19q-40 38 -105 91l5 7h7q45 -34 122 -113zM1853 2671l-3 -4q-40 3 -128 3q-44 0 -108 -11q-18 -6 -55 -18q-86 -18 -255 -67l-102 -48l-98 -38q-58 -24 -91 -52l-8 3v9q39 26 100 53q21 7 62 23q20 10 62 30q67 31 178 58q126 30 173 48q4 3 12 7
q55 16 131 16q12 0 35.5 -2t35.5 -2q7 0 26 1h27l3 2zM2176 1888q0 -12 -29.5 -26.5t-44.5 -14.5q-30 0 -55 7l-2 10q8 0 23.5 -1t23.5 -1q30 0 72 34h10q2 -2 2 -8zM2200 1867q0 -6 -27.5 -28.5t-35.5 -24.5q-32 -9 -44 -9q-3 0 -14.5 2t-33.5 7q-28 12 -26 31q3 4 7 4
l17.5 -13.5t36.5 -13.5h35q6 0 73 51h9q3 -2 3 -6zM1583 2275q-2 -3 -7 -3q-4 0 -45 39q-45 42 -52 47v10h12q29 -29 90 -83zM1300 2712l-2 -8q-67 -17 -135 -34q-67 -24 -114 -78h-8v9q48 54 113 76l128 38zM1725 2152q-16 -9 -55 -64h-8v11q0 3 23 29.5t29 31.5h11v-8z
M1696 2189q-24 -23 -56 -80h-12v9q0 4 56 76h7zM1309 2695q-2 -6 -5 -9q-75 -27 -187 -76q-20 -17 -64 -48q-4 3 -4 6q0 9 34.5 33t45.5 25q5 5 53 21q38 17 113 51zM1664 2213q-73 -59 -81 -98h-13v7q0 9 36.5 53t47.5 50h7zM1542 2236q-58 43 -108 115h12q50 -56 96 -100
v-15zM1487 2209h-11q-12 0 -105 111l2 16q16 -21 54 -60q21 -17 60 -67zM2423 1517q0 -18 -20.5 -47t-20.5 -45q0 -8 4.5 -22.5t4.5 -22.5q0 -9 -18.5 -25t-29.5 -16q-4 0 -52 14q-53 15 -61 17q-33 1 -98 14q-66 23 -177 111q2 18 16 43q-12 -1 14 -1q17 0 29 6l4 -4
q25 14 125.5 38t130.5 24q149 0 149 -84zM1898 1838q0 -9 -22 -27t-34 -23t-28 -5q-11 0 -59 16q5 10 11 10q7 0 23 -5.5t23 -5.5q40 0 76 49q10 0 10 -9zM1925 1812q0 -19 -39 -48t-59 -29q-2 0 -3.5 1t-3.5 1t-2.5 -2.5t-2.5 -2.5t-8 4q-23 0 -42 6q-8 3 -25 16t-17 20
q0 5 7 12h8q19 -38 79 -38q38 0 69 34l31 34q8 0 8 -8zM1258 2277q-1 -2 -7 -2q-11 0 -74 70l3 12h7q20 -27 71 -70v-10zM1400 2142q-26 -38 -41 -67l-9 -2q-3 2 -3 7q0 7 41 65q8 0 12 -3zM1370 2158q-25 -26 -53 -75h-10q-2 2 -2 7q0 10 58 82h7v-14zM2557 884h-10
q-16 41 -16 33q1 5 3 7h7q16 -21 16 -26v-14zM1213 2230q-2 -2 -6 -2q-5 0 -76 73v14q27 -25 82 -75v-10zM1341 2188q-42 -38 -69 -87q-3 -9 -11 -24q-2 -1 -6 -4h-7q-3 2 -3 6q0 23 88 123h8v-14zM2518 893q-5 -2 -14 -2q-1 4 -7 16t-6 15v11q5 2 12 2q3 -14 15 -35v-7z
M2472 912q0 -11 -5 -19q-6 3 -8 5v56q8 -3 10 -5q0 -5 1.5 -17.5t1.5 -19.5zM2436 937l-7 -42q-7 0 -12 11v63h12q7 -35 7 -32zM1175 2173q-2 -3 -6 -3t-27 22q-82 77 -82 78v7h7q11 0 108 -97v-7zM2393 953q0 -18 -5 -58q-2 -3 -8 -9q-8 1 -8 8q0 -4 10 49q-4 4 -4 8v16h12
l3 -3v-11zM1581 1767q-42 -43 -52 -43h-15q-21 0 -52 26q0 11 2 14q5 -1 20.5 -14t33.5 -13q13 0 28 15q11 13 23 25q7 0 12 -10zM2355 915q-1 -4 -7 -37l-10 -2q-4 4 -4 7q0 4 2.5 12t2.5 12q-1 14 1 42q1 10 12 14zM1626 1769q0 -3 -5 -9t-6 -8q-3 -11 -9 -32
q-41 -51 -50 -51h-54q-14 0 -41 27.5t-27 37.5v13h10q29 -42 37 -49q18 -15 57 -15q26 0 50 44q27 49 28 50h7q3 -3 3 -8zM2325 952q0 -1 -26 -85h-10v9q0 -12 10 24q2 20 18 56h2q6 0 6 -4zM2221 968q0 -6 -3 -9l-19 32q-16 27 -69 89q1 10 8 10t45 -54t38 -68zM2104 1091
q-2 -3 -7 -3q-6 0 -9 7q-31 62 -75 81l2 12h9q19 0 60 -58q2 -3 20 -39zM941 2200h-10q-10 11 -32 31l2 14q33 -27 40 -45zM1974 1185l-5 -10q-22 20 -69 55q-12 4 -36 14q0 9 5 14q17 -7 50 -24q18 -16 55 -49zM1681 1408l-5 -5q-12 0 -32 44q-18 39 -21 57q-1 7 -7.5 25.5
t-6.5 21.5q0 6 4 18h8l4 -5q1 -77 56 -156zM2223 872q0 -4 -5 -13h-7q-7 51 -22 79l3 16q7 -4 25 -62zM1572 1503h-12q-6 37 -28 84l3 11q26 0 37 -95zM1056 2082l-41 -54h-8q-2 1 -2 5q0 3 18.5 26t19.5 32q8 0 13 -2v-7zM2144 936q-2 -3 -6 -3q-7 0 -9 13l-2 17
q-7 14 -33 37.5t-38 22.5q-7 4 -7 10q0 5 5 8q44 -8 81 -62q3 -15 9 -43zM905 2168h-8q-13 14 -41 41v10h2q15 0 47 -43v-8zM1030 2120l-64 -98q-8 2 -8 7q0 7 60 97h10zM2002 1048q0 -8 -7 -11q-1 0 -13 28q-14 33 -39 54.5t-30 31.5l2 14q1 0 19 -17q14 -10 37 -33
q31 -40 31 -67zM1011 2151q-32 -52 -73 -127q-8 -3 -10 -8q-1 5 -2 11q0 19 75 133h7q3 -2 3 -9zM1353 1741h-93q0 5 -2 12q16 0 47 -2t46 -2zM1375 1702q-3 -6 -11 -6q9 0 -63 9q-5 4 -5 8q0 1 1 2h13q5 0 9 -3q23 -1 56 -10zM2461 600q0 -26 -13 -130l-10 2l-2 10l3 4
q11 58 11 110q0 33 -5 53q-7 28 -7 27h10q13 -18 13 -55v-21zM869 2157l-3 -10q-40 45 -40 42v11zM2416 575q0 -21 -11 -58q-9 0 -14 2q13 28 13 62q0 39 -12 89q-7 29 -7 20q0 6 12 11q19 -41 19 -126zM2368 663q0 -75 -20 -85q-4 5 -4 13q0 5 4 10.5t4 7.5q0 11 1.5 34
t1.5 34q0 17 -12 31t-12 19q0 1 8 8q29 -16 29 -72zM1602 1409l-5 -10h-14q-2 26 -32.5 55.5t-56.5 31.5q0 7 2 12h20q1 0 5 -3q15 -3 55 -39q8 -16 26 -47zM1842 1127q-2 -3 -6 -3q-5 0 -8 5l1 9q7 63 -54 93v8l4 4q18 -4 39.5 -27.5t20.5 -40.5q3 -3 3 -7v-41zM2317 664
q0 3 -7 -47l-10 -3q-5 4 -5 9q0 6 4.5 18.5t4.5 19.5q0 42 -28 95q1 5 3 7h9q29 -25 29 -99zM2110 851q0 -6 -4 -15h-15q0 3 2 7.5t2 7.5q0 43 -65 78q0 3 7 15q22 -12 46 -40q27 -32 27 -53zM2229 725l-5 -4q-12 27 -52 66l5 10q24 -2 52 -65v-7zM1706 1245q0 -13 -2 -16
h-2q-6 0 -10 7q-9 25 -35 72q-9 7 -25 24q5 5 11 5q15 0 36 -38q13 -27 27 -54zM1976 931h-12q-14 50 -29 70q-6 7 -54 50q-2 2 -2 9l2 5h9q6 0 32 -27t30 -35q24 -47 24 -58v-14zM2421 481q-2 -3 -8 -3q-26 0 -66 35q-33 30 -50 59l-12 20q0 12 10 12q6 0 8 -5
q27 -63 118 -111v-7zM1568 1323l-2 -16h-12q-16 81 -75 94v14q2 3 7 3q2 0 20 -10q5 -2 15 -8q32 -34 47 -77zM1204 1746l-125 -56l-8 3q0 3 2 7q1 1 122 54l9 -3v-5zM1815 1016l-12 -2q-10 34 -21 68q-15 37 -48 49v14h11q19 0 45 -48q25 -44 25 -65v-16zM2095 733l-4 -8
h-12q-10 81 -49 92q-7 6 -7 11q0 6 7 9q37 -33 44 -42q16 -21 18 -60zM2229 600q-7 1 -14.5 19t-39.5 56q-9 4 -26 14v7q4 5 8 5t10 -6q13 1 37.5 -31t24.5 -46v-18zM1963 833h-14q-1 11 -5 33q-3 5 -7 15q-23 76 -82 89l3 16q34 -9 65 -50.5t37 -79.5q3 1 3 -5v-18z
M1196 1713q-5 -14 -45.5 -44t-53.5 -30q-11 0 -14 5q21 10 60 34q17 18 48 37zM2444 370q0 -7 -5 -11h-7q-3 18 -47 56q-4 7 -13 21l2 10h8q17 -19 35 -38q27 -30 27 -38zM1666 1112l-5 -4h-12q-9 79 -51 117v12h9q19 0 39 -50q9 -33 20 -68v-7zM2180 979q0 -11 -8.5 -41
t-9.5 -42q-7 -57 -16 -172q-1 -12 -5 -46q-3 -29 -3 -46q0 -4 1.5 -11.5t1.5 -11.5v-36v-19q0 -38 4 -92q1 -3 2 -4v-3q0 -6 2 -17.5t2 -17.5q0 -9 -3 -15q2 -4 2 -12q0 -7 -2 -12q11 -80 11 -63q0 -5 -5 -14h-16q-11 44 -11 134q0 7 -4 20.5t-4 20.5q-3 72 -3 166
q0 2 20 201q15 147 35 147q9 0 9 -14zM2274 296q-3 -4 -15 -9q-13 0 -13 12q0 4 2.5 11.5t2.5 11.5v281q0 8 -3.5 24.5t-3.5 24.5v95q0 4 -3 10.5t-3 10.5q0 7 12 18q12 -21 13.5 -60t3.5 -42q-1 -5 -1 -11q0 -62 8 -74v-303zM2331 429h-10q-14 19 -45 54v12h10
q24 -20 45 -58v-8zM2442 301q0 -6 -3 -12q-4 1 -19 35q-5 12 -46 27q11 -72 11 -79q0 -15 -15 -15q-13 0 -13 69q0 47 -28 166q6 7 10 7q2 0 5.5 -1t5.5 -1q20 -61 20 -134l1 -1q2 0 5 1.5t5 1.5q-1 0 13 -5q10 -2 27 -14q21 -27 21 -45zM1528 1218q0 -11 -11 -11q-5 0 -8 6
q-7 39 -29 69q-2 2 -16.5 15t-14.5 17t5 8q18 -1 46 -44t28 -60zM1171 1651q-29 -41 -89 -69v14q33 12 79 55h10zM2236 487q-2 -3 -6 -3q-5 0 -8 7q-5 15 -21 43q-26 31 -39 31q-2 0 -2.5 -1t-1.5 -1q-3 0 -9 7q1 4 4 12q19 -2 42 -24t31 -42q10 -26 10 -17v-12zM2110 598
q-2 -3 -6 -3q-5 0 -11 22q-13 49 -52 69q-18 9 -17 17q2 3 7 3q-6 0 15 -8q25 -10 44.5 -41.5t19.5 -58.5zM1760 929q0 -8 -3 -11q-5 -1 -12 7q-2 41 -24 81q-2 3 -15.5 17.5t-13.5 16.5q0 5 5 10q19 -11 34 -30q7 -8 18 -44t11 -47zM2055 1110q0 -4 -7 -28q-8 -27 -9 -33
q-3 -26 -10 -77q-14 -74 -14 -61v-60q0 -2 -2.5 -4t-2.5 -4q0 -340 -3 -343l-1 -9q-1 -7 1 -20.5t2 -18.5q0 -9 -4 -24q2 -16 2 -26q0 -52 -24 -54q-11 11 -11 17q0 4 4.5 12.5t4.5 12.5v93q0 6 2 19.5t2 19.5q0 7 -3 20t-3 20q0 4 2 13.5t2 14.5q0 2 -2 5q-6 -4 -13 -4
q-6 52 -55 78q-6 1 -19 5v10q4 2 10 2q29 0 77 -85q0 34 2 102.5t2 102.5q0 12 2 34q3 26 3 35q1 24 44 245h11q10 0 10 -10zM2459 238q-1 -2 -6 -2q-11 0 -64 53q0 4 3 6h7l60 -49v-8zM1978 708l-4 -4l-10 2v3q0 22 -21.5 45t-44.5 29l2 14h11q17 0 49 -37q7 -9 18 -52z
M2338 357q0 -2 -1.5 -6.5t-1.5 -6.5h-10v2q0 16 -15.5 34.5t-30.5 21.5v12h13q12 0 29 -22t17 -35zM1845 830q-4 -9 -10 -12q-1 0 -21 30q-18 27 -18 22q0 5 5 10q6 -2 44 -50zM1647 1398q0 13 -21 -58q-2 -13 -8 -38q-30 -67 -83 -185q-14 -35 -44 -105q-23 -53 -62 -127
q-5 -7 -15 -7q-14 0 -14 10q0 -8 23 36q33 62 100 213q3 10 10 29q22 41 60 126q2 12 8 36q8 28 29 81h8q9 -7 9 -11zM1617 1016h-14q-6 32 -13 65q-10 34 -39 51q2 4 11 9q6 0 20 -14t15 -20q20 -96 20 -91zM2238 409l-3 -9h-7q-18 58 -75 79v12h11q-1 0 25 -17
q34 -22 49 -65zM1481 1131q0 -6 -12 -13q-4 3 -4 22q0 33 -21.5 58t-21.5 23q0 6 5 10q54 -27 54 -100zM2352 268h-12q-4 17 -57 62v8q2 2 8 2q12 0 35 -29t26 -43zM1020 1572l-8 -8q-45 79 -45 106v13h8q4 -13 45 -111zM1910 1193q0 -52 -49 -162q-8 -14 -24 -44
q-23 -52 -70 -155q-7 -9 -18 -28q-19 -35 -48 -106q-24 -27 -61 -196q-2 -11 -12 -11q-12 0 -19 7q17 49 17 71q0 10 8.5 26t8.5 24t37 92q35 80 44 97q5 6 14 20q6 15 20 45q21 36 55 112q8 14 22 43q18 40 61 190h14v-25zM2102 491q-2 -1 -7 -4q-4 2 -7 5q0 41 -31 68
q-16 13 -32 27l3 6h11q14 0 38.5 -34.5t24.5 -49.5v-18zM2436 173q0 -12 -11 -12q-6 0 -30.5 25t-24.5 35q0 4 7 10h7v-2q0 -20 34 -44q5 -1 14 -6q3 -1 4 -6zM811 1751q0 -2 -2 -9q0 -3 -10 6q-7 56 -7 63v23h8q11 -48 11 -83zM1711 855q0 -6 -7 -13q-8 20 -22 51
q-11 20 -46 52q0 9 10 9q14 0 39.5 -40t25.5 -59zM981 1550h-12q-9 16 -23 51q-16 54 -16 70q0 7 8 10q4 -17 12 -45q13 -46 31 -77v-9zM1810 738h-14q-1 26 -39 58l3 13q9 0 29.5 -22.5t20.5 -32.5v-16zM2236 324l-3 -9q-6 -1 -11 6q-19 28 -69 73q3 8 8 8q39 0 75 -78z
M792 1716l-5 -7h-7q-1 10 -7 38q-6 24 -6 37q0 9 2 50l7 -5q2 -38 16 -113zM1570 938l-12 -3q-8 37 -43 106v11h10q9 -9 27 -49t18 -52v-13zM2427 96l-5 -7q-19 6 -56 32q-30 36 -30 67v11h18q6 -3 6 -7q0 -3 -2.5 -7.5t-2.5 -7.5q0 -29 36 -54t36 -27zM2112 406h-10
q-6 13 -20 39q-20 16 -57 49l3 10l27 -12q10 -6 33.5 -34.5t23.5 -37.5v-14zM937 1541l-10 1q-41 58 -41 115q0 5 5 9q8 -2 10 -14t4 -22q7 -28 32 -81v-8zM1453 1048q0 -11 -14 -13q-5 69 -34 90v7l5 5q22 -7 36 -49q0 -8 2 -24q5 -29 5 -16zM1177 1312q-2 -3 -7 -3
t-23.5 22.5t-18.5 28.5q0 4 6 9q7 -9 43 -57zM1069 1480q0 -12 -38 -28q-34 -15 -49 -15q-7 0 -13 3q0 3 2 7q27 4 90 39q8 1 8 -6zM1972 496q-2 -3 -6 -3q-1 0 -25 47.5t-54 52.5l3 10h15q17 0 42 -44t25 -63zM1098 1425q0 -7 -25.5 -27t-32.5 -20h-16q0 1 26 19
q13 11 38 33h8q2 -1 2 -5zM1077 1440q-74 -37 -69 -37h-9l-5 5q2 7 5 9q29 14 73 35l5 -3v-9zM1902 889q0 -2 -5.5 -13t-6.5 -14q-7 -26 -7 -141q0 -7 -2 -21.5t-2 -21.5q0 -12 2.5 -37.5t2.5 -37.5v-5l-3 -4q2 -41 7 -123q1 -10 6.5 -34.5t5.5 -36.5q0 -18 -25 -17
q-11 66 -11 81q0 8 1.5 24.5t1.5 24.5q0 17 -2.5 48.5t-2.5 45.5l-4 156q-27 -83 -90 -246q-5 -16 -18 -47q-5 -9 -15 -9q-14 0 -14 12q0 -10 27 53q9 25 29 73q5 7 12 21q17 48 50 153q3 5 9 17q6 20 17 59l-3 6q5 14 9 28q7 20 16 20q15 0 15 -14zM1685 744q-1 -2 -6 -2
t-10 26q-16 82 -66 93l-3 5v9q3 3 9 3q16 0 45 -37q25 -33 27 -70h1q3 -1 3 -5v-22zM2232 262q0 -26 -46 -58h-12v10q19 15 47 58q11 -4 11 -10zM1166 1273h-14q-54 44 -54 61q0 5 5 9q1 0 32 -36q3 -3 31 -26v-8zM1781 655l-5 -3q-15 22 -39 51q-7 4 -20 12q7 8 12 8
q10 0 31 -21.5t21 -32.5v-14zM2115 319q-1 -2 -6 -2q-4 0 -14 24q-7 17 -31 35.5t-41 16.5l3 17h6q1 0 16 -8q10 -4 30 -16q5 -4 21 -25.5t16 -25.5v-16zM1859 575q0 -3 -4 -12q-4 1 -10 5q0 16 -16 27.5t-16 13.5q0 6 2 9q44 -26 44 -43zM2410 9q-2 -3 -7 -3q-11 0 -40 32
t-29 42v15h12q7 -17 26 -49q16 -11 38 -37zM845 1601q-19 -9 -42 -17v12q10 5 40 15zM2257 227q-2 -48 -33 -70q-20 -12 -40 -25h-12q-2 1 -2 5q0 3 36 27t36 48q0 5 -4 17q5 5 8 5t11 -7zM856 1574q-15 -8 -43 -22h-7q-1 2 -5 7q15 4 43 20h9zM1968 417q0 -4 -3 -9h-7
q-5 15 -18 45q-3 4 -21.5 23t-18.5 21q0 4 3 6l2 1q2 1 5 1q15 0 36.5 -35t21.5 -53zM1530 843l-3 -12h-12q-4 83 -51 113l3 12h8q19 0 39 -47q4 -19 16 -66zM730 1690l-47 -23h-10v7q34 25 55 26zM1124 1244q-2 -3 -8 -3q-8 0 -29 32t-21 41q0 3 8 10q12 -27 50 -73v-7z
M868 1528q-1 -10 -13 -13q-18 -5 -20 -6q0 3 -2 8q9 11 20 11h15zM439 1892h-10q-9 10 -17 31l2 9h8q5 -10 17 -30v-10zM1857 487q0 -6 -7 -11q-13 18 -25 36q-15 20 -35 26v12h13q10 0 32 -26.5t22 -36.5zM1751 578q-7 -2 -12 -2q-4 37 -49 53v10q2 3 7 3q6 0 30 -21
t24 -27v-16zM2397 -80q0 -3 -5 -3q-12 0 -39.5 34.5t-27.5 47.5q0 3 1.5 7.5t1.5 7.5h9q1 -8 5 -25q20 -22 55 -69zM626 1654q-11 -2 -15 -6h-8q-8 96 -8 76q0 20 5 30l3 -3q3 -31 10 -91q1 1 1 19v42q0 3 1 9t1 9q0 11 -4 19h14v-104zM405 1892h-8q-4 10 -11 31l3 13h7
q9 -13 9 -22v-22zM1636 655h-14q-7 54 -51 87q-4 5 -13 13q3 12 9 12q17 0 43 -40.5t26 -62.5v-9zM2276 132q0 -18 -36.5 -63.5t-54.5 -45.5q-6 0 -11 3q55 49 56 51q29 32 32 65h9q5 -4 5 -10zM2057 302q0 -11 -23.5 -36.5t-35.5 -25.5h-13v8q20 12 52 47q2 5 8 15h7
q5 -4 5 -8zM930 1332q-3 -4 -7 -4q-16 0 -56 106l2 18q5 -1 7 -3l8 -26q9 -29 28 -65q7 -8 18 -26zM739 1484h-8q-3 7 -8 22q-14 60 -14 90h15q0 -16 7 -69q1 -4 4.5 -14t3.5 -15v-14zM414 1850q-8 -2 -23 -7l-3 3v7q8 2 23 7zM1840 406h-14q1 36 -58 68l3 12h11
q58 -56 58 -64v-16zM2093 253q0 -22 -41 -58t-64 -36q-3 3 -5 10q3 7 10 7q3 0 2.5 -1t2.5 -1q-1 0 7 6q21 12 58 49q6 14 21 34q9 -4 9 -10zM1483 733h-10q-2 5 -10 60q-3 18 -41 53q2 6 2 12h7q8 0 28 -23q9 -26 24 -60v-42zM2399 -151q-3 -4 -11 -4q-14 0 -41.5 29.5
t-27.5 44.5q0 11 8 11q5 0 8.5 -16.5t26 -36.5t37.5 -20v-8zM335 1920q-15 -11 -28 -11h-10v8q10 4 30 13h8v-10zM890 1319l-5 -10q-13 6 -31 54q-17 45 -17 63q0 7 2 9h8l6 -7q6 -69 37 -109zM709 1476q0 -5 -3 -7q-24 25 -24 116q0 11 2 15h10q0 -4 -1 -11.5t-1 -11.5
q0 -2 2 -5.5t2 -5.5q0 -22 8 -66q5 -15 5 -24zM1723 498l-7 -5q-2 1 -15 39q-13 10 -37 29v8l3 3h9q16 -11 31.5 -24t15.5 -35v-15zM998 1269q-58 -30 -90 -30l-3 3v8q17 3 49 13q33 14 31 14h13v-8zM1043 1210q-32 -30 -54 -30h-16q23 13 58 38h9l3 -3v-5zM2274 44
q0 -6 -11 -33t-16 -32q-22 -25 -70 -64q-5 4 -5 9t22 21q52 38 66 104l4 4q10 0 10 -9zM1606 587q-2 -3 -7 -3q-1 0 -14 31q-16 37 -61 64q8 7 11 7q17 0 44 -35.5t27 -52.5v-11zM1011 1229q-28 -8 -84 -26v17q22 0 47.5 11.5t26.5 11.5q6 0 10 -2v-12zM2110 165
q0 -10 -27.5 -43.5t-39.5 -42t-28 -11.5v8q32 29 45 42q27 29 32 51l6 7q12 -4 12 -11zM543 1664q-1 -9 -11 -12t-19 -5l-12 3q2 8 42 14zM344 1827q-5 -5 -9 -5q-17 0 -17 32q0 7 5 12h7q2 -14 14 -39zM2317 102q-4 -44 -9 -131v-223q0 -13 -4 -40t-4 -41q0 -108 -3 -136
q-2 -16 -14 -16q-13 0 -13 22q0 12 4 37t4 38q0 9 -1 26t-1 26q0 13 4.5 40t4.5 41q0 4 -1 13t-1 13l2 219q0 3 2 7.5t2 7.5q0 107 -2 115q5 8 5 43q0 11 -3.5 33t-3.5 33q0 5 4 13h14q2 -13 8 -39l-2 -7q12 -36 8 -94zM1473 685q-2 -2 -6 -7q-5 2 -21 35q-22 45 -22 43v11
h8zM635 1566q-4 -14 -28 -14h-14l-5 5q5 7 20.5 7t18.5 2h8zM1094 1067h-7q-3 0 -25.5 25t-22.5 29v12h10q14 -20 45 -58v-8zM779 1412q-25 -18 -51 -18q-9 0 -21 8q3 7 11 7q2 0 7 -1t7 -1q-1 0 44 15l3 -3v-7zM2399 -255h-7q-8 0 -37.5 31t-29.5 40q0 4 5 14h9q5 0 2 -14
q0 -1 58 -64v-7zM635 1529h-40q-2 2 -4 10q15 -3 41 0zM539 1637q-5 -17 -32 -17q-5 0 -19 6q22 11 35 11h16zM786 1373q-12 -13 -41 -13h-16q-3 3 -5 11q16 2 59 13l3 -3v-8zM1847 368q0 -23 -32.5 -56.5t-56.5 -39.5l-5 2v12q27 6 53 36.5t26 57.5q15 -1 15 -12zM278 1833
h-2q-15 0 -15 23q0 8 4 16h10v-17h1q2 -1 2 -4v-18zM1781 396q0 -22 -52 -60h-7l-5 7q23 20 49 65q7 0 15 -3v-9zM637 1506q-8 -12 -16 -12l-35 8q-1 2 -1 4v3h6q8 0 23 -1.5t23 -1.5zM2274 -73q0 10 -8 -20q-13 -48 -85 -84l-3 15q22 13 45 27q20 12 35 51q0 9 6 21
q10 -5 10 -10zM1594 510q-2 -2 -9 -2q-5 0 -8 5q-15 62 -63 70l-5 4v12h13q3 0 3 -2v-2q14 -4 69 -71v-14zM1066 1030l-2 -7h-8q-10 11 -27 34q-13 19 -28 49l2 10h10q18 -28 53 -86zM790 1333q-17 -3 -51 -11v7.5v7.5q27 0 37 6l14 -2v-8zM2119 73q0 -15 -34.5 -59
t-47.5 -44h-14l3 9q80 61 76 101h14q3 -2 3 -7zM337 1776q-6 -5 -11 -5q-2 0 -5.5 2t-5.5 2q-4 0 -14 -5.5t-14 -5.5l-11 5v6q7 9 22 9h8q17 0 29 -3q0 -3 2 -5zM2393 -325q-2 -3 -8 -3q-12 0 -37 28.5t-25 39.5v11q5 2 16 2q1 -7 4 -20q6 -16 31 -41q19 -19 19 -17z
M352 1746q-19 -5 -57 -9q-1 7 -1 9q0 5 1 8q3 -1 57 -1v-7zM1893 269q0 -68 -83 -110h-10v8q0 -3 39 30.5t39 60.5q0 3 -1.5 10.5t-1.5 11.5h14q1 -1 2.5 -3t1.5 -8zM2198 -470q0 -4 -19 -23q-6 6 -13 17q3 10 3 11q0 4 -1.5 11t-1.5 11v55l-24 222q-13 120 -13 111v97
q0 4 2 13t2 14l-5 31l4 5q-3 4 -3 11q0 4 1 11.5t1 11.5t-2 10.5t-2 10.5l3 116q6 3 16 4l5 -230q-1 -35 2 -115q5 -41 15 -135zM875 1155q-1 -3 -5 -3q-8 0 -32.5 45.5t-24.5 56.5q0 6 4 13q8 -9 27 -47q2 -9 8 -26q8 -10 23 -32v-7zM533 1482q-4 1 -10 4q-7 45 -7 68v8
q4 3 10 5q7 -55 7 -85zM339 1714q-5 -9 -11 -9h-22l-3 2v8q11 1 31 5zM2280 -176q0 -15 -33.5 -47t-48.5 -32h-13v7q27 12 73 62q11 22 14 22t8 -5v-7zM509 1482l-10 -2q-6 25 -6 60q0 13 1 20h9q0 -42 6 -78zM650 1333q-2 -1 -10 -4q-22 47 -22 92v16q7 0 10 -5
q5 -63 22 -89v-10zM833 1142q-2 -3 -7 -3q-7 0 -30 56t-23 69q0 3 3 5h9q9 -41 48 -120v-7zM1592 487q0 -13 -89 -62l-5 7q4 8 9 11q24 14 70 49l10 3q5 -4 5 -8zM630 1331l-12 -2q-8 25 -21 83l2 18h8q10 -67 23 -99zM1090 939q0 -6 -20 -48q-3 -3 -10 -5v12l22 48
q8 -1 8 -7zM2391 -408q-3 -3 -9 -3q-25 0 -58 54q-5 8 -5 9v16h14q0 -19 20 -42.5t38 -25.5v-8zM801 1162l-2 -9l-12 4q-17 35 -33 99h10q9 -34 37 -94zM1908 165q0 -3 -1.5 -7.5t-1.5 -7.5q0 -52 -57 -83q-18 -10 -15 -10q-3 0 -12 5q11 8 28 21q29 25 35 42q7 25 14 49h8
q2 -2 2 -9zM1638 435q0 -15 -31 -46q-21 -16 -63 -49h-10v14q56 27 92 88h10q2 -1 2 -7zM2110 -48q0 -19 -30.5 -55.5t-48.5 -36.5h-8q15 16 46 48q13 24 36 53q5 -2 5 -9zM244 1701q-7 -2 -13 -2q-19 57 -19 58q0 8 5 13h10q-2 -5 -2 -9q0 -9 9.5 -28.5t9.5 -24.5v-7z
M320 1655q0 -8 -8 -20h-4v16q0 6 9 11q3 -3 3 -7zM935 1088q-1 -6 -3 -8q-6 -5 -40 -13.5t-45 -8.5q-3 0 -7.5 1.5t-6.5 1.5l-2 8h15q11 0 42 12t42 11zM546 1417l-3 -4q-8 -1 -14 -1h-11q-9 0 -25 2v3q0 9 14 9q31 0 39 -9zM1088 876q0 -8 -9.5 -23t-16.5 -15v7q0 5 18 39
q8 -3 8 -8zM2280 -258q0 2 -8 -24q-2 -13 -10 -37q-15 -29 -55 -47q-1 4 -5 10l46 44q19 22 18 65q14 -3 14 -11zM934 1054q0 -29 -61 -29h-19q-2 2 -2 6q0 3 7 10q2 -4 8 -4q10 0 52 17h15zM973 1016l-3 -8q-11 -11 -37 -15q-20 -2 -40 -5l-5 5q1 4 5 9q47 9 55 9q4 0 6 5
h19zM1666 328q0 -34 -53 -79l-3 -9h-14q-2 1 -2 5q20 24 44 56q4 17 23 39q5 -5 5 -12zM709 1248q-7 -12 -43 -10l-16 1h-19l-2 10q26 2 77 7l3 -2v-6zM545 1384h-31h-10q-3 3 -3 11v1h6h38v-12zM1003 909q0 -7 -3 -10q-20 0 -20 34v2h6q17 0 17 -26zM2352 -457h-11
q-29 25 -29 31v17h8q8 -18 32 -36v-12zM2121 -140q0 -3 -3.5 -12.5t-4.5 -12.5q-10 -56 -63 -84l-8 7q21 15 51 54q3 22 21 58q7 -5 7 -10zM2074 -555q0 -17 -14 -17q-9 0 -13 11q-2 20 -5 54q-6 19 -14 57q-1 25 -6 76q-7 42 -7 41q0 13 -6 19q-4 38 -13 113q-7 61 -27 155
q-3 7 -7 21q-29 128 -32 366l5 10q7 -4 14 -10v-53q0 -4 3 -10.5t3 -10.5v-62q0 -3 2 -8t2 -7q13 -75 34 -225q9 -46 24 -138q5 -41 18 -128q15 -99 15 -125q0 -21 12 -67t12 -62zM1936 49q0 -26 -31 -61t-57 -44l-3 3v10q74 40 76 100h12q3 -2 3 -8zM709 1210
q-33 -11 -42 -11q-5 0 -15 5l2 9q7 0 20 2.5t20 2.5q11 0 15 -8zM554 1348q-7 -1 -23 -1h-10q-11 0 -20 1v10h48q1 -4 5 -10zM739 1179q-2 -9 -28 -15q-22 -5 -18 -5h-22q2 7 2 12q8 0 24 2.5t24 2.5q0 3 5 3h13zM269 1630q0 -2 -37 -25l-9 2v8q20 13 41 20zM977 881
q-2 -3 -6 -3q-19 0 -30 55h17q-1 -2 -1 -3q0 -12 20 -40v-9zM273 1600q0 -3 -32 -23h-8l-2 11q21 15 34 15q5 0 8 -3zM2274 -370q0 -25 -17 -53q-19 -31 -43 -30q0 5 3 14q27 11 36 36q5 23 11 45h7q3 -6 3 -12zM1694 224q0 -22 -35 -71q-14 -20 -41 -30l-7 5v10q22 1 42 35
q19 30 20 54q4 6 7 9q14 -3 14 -12zM163 1666l-8 -6q-2 2 -2 4l2 5q5 -1 8 -3zM278 1566q-6 -5 -18 -16h-10q-2 1 -2 6q0 2 20 13zM1953 -45q0 5 -6 -14q-2 -15 -12 -45q-12 -24 -46 -54q-7 2 -10 5v7q0 1 17 19q28 29 33 43q6 23 12 47h9q3 -3 3 -8zM2134 -259
q0 -26 -60 -79h-8q-2 1 -2 5q0 2 21 26t23 28q1 1 13 38h13v-18zM450 1299l-12 -2l-4 4q-18 89 -18 114q0 8 10 9q4 -43 24 -125zM586 1159h-12q-24 45 -24 84v34h8q2 -39 28 -111v-7zM981 816q0 -6 -27 -32v10q0 1 19 28q8 -1 8 -6zM420 1306q-5 -6 -10 -9q-11 39 -11 47
v80h10q-2 -4 -2 -13q0 -69 13 -105zM1717 120q0 -17 -26 -56t-41 -39h-14v8q53 33 69 103q4 0 12 -3v-13zM752 966q0 -3 -5 -3q-12 0 -36.5 50t-24.5 64q0 8 5 13q14 -42 61 -124zM186 1535h-8q-13 19 -19 74h14q-1 -32 5 -47q8 -21 8 -15v-12zM1970 -148q0 -50 -35 -92
q-8 -8 -23 -24q-5 0 -12 7q2 7 11 18q25 16 34 48q7 28 13 57h7l2 -2q3 -5 3 -12zM984 777q0 -18 -20 -31h-8v10q14 18 25 26q3 -1 3 -5zM556 1140q-2 -3 -6 -3q-10 0 -20 40q-9 35 -9 51q0 2 -2.5 6.5t-2.5 7.5q0 6 5 8q3 -1 9 -5q3 -21 8 -62q5 -12 18 -34v-9zM2146 -357
q0 -18 -30 -45q-25 -24 -47 -34l-3 3v12q21 8 43 33.5t22 46.5q10 0 15 -2v-14zM1981 -626q0 -18 -17 -18q-14 0 -18 37l-2 48q-10 53 -19 88q-7 14 -18 44q-6 26 -19 77l-68 221q-5 8 -13 26q-4 22 -14 65q-15 51 -49 151q-7 13 -18 41l-54 204q-2 7 -17 48q-15 37 -15 40
q0 4 10 11q19 -15 31 -65q12 -15 13 -38q24 -88 60 -210q9 -17 26 -53q1 -7 3 -22q14 -57 20 -64q14 -55 46 -165q16 -40 44 -120l33 -123q9 -22 26 -68q29 -90 29 -155zM165 1540l-3 -12q-20 13 -20 53q0 7 4 15q8 -5 8 -25q0 -9 11 -31zM864 895l-9 -6q-29 -5 -54 -5
q-18 0 -34 5q4 10 9 10q2 0 7 -1t7 -1h22q14 0 41 10h9l2 -2v-10zM1753 28q0 7 -6 -19q-16 -69 -61 -92l-9 2v8q58 32 62 111h14v-10zM879 863q-3 -10 -7 -12q-27 -14 -63 -14q-4 0 -14 5v12q6 -2 18 -2q31 0 52 13q11 0 14 -2zM216 1483q-4 -8 -12 -12q-9 4 -9 11q0 8 12 8
q2 0 9 -7zM909 830l-2 -4q-60 -23 -74 -23q-5 0 -11 3v8q9 1 26 5q45 16 46 16q11 0 15 -5zM641 1062q-2 -6 -5 -9q-40 -12 -51 -12q-6 0 -12 3q4 10 25.5 13t24.5 8q13 0 18 -3zM1989 -261q0 -25 -24 -66l-28 -28h-7q-2 1 -2 6q16 22 35 53q3 19 16 49q10 -5 10 -14z
M477 1206q-38 -11 -45 -11q-10 0 -14 5q19 5 57 18q2 -6 2 -12zM2159 -448q0 -13 -64 -84h-10v10q0 -8 62 81h12v-7zM656 1019l-3 -5q-77 -15 -70 -15q-6 0 -9 2v8q18 3 53 12q27 8 19 8q5 0 10 -10zM479 1163q-21 -7 -23 -7h-20l-5 5q3 5 5 7q16 3 14 3q2 0 2.5 -1t2.5 -1
q5 0 13 8h11v-14zM1789 -93q0 -33 -33 -77q-9 -12 -29 -28l-10 2v10q25 20 38 41q1 2 12 35q10 29 14 29q6 0 8 -2v-10zM667 978q0 -7 -31 -15q-38 -10 -40 -11h-8l-2 13q25 4 67 21h9q5 -4 5 -8zM2013 -371q0 -14 -19 -42q-26 -38 -27 -40h-14q20 28 47 87l7 4q6 -2 6 -9z
M730 814h-7q-22 30 -34 65q-7 21 -7 15q0 3 5 7q5 -1 7 -3l4 -12q5 -15 32 -62v-10zM1819 -191q0 -3 -4 -6q-1 -53 -60 -96h-8q-2 2 -2 8q13 14 29 31q18 21 25 45q0 15 8 36h12v-18zM511 1022q-12 9 -12 19v15h12v-34zM680 851l-3 -5q-6 3 -16.5 21.5t-10.5 25.5q0 2 5 12
q8 -18 25 -54zM2021 -484q0 -13 -12.5 -38.5t-22.5 -30.5q-6 0 -12 3q20 30 25 44q8 29 12 38h10v-16zM1851 -300q0 -47 -38 -83q-1 -10 -6 -10h-13v7q0 7 37 47q0 4 2.5 14t2.5 15q0 9 -4 15l2 12h10q7 -8 7 -17zM1891 -380q0 -24 -21 -64t-42 -47q-3 2 -3 6q0 2 16 22.5
t18 25.5q3 24 22 65q10 -2 10 -8zM1906 -492q0 -46 -47 -78h-10v10q40 36 40 65q0 -4 3 18h9q5 -5 5 -15zM1928 -577q0 -29 -41 -88h-8v9q0 -12 29 53q-1 14 16 37q4 -4 4 -11zM563 -552q-2 -4 -5.5 -5.5t-11.5 -2.5t-12 -1h-82q-6 20 -6 21q0 35 19 52q26 24 50 24
q17 0 27 -33q15 -47 21 -55zM424 -461q0 -64 -31 -77q-64 41 -64 103q0 46 37 46q58 0 58 -72zM2374 1519q0 5 -3 8q-30 12 -52 12l-1 -4q5 -2 13 -10q5 -10 5 -35q0 -37 -38 -84q5 0 13.5 -3.5t12.5 -3.5q5 0 10 5v13q0 3 -1.5 10t-1.5 10q0 10 21.5 45.5t21.5 36.5z
M2270 1523l-5 6l-2 -2l5 -6zM2291 1493q0 12 -3 18h-11q-3 -10 -9 -29q5 -1 12 -6q2 -7 4 -9q7 14 7 26zM2258 1519l-1 3q-1 0 -5 -7v-2h-9v-8l6 6q1 0 1.5 -1t2.5 -1q4 0 5 10zM2312 1458l-2 11q-6 -2 -17 -7q1 -2 1 -6q0 -2 -2 -4q-1 2 -7 2q-2 0 -3 -2t-3 -2
q-4 0 -19.5 16t-15.5 20q0 5 8 9v8q-4 -5 -11 -13q-2 2 -2 4q0 -4 -2.5 -12t-2.5 -12q0 -6 4 -11h-4q-2 -1 -2 -3q0 -4 2 -10.5t2 -10.5q3 1 5 1t3 -1q0 -2 -1 -5v-5.5v-2.5l4 6q2 -2 2 -4v0q-2 -3 -3 -6q5 2 9 2l5 -1q5 -3 9 -3q-3 0 24 15q-1 3 -1 5q0 11 15 26z
M2258 1415l-3 1l-3 -6l3 -1zM2399 1526q0 32 -30 40q-46 13 -85 13q-62 0 -177 -32q-43 -16 -122 -32q-2 -4 -2 -12q8 -6 23 -13q5 11 10 11q2 0 6 -2l162 55q4 -6 13 -6q6 0 16.5 2t16.5 2q14 0 42.5 1t42.5 1q76 0 76 -34q0 -15 -20 -43q-21 -31 -24 -47v-31q0 -15 -4 -22
q-16 4 -49 12q-36 3 -108 14q-25 5 -102 41q-6 3 -36 24q-26 17 -34 17h-1q31 -31 98 -69q3 -2 45 -14q17 -5 11 -5q2 0 4.5 1t4.5 1q3 0 7.5 -2t6.5 -2q38 -5 117 -23q6 -1 14 -8q5 -4 25 -4q17 34 17 32q0 5 -2 15.5t-2 16.5q0 24 20 54t20 48zM2240 1539
q-53 -11 -105 -22q-87 -20 -88 -30q29 -16 43 -28l8 -1q10 -13 28 -13q44 -22 91 -30l8 -3q-17 67 -17 60t4 13q3 16 28 54zM543 -544q-11 30 -31 65q-49 -20 -49 -55q0 -5 4 -12q9 0 38 2q24 1 38 0zM410 -456q0 17 -13.5 34.5t-30.5 17.5q-22 0 -22 -28q0 -42 43 -84l5 -1
q18 27 18 61z" />
    </font>
</defs>
</svg>
