<svg xmlns="http://www.w3.org/2000/svg" version="1.1">
<!-- design by Farhat Datta, languageicon.org -->
<svg id="language-icon" viewBox="0 0 87 100"><path d="m 76.915,0 c -0.505,0 -16.643,5.5 -17.932,6 -4.362,1.5 -14.791,4.9 -16.986,5.8 -0.202,0.1 -0.524,0.2 -0.953,0.3 l -31.3154,-11 v 21.4 c -4.7577,1.6 -8.1941,2.7 -8.3685,2.8 -0.3222,0.1 -0.82323,0.2 -1.10954,0.6 -0.14316,0.1 -0.17898,0.4 -0.25056,0.5 v 60.2 c 0,0.1 0.03581,0.1 0.03581,0.2 0.21474,0.4 0.60843,0.7 1.03789,0.7 0.5369,0 40.8373,-13.5 41.7313,-13.9 0.04,0 0.09,0 0.137,-0.1 l 43.357,13.9 v -60.3 l -8.241,-2.6 v -23.4 c 0,-0.6 -0.499,-1.1 -1.143,-1.1 z m -1.039,2.6 v 21.2 l -32.231,-10.3 z m -34.682,11.7 v 57.6 l -39.0107,13 v -57.6 z m 20.688,16.2 5.586,1.7 10.179,36.7 -5.741,-1.7 -2.062,-7.6 -11.857,-3.6 -2.553,6.2 -5.739,-1.8 z m -37.731,1.6 c -0.04,0 -0.07,0 -0.104,0 -0.561,0 -2.26,0.5 -3.083,0.8 -0.821,0.2 -2.514,0.7 -3.252,0.9 -0.736,0.1 -2.36,-0.1 -2.618,-0.3 -0.219,-0.3 0.285,1.7 0.987,2.4 1.244,1.3 2.217,1.4 2.734,1.5 1.145,0 2.559,-0.3 3.398,-0.7 0.812,-0.3 2.235,-1 2.774,-2.1 0.114,-0.2 0.426,-0.6 0.23,-1.6 -0.14,-0.6 -0.553,-0.9 -1.066,-0.9 z m 7.594,4.4 c -0.314,0 -1.165,0.5 -2.252,0.8 -1.337,0.5 -3.878,2.1 -4.86,2.3 -0.985,0.2 -4.134,1.4 -5.745,2 -1.612,0.5 -4.66,1.4 -5.913,1.8 -1.256,0.3 -2.352,0.3 -3.0539,0.6 0,0 0.094,0.9 0.2799,1.2 0.184,0.3 0.849,1.1 1.621,1.2 0.772,0.3 2.051,0.2 2.633,0 0.582,-0.1 1.59,-0.6 1.725,-0.8 0.138,-0.2 -0.07,-0.9 0.16,-1.1 0.232,-0.2 3.301,-0.9 4.46,-1.3 1.158,-0.3 5.593,-1.9 6.194,-1.8 -0.19,0.7 -3.757,7.7 -4.906,9.8 -1.15,2.1 -7.825,11.4 -9.246,13 -1.079,1.3 -3.6932,4.5 -4.5986,5.2 0.2281,0 1.8466,-0.1 2.1416,-0.3 1.838,-1.1 4.899,-4.9 5.885,-6.1 2.93,-3.4 5.504,-7 7.545,-10.1 v 0 c 0.398,0.1 3.613,2.8 4.451,3.3 0.84,0.6 4.15,2.5 4.867,2.8 0.719,0.3 3.473,1.6 3.589,1.1 0.118,-0.4 -0.497,-2.9 -0.825,-3.1 -0.324,-0.1 -7.046,-2.9 -8.002,-3.3 -0.778,-0.4 -2.69,-1.2 -3.59,-1.6 2.534,-3.9 4.133,-6.8 4.347,-7.3 0.395,-0.8 3.077,-6 3.138,-6.4 0.06,-0.3 0.137,-1.5 0.08,-1.8 -0.01,0 -0.05,-0.1 -0.126,-0.1 z m 32.693,3.7 -4.258,10.3 7.825,2.4 z m -3.337,47.2 2.459,4 c -0.499,0.3 -1.028,0.6 -1.321,0.8 -0.604,0.4 -1.253,0.7 -1.822,1 -0.72,0.4 -1.471,0.8 -2.11,1 -0.537,0.3 -1.114,0.5 -1.579,0.7 -0.569,0.2 -1.143,0.5 -1.683,0.7 -0.824,0.2 -1.683,0.5 -2.429,0.7 -0.787,0.3 -1.611,0.5 -2.403,0.7 -1.068,0.2 -2.182,0.4 -3.181,0.5 -1.253,0.2 -2.437,0.3 -3.691,0.4 h -3.221 c -0.644,0 -3.828,-0.4 -3.935,-0.4 -1.181,-0.2 -2.397,-0.4 -3.508,-0.6 -2.003,-0.5 -4.008,-1.1 -6.012,-1.9 -1.468,-0.5 -3.007,-1.2 -4.367,-1.9 -0.68,-0.3 -1.288,-0.7 -1.933,-1 -0.214,-0.2 -1.36,-1 -1.932,-1 -0.644,0 -1.038,0.5 -1.038,1.1 0,0.3 0.04,0.6 0.465,0.9 2.434,1.6 5.011,2.8 7.48,3.7 1.36,0.6 2.757,1.1 4.188,1.4 0.824,0.3 1.753,0.5 2.612,0.7 1.111,0.3 2.292,0.5 3.401,0.7 1.251,0.2 2.577,0.3 3.828,0.4 h 4.729 c 1.034,0 4.76,-0.6 5.117,-0.6 0.676,-0.2 1.361,-0.3 2.037,-0.5 1.793,-0.4 3.793,-1 5.621,-1.7 1.396,-0.6 2.862,-1.2 4.295,-2 0.714,-0.4 1.536,-0.7 2.22,-1.2 0.336,-0.2 0.878,-0.4 1.321,-0.7 l 2.241,3.7 3.082,-9 z"/></svg>
<!--! Font Awesome Free 6.2.0 by @fontawesome - https://fontawesome.com License - https://fontawesome.com/license/free (Icons: CC BY 4.0, Fonts: SIL OFL 1.1, Code: MIT License) Copyright 2022 Fonticons, Inc. -->
<svg id="regular-circle-question" viewBox="0 0 512 512"><path d="M256 0C114.6 0 0 114.6 0 256s114.6 256 256 256s256-114.6 256-256S397.4 0 256 0zM256 464c-114.7 0-208-93.31-208-208S141.3 48 256 48s208 93.31 208 208S370.7 464 256 464zM256 336c-18 0-32 14-32 32s13.1 32 32 32c17.1 0 32-14 32-32S273.1 336 256 336zM289.1 128h-51.1C199 128 168 159 168 198c0 13 11 24 24 24s24-11 24-24C216 186 225.1 176 237.1 176h51.1C301.1 176 312 186 312 198c0 8-4 14.1-11 18.1L244 251C236 256 232 264 232 272V288c0 13 11 24 24 24S280 301 280 288V286l45.1-28c21-13 34-36 34-60C360 159 329 128 289.1 128z"/></svg>
<svg id="asterisk" viewBox="0 0 384 512"><path d="M192 32c17.7 0 32 14.3 32 32V199.5l111.5-66.9c15.2-9.1 34.8-4.2 43.9 11s4.2 34.8-11 43.9L254.2 256l114.3 68.6c15.2 9.1 20.1 28.7 11 43.9s-28.7 20.1-43.9 11L224 312.5V448c0 17.7-14.3 32-32 32s-32-14.3-32-32V312.5L48.5 379.4c-15.2 9.1-34.8 4.2-43.9-11s-4.2-34.8 11-43.9L129.8 256 15.5 187.4c-15.2-9.1-20.1-28.7-11-43.9s28.7-20.1 43.9-11L160 199.5V64c0-17.7 14.3-32 32-32z"/></svg>
<svg id="bars" viewBox="0 0 448 512"><path d="M0 96C0 78.3 14.3 64 32 64H416c17.7 0 32 14.3 32 32s-14.3 32-32 32H32C14.3 128 0 113.7 0 96zM0 256c0-17.7 14.3-32 32-32H416c17.7 0 32 14.3 32 32s-14.3 32-32 32H32c-17.7 0-32-14.3-32-32zM448 416c0 17.7-14.3 32-32 32H32c-17.7 0-32-14.3-32-32s14.3-32 32-32H416c17.7 0 32 14.3 32 32z"/></svg>
<svg id="circle-question" viewBox="0 0 512 512"><path d="M256 512c141.4 0 256-114.6 256-256S397.4 0 256 0S0 114.6 0 256S114.6 512 256 512zM169.8 165.3c7.9-22.3 29.1-37.3 52.8-37.3h58.3c34.9 0 63.1 28.3 63.1 63.1c0 22.6-12.1 43.5-31.7 54.8L280 264.4c-.2 13-10.9 23.6-24 23.6c-13.3 0-24-10.7-24-24V250.5c0-8.6 4.6-16.5 12.1-20.8l44.3-25.4c4.7-2.7 7.6-7.7 7.6-13.1c0-8.4-6.8-15.1-15.1-15.1H222.6c-3.4 0-6.4 2.1-7.5 5.3l-.4 1.2c-4.4 12.5-18.2 19-30.6 14.6s-19-18.2-14.6-30.6l.4-1.2zM288 352c0 17.7-14.3 32-32 32s-32-14.3-32-32s14.3-32 32-32s32 14.3 32 32z"/></svg>
<svg id="gear" viewBox="0 0 512 512"><path d="M495.9 166.6c3.2 8.7 .5 18.4-6.4 24.6l-43.3 39.4c1.1 8.3 1.7 16.8 1.7 25.4s-.6 17.1-1.7 25.4l43.3 39.4c6.9 6.2 9.6 15.9 6.4 24.6c-4.4 11.9-9.7 23.3-15.8 34.3l-4.7 8.1c-6.6 11-14 21.4-22.1 31.2c-5.9 7.2-15.7 9.6-24.5 6.8l-55.7-17.7c-13.4 10.3-28.2 18.9-44 25.4l-12.5 57.1c-2 9.1-9 16.3-18.2 17.8c-13.8 2.3-28 3.5-42.5 3.5s-28.7-1.2-42.5-3.5c-9.2-1.5-16.2-8.7-18.2-17.8l-12.5-57.1c-15.8-6.5-30.6-15.1-44-25.4L83.1 425.9c-8.8 2.8-18.6 .3-24.5-6.8c-8.1-9.8-15.5-20.2-22.1-31.2l-4.7-8.1c-6.1-11-11.4-22.4-15.8-34.3c-3.2-8.7-.5-18.4 6.4-24.6l43.3-39.4C64.6 273.1 64 264.6 64 256s.6-17.1 1.7-25.4L22.4 191.2c-6.9-6.2-9.6-15.9-6.4-24.6c4.4-11.9 9.7-23.3 15.8-34.3l4.7-8.1c6.6-11 14-21.4 22.1-31.2c5.9-7.2 15.7-9.6 24.5-6.8l55.7 17.7c13.4-10.3 28.2-18.9 44-25.4l12.5-57.1c2-9.1 9-16.3 18.2-17.8C227.3 1.2 241.5 0 256 0s28.7 1.2 42.5 3.5c9.2 1.5 16.2 8.7 18.2 17.8l12.5 57.1c15.8 6.5 30.6 15.1 44 25.4l55.7-17.7c8.8-2.8 18.6-.3 24.5 6.8c8.1 9.8 15.5 20.2 22.1 31.2l4.7 8.1c6.1 11 11.4 22.4 15.8 34.3zM256 336c44.2 0 80-35.8 80-80s-35.8-80-80-80s-80 35.8-80 80s35.8 80 80 80z"/></svg>
<svg id="house" viewBox="0 0 576 512"><path d="M575.8 255.5c0 18-15 32.1-32 32.1h-32l.7 160.2c0 2.7-.2 5.4-.5 8.1V472c0 22.1-17.9 40-40 40H456c-1.1 0-2.2 0-3.3-.1c-1.4 .1-2.8 .1-4.2 .1H416 392c-22.1 0-40-17.9-40-40V448 384c0-17.7-14.3-32-32-32H256c-17.7 0-32 14.3-32 32v64 24c0 22.1-17.9 40-40 40H160 128.1c-1.5 0-3-.1-4.5-.2c-1.2 .1-2.4 .2-3.6 .2H104c-22.1 0-40-17.9-40-40V360c0-.9 0-1.9 .1-2.8V287.6H32c-18 0-32-14-32-32.1c0-9 3-17 10-24L266.4 8c7-7 15-8 22-8s15 2 21 7L564.8 231.5c8 7 12 15 11 24z"/></svg>
<svg id="lightbulb" viewBox="0 0 384 512"><path d="M272 384c9.6-31.9 29.5-59.1 49.2-86.2l0 0c5.2-7.1 10.4-14.2 15.4-21.4c19.8-28.5 31.4-63 31.4-100.3C368 78.8 289.2 0 192 0S16 78.8 16 176c0 37.3 11.6 71.9 31.4 100.3c5 7.2 10.2 14.3 15.4 21.4l0 0c19.8 27.1 39.7 54.4 49.2 86.2H272zM192 512c44.2 0 80-35.8 80-80V416H112v16c0 44.2 35.8 80 80 80zM112 176c0 8.8-7.2 16-16 16s-16-7.2-16-16c0-61.9 50.1-112 112-112c8.8 0 16 7.2 16 16s-7.2 16-16 16c-44.2 0-80 35.8-80 80z"/></svg>
<svg id="minus" viewBox="0 0 448 512"><path d="M432 256c0 17.7-14.3 32-32 32L48 288c-17.7 0-32-14.3-32-32s14.3-32 32-32l352 0c17.7 0 32 14.3 32 32z"/></svg>
<svg id="plus" viewBox="0 0 448 512"><path d="M256 80c0-17.7-14.3-32-32-32s-32 14.3-32 32V224H48c-17.7 0-32 14.3-32 32s14.3 32 32 32H192V432c0 17.7 14.3 32 32 32s32-14.3 32-32V288H400c17.7 0 32-14.3 32-32s-14.3-32-32-32H256V80z"/></svg>
<svg id="scroll" viewBox="0 0 576 512"><path d="M0 80v48c0 17.7 14.3 32 32 32H48 96V80c0-26.5-21.5-48-48-48S0 53.5 0 80zM112 32c10 13.4 16 30 16 48V384c0 35.3 28.7 64 64 64s64-28.7 64-64v-5.3c0-32.4 26.3-58.7 58.7-58.7H480V128c0-53-43-96-96-96H112zM464 480c61.9 0 112-50.1 112-112c0-8.8-7.2-16-16-16H314.7c-14.7 0-26.7 11.9-26.7 26.7V384c0 53-43 96-96 96H368h96z"/></svg>
<svg id="shuffle" viewBox="0 0 512 512"><path d="M403.8 34.4c12-5 25.7-2.2 34.9 6.9l64 64c6 6 9.4 14.1 9.4 22.6s-3.4 16.6-9.4 22.6l-64 64c-9.2 9.2-22.9 11.9-34.9 6.9s-19.8-16.6-19.8-29.6V160H352c-10.1 0-19.6 4.7-25.6 12.8L284 229.3 244 176l31.2-41.6C293.3 110.2 321.8 96 352 96h32V64c0-12.9 7.8-24.6 19.8-29.6zM164 282.7L204 336l-31.2 41.6C154.7 401.8 126.2 416 96 416H32c-17.7 0-32-14.3-32-32s14.3-32 32-32H96c10.1 0 19.6-4.7 25.6-12.8L164 282.7zm274.6 188c-9.2 9.2-22.9 11.9-34.9 6.9s-19.8-16.6-19.8-29.6V416H352c-30.2 0-58.7-14.2-76.8-38.4L121.6 172.8c-6-8.1-15.5-12.8-25.6-12.8H32c-17.7 0-32-14.3-32-32s14.3-32 32-32H96c30.2 0 58.7 14.2 76.8 38.4L326.4 339.2c6 8.1 15.5 12.8 25.6 12.8h32V320c0-12.9 7.8-24.6 19.8-29.6s25.7-2.2 34.9 6.9l64 64c6 6 9.4 14.1 9.4 22.6s-3.4 16.6-9.4 22.6l-64 64z"/></svg>
<svg id="xmark" viewBox="0 0 320 512"><path d="M310.6 150.6c12.5-12.5 12.5-32.8 0-45.3s-32.8-12.5-45.3 0L160 210.7 54.6 105.4c-12.5-12.5-32.8-12.5-45.3 0s-12.5 32.8 0 45.3L114.7 256 9.4 361.4c-12.5 12.5-12.5 32.8 0 45.3s32.8 12.5 45.3 0L160 301.3 265.4 406.6c12.5 12.5 32.8 12.5 45.3 0s12.5-32.8 0-45.3L205.3 256 310.6 150.6z"/></svg>
<svg id="magnifying-glass" viewBox="0 0 512 512"><path d="M416 208c0 45.9-14.9 88.3-40 122.7L502.6 457.4c12.5 12.5 12.5 32.8 0 45.3s-32.8 12.5-45.3 0L330.7 376c-34.4 25.2-76.8 40-122.7 40C93.1 416 0 322.9 0 208S93.1 0 208 0S416 93.1 416 208zM208 352c79.5 0 144-64.5 144-144s-64.5-144-144-144S64 128.5 64 208s64.5 144 144 144z"/></svg>
</svg>
