<svg xmlns="http://www.w3.org/2000/svg" version="1.1" viewBox="194 97 1960 1960">
<path id="unicode" d="m 376,98 c -33.33,0 -63.67,8 -91,24 -27.33,16 -49,37.7 -65,65 -16,27.3 -24,57.7 -24,91 v 1599 c 0,33.3 8,63.7 24,91 16,27.3 37.67,49 65,65 27.33,16 57.67,24 91,24 h 1599 c 33.3,0 63.7,-8 91,-24 27.3,-16 49,-37.7 65,-65 16,-27.3 24,-57.7 24,-91 v -1599 c 0,-33.3 -8,-63.7 -24,-91 -16,-27.3 -37.7,-49 -65,-65 -27.3,-16 -57.7,-24 -91,-24 z m 377.05,24 h 37 v 116 l 4,10 9,4 10,-4 4,-10 v -116 h 36 v 116 c 0,23.33 -10.67,35 -32,35 h -35 c -22,0 -33,-11 -33,-33 z m 137,0 h 11 l 85,78 v -78 h 20.95 v 151 h -9.95 l -86,-78 v 78 h -21 z m 152.65,0 h 34 v 151 h -34 z m 101.5,0 h 32 c 21.3,0 32.8,12.67 34,38 h -20 c -0.7,-10.67 -5.2,-16 -14,-16 h -15 l -10,4 -5,10 v 80 l 5,10 10,4 h 15 c 8.8,0 13.3,-5.33 14,-16 h 20 c -0.7,24.67 -12,37 -34,37 h -32 c -22.6,0 -34,-11.67 -34,-35 v -81 c 0,-23.33 11.4,-35 34,-35 z m 229.8,0 h 68 c 21.4,0 32,11.67 32,35 v 81 c 0,23.33 -10.6,35 -32,35 h -68 z m 138,0 h 83 v 22 h -47 v 43 h 31 v 21 h -31 v 44 h 47 v 21 h -83 z m -238.8,1 h 35 c 21.3,0 32,11.33 32,34 v 81 c 0,23.33 -10.7,35 -32,35 h -35 c -22,0 -33,-11 -33,-33 v -84 c 0,-22 11,-33 33,-33 z m 144.4,20.57 c -3.9,0.1 -7.6,0.43 -7.6,0.43 v 108 h 14 l 10,-4 4,-10 v -80 l -5,-10 c 0,0 -5.8,-3.32 -9,-4 -1.7,-0.36 -4.1,-0.45 -6.4,-0.43 z m -127.4,0.43 -9,4 -4,10 v 80 l 4,10 9,4 10,-4 4,-10 v -80 l -4,-10 z m -755.2,150 h 1280 c 26.7,0 50.8,6.5 72.5,19.5 21.7,13 39,30.3 52,52 13,21.7 19.5,45.8 19.5,72.5 v 1279 c 0,26.7 -6.5,50.8 -19.5,72.5 -13,21.7 -30.3,39 -52,52 -21.7,13 -45.8,19.5 -72.5,19.5 h -1280 c -26.67,0 -50.83,-6.5 -72.5,-19.5 -21.67,-13 -39,-30.3 -52,-52 -13,-21.7 -19.5,-45.8 -19.5,-72.5 v -1279 c 0,-26.7 6.5,-50.8 19.5,-72.5 13,-21.7 30.33,-39 52,-52 21.67,-13 45.83,-19.5 72.5,-19.5 z m 154.56,198.91 c -4.87,0 -8.16,3.69 -8.16,8.21 v 968.78 c 0,4.6 3.29,8.3 8.16,8.3 h 968.74 c 5,0 8.3,-3.7 8.3,-8.3 v -968.78 c 0,-4.52 -3.3,-8.21 -8.3,-8.21 z m 1373.44,15.09 h 18 v 154 h -35 v -116 h -15 v -21 z m -1789,192 h 39 c 24,0 36,12 36,36 v 84 c 0,24 -12,36 -36,36 h -39 c -24,0 -36,-11.33 -36,-34 v -88 c 0,-22.67 12,-34 36,-34 z m 1763,0 h 39 c 24,0 36,12 36,36 v 84 c 0,24 -12,36 -36,36 h -39 c -24,0 -36,-11.33 -36,-34 v -88 c 0,-22.67 12,-34 36,-34 z m -547.7,9.27 a 53.854,53.854 0 0 1 54,53.77 53.854,53.854 0 0 1 -54,53.92 53.854,53.854 0 0 1 -53.5,-53.92 53.854,53.854 0 0 1 53.5,-53.77 z m -1195.3,12.73 -11,4 -4,11 v 83 l 4,10 11,4 10,-4 5,-10 v -83 l -5,-11 z m 1762,0 -10,4 -5,11 v 83 l 5,10 10,4 11,-4 4,-10 v -83 l -4,-11 z m -1244.88,19.3 h 81.19 c 4.2,0 6.6,2.01 6.6,6.15 v 307.55 c 0,37.5 9,67.4 27.2,89.7 18,22.4 45.9,33.6 83.59,33.6 15.6,0 29.7,-2 42.8,-6.2 13.2,-4.2 24.6,-11.1 34.5,-20.7 9,-9.7 16.4,-22.4 22.1,-38.3 5.8,-15.8 8.2,-35.6 8.2,-59.7 v -305.09 -1.43 c 0,-3.72 1.7,-5.43 5.7,-5.43 h 0.9 82.1 27.1 c 3.3,0 4.9,0 5.8,1.14 1.5,0.86 2.4,2.15 3.2,4.29 9.9,17.16 20.5,37.18 33.6,60.07 12.3,22.88 25.5,46.76 39.5,71.79 13,24.88 27.1,50.19 40.2,75.65 14,25.42 27,49.61 39.3,72.21 11.6,22.7 22.2,42.9 31.4,60.5 9,17.7 15.5,31.6 20.4,41.4 h 0.9 v -17.6 c -0.9,-6.4 -0.9,-14.3 -0.9,-23.4 -0.9,-9 -0.9,-20.2 -0.9,-33.2 -0.7,-12.9 -0.7,-28.5 -0.7,-46.8 v -131.91 c 0,-4.15 2.5,-6.15 7.3,-6.15 h 74.8 c 4.9,0 7.3,2.29 7.3,7.01 v 370.75 c 0,4.7 -3.3,7 -8.1,7 h -99.4 c -4,0 -7.3,-2 -9.9,-5.5 -6.4,-13.1 -15.6,-30.5 -27.9,-52.2 -11.4,-21.9 -24.6,-45.8 -38.6,-71.8 -14.7,-26.1 -28.6,-53.1 -44.3,-81.1 -14.8,-28.2 -29.5,-55.19 -42.6,-80.91 -14.1,-25.75 -25.5,-49.34 -36.2,-70.65 -6.6,-11.87 -11.5,-22.31 -15.6,-31.46 v 197.72 c 0,36.5 -4.9,67.5 -15.6,93.3 -10.6,25.7 -25.5,46.7 -43.5,63.2 -18,16.3 -40.2,28.3 -65.6,35.9 -24.6,7.5 -51.8,11.3 -80.5,11.3 -30.39,0 -58.19,-4.2 -83.69,-12.5 -24.7,-8.3 -46.1,-20.6 -64.1,-37 -17.3,-16.5 -31.15,-37.1 -40.16,-62.1 -9.01,-24.9 -14.01,-54.3 -14.01,-88.1 v -313.83 c 0,-4.72 1.71,-7 6.58,-7 z m -537.12,156.7 h 39 c 24,0 36,12 36,36 v 84 c 0,24 -12,36 -36,36 h -39 c -24,0 -36,-11.3 -36,-34 v -88 c 0,-22.67 12,-34 36,-34 z m 1740,2 h 84 v 22 h -48 v 45 h 32 v 21 h -32 v 67 h -36 z m -1720,20 -11,4 -4,10 v 84 l 4,10 11,4 10,-4 5,-10 v -84 l -5,-10 z m -20,176 h 39 c 24,0 36,12 36,36 v 85 c 0,24 -12,36 -36,36 h -39 c -24,0 -36,-11.7 -36,-35 v -87 c 0,-23.3 12,-35 36,-35 z m 1740,0 h 84 v 21 h -48 v 45 h 32 v 22 h -32 v 66 h -36 z m -1720,22 -11,4 -4,11 v 83 l 4,10 11,5 10,-5 5,-10 v -83 l -5,-11 z m 1720,173 h 84 v 21 h -48 v 45 h 32 v 22 h -32 v 66 h -36 z m -1740,3 h 39 c 24,0 36,12 36,36 v 84 c 0,24 -12,36 -36,36 h -39 c -24,0 -36,-11.3 -36,-34 v -88 c 0,-22.7 12,-34 36,-34 z m 20,22 -11,4 -4,10 v 83 l 4,11 11,4 10,-4 5,-11 v -83 l -5,-10 z m 1718.4,163.2 h 84 v 21 h -48 v 45 h 32 v 22 h -32 v 66 h -36 z m -853.2,26 c -46.8,0 -79.7,31.9 -79.7,78 0,45.2 29.6,77.9 74.8,77.9 v -0.9 c 22.9,0 42.7,-6.4 55.8,-23.7 l -14,-14.7 c -1.6,-1.7 -3.3,-2.6 -4.9,-2.6 -1.7,0 -2.4,0 -3.3,0.9 -1.7,0.8 -5.7,5 -9,6.5 -7.4,5 -14.8,5 -23,5 -24.6,0 -40.2,-21.4 -40.2,-48.4 0,-28.8 17.2,-48.5 43.5,-48.5 5.7,0 12.3,0.8 17.3,2.4 2.4,0.9 11.4,6.6 12.3,7.4 1.6,0.9 2.4,0.9 4,0.9 3.3,0 5,-1.7 6.6,-4.1 l 12.3,-15.6 c -13.2,-14 -33.6,-20.5 -52.5,-20.5 z m 142,0 c -46.8,0 -78.8,32.8 -78.8,78 0,45.2 32.9,77 78.8,77 46.8,0 79.7,-32.7 79.7,-77 0,-46.1 -33.6,-78 -79.7,-78 z m -619.81,1.6 v 90.2 c 0,38.6 26.32,63.2 65.65,63.2 39.47,0 65.64,-25.3 65.64,-63.2 v -90.2 h -35.18 v 90.2 c 0,20.6 -11.59,33.8 -30.46,33.8 -19.74,0 -30.32,-14 -30.32,-33.8 v -90.2 z m 162.61,0 v 151.9 h 35.21 v -78.8 c 0,-3.3 -0.71,-13.2 -0.71,-15.6 l 67.21,88.6 c 4.1,4.9 8.29,5.8 12.4,5.8 h 22.9 v -151.9 h -35.3 v 77.9 c 0,3.3 0,13.2 0.79,16.5 l -68,-89.5 c -1.79,-1.6 -4.2,-3.3 -5,-4.1 -2.5,-0.8 -5.79,-0.8 -7.29,-0.8 z m 173.2,0 v 151.9 h 36 v -151.9 z m 387.4,0 v 151.9 h 59.2 c 46.8,0 79.5,-31.2 79.5,-75.5 0,-45.2 -33.6,-76.4 -79.5,-76.4 z m 163.5,0 v 151.9 h 98.5 v -27.1 h -62.5 v -36.1 h 55.9 v -26.4 h -55.9 v -35.3 h 62.5 v -27 z m -266.9,27 c 29.6,0 43.5,20.6 43.5,49.4 -0.7,28.7 -14.7,48.4 -43.5,48.4 -27.9,0 -42.6,-19.7 -42.6,-48.4 0,-29.6 13.9,-48.5 42.6,-49.4 z m 139.6,0 h 23 c 27.9,0 42.6,19.8 42.6,49.4 0,29.6 -14.7,48.4 -42.6,48.4 h -23 z" />
</svg>
