<svg id="icon" xmlns="http://www.w3.org/2000/svg" version="1.1" viewBox="0 0 240 240"><path class="icon-bg" d="M120,0 240,120 120,240, 0,120"/><path fill="#fff" class="icon-fg" d="m 134.3354,141.96609 -28.96113,0 0,-3.93101 c 0,-4.38557 0.88244,-8.26309 2.64741,-11.63259 1.76492,-3.42286 5.48199,-7.75499 11.15124,-12.9964 l 5.13438,-4.65304 c 3.04849,-2.78104 5.26804,-5.40172 6.65866,-7.86202 1.44399,-2.46014 2.16601,-4.92036 2.16606,-7.38068 -5e-5,-3.74372 -1.28365,-6.65855 -3.85078,-8.74449 -2.56724,-2.13923 -6.15061,-3.20889 -10.75012,-3.20899 -4.33217,1e-4 -9.01194,0.90931 -14.03932,2.72764 -5.027442,1.76504 -10.268786,4.41245 -15.724051,7.94225 l 0,-25.19057 c 6.471444,-2.24617 12.381331,-3.90415 17.729661,-4.97393 5.34829,-1.06954 10.5094,-1.60437 15.48338,-1.60449 13.04983,1.2e-4 22.99769,2.67427 29.8436,8.02247 6.84576,5.29494 10.26868,13.04999 10.26876,23.26517 -8e-5,5.24144 -1.043,9.94795 -3.12876,14.11955 -2.08592,4.11828 -5.64255,8.55738 -10.66989,13.31731 l -5.13438,4.57281 c -3.63692,3.31601 -6.01692,5.99016 -7.14,8.02247 -1.12321,1.97893 -1.68478,4.17173 -1.68472,6.57843 l 0,3.61011 m -28.96,11.87 28.96,0 0,28.56 -28.96,0 0,-28.56"/></svg>
